<svg width="123" height="149" viewBox="0 0 123 149" fill="none" xmlns="http://www.w3.org/2000/svg">
<rect x="0.5" y="27.5" width="121" height="121" rx="60.5" stroke="black" stroke-opacity="0.05"/>
<mask id="mask0_3347_108389" style="mask-type:luminance" maskUnits="userSpaceOnUse" x="-1" y="-4" width="124" height="153">
<path d="M120 100.001C118.5 102.001 116 129.001 84 143.499C81 144.499 76 147.999 60.9997 148C45.9657 148.001 32.5703 142.919 20.9994 133.001C13.9994 127.001 5.99941 117.001 2.99948 102.5C-8.50038 68.4989 10.9998 63.9994 13.4999 62.4994C13.4999 32.676 32 -4.50058 49 -2.99999C107.5 -5.00058 110 12.5 121.5 48.0002C126 60.5002 110.5 89.5007 120 100.001Z" fill="white"/>
</mask>
<g mask="url(#mask0_3347_108389)">
<g clip-path="url(#clip0_3347_108389)">
<path d="M96.371 67.372C97.4692 68.5544 98.6652 69.6394 99.8664 70.7047C101.636 72.2071 103.553 74.1019 103.421 76.5989C103.38 78.1804 102.946 79.727 102.158 81.1004C101.777 81.798 101.203 82.3718 100.504 82.7537L100.52 82.7817C101.294 82.4844 101.951 81.9451 102.391 81.2446C103.703 79.249 104.357 76.4188 103.188 74.2117C102.328 72.8222 101.166 71.6886 100.068 70.4981C98.9148 69.3691 97.6908 68.3146 96.4031 67.3412L96.3718 67.3591L96.371 67.372Z" fill="black"/>
<path d="M88.8787 64.8715C91.3526 68.3585 96.1468 66.4227 99.4175 65.3646C101.529 64.6975 104.08 63.6619 105.85 65.467C107.5 67.0794 108.235 69.6017 108.268 71.8927C108.258 73.0799 108.048 74.3529 107.195 75.2528C108.237 74.5062 108.647 73.1475 108.798 71.9246C109.028 69.3672 108.389 66.6605 106.563 64.7347C101.872 59.9935 93.8161 69.7658 88.8787 64.8715Z" fill="black"/>
<path d="M98.8883 43.7739C98.8484 50.4311 92.01 53.1573 90.2756 55.7604C88.5413 58.3635 86.6824 64.2764 90.7536 66.6819C94.8247 69.0873 100.579 63.0686 106.009 67.8876C108.565 70.1542 108.884 72.9567 105.541 76.4488C108.878 69.975 102.211 69.2357 99.171 69.7346C101.594 72.492 102.814 76.7685 100.681 81.7232C99.3329 84.8593 100.113 89.9022 100.113 89.9022C100.113 89.9022 79.0738 75.7247 78.2234 69.9469C77.373 64.1691 74.3066 47.1973 77.946 40.2969C81.5853 33.3964 76.4001 27.9932 86.916 30.0833C97.432 32.1734 98.8883 43.7739 98.8883 43.7739Z" fill="url(#paint0_linear_3347_108389)"/>
<path d="M81.5368 29.6556C80.9819 29.8251 80.5747 30.0976 80.276 30.4643C79.9794 30.8283 79.7984 31.2742 79.6766 31.7769C79.555 32.2787 79.4896 32.8485 79.4309 33.4654C79.3718 34.0858 79.3194 34.7554 79.2249 35.4733C79.0366 36.9051 78.6826 38.514 77.7861 40.2138C76.8595 41.9707 76.3659 44.3539 76.1542 47.0148C75.9422 49.6788 76.0115 52.6375 76.2208 55.5562C76.6394 61.3926 77.6204 67.0901 78.0448 69.9736C78.1573 70.7372 78.598 71.6183 79.2598 72.5663C79.9242 73.518 80.8232 74.5539 81.8729 75.6285C83.9726 77.778 86.6889 80.0973 89.3742 82.2324C92.0604 84.3682 94.7195 86.3229 96.7068 87.7434C97.7004 88.4537 98.5266 89.0305 99.1042 89.4299C99.3929 89.6296 99.6196 89.785 99.7741 89.8905C99.8514 89.9432 99.9106 89.9833 99.9506 90.0104C99.9705 90.0239 99.9857 90.0342 99.9959 90.0411C100.001 90.0446 100.005 90.0474 100.007 90.0491C100.009 90.05 100.01 90.0505 100.011 90.051L100.011 90.0514L100.112 89.9027L100.011 90.0517L100.354 90.2823L100.291 89.8754L100.291 89.8746C100.291 89.8741 100.29 89.8732 100.29 89.8721C100.29 89.8699 100.289 89.8665 100.289 89.862C100.287 89.8527 100.285 89.8386 100.282 89.8202C100.277 89.7832 100.27 89.7281 100.261 89.657C100.242 89.5145 100.217 89.307 100.191 89.0481C100.139 88.53 100.084 87.8068 100.071 86.9865C100.046 85.3912 100.179 83.4519 100.786 81.9395L100.846 81.7945C102.944 76.9206 101.842 72.6791 99.519 69.8668C100.211 69.7804 101.05 69.7572 101.9 69.8423C102.886 69.9412 103.872 70.1847 104.657 70.6335C105.438 71.0802 106.014 71.7253 106.204 72.6355C106.396 73.552 106.204 74.7689 105.38 76.3674L104.811 77.472L105.671 76.5736C107.358 74.8112 108.148 73.1961 108.167 71.7117C108.187 70.2219 107.431 68.9086 106.129 67.754L105.998 67.6402C103.255 65.2941 100.431 65.6095 97.8307 66.2051C96.5016 66.5096 95.253 66.8804 94.0681 67.0296C92.8915 67.1777 91.8146 67.1007 90.8451 66.5279C88.8912 65.3734 88.3476 63.3764 88.517 61.3104C88.6868 59.2411 89.5725 57.1408 90.4256 55.8604C90.8419 55.2356 91.5728 54.5934 92.4616 53.8651C93.3427 53.1431 94.3695 52.3436 95.3416 51.418C97.2891 49.5635 99.048 47.1742 99.0684 43.7756L99.0682 43.7639L99.0667 43.7522L98.8879 43.7746L99.0669 43.7518L99.0667 43.7515C99.0666 43.751 99.0665 43.7503 99.0664 43.7496C99.0662 43.748 99.0659 43.7454 99.0655 43.7424C99.0647 43.7364 99.0635 43.7278 99.062 43.7165C99.0588 43.6937 99.054 43.66 99.0473 43.6164C99.0338 43.5292 99.0126 43.4014 98.9821 43.2387C98.921 42.9135 98.8219 42.4478 98.6702 41.8829C98.3668 40.7533 97.8517 39.2246 97.0046 37.6291C95.3098 34.4372 92.2786 30.9668 86.9509 29.9078C84.3201 29.385 82.6331 29.321 81.5368 29.6556ZM80.5559 30.6909C80.8044 30.3859 81.1477 30.1507 81.6423 29.9997C82.645 29.6935 84.2533 29.738 86.8803 30.2601C92.0685 31.2913 95.0236 34.6663 96.686 37.7972C97.5173 39.3629 98.0236 40.8649 98.3219 41.9756C98.471 42.5308 98.5679 42.9878 98.6276 43.3051C98.6573 43.4636 98.6778 43.5873 98.6908 43.671C98.6972 43.7127 98.7019 43.7446 98.7048 43.7657C98.7059 43.7735 98.7067 43.7801 98.7074 43.7849C98.684 47.0374 97.0055 49.3367 95.0925 51.1582C94.1333 52.0717 93.1228 52.858 92.2327 53.5873C91.3503 54.3103 90.5761 54.9849 90.1252 55.6617C89.244 56.9844 88.3328 59.1421 88.1574 61.2813C87.9817 63.4237 88.5441 65.5861 90.6611 66.837C91.7272 67.4669 92.8965 67.5395 94.1134 67.3863C95.322 67.2341 96.6148 66.8526 97.9118 66.5555C100.523 65.9573 103.242 65.6732 105.889 68.0222L105.889 68.0225C107.143 69.1344 107.824 70.3556 107.807 71.7067C107.792 72.8264 107.297 74.0656 106.193 75.437C106.626 74.2988 106.722 73.3496 106.557 72.5623C106.341 71.5289 105.685 70.8067 104.837 70.3217C103.992 69.8388 102.951 69.5865 101.936 69.4847C100.92 69.3828 99.9168 69.4305 99.1412 69.5578L98.8214 69.6104L99.0349 69.8536C101.414 72.5608 102.619 76.7641 100.515 81.6529L100.452 81.8049C99.8165 83.3867 99.6848 85.3855 99.7106 86.9924C99.724 87.8248 99.7799 88.5583 99.8323 89.0837C99.8494 89.2548 99.8666 89.4039 99.8814 89.5273C99.735 89.4271 99.5424 89.2957 99.3096 89.1347C98.7333 88.7363 97.9088 88.1604 96.9168 87.4513C94.9327 86.033 92.279 84.082 89.5991 81.9513C86.9185 79.8198 84.2155 77.5114 82.1312 75.3776C81.0889 74.3106 80.2046 73.2905 79.5557 72.361C78.9043 71.4279 78.5017 70.6021 78.4015 69.9214C77.9755 67.027 76.9979 61.3496 76.5806 55.5306C76.372 52.6216 76.3038 49.6824 76.5138 47.0431C76.7241 44.4004 77.2122 42.0743 78.1053 40.3811C79.0284 38.6308 79.3908 36.9765 79.5824 35.5198C79.678 34.7935 79.7314 34.1124 79.7897 33.4994C79.8485 32.8826 79.9122 32.3357 80.0272 31.8614C80.1419 31.3881 80.3053 30.9985 80.5559 30.6909Z" fill="black"/>
<path d="M56.277 16.627C48.8366 14.8926 41.1894 17.8751 37.0468 26.6356C32.9041 35.3961 33.1408 47.6585 34.1774 57.306C34.6968 62.1208 33.2933 69.3275 31.1679 73.1707C29.9522 75.3895 25.2314 78.3032 20.6173 81.8274C12.909 87.7102 13.5766 90.5327 17.8559 92.9889C12.78 89.8947 18.1306 85.7077 23.6178 85.8667C19.8965 88.4148 15.0609 95.8807 17.3169 99.0407C19.5729 102.201 23.1976 103.133 23.1976 103.133C23.1976 103.133 15.8444 98.2263 20.7164 94.3344C24.5864 91.5394 24.4225 92.1061 24.4225 92.1061C24.4225 92.1061 21.4216 96.1983 22.5129 99.3584C23.7241 102.856 25.9146 104.043 25.9146 104.043L53.9515 72.1464C53.9515 72.1464 62.7542 18.1341 56.277 16.627Z" fill="url(#paint1_linear_3347_108389)"/>
<path d="M45.3461 17.5343C41.945 19.1782 38.9698 22.1465 36.8832 26.5592C32.8475 35.0936 32.9499 46.9104 33.9028 56.4133L33.9976 57.3251L33.9977 57.3254C34.2549 59.7098 34.0362 62.6965 33.4867 65.5691C32.9543 68.3529 32.1143 71.0138 31.1074 72.9039L31.0096 73.0843L31.0091 73.0849C30.7189 73.6146 30.2122 74.1974 29.5316 74.833C28.8526 75.4669 28.01 76.1448 27.0573 76.8665C26.1048 77.5882 25.0461 78.3507 23.9349 79.1546C22.8245 79.9581 21.6626 80.8024 20.5071 81.685L20.151 81.9592C18.3998 83.3202 17.0994 84.5196 16.1935 85.5923C15.2283 86.7351 14.7003 87.7467 14.5625 88.6669C14.2893 90.4916 15.5563 91.845 17.6076 93.0523C17.1408 94.0533 16.8 95.0506 16.6478 95.9786C16.4496 97.1869 16.5673 98.3013 17.1697 99.1452C18.319 100.755 19.8145 101.794 21.0184 102.431C21.6209 102.749 22.1521 102.968 22.5335 103.107C22.7242 103.177 22.8776 103.226 22.9839 103.259C23.0371 103.275 23.0786 103.287 23.107 103.295C23.1212 103.299 23.1321 103.302 23.1396 103.304C23.1434 103.305 23.1465 103.306 23.1486 103.306L23.1519 103.307L24.1772 103.571L23.2972 102.984L23.2966 102.983C23.2958 102.983 23.2944 102.982 23.2928 102.981C23.2896 102.979 23.2846 102.975 23.278 102.971C23.2648 102.962 23.2449 102.948 23.2191 102.93C23.1677 102.894 23.0926 102.84 22.9982 102.771C22.8094 102.631 22.5443 102.426 22.2413 102.169C21.6341 101.653 20.8788 100.929 20.276 100.089C19.6716 99.2465 19.2326 98.3049 19.2286 97.3506C19.2246 96.4078 19.6453 95.4211 20.8261 94.4769C22.6547 93.1564 23.5712 92.5966 24.0248 92.371C23.9634 92.4654 23.8928 92.5761 23.8162 92.7016C23.5488 93.1397 23.2037 93.7576 22.8926 94.4762C22.2938 95.8597 21.8048 97.6547 22.2916 99.262L22.342 99.417L22.3419 99.4174C22.9567 101.193 23.8217 102.385 24.5368 103.136C24.8941 103.511 25.2137 103.776 25.4455 103.947C25.5613 104.033 25.6553 104.095 25.7211 104.137C25.754 104.158 25.7801 104.173 25.7982 104.184C25.8071 104.189 25.8142 104.193 25.8192 104.196C25.8217 104.197 25.8238 104.198 25.8253 104.199C25.826 104.199 25.8266 104.2 25.827 104.2L25.8277 104.2L25.8279 104.201L25.9548 104.269L26.0496 104.161L54.0868 72.265L54.1205 72.2263L54.1289 72.1753L53.951 72.1465L54.129 72.1748C54.1291 72.1744 54.1294 72.1737 54.1295 72.1729C54.1298 72.1713 54.13 72.1688 54.1305 72.1655C54.1316 72.1589 54.1333 72.149 54.1354 72.136C54.1396 72.1099 54.1459 72.071 54.1542 72.0199C54.1706 71.9175 54.1948 71.7656 54.2263 71.5676C54.2892 71.1714 54.3807 70.5903 54.4947 69.8502C54.7228 68.3698 55.0416 66.2531 55.4037 63.7087C56.128 58.6202 57.0261 51.819 57.7219 44.9702C58.4176 38.1227 58.9119 31.2215 58.8262 25.9351C58.7833 23.2934 58.5953 21.0447 58.2117 19.4048C58.0201 18.5853 57.7772 17.9071 57.4719 17.4058C57.1666 16.9045 56.787 16.5616 56.3176 16.4523L55.9651 16.3737C52.3232 15.5976 48.6404 15.942 45.3461 17.5343ZM37.2092 26.7125C39.2652 22.3647 42.1852 19.4614 45.5034 17.8576C48.7185 16.3036 52.3187 15.9639 55.8899 16.725L56.2355 16.8022C56.5756 16.8814 56.8862 17.137 57.1635 17.5923C57.4408 18.0477 57.6731 18.6846 57.8606 19.4862C58.2354 21.0885 58.4227 23.3069 58.4654 25.9407C58.5508 31.2054 58.0588 38.0899 57.3634 44.9339C56.6683 51.7764 55.7706 58.5724 55.0468 63.6582C54.6849 66.2009 54.3664 68.3161 54.1384 69.7953C54.0245 70.5349 53.9329 71.1157 53.8701 71.5114C53.8386 71.7093 53.8145 71.8611 53.7981 71.9633C53.7911 72.0069 53.7855 72.0415 53.7814 72.0668L25.879 103.81C25.8229 103.773 25.7487 103.724 25.6605 103.659C25.4437 103.498 25.1399 103.247 24.7982 102.889C24.1153 102.172 23.2793 101.022 22.6829 99.3001L22.6367 99.1573C22.1886 97.6764 22.633 95.9826 23.2234 94.6186C23.5262 93.9192 23.8631 93.3165 24.1243 92.8886C24.2548 92.6748 24.366 92.5048 24.4445 92.3888C24.4837 92.3308 24.5149 92.2864 24.536 92.2565C24.5465 92.2416 24.5547 92.2303 24.56 92.2229C24.5627 92.2192 24.5646 92.2165 24.5659 92.2147C24.5665 92.2138 24.5669 92.2131 24.5672 92.2127L24.5678 92.2124L24.5863 92.1868L24.5954 92.1561L24.4221 92.1064L24.5953 92.1553L24.5972 92.1486C24.5979 92.1457 24.5986 92.1423 24.5993 92.1389C24.6006 92.132 24.602 92.1235 24.6027 92.1138C24.6041 92.095 24.6036 92.067 24.5938 92.0351C24.5694 91.9555 24.5037 91.9023 24.4243 91.8856C24.36 91.8722 24.2905 91.8825 24.2224 91.901C24.1502 91.9207 24.0593 91.9555 23.9435 92.0099C23.5412 92.1986 22.7722 92.6557 21.29 93.7032L20.61 94.189L20.6033 94.1944C19.3501 95.1956 18.8634 96.2809 18.8679 97.3521C18.8723 98.4123 19.3579 99.4272 19.9828 100.298C20.6092 101.171 21.3882 101.917 22.0074 102.442C22.0628 102.489 22.1173 102.534 22.1699 102.578C21.8807 102.456 21.5469 102.304 21.1871 102.113C20.0148 101.494 18.5701 100.487 17.4634 98.9367C16.9379 98.2006 16.8135 97.1964 17.0038 96.0365C17.1937 94.8786 17.6937 93.5889 18.3839 92.3095C19.7659 89.7483 21.8878 87.2691 23.7193 86.015L24.1748 85.7033L23.6225 85.6875C20.8411 85.6069 18.0785 86.625 16.6464 88.0825C15.928 88.8136 15.5264 89.6758 15.6643 90.5758C15.7048 90.8399 15.7915 91.1024 15.926 91.3616C15.1352 90.5663 14.7709 89.7107 14.9193 88.7199C15.0432 87.8922 15.5256 86.9412 16.4695 85.8235C17.3534 84.777 18.6324 83.5951 20.3724 82.2429L20.7265 81.9703C21.8779 81.0908 23.0364 80.2492 24.1468 79.4458C25.2565 78.6429 26.3192 77.8774 27.2757 77.1527C28.2319 76.4283 29.0859 75.7414 29.7782 75.0949C30.4687 74.4501 31.0082 73.8365 31.3257 73.2569L31.3256 73.2566C32.4005 71.3126 33.2874 68.5306 33.8409 65.6366C34.3947 62.7415 34.6184 59.7174 34.3563 57.2871L34.2613 56.3754C33.3094 46.8811 33.2186 35.1516 37.2092 26.7125ZM16.9039 88.3337C18.1594 87.056 20.5549 86.1038 23.0672 86.0451C21.2926 87.4092 19.359 89.744 18.0666 92.1392C17.9625 92.3321 17.8628 92.5261 17.7672 92.7198C16.6488 91.995 16.1303 91.2356 16.0208 90.5212C15.9059 89.771 16.2333 89.0161 16.9039 88.3337Z" fill="black"/>
<path d="M24.1787 92.4983C28.1389 86.9108 33.1694 84.541 37.3976 79.3099C45.2549 69.5974 46.7046 54.6558 46.7046 54.6558C46.7046 54.6558 45.7453 71.9036 44.1729 83.2874L25.9458 104.053C25.9458 104.053 23.7481 102.854 22.544 99.369C21.6498 96.7884 23.468 93.6023 24.1787 92.4983Z" fill="#5C2F32"/>
<path d="M34.6746 48.471C33.7443 52.9435 30.821 63.327 27.1355 65.4398C23.4501 67.5526 19.2405 64.5755 11.934 67.8313C7.66294 69.7366 6.69807 73.8392 9.92607 76.5497C8.29379 72.5097 9.90979 70.754 13.3953 69.5851C14.6104 69.2422 15.8773 69.1184 17.1361 69.2193C17.1361 69.2193 10.535 70.3956 12.8239 75.0833C12.7312 72.039 14.7787 70.2308 19.3038 71.1736C23.5553 72.0534 24.3795 75.1759 28.6323 74.8899C36.1303 74.3812 38.4142 66.9268 38.9662 64.8771C40.1614 60.4601 41.3444 51.6962 41.3444 51.6962" fill="url(#paint2_linear_3347_108389)"/>
<path d="M34.6593 48.4673C33.8347 52.1621 32.6858 55.7775 31.226 59.2717C30.2573 61.3778 29.2581 63.6258 27.4051 65.0862C26.2539 65.8955 24.8192 66.1126 23.4273 66.1227C21.534 66.1217 19.6155 65.9403 17.7197 66.144C15.8133 66.3418 13.9501 66.8376 12.1986 67.6132C8.21634 69.154 6.2159 73.5309 9.89621 76.6L10.063 76.7449C9.64094 75.689 9.27725 74.554 9.38271 73.403C9.66885 70.1789 14.443 69.0301 17.1368 69.3226L17.1291 69.1073C14.1062 69.6792 10.9667 71.7361 12.7055 75.1388L13.0227 75.8111C12.946 74.6111 12.999 73.2828 13.7944 72.3542C15.6531 70.2188 19.8318 71.1238 22.0073 72.3852C24.296 73.8139 25.9967 75.4347 28.9476 75.0408C34.9997 74.5857 38.3864 68.9704 39.4338 63.5475C40.2784 59.6237 40.9176 55.6588 41.3488 51.6688C40.7212 55.6278 40.09 59.5805 39.1908 63.4795C37.9996 69.3455 34.0825 75.1156 27.4396 74.6696C25.3876 74.5233 23.8984 73.0384 22.1848 72.0512C19.862 70.7291 15.4981 69.835 13.5263 72.1347C12.8986 72.9792 12.5988 74.0216 12.682 75.0693L12.9766 74.9958C11.1389 71.3928 14.9813 69.617 17.9678 69.1406C16.0812 68.9782 14.1 69.0484 12.3534 69.8714C11.3545 70.303 10.361 70.8809 9.76336 71.8206C8.84109 73.2574 9.29215 75.0845 9.88846 76.5505L9.98224 76.4968C7.52115 74.5242 7.48022 71.2595 9.89428 69.2287C10.6081 68.6156 11.4222 68.1293 12.3011 67.7908C14.035 67.0531 15.8745 66.5918 17.7522 66.4239C20.5766 66.0486 23.5221 66.9142 26.2872 65.9966C30.891 64.5597 33.8709 52.8252 34.6656 48.4637L34.6593 48.4673Z" fill="black"/>
<path d="M27.1411 65.6384C24.0244 65.7665 20.9921 65.2409 17.9113 64.9339C16.614 64.8483 15.2663 64.6755 13.9534 64.9306C10.7366 65.5847 6.97899 67.7887 6.83263 71.4137C6.83229 71.9383 6.96302 72.4548 7.21301 72.9164C7.04414 72.4397 6.97602 71.9332 7.01294 71.429C7.04985 70.9247 7.19101 70.4335 7.42753 69.9863C8.80427 67.2896 11.9151 65.8752 14.8156 65.531C18.9106 65.4184 23.0705 66.4709 27.1411 65.6384Z" fill="black"/>
<path d="M50.6223 165.998C72.4077 162.727 108.396 154.653 105.316 149.545C102.236 144.436 89.2896 83.0383 82.1897 80.2029C75.0898 77.3675 47.1902 73.8931 43.1688 80.2029C39.1475 86.5127 39.7599 162.486 43.6617 164.131C47.5634 165.776 50.6223 165.998 50.6223 165.998Z" fill="#F1E8F2"/>
<path d="M101.491 146.369C99.8092 147.802 97.8718 148.902 95.9557 149.99C92.1201 152.175 88.0041 153.804 83.8613 155.296C79.781 156.814 75.5721 158.489 71.3704 159.608C65.0062 161.397 58.3795 162.424 51.7671 162.383V162.308C52.8599 162.17 53.9546 162.082 55.042 161.928C58.292 161.524 61.5705 160.997 64.774 160.338C68.524 159.608 72.2739 158.679 75.9614 157.654C77.4846 157.221 79.1952 156.727 80.6845 156.21C83.813 155.171 86.8112 153.779 89.7665 152.339C91.4915 151.51 93.995 150.33 95.6807 149.468C97.0325 148.783 98.7271 147.911 100.04 147.154C100.516 146.884 100.995 146.62 101.443 146.303L101.493 146.36L101.491 146.369Z" fill="black"/>
<path d="M120.704 140.586C125.307 133.958 121.564 125.635 121.564 125.635L121.546 122.36C121.545 122.074 121.453 121.796 121.284 121.566C121.114 121.336 120.875 121.165 120.602 121.079C119.189 120.632 116.589 119.85 115.679 119.833C113.893 117.188 111.189 114.893 109.689 110.709C107.779 105.369 100.133 92.4166 97.0736 87.844C94.0147 83.2714 92.4862 79.0014 89.2362 78.0883C85.9863 77.1752 81.781 96.6083 84.8399 103.087C87.8988 109.566 98.9914 140.433 102.425 144.627C105.859 148.82 106.543 146.864 109.4 148.388" fill="#464450"/>
<path d="M94.5274 98.835C93.8131 97.3844 94.0024 95.3499 94.9684 94.9192C96.8505 94.0897 97.1898 94.0755 99.9451 92.6053C104.492 98.5876 111.027 113.569 111.027 113.569C111.027 113.569 109.527 116.075 106.67 115.79C105.818 115.705 104.545 115.434 103.061 113.496L94.5274 98.835Z" fill="#605E6A"/>
<path d="M94.5005 98.8475C93.9987 97.7617 93.8255 96.3556 94.4594 95.2876C94.638 94.9405 95.1612 94.7697 95.4862 94.6024C96.2254 94.2464 96.9719 93.9296 97.6861 93.5522C98.4629 93.1464 99.2343 92.7263 100.008 92.3063L100.129 92.4665C102.513 95.6703 104.236 99.2533 106.022 102.79C107.791 106.368 109.547 109.947 111.218 113.571C110.147 115.447 107.886 116.531 105.77 115.899C104.543 115.543 103.563 114.619 102.822 113.642C102.107 112.41 101.393 111.182 100.704 109.945C98.6933 106.398 96.5486 102.363 94.4933 98.8403L94.5005 98.8475ZM94.5469 98.8243C96.5933 102.349 99.0468 106.211 101.14 109.71C101.868 110.921 102.579 112.142 103.297 113.359C104.166 114.482 105.4 115.545 107.047 115.541C108.575 115.614 110.018 114.696 110.884 113.478L110.873 113.639C109.334 109.999 107.697 106.391 105.874 102.881C104.025 99.3992 102.093 95.9391 99.7629 92.7513L100.061 92.8153C99.3361 93.1927 98.6075 93.5611 97.8504 93.8833C97.0933 94.2054 96.3236 94.476 95.5647 94.7732C95.2379 94.9067 94.7576 95.0278 94.5576 95.3588C93.9112 96.3823 94.0701 97.7706 94.5576 98.8314L94.5469 98.8243Z" fill="black"/>
<path d="M110.263 112.425C110.263 112.425 109.654 113.742 107.265 113.493C106.55 113.421 105.479 113.192 104.249 111.576L97.1059 99.3209C96.5113 98.1088 96.6684 96.409 97.4755 96.053C99.0487 95.3606 98.7773 95.3553 101.081 94.1254" fill="#47444F"/>
<path d="M110.288 112.437C109.518 114.205 106.677 114.039 105.391 112.96C104.918 112.581 104.501 112.137 104.154 111.64C103.586 110.602 102.995 109.58 102.39 108.564C101.517 107.103 100.486 105.492 99.6058 104.032C99.0147 103.066 97.463 100.473 96.8737 99.4704C96.4273 98.5235 96.2987 97.3986 96.7612 96.4286C96.8953 96.1583 97.1185 95.9421 97.3933 95.8163L97.613 95.7255C97.9058 95.6062 98.1933 95.4781 98.4755 95.3446C99.329 94.921 100.186 94.4653 101.075 94.1111L101.1 94.1574C100.325 94.67 99.479 95.2485 98.6844 95.7362C98.3273 95.9409 97.9701 96.1206 97.613 96.2933C97.188 96.5104 97.0916 97.0391 97.0487 97.4929C97.014 98.076 97.1219 98.6587 97.363 99.191C97.9505 100.223 99.4272 102.818 99.9808 103.819C100.815 105.303 101.708 106.994 102.549 108.477C103.133 109.504 103.729 110.524 104.35 111.529C104.709 111.973 105.125 112.365 105.59 112.697C106.048 113.017 106.582 113.214 107.14 113.268C107.845 113.316 108.545 113.323 109.209 113.09C109.612 112.961 109.971 112.724 110.249 112.405L110.297 112.428L110.288 112.437Z" fill="black"/>
<path d="M102.807 96.9928C102.807 96.9928 100.002 98.0999 99.6503 98.431C99.1663 98.8848 100.804 101.257 101.384 101.316C101.965 101.375 104.338 99.6591 104.338 99.6591" fill="#9226A7"/>
<path d="M105.484 102.327C105.484 102.327 105.957 102.05 102.95 103.431C102.332 103.716 104.104 106.257 104.686 106.316C105.268 106.375 107.007 104.995 107.007 104.995" fill="#9226A7"/>
<path d="M108.161 106.9C108.161 106.9 109.232 106.519 105.738 108.103C105.118 108.384 106.922 111.18 107.445 111.035C109.631 110.424 109.307 109.949 109.307 109.949" fill="#9226A7"/>
<path d="M121.525 125.635L121.457 123.124C121.439 122.896 121.457 122.412 121.423 122.196C121.386 121.959 121.28 121.738 121.119 121.56C120.957 121.382 120.747 121.255 120.514 121.194C119.711 120.956 118.907 120.728 118.093 120.521C117.278 120.315 116.4 120.066 115.566 120.039C113.991 117.788 111.93 115.824 110.598 113.391C109.896 112.216 109.445 110.878 108.925 109.634C107.298 105.896 105.291 102.336 103.314 98.7763C101.313 95.236 99.2823 91.6762 97.0877 88.2374C96.3395 87.0983 95.6395 85.9235 94.9628 84.7363C94.286 83.5491 93.611 82.3726 92.8432 81.2566C92.0753 80.1406 91.1825 79.0904 89.9682 78.4942C89.6788 78.3448 89.3689 78.2387 89.0486 78.1791C88.8939 78.1865 88.7421 78.2243 88.6021 78.2903C88.462 78.3562 88.3365 78.4491 88.2325 78.5636C87.7733 79.0492 87.3979 79.6074 87.1218 80.2153C84.6219 85.4892 83.0629 96.4125 84.7754 102.032C87.6147 108.555 90.561 116.173 93.1878 122.841C95.1895 127.899 97.1645 132.976 99.3252 137.97C99.8609 139.216 100.427 140.462 101.027 141.669C101.563 142.713 102.068 143.772 102.813 144.678C103.745 145.828 104.87 146.921 106.343 147.293C106.984 147.471 107.668 147.517 108.346 147.649C109.029 147.772 109.685 148.013 110.284 148.361L110.246 148.429C108.996 147.765 107.629 147.866 106.266 147.619C105.573 147.47 104.916 147.186 104.332 146.784C103.477 146.175 102.714 145.446 102.066 144.621C101.467 143.776 100.937 142.883 100.482 141.952C99.8555 140.732 99.277 139.495 98.7109 138.253C93.3824 126.44 89.1504 114.183 84.1558 102.242C82.4505 96.4766 84.3165 85.5106 86.8861 80.1157C87.329 79.2987 87.9932 77.9798 89.0575 77.9584C89.2414 77.9812 89.4215 78.0279 89.5932 78.0972C92.2949 79.126 93.7699 82.2889 95.236 84.5957C96.6288 86.9416 98.2342 89.1452 99.6663 91.4644C103.27 97.258 106.782 103.139 109.518 109.401C110.032 110.673 110.43 111.937 111.113 113.121C111.776 114.293 112.532 115.411 113.375 116.463C114.207 117.531 115.093 118.583 115.857 119.733L115.687 119.64C117.395 119.833 118.978 120.441 120.602 120.949C120.93 121.051 121.213 121.261 121.405 121.545C121.597 121.829 121.686 122.17 121.657 122.511V123.14L121.616 125.651L121.525 125.635Z" fill="black"/>
<path d="M105.609 133.326C106.63 135.478 109.105 136.51 109.779 133.326C110.452 130.142 109.689 126.384 112.939 124.45C116.189 122.515 118.525 122.522 118.525 122.522C118.525 122.522 108.286 123.348 106.63 126.333C104.975 129.318 105.609 133.326 105.609 133.326Z" fill="#383640"/>
<path d="M103.313 146.222C102.165 143.934 100.515 133.575 100.515 132.431V125.393C100.515 124.811 97.0736 122.901 96.6915 121.381C96.3094 119.861 95.1612 112.234 94.013 107.281C92.8648 102.327 90.572 93.5629 90.572 93.5629L91.3362 79.8433C91.3362 79.8433 84.8381 73.9037 79.1025 72.4905C73.3669 71.0772 71.0669 80.6051 71.0669 80.6051C76.94 94.8248 90.388 126.171 97.6504 150.556" fill="#464450"/>
<path d="M103.277 146.238C102.752 145.2 102.472 144.068 102.163 142.955C101.854 141.843 101.627 140.713 101.381 139.584C100.911 137.315 100.477 135.053 100.217 132.748C100.179 132.267 100.199 131.489 100.19 130.996C100.19 129.679 100.176 126.746 100.168 125.402C99.2416 124.446 97.7184 123.542 96.8095 122.337C96.4167 121.878 96.2881 121.184 96.1863 120.591C95.3703 116.054 94.7399 111.499 93.7399 107.005C92.7399 102.511 91.5971 98.0251 90.4578 93.5558L91.1935 79.4553L91.2435 79.5728C87.7972 76.821 84.0115 74.2437 79.7758 72.9141C76.1205 71.5881 73.817 74.5694 72.4635 77.5775C72.0134 78.5786 71.649 79.6158 71.3742 80.6781C73.592 85.45 76.2634 92.2653 78.608 97.7475C81.5597 104.867 84.5418 112.307 87.2489 119.496C89.4328 125.306 91.5917 131.244 93.5471 137.13C94.931 141.245 96.5077 146.348 97.6952 150.543L97.622 150.566C96.2917 146.398 94.5756 141.37 93.1167 137.278C91.0239 131.443 88.815 125.53 86.5561 119.761C81.9972 108.026 75.6206 92.486 70.7903 80.7226L70.751 80.6265L70.776 80.5339C71.0691 79.4352 71.4556 78.3634 71.9313 77.3301C73.1813 74.5516 75.6348 71.3691 79.0848 72.2431C81.5562 72.8732 83.8329 74.0711 85.9883 75.3953C87.8932 76.5842 89.712 77.9052 91.431 79.3485L91.4864 79.393V79.466C91.4864 79.466 90.6953 93.6768 90.69 93.5273C91.7096 97.5001 93.1899 102.988 94.1417 106.909C95.1131 110.798 96.0792 116.472 96.8381 120.461C96.9559 120.995 96.9899 121.481 97.3595 121.928C98.2256 123.047 99.5023 123.795 100.536 124.775C100.71 124.924 100.825 125.13 100.861 125.356V125.802C100.851 127.563 100.843 130.532 100.834 132.276C100.879 133.547 101.118 134.807 101.295 136.081C101.463 137.217 101.636 138.353 101.831 139.486C102.131 141.181 102.429 142.881 102.84 144.554C102.969 145.111 103.14 145.658 103.352 146.19L103.284 146.223L103.277 146.238Z" fill="black"/>
<path d="M60.2669 164.423C66.3543 155.755 60.1811 106.042 57.3133 90.5139C54.4455 74.9859 42.785 66.8873 42.785 66.8873C42.785 66.8873 28.6352 75.657 24.4352 81.7496C20.2353 87.8422 10.289 110.711 9.52831 114.521C8.76761 118.332 3.79447 130.907 3.41055 134.337C3.02662 137.767 31.7887 157.202 31.7887 157.202" fill="#464450"/>
<path d="M53.8261 98.9614C49.719 99.175 47.8762 99.6004 45.487 99.878C44.4388 99.9991 42.7906 99.9991 42.7852 100.433C42.7674 101.628 42.3049 103.534 42.4281 104.607C42.4763 105.047 42.0227 105.789 43.7566 105.752C46.7601 105.686 52.5333 104.862 54.2761 104.662C56.0189 104.463 55.16 101.015 55.169 99.773C55.16 99.5256 55.3297 98.8831 53.8261 98.9614Z" fill="#605E6A"/>
<path d="M53.8277 98.9738C50.8509 99.0753 47.9795 99.7748 45.0242 100.095C44.3921 100.157 43.751 100.15 43.1421 100.319C43.0672 100.337 42.9985 100.374 42.9439 100.428C42.9225 100.752 42.8814 101.076 42.8314 101.395C42.6635 102.484 42.3814 103.57 42.4975 104.677C42.4778 105.033 42.4028 105.412 42.8046 105.54C43.1483 105.636 43.5072 105.664 43.8617 105.624C44.5957 105.592 45.3314 105.52 46.0653 105.446C48.2688 105.225 50.4652 104.931 52.6634 104.638L54.3044 104.431C55.6133 104.214 55.0705 101.136 55.0919 100.127C55.0598 99.862 55.1634 99.5737 55.0616 99.3245C54.8134 98.9293 54.2437 98.9685 53.8277 98.9685V98.9738ZM53.8277 98.9347C54.5419 98.9098 55.3151 98.908 55.2312 99.8478C55.3026 100.674 55.4973 101.48 55.5419 102.324C55.5973 103.24 55.5205 104.657 54.3794 104.856C52.367 105.097 50.3241 105.355 48.3081 105.568C46.8349 105.711 45.3581 105.846 43.8707 105.864C43.4189 105.855 42.8493 105.885 42.4814 105.536C42.2046 105.207 42.4135 104.783 42.3439 104.411C42.3439 103.071 42.6421 101.751 42.6314 100.41C42.6921 99.7766 44.4939 99.8264 44.9974 99.7445C45.7242 99.6805 46.4581 99.5772 47.1903 99.4882C49.392 99.1981 51.6116 99.0557 53.8277 98.9418V98.9347Z" fill="black"/>
<path d="M54.5903 107.339C50.4832 107.553 48.6404 107.978 46.2511 108.256C45.2029 108.377 43.5565 108.377 43.5494 108.811C43.5315 110.006 43.069 111.912 43.1922 112.985C43.2404 113.425 42.7869 114.169 44.5208 114.13C47.5243 114.064 53.2974 113.24 55.0403 113.04C56.7831 112.841 55.9242 109.393 55.9331 108.151C55.9242 107.909 56.0956 107.266 54.5903 107.339Z" fill="#605E6A"/>
<path d="M54.5919 107.366C51.617 107.466 48.7456 108.165 45.7885 108.486C45.1563 108.548 44.5153 108.541 43.9064 108.71C43.8314 108.727 43.7628 108.765 43.7082 108.819C43.6885 109.142 43.6457 109.466 43.5957 109.785C43.4278 110.874 43.1475 111.96 43.2617 113.069C43.2439 113.416 43.1689 113.802 43.5689 113.93C43.9124 114.027 44.2715 114.055 44.626 114.014C45.3599 113.982 46.0956 113.911 46.8295 113.836C49.0349 113.615 51.2295 113.323 53.4277 113.03C53.7723 112.984 54.733 112.862 55.0687 112.822C56.3776 112.604 55.8348 109.527 55.858 108.518C55.824 108.253 55.9276 107.964 55.8276 107.715C55.5776 107.32 55.008 107.359 54.5919 107.359V107.366ZM54.5919 107.325C55.3062 107.3 56.0776 107.3 55.9955 108.238C56.0669 109.064 56.2598 109.87 56.3044 110.714C56.3598 111.631 56.283 113.048 55.1419 113.247C53.1294 113.487 51.0866 113.745 49.0706 113.959C47.5974 114.101 46.1206 114.237 44.6331 114.254C44.1831 114.254 43.6117 114.276 43.2439 113.927C42.9671 113.598 43.1778 113.174 43.1082 112.804C43.1082 111.463 43.4046 110.134 43.3939 108.801C43.4546 108.167 45.2563 108.217 45.7599 108.137C46.4867 108.071 47.2206 107.959 47.9527 107.879C50.1545 107.589 52.3741 107.446 54.5919 107.332V107.325Z" fill="black"/>
<path d="M31.7692 157.27C32.1442 153.888 33.7817 138.783 34.1209 135.772C35.7477 121.468 37.3137 107.085 37.4637 92.6818C37.4798 91.3469 37.3548 89.478 37.2655 88.4634C36.0605 86.4003 34.6678 84.452 33.1049 82.6431C31.521 80.8864 29.7531 79.1385 27.4746 78.3322L27.4853 78.2948C29.8281 78.9783 31.712 80.6852 33.3442 82.4295C34.9679 84.2202 36.3994 86.1751 37.6155 88.2623L37.6352 88.2979V88.3371C37.7334 89.0615 37.7798 89.7859 37.8137 90.5103C37.9584 95.5635 37.5905 100.615 37.2209 105.652C35.7227 122.858 34.312 140.25 31.771 157.27H31.7692Z" fill="black"/>
<path d="M57.2761 90.521C55.8027 83.5898 52.5132 77.1714 47.7423 71.9192C46.1799 70.1962 44.471 68.5373 42.5978 67.1668L42.9728 67.1775C38.8657 69.7939 34.814 72.5439 30.9908 75.5644C28.7551 77.3764 26.5087 79.2506 24.7623 81.552C23.9786 82.6736 23.259 83.8383 22.607 85.0407C18.2696 93.093 14.691 101.546 11.3804 110.061C10.9018 111.335 10.4233 112.615 10.0483 113.922C9.52863 116.152 8.83221 118.357 8.10008 120.523C7.31973 122.887 5.34655 128.611 4.66084 130.939C4.31809 132.009 4.04549 133.099 3.84478 134.204L3.82693 134.31C3.81939 134.339 3.81578 134.369 3.81621 134.399C3.81799 134.415 3.81799 134.432 3.81621 134.447C3.81621 134.488 3.83764 134.544 3.84657 134.59L3.88049 134.674L3.91264 134.757C4.36085 135.626 5.07334 136.334 5.75725 137.043C6.61081 137.895 7.51616 138.707 8.43579 139.502C15.8696 145.818 23.8873 151.471 31.8104 157.17L31.7676 157.232C23.5873 151.855 15.491 146.32 7.93579 140.09C6.3126 138.655 4.57691 137.267 3.35907 135.442C3.13943 135.086 2.94301 134.645 3.01444 134.221C3.15853 133.335 3.36014 132.458 3.618 131.598C4.4037 128.787 6.42153 123.138 7.39294 120.295C8.07865 118.277 8.76435 116.278 9.25363 114.205C9.32327 113.939 9.42327 113.553 9.51256 113.299C11.5375 107.492 14.1125 101.975 16.6732 96.4161C18.7428 92.0713 20.8874 87.4987 23.2945 83.3373C23.5856 82.8033 23.9516 82.28 24.2605 81.7727C25.2945 80.2456 26.5927 78.9071 27.9212 77.638C32.4694 73.4089 37.555 69.8064 42.7996 66.4851C43.8295 67.236 44.8079 68.0548 45.7281 68.936C50.0678 73.045 53.4213 78.0772 55.5387 83.6577C56.3592 85.8813 56.9661 88.1776 57.3511 90.5157L57.2761 90.5299V90.521Z" fill="black"/>
<path d="M78.5951 69.8456C73.9523 65.9297 46.7992 60.218 45.0796 61.5529C43.3599 62.8879 49.9206 70.7124 60.0204 72.5154C70.1203 74.3185 78.5951 69.8456 78.5951 69.8456Z" fill="black"/>
<path d="M62.1011 84.4533C68.1724 91.1529 72.4259 145.447 72.6063 147.293C77.5758 146.15 85.6043 141.197 88.6632 137.767C86.3686 127.858 81.399 107.281 72.9884 90.8948C63.5386 72.4852 62.1011 84.4533 62.1011 84.4533Z" fill="#4BA184"/>
<path d="M85.42 124.758C81.6825 126.032 76.5772 127.479 71.2666 128.999C71.3237 130.245 71.3737 131.461 71.4184 132.632C76.3272 131.865 82.2986 129.165 86.1985 127.686C85.9521 126.737 85.6926 125.762 85.42 124.758Z" fill="#2A768C"/>
<path d="M86.8896 130.387C82.8289 131.833 77.679 133.527 71.5166 135.298C72.1523 141.786 72.5291 146.451 72.5987 147.224C72.7916 147.202 72.988 147.177 73.1862 147.149C78.1861 145.777 85.72 141.069 88.6628 137.771C88.1878 135.72 87.5985 133.212 86.8896 130.387Z" fill="#2A768C"/>
<path d="M62.1367 84.4408C63.0402 85.4376 63.5545 86.7156 64.0456 87.9473C64.5366 89.179 64.9224 90.4801 65.2956 91.767C68.6348 104.709 70.0634 118.054 71.3401 131.331C71.824 136.647 72.2615 141.968 72.7258 147.282L72.5794 147.177C74.0953 146.789 75.569 146.252 76.9793 145.576C79.8169 144.24 82.5095 142.618 85.0149 140.734C86.273 139.813 87.4397 138.775 88.4988 137.632L88.4506 137.822C85.1006 124.067 81.2328 110.387 75.6311 97.363C73.9383 93.4775 72.1187 89.6293 69.9169 86.0036C67.7527 82.4206 63.6349 77.1361 62.1367 84.4408ZM62.0635 84.464C62.2295 83.04 62.8099 80.7529 64.4617 80.5019C67.4973 80.194 71.2187 87.0324 72.5508 89.4015C80.6311 104.47 85.1899 121.127 88.872 137.726L88.8952 137.836L88.822 137.915C86.6381 140.229 83.9828 141.985 81.2739 143.61C78.5489 145.191 75.7133 146.658 72.633 147.418L72.4972 147.448L72.4865 147.313C72.0562 141.993 71.5133 136.685 70.8991 131.382C69.633 120.836 68.3991 110.152 66.567 99.6876C65.8527 95.7611 65.092 91.8239 63.8295 88.0345C63.3813 86.7885 62.9081 85.5106 62.0635 84.4747V84.464Z" fill="black"/>
<path d="M51.9619 76.7943C59.4475 85.0513 59.385 133.967 59.6082 136.243C64.9653 135.863 72.1741 132.47 76.4294 130.904C76.0901 125.576 73.7509 108.802 65.9474 86.4468C57.5422 62.3841 51.9619 76.7943 51.9619 76.7943Z" fill="#43A47C"/>
<path d="M73.663 113.542C69.8899 114.858 64.5721 116.362 59.0347 117.948C59.0918 119.194 59.1418 120.409 59.1865 121.582C64.2292 120.792 70.397 117.962 74.2862 116.513C74.0898 115.559 73.8821 114.569 73.663 113.542Z" fill="#2A768C"/>
<path d="M59.608 136.242C64.9651 135.861 72.1739 132.468 76.4292 130.902C76.2917 128.755 75.831 124.751 74.8221 119.274C70.7365 120.73 65.5365 122.447 59.2866 124.241C59.5009 130.818 59.542 135.569 59.608 136.242Z" fill="#2A768C"/>
<path d="M51.9993 76.789C54.8314 79.9288 56.0743 86.8277 56.8492 90.9891C59.1706 104.678 59.3796 118.613 59.6188 132.461C59.6456 133.47 59.6546 135.215 59.7224 136.229L59.5956 136.122C61.0589 135.989 62.5067 135.721 63.9206 135.321C68.2062 134.172 72.2222 132.296 76.3507 130.706L76.2115 130.92C75.9686 128.031 75.5132 125.156 75.0258 122.292C73.749 115.139 72.1107 108.054 70.1169 101.065C68.9705 96.9572 67.6419 92.6017 66.2991 88.5506C64.9598 84.5547 61.2617 72.8518 56.4778 72.6614C54.2868 72.6845 52.8368 75.0233 51.9993 76.789ZM51.9243 76.8014C52.66 74.913 54.2136 72.4353 56.4778 72.3712C61.5635 72.4068 65.5027 84.2201 66.9473 88.3317C69.108 94.4849 71.0294 100.861 72.5776 107.199C74.4543 114.989 76.0954 122.89 76.6418 130.902L76.6525 131.06L76.5025 131.115C73.7347 132.123 71.0115 133.283 68.2241 134.253C65.4366 135.224 62.5831 136.138 59.6153 136.368L59.4921 136.377V136.261C59.1938 123.683 58.5439 111.083 57.2814 98.5627C56.6046 92.8296 55.435 81.1498 51.9243 76.8086V76.8014Z" fill="black"/>
<path d="M72.3164 64.6112C70.9802 66.6211 68.1914 76.9276 68.8676 78.8205C69.5438 80.7133 59.5204 78.4819 57.9063 76.7659C56.2921 75.05 49.8004 70.2879 49.9529 69.4707C50.1053 68.6535 52.5491 69.8607 54.1121 62.6205C55.6751 55.3804 55.0424 49.4031 56.9752 50.0781C58.908 50.753 72.3164 64.6112 72.3164 64.6112Z" fill="#BC795D"/>
<path d="M56.1668 57.0975C55.5445 55.7956 55.2564 53.7175 55.2374 51.5723C55.7065 50.3953 56.242 49.8312 56.9629 50.0855C58.9095 50.7484 72.3166 64.6115 72.3166 64.6115C71.8057 65.536 71.3924 66.5109 71.0831 67.5204C69.495 68.2069 68.4542 68.1982 67.3783 68.3091C65.9913 68.4575 57.8792 60.6852 56.1668 57.0975Z" fill="black"/>
<path d="M56.4159 49.8696C56.2204 49.9133 56.0438 50.0143 55.8845 50.1588C55.6099 50.4079 55.3741 50.7966 55.1604 51.2886L55.07 51.5057L55.057 51.5382L55.0575 51.5736C55.0766 53.7256 55.3646 55.8361 56.0042 57.1744L56.091 57.3494C56.5479 58.239 57.3461 59.3419 58.3072 60.4983C59.3348 61.7346 60.557 63.0422 61.7682 64.2321C62.9791 65.4217 64.1821 66.4963 65.1716 67.2657C65.6659 67.65 66.1108 67.9614 66.479 68.1727C66.663 68.2782 66.8319 68.361 66.981 68.4154C67.1264 68.4685 67.2704 68.501 67.3979 68.4874C68.4627 68.3777 69.536 68.385 71.1551 67.6851L71.2314 67.6519L71.2559 67.5726C71.5615 66.575 71.97 65.6114 72.4749 64.6977L72.5389 64.582L72.4467 64.4863L72.446 64.4859C72.4457 64.4854 72.445 64.4849 72.4442 64.4841C72.4426 64.4824 72.4402 64.4798 72.437 64.4765C72.4305 64.4698 72.4207 64.4597 72.4079 64.4466C72.3825 64.4203 72.3448 64.3813 72.2954 64.3305C72.1967 64.2287 72.0516 64.0791 71.8664 63.8889C71.4958 63.5084 70.9644 62.9641 70.3206 62.309C69.0329 60.9986 67.2951 59.2443 65.4967 57.4691C63.6986 55.6943 61.8382 53.8974 60.3049 52.502C59.5384 51.8046 58.852 51.2055 58.2948 50.7596C58.0163 50.5366 57.768 50.3503 57.5572 50.2085C57.3757 50.0864 57.2129 49.9915 57.0776 49.9364L57.0215 49.9152C56.8144 49.8424 56.6117 49.8258 56.4159 49.8696ZM56.1274 50.4249C56.2506 50.3131 56.3724 50.2474 56.4946 50.22C56.616 50.1929 56.7503 50.2009 56.903 50.2548L56.905 50.2553C57.0028 50.2887 57.1528 50.3702 57.3554 50.5065C57.5548 50.6406 57.7945 50.8201 58.0689 51.0397C58.6175 51.4787 59.2977 52.0719 60.0619 52.7673C61.5898 54.1577 63.4462 55.9509 65.2432 57.7246C67.0398 59.498 68.7758 61.2509 70.0627 62.5605C70.7061 63.2153 71.2372 63.7591 71.6075 64.1393C71.7926 64.3294 71.9376 64.4787 72.0362 64.5803C72.0585 64.6032 72.0785 64.6236 72.096 64.6416C71.622 65.517 71.2339 66.4358 70.9372 67.3857C69.4222 68.0267 68.4293 68.0199 67.36 68.1301L67.3592 68.1302L67.318 68.1307C67.2697 68.1275 67.1998 68.1126 67.1048 68.078C66.9819 68.0331 66.8326 67.9609 66.6588 67.8611C66.3112 67.6617 65.8813 67.3618 65.3932 66.9823C64.4181 66.2241 63.2259 65.1594 62.0214 63.976C60.8172 62.793 59.6036 61.4942 58.5852 60.2689C57.5644 59.0407 56.7481 57.8962 56.3299 57.0201L56.3297 57.0198C55.7283 55.7614 55.4404 53.7314 55.4186 51.6059C55.6463 51.0417 55.8807 50.6487 56.1274 50.4249Z" fill="black"/>
<path d="M72.2683 64.6062C70.7299 66.9146 67.8862 76.3112 68.5496 78.9246C68.5784 78.9745 68.5606 79.0013 68.5606 79.0013C68.0154 79.347 67.1343 79.197 66.4915 79.1716C64.0091 78.9237 61.5742 78.3275 59.259 77.4008C58.7873 77.2172 58.3522 76.9514 57.974 76.6158C55.8937 74.6902 53.5735 73.0266 51.4932 71.1011C50.998 70.6179 50.3974 70.1537 50.0879 69.5308C50.0699 69.4997 50.0753 69.509 50.094 69.4693C50.1758 69.2938 50.4347 69.2739 50.6504 69.1503C50.8541 69.0689 51.05 68.9691 51.2355 68.8522C53.0403 67.5895 53.6734 65.2984 54.2296 63.2919C54.6301 61.6526 54.9416 59.9929 55.1629 58.3201C55.56 55.8865 55.5733 53.2998 56.2323 50.9525C56.5446 50.0519 56.9067 50.4414 57.5856 50.9188C62.0767 54.5639 67.9851 60.5933 72.2634 64.6049L72.2683 64.6062ZM72.339 64.5989C68.9676 60.8469 65.4499 57.216 61.8336 53.6956C60.6115 52.522 59.3934 51.3627 58.054 50.3103C55.6078 48.2338 55.2246 51.4555 55.0252 53.2367C54.6777 56.5707 54.4021 59.8924 53.6791 63.1597C53.3015 64.7403 52.8652 66.392 51.8992 67.717C51.5475 68.2062 51.0727 68.5943 50.5225 68.8421C50.3071 68.9251 50.1057 69.0406 49.9255 69.1844C49.8685 69.2408 49.8277 69.3113 49.8073 69.3886C49.7868 69.4659 49.7874 69.5473 49.8091 69.6243C49.8519 69.7371 49.9126 69.8423 49.9888 69.9359C50.4005 70.4246 50.8518 70.8787 51.3381 71.2937C53.5428 73.2474 55.9348 74.9777 58.0026 77.0762C59.7523 78.3206 61.8913 78.8482 63.9306 79.3833C64.7608 79.5786 65.6028 79.7205 66.4513 79.8083C67.2838 79.8742 69.5383 80.1118 69.1721 78.7129C68.8965 77.2331 69.3278 75.688 69.558 74.2125C70.2627 70.964 70.939 67.6157 72.36 64.5993L72.339 64.5989Z" fill="black"/>
<path d="M45.0798 61.5529C48.903 63.8384 61.5189 71.079 65.342 71.4599C69.1652 71.8408 73.7526 70.3172 73.3776 69.9363C73.0026 69.5554 65.342 67.2665 63.4367 65.7446C62.2064 64.7621 65.7313 63.8384 67.2598 64.2193C68.7884 64.6002 81.7882 68.4109 82.5525 69.1745C83.3168 69.9381 78.1454 75.7602 77.6722 76.6502C77.199 77.5401 80.6418 80.9807 80.6418 82.8799C80.6418 84.779 73.7598 97.2028 71.083 97.8543C68.4063 98.5057 52.1833 88.807 49.6547 86.2848C45.087 81.7354 37.8228 71.8266 38.2049 68.0158C38.5871 64.205 45.0798 61.5529 45.0798 61.5529Z" fill="#3EA277"/>
<path d="M80.871 42.5492C79.5317 47.6932 76.5157 56.3044 78.2139 58.8586C79.9121 61.4128 78.0014 68.5395 74.1782 70.1201C70.3551 71.7006 60.0338 65.9854 60.4249 62.1799C60.8159 58.3744 64.248 50.2189 68.8355 47.6238C73.4229 45.0287 80.871 42.5492 80.871 42.5492Z" fill="black"/>
<path d="M63.2384 93.3724C62.6241 92.7103 59.7992 86.8936 57.8813 83.0828C57.8813 83.0828 60.1759 84.6064 61.7045 84.989C57.8867 81.1747 55.5992 78.5048 53.6814 75.835C51.7636 73.1651 44.5065 62.4981 43.3583 62.4981C42.2101 62.4981 37.2424 66.3089 38.3888 69.3579C41.8709 78.6205 48.9029 89.7521 63.2384 93.3724Z" fill="#006837"/>
<path d="M64.3867 82.7019C67.0653 81.9401 77.4222 76.8477 78.7454 75.2013C80.0686 73.5549 70.8884 85.37 68.2099 85.37C65.5313 85.37 64.3867 82.7019 64.3867 82.7019Z" fill="#006837"/>
<path d="M45.0816 61.5138C50.6458 64.5895 56.2832 67.7773 62.1581 70.1926C63.167 70.5789 64.1724 70.9705 65.2331 71.1253C67.6782 71.331 70.1389 71.0055 72.4455 70.1713C72.6741 70.0915 72.8914 69.9827 73.0919 69.8473C73.0717 69.8725 73.0588 69.9026 73.0544 69.9346C73.0469 69.9795 73.05 70.0255 73.0633 70.069C73.0766 70.1125 73.0999 70.1524 73.1312 70.1855C72.7658 70.0132 72.3915 69.8605 72.0098 69.7281C69.3812 68.7545 66.6831 67.8912 64.192 66.5723C63.6563 66.2377 62.5581 65.766 63.0028 64.9704C63.7045 64.0057 66.1492 63.7369 67.2438 63.9807C69.183 64.5147 71.083 65.1234 73.0008 65.7162C75.2919 66.4281 77.5811 67.1543 79.8525 67.9339C80.6079 68.1991 81.3632 68.4679 82.1061 68.7865C82.4025 68.9307 82.8203 69.0731 82.7364 69.4985C82.6453 70.0146 82.3525 70.4632 82.0989 70.8975C81.6739 71.5828 81.2061 72.2306 80.7257 72.8732C80.0418 73.7987 79.2293 74.7955 78.5293 75.721C78.2918 76.0361 78.04 76.3565 77.8418 76.6769C77.804 76.7349 77.7859 76.8036 77.79 76.8727C77.8954 77.5241 78.3525 78.0776 78.6954 78.6365C79.3561 79.6369 80.0936 80.6176 80.5811 81.7336C80.7691 82.1278 80.8655 82.5591 80.8632 82.9955C80.7525 83.8285 80.3971 84.5708 80.0847 85.3344C79.44 86.8099 78.7007 88.2321 77.9186 89.6311C76.7365 91.7278 75.4811 93.7943 73.9901 95.7006C73.4928 96.3546 72.937 96.9623 72.3294 97.5161C71.998 97.8305 71.6011 98.0681 71.1669 98.212C70.6687 98.3259 70.2598 98.212 69.8044 98.123C69.0118 97.9152 68.2359 97.6487 67.4831 97.3256C64.5099 96.0797 61.6903 94.5418 58.9028 92.9381C57.5153 92.1354 56.1404 91.3113 54.785 90.4463C52.9333 89.2341 51.0119 88.0665 49.3637 86.5625C46.4209 83.5366 43.8477 80.1744 41.5495 76.6466C40.2638 74.6139 39.0263 72.503 38.2942 70.1944C38.1722 69.8024 38.082 69.4012 38.0246 68.9948C37.4585 65.4065 42.2441 62.6636 45.0727 61.5049L45.0816 61.5138ZM45.0816 61.5903C42.5334 62.8131 38.4246 65.2249 38.3906 68.3771C38.5496 70.8975 40.6906 74.1957 42.0656 76.3316C44.3692 79.8051 47.0001 83.0515 49.9226 86.0267C51.5297 87.4685 53.4118 88.5934 55.235 89.7646C59.285 92.2725 63.4224 94.7127 67.7866 96.6297C68.6902 96.9963 69.5884 97.3737 70.5348 97.5107C71.0937 97.614 71.4276 97.3327 71.8723 96.9768C72.4508 96.4572 72.9809 95.8864 73.4562 95.2716C75.8794 92.1443 77.9043 88.6859 79.615 85.1261C79.9222 84.4302 80.2757 83.7022 80.4025 82.96C80.4168 82.2124 80.0132 81.5093 79.6597 80.8596C79.2686 80.1779 78.8222 79.5176 78.39 78.843C78.174 78.5048 77.9597 78.1649 77.7704 77.8018C77.6097 77.4654 77.3972 77.0898 77.4865 76.6875C77.6758 76.2497 78.0222 75.9079 78.2936 75.5377C79.0079 74.6317 79.8293 73.6368 80.5168 72.7183C80.9846 72.0598 82.6864 69.9506 82.481 69.2724C82.3397 69.163 82.1841 69.0731 82.0186 69.0054C81.3043 68.6833 80.54 68.4216 79.7864 68.1618C79.0329 67.9019 78.2704 67.6563 77.5097 67.4124C74.0847 66.3445 70.6294 65.3246 67.1527 64.4275C66.7802 64.3619 66.4004 64.3481 66.0241 64.3866C65.261 64.4338 64.5147 64.6304 63.8278 64.965C63.6913 65.0345 63.5728 65.1344 63.4813 65.2569C63.3938 65.3993 63.6385 65.5364 63.7403 65.6129C64.6331 66.2128 65.6402 66.6026 66.6384 67.0191C68.6527 67.8325 70.7776 68.532 72.8205 69.2991C73.1419 69.454 73.8222 69.575 73.7347 70.0645C73.6097 70.6501 72.0508 71.0114 71.5241 71.1787C69.358 71.7251 67.0688 72.0491 64.8438 71.6949C63.8507 71.4615 62.8803 71.1411 61.9439 70.7373C58.9743 69.5038 56.1529 67.982 53.3368 66.4477C50.5994 64.9348 47.728 63.2581 45.0762 61.5957L45.0816 61.5903Z" fill="black"/>
<path d="M87.0174 25.9267C86.713 29.0038 84.4733 36.4411 84.6911 38.0081C84.9088 39.575 87.4258 43.9371 86.5043 50.2704C85.5828 56.6038 82.0361 60.8098 81.3945 62.3221C80.7529 63.8343 79.9712 67.0648 78.3434 67.488C76.7156 67.9111 62.1693 65.0507 57.7687 58.866C53.368 52.6812 45.2584 37.0624 45.4566 32.7774C45.6547 28.4925 50.2691 16.3102 57.5056 12.9909C64.7421 9.67157 70.6344 5.46433 76.1914 9.32753C81.7485 13.1907 87.0174 25.9267 87.0174 25.9267Z" fill="#BD7A5E"/>
<path d="M71.4528 56.1101C72.3488 55.4214 76.793 51.986 80.407 52.6972C82.5496 53.1196 81.163 55.0243 80.9002 55.4446C80.6375 55.8649 71.4528 56.1101 71.4528 56.1101Z" fill="#712830"/>
<path d="M71.6069 56.1584C72.5526 56.7762 75.0672 59.5151 78.7641 58.8688C80.7275 58.5269 80.8872 57.1009 81.064 55.5599C81.1217 55.0631 71.6069 56.1584 71.6069 56.1584Z" fill="#9F4852"/>
<path d="M70.1038 56.7327C70.9036 56.4274 71.677 56.1859 72.4805 55.9118C73.8787 55.7128 75.2755 55.8957 76.6978 55.5145L76.6964 55.4807C75.2675 55.2218 73.8556 55.5011 72.4613 55.7966C71.8937 55.8509 71.2966 55.8943 70.7797 56.181C70.5143 56.3064 70.2746 56.48 70.073 56.6929L70.0936 56.7211L70.1038 56.7327Z" fill="black"/>
<path d="M62.735 39.6956C64.6181 39.2869 67.4034 40.7199 68.6131 41.1266C69.8228 41.5333 72.0014 41.0982 73.4231 40.6644C74.4894 40.339 76.555 38.8808 77.7596 39.2234C78.9643 39.5661 78.9106 40.7312 80.1032 41.2698C81.2958 41.8085 83.4918 41.7993 84.6174 41.0775C85.4366 40.5522 86.3254 42.8802 86.3675 46.2872C86.439 51.7283 82.1377 48.3438 80.9911 48.2852C79.6923 48.2257 77.7125 47.7358 75.3009 47.9247C73.1899 48.0884 62.2292 49.0582 59.2203 47.0881C56.2115 45.118 59.0134 40.5031 62.735 39.6956Z" fill="url(#paint3_radial_3347_108389)" fill-opacity="0.5"/>
<path d="M70.751 39.593C71.4284 38.0851 72.086 33.9763 70.2691 32.9903C68.4521 32.0043 65.4139 32.5063 64.6559 33.3555C63.8979 34.2047 61.725 37.2085 61.9661 37.8498C62.2072 38.4912 62.6712 39.5188 63.242 39.5565C63.8129 39.5941 67.9766 39.9396 68.6112 40.2102C69.2457 40.4809 70.3807 40.4148 70.751 39.593Z" fill="#ECE0E7"/>
<path d="M72.0603 35.3313C71.7292 34.0366 70.7078 31.5455 68.4994 31.3229C67.3653 31.2102 64.5017 31.8276 63.2354 34.3407C62.7559 35.259 62.3393 36.2085 61.9883 37.1828C61.9883 37.1828 60.7134 37.2876 59.4679 37.4792C60.3619 37.8767 61.2824 38.2122 62.2228 38.4831C62.2228 38.4831 62.8944 35.8838 64.2664 34.5126C64.7766 33.9931 65.3918 33.5876 66.0712 33.3232C66.7506 33.0589 67.4787 32.9415 68.2071 32.9791C70.3094 33.0178 72.0603 35.3313 72.0603 35.3313Z" fill="black"/>
<path d="M62.1433 39.772C63.7063 38.876 68.8956 39.2181 70.4197 40.4176L69.6289 40.871C67.1685 40.2987 64.6647 39.9311 62.1433 39.772Z" fill="black"/>
<path d="M65.3111 30.9073C67.4511 30.1822 69.479 29.9982 71.4554 31.2245C69.8877 29.4737 67.119 29.6138 65.3111 30.9073Z" fill="black"/>
<path d="M84.1934 38.428C83.5095 40.7896 83.3404 40.7705 82.5247 40.5249C81.7091 40.2793 80.611 40.092 79.8454 39.8467C79.0799 39.6014 78.1792 38.0404 78.1322 37.238C78.0766 36.2333 79.2886 34.9165 79.734 34.2465C80.1794 33.5765 82.5003 31.8313 83.1725 32.2752C83.8446 32.7192 84.393 33.8354 84.4779 35.2587C84.5258 36.323 84.4301 37.389 84.1934 38.428Z" fill="#ECE0E7"/>
<path d="M66.0895 33.1522C65.64 34.5041 65.9549 36.8089 68.6275 37.69C69.6215 38.019 71.4141 37.1228 71.7175 36.1434C72.021 35.164 71.3894 34.2016 70.6136 33.5776C69.8378 32.9537 67.9409 32.273 67.2315 32.6152C66.522 32.9575 66.0895 33.1522 66.0895 33.1522Z" fill="url(#paint4_linear_3347_108389)"/>
<path d="M69.4657 36.1634C70.0473 35.9579 70.2997 35.1754 70.0295 34.4156C69.7592 33.6558 69.0687 33.2064 68.4871 33.4119C67.9055 33.6174 67.6532 34.4 67.9234 35.1598C68.1936 35.9196 68.8841 36.3689 69.4657 36.1634Z" fill="black"/>
<path d="M70.7899 34.9656C71.0821 34.2868 70.0312 33.3547 69.722 33.7026C69.4128 34.0505 69.7599 34.3625 70.1014 34.6725C70.4428 34.9826 70.604 35.3948 70.7899 34.9656Z" fill="white"/>
<path d="M66.1023 33.1635C65.6357 35.1772 66.8156 36.9809 68.7257 37.6351C69.5679 37.879 70.5182 37.4366 71.0645 36.8013C71.7209 36.0034 71.4762 34.7631 70.8217 34.0389C70.5977 33.788 70.3313 33.5781 70.0345 33.4188C69.2853 33.0161 68.4431 32.6511 67.58 32.6436C67.414 32.6528 67.2518 32.6966 67.1039 32.7721C66.7795 32.9026 66.4476 33.0331 66.1023 33.1635ZM66.0777 33.1408C66.5538 32.9083 67.0261 32.5282 67.5591 32.4224C68.6972 32.3335 70.3551 32.9329 71.1025 33.8007C71.8498 34.6686 72.0509 36.0885 71.203 36.9261C70.4158 37.6824 69.1923 38.0946 68.168 37.6275C67.7264 37.4823 67.3194 37.2483 66.9721 36.9399C66.6249 36.6316 66.3448 36.2555 66.1492 35.8349C65.9536 35.4144 65.8467 34.9583 65.8351 34.4949C65.8234 34.0315 65.9073 33.5706 66.0815 33.1408H66.0777Z" fill="black"/>
<path d="M82.1396 33.0095C81.6937 33.1481 81.3058 33.429 81.0357 33.8089C80.7656 34.1888 80.6283 34.6467 80.6449 35.112C80.7625 37.1011 82.0846 38.5872 84.1598 37.9689C86.4512 36.7456 84.5771 33.2686 84.0801 33.053C83.5831 32.8375 82.1396 33.0095 82.1396 33.0095Z" fill="url(#paint5_linear_3347_108389)"/>
<path d="M83.2468 37.0313C83.8051 36.8158 84.0216 36.0335 83.7305 35.2838C83.4393 34.534 82.7507 34.1009 82.1925 34.3163C81.6342 34.5317 81.4177 35.3141 81.7088 36.0638C82 36.8135 82.6886 37.2467 83.2468 37.0313Z" fill="black"/>
<path d="M83.9286 35.4085C84.2378 34.7373 83.2078 33.7806 82.8891 34.1228C82.5704 34.465 82.9119 34.7827 83.2552 35.1022C83.5985 35.4217 83.7351 35.8339 83.9286 35.4085Z" fill="white"/>
<path d="M82.1438 33.0265C81.8321 33.1355 81.5522 33.3195 81.3292 33.5623C81.1061 33.8051 80.9468 34.0991 80.8653 34.4181C80.7853 34.7268 80.7691 35.0484 80.8178 35.3635C80.8667 36.0185 81.0878 36.6491 81.459 37.1918C82.047 38.0389 83.2041 38.2336 84.1317 37.8763C85.247 37.2315 85.2698 35.8456 84.8487 34.6828C84.7042 34.2471 84.508 33.8301 84.2645 33.4406C84.181 33.3215 84.0937 33.1816 83.9951 33.1475C83.426 32.949 82.7413 32.9812 82.1438 33.0303V33.0265ZM82.1438 32.9925C82.8171 32.9452 83.4716 32.7826 84.1449 32.9566C84.6931 33.3177 84.953 33.9795 85.1901 34.5637C85.6587 35.7776 85.5695 37.483 84.1943 38.0653C83.5212 38.2571 82.8016 38.2034 82.1646 37.9141C80.9601 37.3204 80.1938 35.6244 80.6301 34.3387C80.7726 34.0198 80.9816 33.7347 81.2433 33.5026C81.5049 33.2705 81.8132 33.0966 82.1476 32.9925H82.1438Z" fill="black"/>
<path d="M78.4099 36.2496C79.2537 34.1073 80.9025 31.9181 83.0048 31.9568C84.2971 31.9831 85.1541 32.7979 84.9824 35.3842C85.7874 35.3374 87.0523 34.7034 87.0523 34.7034C87.0523 34.7034 84.9309 37.0972 84.3785 37.4015C84.3627 35.752 84.2217 33.3449 83.237 33.0801C81.6216 33.1644 80.3713 33.8813 78.4099 36.2496Z" fill="black"/>
<path d="M79.4026 39.4118C80.8797 39.8089 82.3569 40.206 83.7855 40.519C84.3264 40.7355 83.2088 40.9615 83.2088 40.9615C82.5836 41.3199 80.4344 40.4789 79.942 40.3465C79.0899 39.3961 79.4026 39.4118 79.4026 39.4118Z" fill="black"/>
<path d="M85.3576 32.0626C85.0973 30.7895 83.9506 30.655 82.8677 30.4797C82.345 30.3961 81.8099 30.4358 81.3053 30.5954C80.8008 30.7551 80.3407 31.0303 79.9621 31.3991L79.9801 31.4302C80.4797 31.2723 80.9403 31.0829 81.4127 30.9572C82.1046 30.772 82.8836 30.5577 83.6064 30.7362C84.2875 31.0249 84.8801 31.4875 85.3246 32.0774L85.3576 32.0626Z" fill="black"/>
<path d="M84.8481 31.9362C84.925 32.8981 84.8675 33.8661 84.6773 34.8122L85.0353 34.8558C85.1084 33.8787 85.0454 32.8961 84.8481 31.9362Z" fill="black"/>
<path d="M61.6245 43.1546C61.5264 43.244 61.2949 43.4845 60.2782 43.1427C60.1844 43.1045 60.0998 43.047 60.0298 42.9741C59.9598 42.9011 59.906 42.8142 59.872 42.7191C59.8379 42.624 59.8243 42.5228 59.8321 42.4222C59.8399 42.3215 59.8688 42.2236 59.9171 42.1348C60.0231 41.9763 60.1796 41.8579 60.3614 41.7989C60.5431 41.7398 60.7396 41.7435 60.919 41.8092C61.7065 42.1 61.9492 42.8233 61.6245 43.1546Z" fill="#42210B"/>
<path d="M80.0601 29.9457C78.9742 31.6699 78.206 33.5735 77.7916 35.5668C78.4363 33.6504 79.1938 31.7734 80.0601 29.9457Z" fill="black"/>
<path d="M74.2076 23.6626C74.3782 24.5126 73.5125 26.8961 72.6738 27.0633C71.3938 27.3185 69.6116 27.2308 66.6191 27.8274C64.7455 28.2009 59.4169 30.5865 59.4169 30.5865C59.4169 30.5865 61.2204 28.2303 62.0997 27.4033C65.0894 24.5964 69.7744 25.8733 74.2076 23.6626Z" fill="black"/>
<path d="M74.3489 23.6347C74.3972 23.8756 74.3704 24.2065 74.299 24.5577C74.2268 24.913 74.1055 25.3047 73.9523 25.6739C73.7994 26.0426 73.6125 26.3944 73.4065 26.6673C73.205 26.9342 72.966 27.1515 72.7022 27.204C72.0519 27.3337 71.273 27.3763 70.3012 27.4602C69.3246 27.5445 68.1366 27.6712 66.6476 27.9681C65.7272 28.1516 63.9406 28.835 62.3705 29.4796C61.5884 29.8007 60.8647 30.1102 60.3364 30.3395C60.0723 30.4541 59.8571 30.5485 59.708 30.6144C59.6334 30.6473 59.5754 30.6731 59.536 30.6907C59.5163 30.6994 59.5013 30.7061 59.4913 30.7106C59.4862 30.7128 59.4824 30.7145 59.4798 30.7157C59.4786 30.7162 59.4775 30.7167 59.4769 30.717C59.4766 30.7171 59.4764 30.7172 59.4763 30.7173L59.4761 30.7173L58.9591 30.9487L59.3028 30.4998L59.4172 30.5867C59.3129 30.5074 59.3037 30.5004 59.303 30.4998L59.3029 30.4996L59.3032 30.4994C59.3035 30.4991 59.3037 30.4985 59.3042 30.4979C59.3051 30.4968 59.3064 30.4951 59.3082 30.4929C59.3116 30.4884 59.3168 30.4816 59.3235 30.4728C59.337 30.4553 59.3569 30.4294 59.3825 30.3963C59.4337 30.3301 59.5078 30.2347 59.5994 30.1175C59.7825 29.8833 60.0359 29.5622 60.3169 29.2153C60.8768 28.524 61.5535 27.7205 62.0015 27.2993L62.0014 27.2992L62.0736 27.2325C63.594 25.8496 65.5269 25.4707 67.5918 25.1677C69.6995 24.8585 71.9522 24.6274 74.1435 23.5347L74.312 23.4508L74.3489 23.6347ZM74.0848 23.8818C71.902 24.9217 69.6658 25.1532 67.6336 25.4514C65.533 25.7595 63.6571 26.1385 62.1985 27.5078L62.1983 27.5077C61.7669 27.9135 61.1024 28.7017 60.5407 29.3952C60.2869 29.7086 60.0557 30.0009 59.8788 30.2267C59.9808 30.182 60.0956 30.1315 60.2216 30.0768C60.751 29.847 61.4766 29.5367 62.2609 29.2147C63.8235 28.5732 65.6379 27.8771 66.5912 27.687C68.0945 27.3873 69.2939 27.2596 70.2765 27.1748C71.2639 27.0896 72.0162 27.0485 72.6458 26.923C72.8014 26.892 72.9852 26.7485 73.1766 26.4949C73.3635 26.2473 73.5397 25.9187 73.6867 25.5643C73.8334 25.2106 73.949 24.8366 74.0173 24.5008C74.0658 24.2623 74.0881 24.0506 74.0848 23.8818Z" fill="black"/>
<path d="M79.4369 28.8518C79.1117 28.5117 80.0491 27.2237 80.9869 26.6861C81.6121 26.3277 82.9218 25.7137 83.8113 26.174C84.7009 26.6343 86.2702 28.633 86.45 28.9446C86.6298 29.2562 85.3885 28.417 84.5285 28.2964C83.4958 28.1503 81.2606 28.6024 80.6355 28.9608C80.0103 29.3192 79.7155 29.1399 79.4369 28.8518Z" fill="black"/>
<path d="M86.9555 25.9482C86.3951 29.8744 84.9279 33.6481 84.4576 37.5932C84.4406 37.9827 84.4988 38.3718 84.6288 38.7397C85.0737 40.1441 85.5609 41.4704 85.8698 42.8698C87.3003 48.4803 85.8016 54.367 82.8685 59.238C82.329 60.1902 81.711 61.0712 81.2074 62.0567C80.7038 63.0422 80.4809 64.1034 80.0484 65.0897C79.645 65.968 79.1757 67.0417 78.1982 67.2783C77.1392 67.304 76.0803 67.2153 75.0401 67.0138C68.3148 65.7692 60.4115 63.0672 56.4969 57.1213C54.3023 54.0396 52.5649 50.6627 50.8874 47.2598C49.2143 43.8706 47.7707 40.3738 46.5661 36.7928C46.0194 35.0318 45.5251 33.2035 45.9671 31.3696C47.1444 25.8563 49.7175 20.7372 53.4415 16.4995C54.6846 15.1254 56.1905 14.0128 57.871 13.227C59.5982 12.4239 61.2875 11.5554 62.9909 10.7328C66.2845 9.1939 69.941 7.37648 73.6323 8.43483C79.4245 10.0938 84.4962 20.7158 86.9609 25.9576L86.9555 25.9482ZM87.0292 25.9392C84.7046 20.4719 79.7858 9.59638 73.7997 7.85352C69.9811 6.68977 66.0629 8.47875 62.6729 10.0811C60.9566 10.9029 59.2717 11.7647 57.5565 12.5526C52.2243 15.0606 49.1288 20.5432 46.9588 25.7568C46.2379 27.5359 45.6874 29.3792 45.3148 31.2622C45.1051 32.2271 45.0873 33.2239 45.2625 34.1961C46.2756 38.8675 48.4594 43.1834 50.541 47.4375C51.405 49.1287 52.3003 50.8019 53.2504 52.4479C54.9623 55.3125 56.6143 58.3111 59.1631 60.5302C62.4766 63.3897 66.5782 65.1588 70.725 66.4374C72.8138 67.0836 74.9587 67.5323 77.1313 67.7776C79.07 68.1187 79.8718 66.8793 80.5845 65.3342C81.0447 64.3528 81.324 63.2884 81.7579 62.3262C82.1918 61.364 82.8832 60.4949 83.4142 59.5641C87.5323 52.67 88.0559 46.0518 85.0451 38.6255C84.8423 37.9621 84.8228 37.2566 84.9888 36.5836C85.1003 35.8767 85.2427 35.1728 85.3882 34.4671C85.8556 31.9425 86.7975 28.4615 87.0292 25.9392Z" fill="black"/>
<path d="M68.0835 26.6133C66.2107 27.4494 64.829 29.2409 64.0315 31.3674C63.2071 33.5654 62.9924 36.155 63.5168 38.5122L63.6183 38.9465C64.1474 41.1048 65.0129 43.0524 66.2477 44.401C67.5759 45.8516 69.3315 46.6054 71.5104 46.1763L71.5103 46.1768C73.635 45.763 75.3576 43.7372 76.3499 41.2493C77.3471 38.7492 77.6445 35.6986 76.8478 33.111L76.7756 32.8823C76.0142 30.5361 74.7313 28.6575 73.2396 27.5005C71.6989 26.3056 69.9118 25.8677 68.2663 26.5352L68.0835 26.6133ZM64.5282 31.5524C65.2943 29.5097 66.5971 27.8562 68.3004 27.0955L68.4663 27.0247C69.8882 26.4478 71.477 26.8028 72.9142 27.9174C74.3074 28.9979 75.5363 30.7802 76.2711 33.0444L76.3405 33.2654L76.3407 33.2657L76.4087 33.4968C77.0779 35.9 76.7887 38.7188 75.8573 41.0539C74.891 43.4766 73.2702 45.2957 71.4084 45.6581L71.4081 45.6583L71.224 45.6918C69.3351 46.0048 67.8204 45.3352 66.6391 44.045C65.4855 42.7852 64.6507 40.9309 64.1337 38.8231L64.0344 38.3982C63.5328 36.144 63.7384 33.6581 64.5282 31.5524Z" fill="#FEF2EF"/>
<path d="M84.1241 27.8937C82.474 28.4859 81.319 29.8659 80.6342 31.6247C79.9279 33.4389 79.7121 35.6763 79.9656 37.9414L79.9921 38.1724C80.2831 40.5475 81.1065 42.5211 82.3145 43.8779C83.5265 45.2393 85.1234 45.975 86.9279 45.8606L87.1028 45.847C88.9568 45.6751 90.4314 44.1299 91.3252 42.0682C92.1954 40.0608 92.5455 37.5042 92.1635 35.0464L92.1243 34.8089C91.6645 32.1914 90.4241 30.2276 88.9409 29.0265C87.4629 27.8295 85.7231 27.3775 84.2855 27.8389L84.2851 27.839L84.1241 27.8937ZM81.0815 31.7979C81.7536 30.0716 82.874 28.7948 84.4324 28.2936L84.4323 28.294C85.6727 27.896 87.2469 28.2704 88.6386 29.3974C90.0251 30.5202 91.2102 32.378 91.6518 34.8911L91.6898 35.1204C92.0581 37.4909 91.7185 39.9557 90.885 41.8784C90.0201 43.8735 88.6555 45.2227 87.0584 45.3708L86.8987 45.3834C85.2556 45.4878 83.7976 44.8234 82.6733 43.5605C81.5085 42.2521 80.6996 40.2965 80.4425 37.8907L80.4423 37.8896C80.1951 35.6823 80.4091 33.525 81.0815 31.7979Z" fill="#FEF2EF"/>
<path d="M77.4324 35.8359C77.1983 35.8887 76.9748 35.9762 76.7952 36.115L76.7209 36.1778L76.6882 36.2148C76.6223 36.3065 76.6279 36.4346 76.7078 36.5206C76.7878 36.6066 76.9157 36.622 77.0125 36.5634L77.0517 36.5336L77.0938 36.4981C77.1987 36.4173 77.348 36.3526 77.5398 36.3093C77.757 36.2603 78.0132 36.2425 78.2857 36.253C78.8325 36.2741 79.4124 36.4066 79.8211 36.5851L79.8681 36.6003C79.9788 36.6239 80.0948 36.5677 80.142 36.4603C80.1958 36.3376 80.1396 36.1944 80.0164 36.1407L79.9264 36.1028C79.4667 35.9179 78.8685 35.7898 78.3044 35.7681C78.0025 35.7564 77.702 35.7751 77.4324 35.8359Z" fill="#FEF2EF"/>
<path d="M77.968 36.594C78.3585 38.3522 80.0443 42.038 83.7384 44.4316C83.8003 45.5986 81.8985 48.3226 81.8985 48.3226" fill="url(#paint6_radial_3347_108389)" fill-opacity="0.5"/>
<path d="M83.7224 44.6563C81.8213 45.0745 77.1826 46.6599 77.0037 47.3015C76.8248 47.9431 80.1496 49.3002 81.2357 48.7025C82.3218 48.1047 83.7224 44.6563 83.7224 44.6563Z" fill="#A85441"/>
<path d="M77.9343 36.6006C78.038 38.314 78.7853 39.9256 80.0272 41.1146C81.1195 42.3875 82.082 43.8177 83.5213 44.7548L83.3505 44.4588C83.1646 45.7804 82.3469 47.0452 81.8603 48.3069L81.9176 48.3487C82.4447 47.8276 82.91 47.2478 83.3042 46.6208C83.7441 45.8835 84.167 45.1601 84.1089 44.2231C82.7175 43.3041 81.162 42.3963 80.2549 40.9468C79.4909 39.4857 78.74 38.0834 78.0045 36.5853L77.9343 36.6006Z" fill="black"/>
<path d="M80.1921 46.2156C79.3866 45.9227 78.5815 46.546 78.3165 47.2908C78.989 46.8846 79.4462 46.4442 80.1921 46.2156Z" fill="black"/>
<path d="M55.2963 21.957C56.4328 20.8411 59.3519 18.8276 60.5439 18.6584C61.7358 18.4892 56.0812 15.25 55.1597 17.1135C54.2382 18.9769 55.2963 21.957 55.2963 21.957Z" fill="black"/>
<path d="M56.57 16.3715C55.9097 16.3259 55.2828 16.4715 55.0032 17.0369C54.5177 18.0185 54.5593 19.2746 54.7098 20.2607C54.7858 20.7579 54.891 21.1956 54.9771 21.5089C55.0202 21.6656 55.0587 21.7916 55.0865 21.8786C55.1004 21.9222 55.1115 21.9561 55.1193 21.9793C55.1232 21.9907 55.126 21.9997 55.1282 22.0058C55.1292 22.0088 55.13 22.0112 55.1306 22.0129C55.1309 22.0137 55.1312 22.0144 55.1314 22.0149L55.1317 22.0155C55.1317 22.0156 55.1318 22.0156 55.2965 21.9575L55.1319 22.0158L55.2237 22.2742L55.4194 22.0818C55.9764 21.5349 56.98 20.7597 57.9954 20.0992C58.5022 19.7696 59.0085 19.4708 59.46 19.2446C59.9158 19.0162 60.3007 18.8696 60.5691 18.8315C60.6584 18.8188 60.7656 18.7863 60.8317 18.6959C60.9062 18.5941 60.8873 18.4797 60.8542 18.4004C60.8213 18.3219 60.7631 18.2455 60.6968 18.1748C60.6285 18.102 60.5427 18.0255 60.4441 17.9475C60.0519 17.637 59.4137 17.2672 58.7145 16.9642C58.0161 16.6615 57.2393 16.4177 56.57 16.3715ZM55.3168 17.1911C55.498 16.8248 55.9239 16.6765 56.5457 16.7195C57.1585 16.7618 57.8935 16.9887 58.5749 17.284C59.2555 17.579 59.8653 17.9345 60.2268 18.2207C60.3166 18.2918 60.3884 18.3565 60.4413 18.4128C60.4695 18.4429 60.4901 18.4683 60.5047 18.489C60.1792 18.5384 59.7581 18.7049 59.3029 18.933C58.8363 19.1668 58.3182 19.4728 57.8041 19.8072C56.8898 20.4019 55.9769 21.0935 55.3789 21.6398C55.3596 21.5756 55.3375 21.5009 55.3144 21.4168C55.2309 21.113 55.1291 20.6888 55.0557 20.2081C54.9076 19.2384 54.8809 18.0728 55.3168 17.1911Z" fill="black"/>
<path d="M39.8131 19.8167C35.5696 21.8348 31.9585 25.8787 31.0269 28.1212C30.0952 30.3636 34.6567 51.4333 33.7272 54.4291C32.7977 57.425 40.8097 56.149 43.9744 52.2615C47.1392 48.3739 54.6946 31.1884 52.7558 25.6655C50.817 20.1427 50.9886 17.5564 48.2142 17.0737C45.4397 16.591 39.8131 19.8167 39.8131 19.8167Z" fill="url(#paint7_linear_3347_108389)"/>
<path d="M39.7286 19.6639C37.5885 20.6834 35.6123 22.2099 34.0543 23.7616C32.4969 25.313 31.3435 26.9036 30.8652 28.0547C30.7957 28.2223 30.7576 28.4595 30.7394 28.742C30.7208 29.0288 30.7218 29.3786 30.7388 29.7801C30.7728 30.5834 30.8715 31.6073 31.0127 32.7775C31.2952 35.1183 31.7498 38.0592 32.2035 41.0191C32.6574 43.9809 33.1106 46.9622 33.3925 49.39C33.5335 50.6041 33.6313 51.6769 33.665 52.5376C33.699 53.4065 33.6663 54.0354 33.5601 54.3779C33.4338 54.785 33.4526 55.1443 33.6179 55.4405C33.7814 55.7335 34.0723 55.9359 34.4317 56.0652C35.1454 56.3218 36.1957 56.3154 37.348 56.098C39.6569 55.6626 42.4941 54.3568 44.1103 52.3715C44.9142 51.384 45.9867 49.5665 47.1107 47.3205C48.2365 45.0708 49.4196 42.3797 50.4428 39.6375C51.4658 36.896 52.3306 34.099 52.8181 31.6382C53.3039 29.1864 53.4222 27.0361 52.9208 25.6078C52.4378 24.2319 52.0859 23.0385 51.7861 22.0122C51.4871 20.9887 51.2379 20.1236 50.9613 19.4162C50.6845 18.7081 50.3742 18.1408 49.9443 17.7191C49.5105 17.2936 48.9668 17.0275 48.2442 16.9018C47.5139 16.7748 46.6131 16.8931 45.6876 17.1297C44.7582 17.3672 43.7857 17.7291 42.9044 18.1041C42.0226 18.4793 41.2284 18.8695 40.655 19.1657C40.3682 19.3138 40.1362 19.4384 39.9758 19.5263C39.8957 19.5702 39.8336 19.6051 39.7913 19.6288C39.7701 19.6407 39.7537 19.6497 39.7427 19.6559L39.7286 19.6639ZM34.3018 24.0081C35.841 22.475 37.7888 20.9726 39.8885 19.974L39.8946 19.9713L39.916 19.959C39.9265 19.9531 39.9423 19.9441 39.9629 19.9326C40.0043 19.9093 40.0655 19.8753 40.1446 19.8321C40.3027 19.7454 40.532 19.6217 40.816 19.475C41.3842 19.1815 42.1702 18.7954 43.0418 18.4246C43.914 18.0534 44.8685 17.6989 45.7744 17.4674C46.6841 17.2349 47.5272 17.1311 48.1841 17.2453C48.8487 17.3609 49.3238 17.5997 49.6988 17.9675C50.0776 18.339 50.3661 18.8538 50.6355 19.543C50.9052 20.2327 51.1497 21.0802 51.4505 22.1099C51.7504 23.1368 52.1044 24.3377 52.5907 25.723C53.0587 27.0561 52.9595 29.1256 52.475 31.5709C51.9923 34.007 51.1343 36.7849 50.1152 39.516C49.0963 42.2465 47.918 44.9261 46.7977 47.1646C45.6756 49.4068 44.6169 51.1954 43.8384 52.1516C42.2899 54.0537 39.539 55.3299 37.2831 55.7554C36.153 55.9685 35.1765 55.9623 34.5504 55.7372C34.24 55.6255 34.0325 55.4663 33.9235 55.2709C33.8162 55.0786 33.7881 54.8224 33.8941 54.4808C34.0202 54.0743 34.0484 53.3894 34.0145 52.5239C33.9803 51.6502 33.8816 50.5674 33.7402 49.3498C33.4574 46.9145 33.0029 43.9265 32.5492 40.9663C32.0951 38.0041 31.6417 35.0699 31.36 32.7359C31.2192 31.5687 31.1216 30.5552 31.0881 29.7653C31.0714 29.3703 31.0709 29.0343 31.0884 28.7646C31.1061 28.4909 31.1416 28.3008 31.1884 28.1881C31.6418 27.0968 32.7599 25.5439 34.3018 24.0081Z" fill="black"/>
<path d="M57.5443 11.161C55.4488 10.3555 52.3163 8.50242 50.5806 10.3392C48.845 12.1759 48.0576 16.8816 49.8546 18.244C51.6515 19.6063 62.4085 17.3703 62.3162 14.6078C62.2239 11.8452 57.5443 11.161 57.5443 11.161Z" fill="url(#paint8_linear_3347_108389)"/>
<path d="M75.0258 4.81198C68.0524 2.27907 60.2152 2.43068 53.2529 4.97083C48.0798 6.92061 43.0827 10.0549 40.0204 14.7545C39.0497 16.302 38.286 18.1289 38.4366 19.9831C38.7291 16.3158 41.5443 13.4662 44.2314 11.2167C52.7701 4.42247 64.4698 2.31359 75.0258 4.81198Z" fill="black"/>
<path d="M70.9981 16.5181C67.5842 12.2887 62.9199 13.6856 61.0776 18.4736C61.8213 17.7653 62.4995 17.0447 63.235 16.4448C65.8644 14.1745 68.2351 15.0171 71.0018 16.5533L70.9981 16.5181Z" fill="black"/>
<path d="M49.2377 45.9974C50.6004 50.2334 51.6081 54.532 51.6707 58.8291C51.7069 60.9656 51.5223 63.1001 51.1197 65.1989C50.7016 67.3031 50.1189 69.3715 49.377 71.3852C49.0057 72.3997 48.6167 73.4078 48.2101 74.4094C47.8035 75.4109 47.3708 76.4178 46.9121 77.4299L46.2445 78.9405L45.9094 79.7007C45.7983 79.9551 45.688 80.1966 45.5712 80.4916C45.1013 81.6255 44.8246 82.8296 44.7525 84.0543C44.5972 86.5051 45.3827 88.9231 46.9497 90.8181C47.7124 91.7325 48.667 92.469 49.7463 92.9756C50.2788 93.2146 50.8391 93.3865 51.4143 93.4873C51.9769 93.5793 52.5505 93.5834 53.1144 93.4995C50.8755 93.2239 49.0926 91.7706 48.025 90.0358C46.966 88.3019 46.5452 86.2548 46.8346 84.2455C46.909 83.7613 47.0182 83.2831 47.1611 82.8144C47.3124 82.3403 47.4952 81.8767 47.7083 81.4268C47.8038 81.2103 47.931 80.9549 48.0538 80.7063L48.3987 79.9487C48.6474 79.4496 48.8843 78.9447 49.1231 78.4429C50.107 76.4168 50.9835 74.3406 51.749 72.223C52.1307 71.1541 52.4707 70.0636 52.7547 68.9553C53.0476 67.8461 53.2762 66.721 53.4394 65.5856C53.7753 63.3129 53.8297 61.0076 53.6013 58.7217C53.0823 54.2167 51.5939 49.8764 49.2377 45.9974Z" fill="url(#paint9_linear_3347_108389)"/>
<path d="M45.9677 48.7642C46.6002 51.0567 47.0004 53.4066 47.1623 55.7788L47.1962 56.2273L47.2105 56.6759L47.2391 57.5747V58.4754V58.9275L47.2159 59.3778C47.0562 63.0305 46.2088 66.6207 44.7177 69.9611C44.5909 70.2388 44.4713 70.52 44.3391 70.7941L43.9374 71.6147C43.6534 72.1487 43.3713 72.6826 43.0624 73.2166C42.4606 74.2703 41.8124 75.2902 41.1124 76.2745C39.7312 78.221 38.2488 80.0943 36.6714 81.8866C36.2839 82.3351 35.9 82.7765 35.5053 83.2215L34.3607 84.5244C34.0184 84.9258 33.7028 85.3491 33.4161 85.7917C33.1347 86.2357 32.8876 86.7005 32.6768 87.1818C32.4659 87.6641 32.2974 88.1638 32.1732 88.6751C32.0433 89.1888 31.9596 89.713 31.9232 90.2415C31.8463 91.3172 31.9599 92.3981 32.259 93.4346C32.5611 94.4975 33.0716 95.4902 33.7607 96.3555C34.477 97.2588 35.4141 97.9636 36.4821 98.4024C35.2609 98.2432 34.1141 97.728 33.1857 96.9215C32.2264 96.101 31.4601 95.0801 30.9411 93.9312C30.4063 92.765 30.1031 91.5066 30.0483 90.2254C30.023 89.5795 30.0559 88.9326 30.1465 88.2925C30.2426 87.6496 30.3955 87.0164 30.6036 86.4004C31.0255 85.1696 31.6475 84.0163 32.4447 82.9865L32.5964 82.7979L32.7411 82.6199L33.0197 82.2799L33.5768 81.5982L34.6875 80.2401C35.422 79.3336 36.1464 78.4252 36.8607 77.5151C37.5749 76.605 38.263 75.6824 38.9249 74.7473C40.2528 72.8987 41.4332 70.949 42.4552 68.9163C42.5856 68.6654 42.7017 68.4073 42.8124 68.151C42.9231 67.8947 43.0516 67.6384 43.1588 67.3767L43.4909 66.5971L43.7963 65.805C44.1914 64.7427 44.5317 63.6609 44.8159 62.5638C44.8963 62.2897 44.9498 62.0103 45.0195 61.7344C45.0891 61.4585 45.1534 61.179 45.198 60.8996L45.3641 60.0577L45.5052 59.2105L45.573 58.7851L45.6266 58.3579L45.7391 57.5035L45.8213 56.6421L45.8623 56.2095L45.8909 55.777C46.0426 53.4425 46.0682 51.1015 45.9677 48.7642Z" fill="url(#paint10_linear_3347_108389)"/>
<path d="M60.6941 85.2042C52.021 74.5247 53.1853 63.9965 52.0067 43.419C50.7407 21.3053 45.8979 49.2055 46.7354 59.4382C47.1014 63.9093 47.8728 76.9472 60.6941 85.2042Z" fill="url(#paint11_linear_3347_108389)"/>
<path d="M50.2471 34.9381C50.3756 34.9045 50.5042 34.9213 50.6227 34.9853C50.8418 35.1036 51.0123 35.3746 51.1569 35.7381C51.3059 36.113 51.444 36.6309 51.571 37.303C51.8252 38.6485 52.04 40.6409 52.1985 43.4079L52.2522 44.3665C52.7898 54.1963 52.8205 61.6715 53.7301 67.9961C54.6667 74.5095 56.5335 79.7767 60.8433 85.0836L61.5998 86.0151L60.59 85.3647C48.4906 77.5726 47.0544 65.5471 46.6204 60.3901L46.5441 59.4536C46.1233 54.3121 47.1279 44.7585 48.3951 39.2557C48.7119 37.8802 49.0477 36.7456 49.3865 35.9931C49.5546 35.6199 49.7315 35.3218 49.9201 35.1376C50.0155 35.0445 50.1244 34.9701 50.2471 34.9381ZM50.3444 35.3083C50.308 35.3178 50.2558 35.3457 50.1889 35.411C50.0528 35.5438 49.8996 35.7882 49.7369 36.1497C49.4139 36.867 49.0847 37.972 48.7694 39.3414C47.5081 44.8185 46.5102 54.3312 46.9268 59.4225L47.003 60.3569C47.4234 65.346 48.7774 76.6779 59.7963 84.3708C55.9619 79.316 54.2383 74.2268 53.3501 68.0503C52.4376 61.7053 52.4048 54.1885 51.8687 44.3855L51.8152 43.4297C51.6571 40.6684 51.4435 38.6952 51.1938 37.3738C51.0689 36.7125 50.9362 36.2215 50.8001 35.8791C50.6594 35.5254 50.5302 35.3707 50.4398 35.3218C50.4037 35.3024 50.375 35.3003 50.3444 35.3083Z" fill="black"/>
<path d="M38.2992 20.4747C40.1584 13.6037 55.6815 3.87519 66.4711 2.25079C77.8334 0.559258 88.9951 5.48439 95.037 12.8264C103.385 22.968 114.895 44.4868 107.038 49.4846C109.4 45.8499 106.654 40.1679 102.621 37.5041C104.645 41.7339 108.069 50.5517 98.7774 54.6347C104.404 51.409 99.2184 42.2203 96.7672 39.6159C92.491 35.0888 88.8729 31.7022 81.9045 26.1933C73.8997 19.8688 70.0078 15.6688 67.7907 14.4147C65.3268 13.0283 62.4815 15.5013 60.8696 18.5691C58.0841 14.477 45.5827 17.9577 38.2992 20.4747Z" fill="url(#paint12_linear_3347_108389)"/>
<path d="M38.3133 20.4624C38.9707 18.3358 40.4756 16.5318 42.025 14.9635C43.6281 13.3953 45.3644 11.9684 47.2144 10.6989C59.0786 2.65335 71.5452 -1.11839 85.1087 5.37382C89.16 7.3024 92.7122 10.1335 95.4909 13.6484C99.64 18.9405 103.155 24.6976 105.963 30.8028C108.027 35.4537 112.316 45.8202 106.981 49.3928L107.13 49.5435C107.762 48.525 108.066 47.3379 108 46.1421C107.796 42.494 105.416 39.1979 102.402 37.2478C103.204 38.8457 103.849 40.517 104.329 42.2384C105.862 47.7205 104.146 52.295 98.7445 54.5914L98.7984 54.6849C99.3923 54.3496 99.9135 53.9001 100.332 53.3623C103.017 49.617 99.866 43.5366 97.4645 40.3191C90.4028 32.1396 81.4324 26.0162 73.4052 18.867C71.8834 17.5417 70.4054 16.1625 68.7957 14.9373C67.696 14.0336 66.2956 13.5676 64.9381 14.1924C63.0467 15.0238 61.7353 16.7667 60.7871 18.5335L60.9239 18.5255C57.5479 13.9219 42.9552 18.8753 38.3022 20.4647L38.3133 20.4624ZM38.2852 20.4786C42.8763 18.9909 57.4642 14.0653 60.7976 18.6021L60.8641 18.7174L60.9282 18.5977C61.876 16.8809 63.1706 15.1809 65.0143 14.3893C67.0548 13.4558 68.741 15.1885 70.1944 16.3953C73.2317 19.0493 76.212 21.7775 79.3429 24.3198C85.6497 29.3164 91.9964 34.3607 97.3337 40.4024C98.9832 42.5211 100.197 44.9434 100.906 47.5306C101.607 50.0725 101.316 53.2084 98.7341 54.5807L98.7881 54.6742C100.362 54.0284 101.772 53.0428 102.918 51.7884C106.498 47.7205 104.81 41.8175 102.686 37.4583L102.562 37.567C106.112 39.9561 109.409 45.2888 106.937 49.4179L106.672 49.823L107.085 49.5655C113.83 45.0268 106.186 30.0572 103.19 24.6554C97.109 14.0808 91.3905 5.91491 78.8913 2.73091C74.5014 1.62883 69.9252 1.47938 65.4723 2.29266C58.8466 3.65711 52.648 6.74216 47.1295 10.5734C43.7828 13.0353 39.5225 16.394 38.2906 20.4879L38.2852 20.4786Z" fill="black"/>
<path d="M66.5627 74.2998C55.9733 66.7619 57.6195 55.0373 51.3654 36.6215C44.6498 16.8366 47.0006 43.0505 50.3355 52.1393C51.7981 56.1231 52.8256 70.0012 66.5627 74.2998Z" fill="url(#paint13_linear_3347_108389)"/>
<path d="M47.5913 29.2781C47.4825 29.331 47.3964 29.4206 47.3276 29.5253C47.1924 29.7313 47.0981 30.038 47.0312 30.4091C46.8962 31.1579 46.8594 32.2517 46.9008 33.5589C47.0663 38.7886 48.4897 47.6342 50.1655 52.2014L50.1656 52.2017C51.6025 56.1159 52.6609 70.1386 66.5083 74.4718L67.588 74.8097L66.667 74.1541C61.4209 70.4197 59.2009 65.6504 57.5119 59.493C56.6661 56.4096 55.9564 52.9905 55.0643 49.1775C54.2288 45.6062 53.2351 41.6986 51.8236 37.4241L51.5356 36.5644C50.6952 34.0887 49.9947 32.3257 49.4176 31.1563C49.1294 30.5721 48.8691 30.1301 48.6344 29.82C48.4056 29.5179 48.179 29.3106 47.9494 29.2482C47.8266 29.2148 47.7041 29.2233 47.5913 29.2781ZM47.7494 29.6014C47.7774 29.5877 47.8092 29.5829 47.8542 29.5951C47.9605 29.624 48.1253 29.7443 48.3465 30.0365C48.5618 30.3208 48.8103 30.7401 49.0939 31.3148C49.6607 32.4633 50.3556 34.2091 51.1941 36.6795L51.4811 37.5366C52.8878 41.7968 53.879 45.6931 54.7134 49.2593C55.6025 53.0596 56.3158 56.4958 57.1639 59.5877C58.763 65.4174 60.852 70.0672 65.5482 73.7654C53.1386 69.2094 51.9875 56.4421 50.5739 52.275L50.5042 52.0781C48.8451 47.5565 47.4258 38.7507 47.2611 33.5475C47.2199 32.2465 47.2579 31.1831 47.386 30.4726C47.4506 30.1142 47.5351 29.8658 47.6296 29.7219C47.6757 29.6516 47.7172 29.617 47.7494 29.6014Z" fill="black"/>
<path d="M51.0985 14.9059C50.506 14.9029 49.9252 15.0703 49.4257 15.3881C48.9055 15.733 48.4635 16.1827 48.1283 16.7082C47.5088 17.7231 47.0612 18.8328 46.8038 19.9928C46.3262 22.1386 46.0002 24.3151 45.8282 26.5064C45.4129 30.7251 45.0808 34.7635 43.9101 38.3869C43.3594 40.184 42.5387 41.8875 41.4759 43.4396C40.927 44.2336 40.3282 44.9923 39.6834 45.7112C39.3588 46.0714 39.0203 46.4147 38.6683 46.7492C38.3163 47.0837 37.9621 47.407 37.5922 47.7103C36.8774 48.3097 36.0963 48.8257 35.2639 49.2482C34.5632 49.6416 33.7625 49.8225 32.9601 49.7687C32.597 49.7195 32.2567 49.5638 31.9825 49.3216C31.6507 49.0193 31.3814 48.6554 31.1896 48.2502C30.758 47.2943 30.4664 46.2815 30.3237 45.2429C30.0026 46.3286 29.8975 47.4664 30.0142 48.5923C30.0951 49.2235 30.3044 49.8316 30.6293 50.3793C31.0041 50.9985 31.5533 51.494 32.2086 51.8042C32.8537 52.1098 33.5577 52.2721 34.2719 52.2799C34.9284 52.2817 35.5828 52.2058 36.2214 52.0538C37.4045 51.7589 38.541 51.3026 39.599 50.698C40.6315 50.1187 41.6071 49.4442 42.5131 48.6832C43.4226 47.9291 44.2657 47.099 45.0333 46.2018C45.8178 45.29 46.5195 44.3105 47.1299 43.2749C47.737 42.238 48.2469 41.1476 48.6532 40.0174C49.416 37.819 49.8811 35.529 50.0362 33.208C50.1936 30.9964 50.1808 28.7761 49.9979 26.5666C49.8554 24.4091 49.5673 22.3021 49.4282 20.2588C49.3412 19.2763 49.3678 18.2871 49.5076 17.3107C49.5448 17.0776 49.6032 16.8484 49.6824 16.6259C49.7668 16.4045 49.877 16.1938 50.0107 15.9981C50.2799 15.5521 50.653 15.1775 51.0985 14.9059Z" fill="url(#paint14_linear_3347_108389)"/>
<path d="M53.4944 12.7572C50.0053 11.6849 48.6017 16.9015 48.5227 20.463C48.4005 26.0188 48.0678 41.0001 42.632 47.815C33.0409 57.4931 23.506 54.6664 25.1467 49.5794C21.4977 56.2324 32.5332 58.5596 37.6909 56.9005C48.541 53.4128 55.0761 41.2863 55.4764 29.3637C55.6796 23.3427 55.6658 19.2456 56.2659 18.7067C57.4629 17.6307 59.1754 18.8466 60.3763 18.693C61.5773 18.5394 57.3255 13.932 53.4944 12.7572Z" fill="url(#paint15_linear_3347_108389)"/>
<path d="M51.1631 12.8607C50.5022 13.2783 49.979 13.9721 49.5729 14.7952C48.7609 16.441 48.3878 18.6633 48.348 20.459L48.3212 21.6066C48.2479 24.5206 48.076 29.0215 47.3969 33.6413C46.6201 38.9254 45.184 44.3301 42.5006 47.6993C37.7316 52.5086 32.9982 54.19 29.6845 54.0597C28.0252 53.9945 26.7354 53.4766 25.9628 52.6887C25.1973 51.908 24.922 50.8456 25.3133 49.6326L24.9934 49.4956C24.0593 51.1988 24.0524 52.6546 24.6877 53.8449C25.3168 55.0235 26.5577 55.9077 28.0498 56.5182C30.9391 57.7005 34.8687 57.8977 37.4947 57.1423L37.7446 57.0663C48.6894 53.5481 55.2496 41.3359 55.6515 29.3694L55.6513 29.3691C55.753 26.3545 55.8002 23.8308 55.897 21.9885C55.9454 21.0676 56.0059 20.3239 56.0907 19.7791C56.1332 19.5065 56.1811 19.2889 56.2344 19.1262C56.2758 18.9999 56.3165 18.9199 56.351 18.8727L56.383 18.8361C56.9154 18.3576 57.5669 18.3763 58.2844 18.5244C58.4624 18.5612 58.6412 18.6054 58.8213 18.6502C59.0003 18.6948 59.1813 18.7403 59.3586 18.7788C59.711 18.8553 60.0675 18.9079 60.3987 18.8656C60.5038 18.8521 60.6056 18.8106 60.676 18.7224C60.7455 18.6353 60.7631 18.5295 60.7571 18.4313C60.7455 18.2432 60.643 18.0149 60.4957 17.7749C60.1948 17.2845 59.6439 16.6454 58.943 15.9816C57.5415 14.6544 55.4975 13.1889 53.5458 12.5905L53.3749 12.5422C52.5276 12.3253 51.7895 12.4649 51.1631 12.8607ZM51.3504 13.155C51.9291 12.7894 52.6179 12.6699 53.443 12.9235L53.4432 12.9238C55.3225 13.5001 57.3203 14.9258 58.7021 16.2344C59.3928 16.8884 59.919 17.5033 60.1972 17.9566C60.3394 18.1884 60.402 18.3546 60.4081 18.4524C60.4094 18.4743 60.4075 18.4885 60.4055 18.4964C60.4045 18.5002 60.4038 18.5027 60.4032 18.5038C60.4029 18.5044 60.4025 18.5049 60.4023 18.5051L60.402 18.5053C60.402 18.5054 60.4019 18.5057 60.4016 18.506C60.4009 18.5065 60.3992 18.5076 60.3961 18.5091C60.3897 18.5123 60.3765 18.517 60.354 18.5199C60.0847 18.5543 59.7768 18.5127 59.433 18.4381C59.2621 18.401 59.0869 18.3569 58.9059 18.3118C58.7261 18.267 58.5409 18.2214 58.3551 18.183C57.6168 18.0306 56.8134 17.9798 56.1488 18.5773L56.1491 18.5771C56.0387 18.6762 55.9615 18.8358 55.9018 19.0181C55.8402 19.2061 55.7889 19.4445 55.7451 19.7258C55.6574 20.2889 55.5961 21.047 55.5476 21.9702C55.4748 23.3549 55.4299 25.127 55.3692 27.1948L55.3018 29.3577L55.2786 29.9144C54.6985 41.6105 48.2246 53.3314 37.6373 56.7346L37.3953 56.8081C34.8516 57.5392 31.0039 57.35 28.1825 56.1956C26.7273 55.6001 25.5712 54.7584 24.9963 53.6813C24.5729 52.8881 24.4554 51.9484 24.7901 50.85C24.8263 51.6463 25.1496 52.3582 25.7127 52.9325C26.5662 53.8029 27.9525 54.3407 29.6707 54.4082C33.1105 54.5434 37.937 52.8005 42.7565 47.9372L42.7629 47.9307L42.7688 47.9233C45.5177 44.477 46.9644 38.9875 47.743 33.6919C48.4252 29.0514 48.5976 24.533 48.6709 21.615L48.6977 20.4667C48.7369 18.7008 49.1051 16.5339 49.8869 14.9492C50.2777 14.1571 50.7644 13.5252 51.3504 13.155Z" fill="black"/>
<path d="M61.8379 8.63839C64.1561 7.09727 66.859 6.22973 69.6438 6.13289C72.3721 6.11117 75.0773 6.63261 77.6007 7.66662C80.1609 8.68055 82.6227 9.92573 84.9554 11.3866C87.3336 12.8262 89.6192 14.4226 91.9567 16.0224C93.1214 16.8225 94.305 17.6409 95.576 18.3801C96.7762 19.0977 97.977 19.8232 99.1505 20.581C101.514 22.0572 103.77 23.6989 105.9 25.4939C106.947 26.3787 107.922 27.345 108.815 28.3837C109.711 29.3954 110.435 30.5459 110.96 31.7901C111.471 33.0313 111.551 34.4078 111.185 35.6993C110.738 37.0201 110 38.2247 109.027 39.2256C110.178 38.3457 111.097 37.1997 111.705 35.8865C111.998 35.1969 112.164 34.4601 112.193 33.7117C112.213 32.9588 112.116 32.2073 111.906 31.4838C111.473 30.0632 110.79 28.7306 109.889 27.5483C109.022 26.3803 108.063 25.2828 107.022 24.2661C104.934 22.2835 102.696 20.4639 100.329 18.8234C99.1531 18.0045 97.966 17.2089 96.7567 16.4468C96.1648 16.0771 95.6208 15.6965 95.0475 15.2871L93.3359 14.0582C91.0435 12.3995 88.6844 10.7623 86.1921 9.30514C83.6979 7.8089 81.0439 6.59476 78.2795 5.68525C76.8718 5.24555 75.4272 4.93295 73.9633 4.75124C72.4921 4.57345 71.0037 4.5902 69.5368 4.80105C68.0748 5.00772 66.6557 5.44747 65.3338 6.10345C64.6918 6.43367 64.0747 6.80967 63.487 7.22853C62.9045 7.6589 62.3533 8.13004 61.8379 8.63839Z" fill="url(#paint16_linear_3347_108389)"/>
<path opacity="0.2" d="M42.4975 29.602C44.0745 28.615 38.5341 31.9613 37.6525 31.003C36.771 30.0447 36.7614 28.2257 36.7614 28.2257C36.7614 28.2257 35.0511 30.193 34.891 33.8591C34.7309 37.5251 34.9359 38.3489 34.9359 38.3489C34.9359 38.3489 34.8634 35.8154 37.1393 34.5978C39.4152 33.3801 39.8437 37.1939 39.8437 37.1939C39.8437 37.1939 40.3441 30.9526 42.4975 29.602Z" fill="#C79984"/>
<path opacity="0.2" d="M74.9023 17.2586C72.8621 17.5077 79.9447 16.5241 80.0305 15.094C80.1164 13.664 78.844 12.1005 78.844 12.1005C78.844 12.1005 81.6789 12.5941 84.38 15.6316C87.0812 18.6691 87.4713 19.5111 87.4713 19.5111C87.4713 19.5111 85.7726 17.288 82.9652 17.8152C80.1577 18.3424 82.4646 21.9294 82.4646 21.9294C82.4646 21.9294 77.6933 16.9191 74.9023 17.2586Z" fill="#C79984"/>
<path opacity="0.2" d="M82.9918 11.6379C81.6483 11.6742 86.3114 11.4722 86.4591 10.5458C86.6068 9.61939 85.8742 8.53005 85.8742 8.53005C85.8742 8.53005 87.6866 9.02521 89.246 11.1582C90.8054 13.2911 91.0204 13.8728 91.0204 13.8728C90.7122 13.4161 90.2892 13.048 89.7937 12.8053C89.2982 12.5626 88.7474 12.4538 88.1964 12.4897C86.3438 12.6602 87.6161 15.1319 87.6161 15.1319C87.6161 15.1319 84.8241 11.5909 82.9918 11.6379Z" fill="#C79984"/>
<path d="M76.3003 54.9424C77.9764 54.2541 80.2173 54.4228 79.8801 54.4516C80.2062 54.4299 79.5406 55.2667 79.5174 55.6305C79.4942 55.9943 79.32 56.4176 78.9298 56.4568C77.9123 56.534 76.8895 56.4128 75.9184 56.1001C74.564 55.6551 74.8909 55.511 74.8909 55.511C74.8909 55.511 75.4295 55.298 76.3003 54.9424Z" fill="black"/>
<path d="M75.7148 94.1341C74.1809 93.3474 71.7702 90.3393 71.3113 86.872C71.1327 85.546 71.0756 84.9853 71.0756 84.9853C70.5243 84.8259 69.9561 84.7315 69.3827 84.7041C68.5292 84.6792 68.2917 82.3902 68.0935 81.6462C67.8953 80.9022 67.6595 78.6204 67.6595 78.6204C67.1291 78.1401 66.6873 77.5708 66.3542 76.9384C66.0849 76.3423 65.9195 75.7049 65.8649 75.0534C65.3755 74.2269 65.1173 73.2846 65.1173 72.3248C65.1173 71.365 65.3755 70.4228 65.8649 69.5962C67.1613 67.3161 67.006 67.5262 67.006 67.5262C67.006 67.5262 65.8953 68.5656 64.3864 68.1758C62.8775 67.786 65.5917 64.1479 65.9203 63.452C66.2774 62.6884 71.0041 60.4688 73.3113 59.8832C74.6148 59.5522 75.0755 61.745 75.7148 62.8147C76.3541 63.8845 80.6522 67.6294 81.1343 69.0711C81.5683 70.3705 80.0469 74.9271 79.829 77.305C79.5665 80.1885 81.5683 89.0062 81.1343 90.3073C80.7004 91.6084 75.7148 94.1341 75.7148 94.1341Z" fill="#BC795D"/>
<path d="M75.7152 94.1769C75.3015 93.9807 74.9183 93.7259 74.5777 93.4204C73.5669 92.5119 72.7322 91.4259 72.1152 90.2166C71.5833 89.2092 71.2168 88.1233 71.0295 87.0003C70.9653 86.5767 70.8081 85.4589 70.7456 85.0139L70.9796 85.2951C70.5059 85.1652 70.0199 85.0846 69.5296 85.0548C68.7671 85.1082 68.4153 84.3838 68.2153 83.7929C67.7439 82.1094 67.4283 80.3863 67.2725 78.6454L67.4028 78.8946C66.8465 78.4138 66.3931 77.8262 66.0697 77.1669C65.7463 76.5075 65.5596 75.79 65.5207 75.0571L65.5796 75.2351C64.4511 73.3288 64.6582 70.8814 65.9153 69.0962C66.3975 68.3842 66.9421 67.6224 67.76 67.2557C67.8681 67.21 67.9837 67.1841 68.101 67.1792H68.7778C68.0483 67.591 67.2751 67.9205 66.4725 68.1617C65.685 68.3931 63.5136 68.7419 63.6832 67.3839C63.8457 66.6256 64.3225 65.9849 64.6904 65.3352C65.0582 64.6855 65.4493 64.0501 65.7743 63.3862C66.0189 62.9501 66.4475 62.708 66.8314 62.4339C67.8577 61.7893 68.9393 61.2366 70.0635 60.7822C70.7938 60.5081 71.492 60.1752 72.2902 60.0702C73.7313 60.0506 75.0384 61.2681 75.8616 62.3414C76.692 63.5677 77.8259 64.4933 78.8616 65.5897C79.2848 66.0187 79.7026 66.4548 80.1116 66.9051C80.6669 67.5601 81.3615 68.2347 81.6169 69.1157C81.7847 70.1588 81.5205 71.1893 81.3365 72.1879C81.0901 73.3697 80.8008 74.5338 80.5633 75.6889C80.2853 76.8122 80.1984 77.974 80.3062 79.126C80.4651 81.1818 80.8919 84.1453 81.1669 86.2225C81.2455 86.817 81.3151 87.4132 81.3723 88.0131C81.4223 88.7802 81.5508 89.5616 81.3901 90.3483C80.9776 91.6494 77.0187 93.5753 75.7188 94.1769H75.7152ZM75.7152 94.0897C75.6973 94.0897 75.7348 94.0772 75.7456 94.0683L75.7938 94.0398L75.892 93.9847C76.2348 93.7871 76.8955 93.3955 77.2437 93.1837C78.4652 92.397 79.7991 91.6352 80.7437 90.5263C80.8975 90.3286 80.968 90.079 80.9401 89.8304C80.908 88.6698 80.6705 87.4773 80.4955 86.3186C80.3205 85.1599 80.0919 83.9638 79.908 82.7783C79.6473 80.9735 79.3044 79.1865 79.3723 77.3336C79.6026 74.9289 80.4151 72.6471 80.7133 70.278C80.7455 69.8793 80.8044 69.5198 80.6812 69.1602C80.4008 68.5426 79.9169 68.0175 79.458 67.4729C78.7937 66.6826 77.7223 65.6378 77.008 64.8706C76.4624 64.3291 75.9519 63.7537 75.4795 63.1477C74.8206 62.0797 73.8867 61.0812 72.6777 60.7145C72.432 60.6493 72.1729 60.6536 71.9295 60.727C71.3586 60.8688 70.7953 61.0399 70.2421 61.2396C69.1279 61.6396 68.0521 62.1388 67.0278 62.7312C66.6707 62.9501 66.2743 63.1797 66.0618 63.5215C65.7171 64.1925 65.3225 64.8368 64.9332 65.4794C64.6095 65.975 64.3208 66.4924 64.0689 67.0279C63.7868 67.6918 63.9654 67.9997 64.6796 68.0852C65.8332 68.2044 67.01 67.7292 68.0207 67.1952L68.0957 67.5049C67.7751 67.5931 67.4857 67.7688 67.26 68.0122C65.4475 69.8918 64.7118 72.6222 66.2046 74.9182C66.2637 75.5857 66.4453 76.2367 66.7403 76.8388C67.0494 77.3958 67.4482 77.8985 67.9207 78.3268L68.035 78.43L68.051 78.5777C68.2046 80.2646 68.496 81.9361 68.9224 83.5757C68.9908 83.8449 69.1196 84.095 69.2992 84.3073C69.3867 84.366 69.326 84.3518 69.5778 84.3678C69.7564 84.382 69.9349 84.4052 70.1135 84.4319C70.5431 84.5019 70.9669 84.6036 71.3813 84.7362L71.4045 84.9552C71.4974 85.701 71.5831 86.833 71.7224 87.5645C72.2135 89.9674 73.642 92.696 75.7134 94.095L75.7152 94.0897Z" fill="black"/>
<path d="M74.3989 67.1278C73.7472 66.9106 69.6151 66.6935 66.5723 67.9946C67.858 66.7536 69.2549 65.6323 70.7454 64.6448C70.8526 64.5736 70.9767 64.5318 71.1052 64.5236C71.2338 64.5155 71.3622 64.5413 71.4775 64.5985C72.066 64.9384 72.6089 65.3511 73.0936 65.8266L74.3989 67.1278Z" fill="black"/>
<path d="M73.5293 78.3963C73.1293 79.5586 72.5578 80.6461 72.1454 81.7959C71.7073 82.928 71.4407 84.1188 71.3543 85.3291C70.84 82.8372 72.1364 80.3898 73.5293 78.3874V78.3963Z" fill="black"/>
<path d="M69.5776 80.63C70.4383 80.8614 71.3437 80.8276 72.224 80.7796V81.2121C71.3312 81.1177 70.4044 81.0038 69.5776 80.63Z" fill="black"/>
<path d="M75.7043 74.9449C75.0186 75.2165 74.3159 75.4437 73.6007 75.6248C73.2436 75.7013 72.865 75.7387 72.5079 75.8348C71.7936 76.0128 71.1329 76.3919 70.4419 76.6429C69.5669 77.0736 68.1473 77.1769 68.0633 78.3854L68.0223 78.3961C67.7544 77.7055 68.358 76.9722 68.9865 76.7266C69.7593 76.3947 70.5657 76.147 71.3919 75.9879C72.5079 75.8099 73.4615 75.162 74.5775 74.9947C74.9459 74.9129 75.3238 74.8817 75.7007 74.9022V74.9449H75.7043Z" fill="black"/>
<path d="M76.9952 71.4796C76.622 71.3211 76.2809 71.0666 75.9148 70.9313C75.2809 70.7729 74.622 71.0648 73.9809 71.136L73.1667 71.2606C71.806 71.4831 70.606 72.2164 69.4167 72.8519C68.5935 73.3609 65.715 74.8383 65.731 75.7905H65.6882C65.5578 75.2085 66.0864 74.7101 66.4489 74.3221C68.0685 72.7664 70.2274 71.9726 72.3417 71.314C73.1327 71.0595 73.9077 70.748 74.7273 70.6021C75.1398 70.5344 75.6309 70.4543 76.0398 70.6501C76.4487 70.8459 76.713 71.1592 77.0327 71.4404L77.0095 71.476L76.9952 71.4796Z" fill="black"/>
<path d="M70.1598 71.0861C71.4758 71.0736 73.2597 71.1288 73.2597 71.1288L68.0259 73.1241L68.5884 72.0454C68.738 71.7582 68.9634 71.5171 69.2403 71.3481C69.5172 71.1791 69.8351 71.0885 70.1598 71.0861Z" fill="black"/>
<path d="M77.6596 68.167C77.0471 67.7612 76.3096 67.6046 75.615 67.3999C74.9204 67.1952 74.1864 67.0439 73.4722 66.9051L73.5775 66.4832C74.2918 66.7021 74.9846 66.9353 75.6775 67.1952C76.3703 67.455 77.0828 67.7007 77.656 68.1688L77.6596 68.167Z" fill="black"/>
<path d="M114.4 119.135C113.095 114.367 107.016 114.982 105.507 112.905C99.0182 103.943 85.9881 88.499 85.2684 87.5041C84.3756 86.2777 74.9114 89.4798 72.2329 99.2052C74.0079 104.963 87.4791 133.054 90.9291 137.343C95.0486 142.462 96.1308 143.641 107.016 147.311" fill="#464450"/>
<path d="M84.5673 87.077C84.9039 87.0874 85.209 87.1633 85.381 87.3584L85.4136 87.3989L85.414 87.3994L85.4562 87.4561C85.9848 88.1487 89.3289 92.1508 93.3636 97.1043C97.5221 102.21 102.405 108.315 105.653 112.8L105.686 112.844C106.036 113.295 106.64 113.619 107.415 113.918C107.811 114.07 108.243 114.213 108.696 114.362C109.148 114.511 109.621 114.667 110.093 114.843C111.979 115.551 113.897 116.618 114.573 119.088L114.227 119.182C113.598 116.884 111.823 115.874 109.967 115.178C109.503 115.004 109.037 114.851 108.584 114.702C108.132 114.553 107.691 114.408 107.285 114.251C106.48 113.941 105.772 113.575 105.362 113.01L105.362 113.01C102.121 108.533 97.2436 102.436 93.0849 97.3298C88.9325 92.2317 85.4866 88.1117 85.1227 87.6087V87.6085C85.0632 87.5275 84.8954 87.4452 84.5562 87.4347C84.2302 87.4246 83.7952 87.483 83.2778 87.6202C82.2446 87.8942 80.9119 88.4744 79.5196 89.3966C76.7459 91.2339 73.7527 94.4167 72.42 99.2023C73.3306 102.112 77.1145 110.512 81.1144 118.747C83.1242 122.885 85.1858 126.976 86.9602 130.3C88.7381 133.631 90.2191 136.175 91.0691 137.231L91.4468 137.7C93.2941 139.986 94.5469 141.431 96.5334 142.721C98.6581 144.1 101.63 145.306 107.074 147.141L106.959 147.48C101.517 145.646 98.5049 144.427 96.3374 143.02C94.2998 141.698 93.0151 140.212 91.1665 137.924L90.789 137.455C89.914 136.367 88.4171 133.791 86.6434 130.468C84.8662 127.139 82.8023 123.043 80.7912 118.903C76.7723 110.628 72.9536 102.153 72.0612 99.2578L72.0459 99.2081L72.0598 99.1578C73.4126 94.2461 76.4793 90.9808 79.3208 89.0987C80.7409 88.1581 82.1092 87.5599 83.1853 87.2745C83.7225 87.132 84.1944 87.0655 84.5673 87.077Z" fill="black"/>
<path d="M87.4182 99.6217C89.2842 101.654 94.0002 109.119 94.0002 109.119C86.3753 113.151 83.3236 116.031 80.7022 121.08C78.4879 116.962 74.9434 112.067 74.9434 112.067C76.0683 108.025 80.0379 102.534 87.4182 99.6217Z" fill="#615E6A"/>
<path d="M87.4272 99.5861C88.8004 100.962 89.9271 102.566 91.0557 104.136C92.1842 105.705 93.2449 107.314 94.2788 108.941L94.4574 109.24L94.1449 109.408C91.4807 110.832 88.7736 112.222 86.3933 114.098C83.8933 116.031 82.0326 118.656 80.7076 121.5L80.5183 121.173C78.7326 118.104 76.7112 115.16 74.6363 112.273L74.5327 112.131L74.5791 111.953C76.3041 105.962 81.6219 101.492 87.4182 99.5665L87.4272 99.5861ZM87.4093 99.6573C82.6754 101.838 78.3898 105.371 76.1023 110.113C75.7779 110.774 75.5091 111.462 75.2988 112.168L75.2416 111.855C77.297 114.79 79.2451 117.798 80.8773 120.991H80.5201C82.6737 116.876 85.9968 113.64 89.8932 111.154C91.1717 110.315 92.4866 109.54 93.8378 108.829L93.7128 109.296C91.8575 106.462 89.3932 102.34 87.4022 99.6555L87.4093 99.6573Z" fill="black"/>
<path d="M84.829 106.312C84.7451 107.242 85.2844 108.073 85.9147 108.699C86.6183 109.392 87.7004 110.02 88.7004 109.623C89.3897 109.208 89.1807 108.253 89.0575 107.587C88.9254 106.731 88.5111 105.883 87.7254 105.485C86.8004 104.967 85.0201 105.022 84.8219 106.312H84.829ZM84.7862 106.312C84.9647 104.912 86.8236 104.463 87.945 105.088C88.8593 105.543 89.3325 106.57 89.404 107.541C89.5093 108.422 89.4343 109.78 88.295 109.878C87.6498 109.973 86.9908 109.862 86.4129 109.561C85.2504 108.943 84.679 107.583 84.7862 106.312Z" fill="black"/>
<path d="M102.472 144.967C100.734 144.862 98.4344 142.475 97.238 141.245C93.0131 136.617 88.9435 130.743 87.0078 124.768C87.8038 126.778 88.7661 128.718 89.8846 130.569C92.0736 134.292 94.6117 137.8 97.4648 141.046C98.6255 142.281 100.79 144.744 102.479 144.961L102.472 144.967Z" fill="black"/>
</g>
</g>
<defs>
<linearGradient id="paint0_linear_3347_108389" x1="96.0303" y1="90.5182" x2="87.024" y2="28.9978" gradientUnits="userSpaceOnUse">
<stop offset="0.16" stop-color="#934661"/>
<stop offset="0.33" stop-color="#7C3B4F"/>
<stop offset="0.61" stop-color="#592B34"/>
<stop offset="0.85" stop-color="#442123"/>
<stop offset="1" stop-color="#3C1D1D"/>
</linearGradient>
<linearGradient id="paint1_linear_3347_108389" x1="55.2291" y1="82.7187" x2="20.7474" y2="35.3034" gradientUnits="userSpaceOnUse">
<stop offset="0.24" stop-color="#934661"/>
<stop offset="0.57" stop-color="#592B34"/>
<stop offset="0.77" stop-color="#3C1D1D"/>
</linearGradient>
<linearGradient id="paint2_linear_3347_108389" x1="31.4204" y1="74.5022" x2="20.9934" y2="56.3142" gradientUnits="userSpaceOnUse">
<stop offset="0.16" stop-color="#934661"/>
<stop offset="0.33" stop-color="#7C3B4F"/>
<stop offset="0.61" stop-color="#592B34"/>
<stop offset="0.85" stop-color="#442123"/>
<stop offset="1" stop-color="#3C1D1D"/>
</linearGradient>
<radialGradient id="paint3_radial_3347_108389" cx="0" cy="0" r="1" gradientUnits="userSpaceOnUse" gradientTransform="translate(72.2928 45.8587) rotate(163.437) scale(10.4718 15.3493)">
<stop stop-color="#BD6551"/>
<stop offset="0.55" stop-color="#BF644F"/>
<stop offset="0.77" stop-color="#C5604A"/>
</radialGradient>
<linearGradient id="paint4_linear_3347_108389" x1="67.9673" y1="37.4715" x2="69.4711" y2="32.9229" gradientUnits="userSpaceOnUse">
<stop stop-color="#A86104"/>
<stop offset="0.14" stop-color="#A55F05"/>
<stop offset="0.25" stop-color="#9A5A08"/>
<stop offset="0.35" stop-color="#89520D"/>
<stop offset="0.46" stop-color="#714615"/>
<stop offset="0.55" stop-color="#52371E"/>
<stop offset="0.63" stop-color="#302728"/>
</linearGradient>
<linearGradient id="paint5_linear_3347_108389" x1="82.1333" y1="37.8733" x2="83.871" y2="32.9828" gradientUnits="userSpaceOnUse">
<stop stop-color="#A86104"/>
<stop offset="0.14" stop-color="#A55F05"/>
<stop offset="0.25" stop-color="#9A5A08"/>
<stop offset="0.35" stop-color="#89520D"/>
<stop offset="0.46" stop-color="#714615"/>
<stop offset="0.55" stop-color="#52371E"/>
<stop offset="0.63" stop-color="#302728"/>
</linearGradient>
<radialGradient id="paint6_radial_3347_108389" cx="0" cy="0" r="1" gradientUnits="userSpaceOnUse" gradientTransform="translate(80.3928 42.1949) rotate(150.175) scale(4.47509 4.4678)">
<stop stop-color="#BD6551"/>
<stop offset="0.55" stop-color="#BF644F"/>
<stop offset="0.77" stop-color="#C5604A"/>
</radialGradient>
<linearGradient id="paint7_linear_3347_108389" x1="49.4519" y1="49.7723" x2="34.1192" y2="23.027" gradientUnits="userSpaceOnUse">
<stop offset="0.24" stop-color="#934661"/>
<stop offset="0.57" stop-color="#592B34"/>
<stop offset="0.77" stop-color="#3C1D1D"/>
</linearGradient>
<linearGradient id="paint8_linear_3347_108389" x1="48.3675" y1="15.4078" x2="61.5309" y2="12.2495" gradientUnits="userSpaceOnUse">
<stop stop-color="#3C1D1D"/>
<stop offset="0.44" stop-color="#3E1E1E"/>
<stop offset="0.6" stop-color="#452124"/>
<stop offset="0.71" stop-color="#50272D"/>
<stop offset="0.8" stop-color="#612F3A"/>
<stop offset="0.88" stop-color="#77394B"/>
<stop offset="0.94" stop-color="#924560"/>
<stop offset="0.95" stop-color="#934661"/>
<stop offset="1" stop-color="#934661"/>
</linearGradient>
<linearGradient id="paint9_linear_3347_108389" x1="58.3337" y1="92.5598" x2="40.2135" y2="49.7884" gradientUnits="userSpaceOnUse">
<stop stop-color="#9A657E"/>
<stop offset="0.11" stop-color="#945A74"/>
<stop offset="0.31" stop-color="#843D59"/>
<stop offset="0.33" stop-color="#823A56"/>
<stop offset="0.42" stop-color="#74354B"/>
<stop offset="0.65" stop-color="#582933"/>
<stop offset="0.85" stop-color="#462225"/>
<stop offset="1" stop-color="#402020"/>
</linearGradient>
<linearGradient id="paint10_linear_3347_108389" x1="42.0874" y1="98.9061" x2="35.6039" y2="50.1114" gradientUnits="userSpaceOnUse">
<stop stop-color="#9A657E"/>
<stop offset="0.11" stop-color="#945A74"/>
<stop offset="0.31" stop-color="#843D59"/>
<stop offset="0.33" stop-color="#823A56"/>
<stop offset="0.42" stop-color="#74354B"/>
<stop offset="0.65" stop-color="#582933"/>
<stop offset="0.85" stop-color="#462225"/>
<stop offset="1" stop-color="#402020"/>
</linearGradient>
<linearGradient id="paint11_linear_3347_108389" x1="56.5439" y1="86.2622" x2="46.9958" y2="35.983" gradientUnits="userSpaceOnUse">
<stop offset="0.24" stop-color="#934661"/>
<stop offset="0.57" stop-color="#592B34"/>
<stop offset="0.77" stop-color="#3C1D1D"/>
</linearGradient>
<linearGradient id="paint12_linear_3347_108389" x1="110.068" y1="45.8167" x2="49.2746" y2="3.79619" gradientUnits="userSpaceOnUse">
<stop offset="0.24" stop-color="#934661"/>
<stop offset="0.57" stop-color="#592B34"/>
<stop offset="0.77" stop-color="#3C1D1D"/>
</linearGradient>
<linearGradient id="paint13_linear_3347_108389" x1="65.9181" y1="75.8968" x2="44.1429" y2="32.2498" gradientUnits="userSpaceOnUse">
<stop offset="0.24" stop-color="#934661"/>
<stop offset="0.57" stop-color="#592B34"/>
<stop offset="0.77" stop-color="#3C1D1D"/>
</linearGradient>
<linearGradient id="paint14_linear_3347_108389" x1="27.1952" y1="49.1138" x2="58.0569" y2="20.7951" gradientUnits="userSpaceOnUse">
<stop stop-color="#9A657E"/>
<stop offset="0.11" stop-color="#945A74"/>
<stop offset="0.31" stop-color="#843D59"/>
<stop offset="0.33" stop-color="#823A56"/>
<stop offset="0.42" stop-color="#74354B"/>
<stop offset="0.65" stop-color="#582933"/>
<stop offset="0.85" stop-color="#462225"/>
<stop offset="1" stop-color="#402020"/>
</linearGradient>
<linearGradient id="paint15_linear_3347_108389" x1="52.4046" y1="45.445" x2="35.5529" y2="28.7923" gradientUnits="userSpaceOnUse">
<stop offset="0.24" stop-color="#934661"/>
<stop offset="0.57" stop-color="#592B34"/>
<stop offset="0.77" stop-color="#3C1D1D"/>
</linearGradient>
<linearGradient id="paint16_linear_3347_108389" x1="99.7793" y1="45.2238" x2="76.6266" y2="-0.590513" gradientUnits="userSpaceOnUse">
<stop stop-color="#9A657E"/>
<stop offset="0.11" stop-color="#945A74"/>
<stop offset="0.31" stop-color="#843D59"/>
<stop offset="0.33" stop-color="#823A56"/>
<stop offset="0.42" stop-color="#74354B"/>
<stop offset="0.65" stop-color="#582933"/>
<stop offset="0.85" stop-color="#462225"/>
<stop offset="1" stop-color="#402020"/>
</linearGradient>
<clipPath id="clip0_3347_108389">
<rect width="120" height="166" fill="white" transform="translate(3)"/>
</clipPath>
</defs>
</svg>
