<svg width="124" height="158" viewBox="0 0 124 158" fill="none" xmlns="http://www.w3.org/2000/svg">
<rect x="1.5" y="31.5" width="121" height="121" rx="60.5" stroke="black" stroke-opacity="0.05"/>
<mask id="mask0_3293_38937" style="mask-type:luminance" maskUnits="userSpaceOnUse" x="0" y="0" width="124" height="158">
<path d="M121 104.001C119.631 105.826 117.32 128.645 92.622 143.609C92.5653 144.092 93.2461 146.474 93.4021 147.254C90.7154 150.14 82.242 155.871 76.3014 157.329C75.9876 155.428 75.8831 151.929 75.6445 150.707C72.3599 151.418 67.8598 152 61.9997 152C46.9657 152.001 33.5703 146.919 21.9994 137.001C14.9994 131.001 6.99941 121.001 3.99948 106.5C-7.50038 72.4989 11.9998 67.9994 14.4999 66.4994C14.4999 36.676 33 -0.500585 50 1.00001C108.5 -1.00058 111 16.5 122.5 52.0002C127 64.5002 111.5 93.5007 121 104.001Z" fill="white"/>
</mask>
<g mask="url(#mask0_3293_38937)">
<g clip-path="url(#clip0_3293_38937)">
<path d="M53.446 176.679C76.1864 173.264 113.736 164.842 110.52 159.51C107.305 154.178 93.8002 90.1188 86.3877 87.1447C78.9751 84.1705 49.8594 80.5642 45.6703 87.1447C41.4813 93.7251 42.1117 173.001 46.185 174.719C48.4947 175.727 50.9417 176.387 53.446 176.679Z" fill="#F1E8F2"/>
<path d="M89.412 156.166C84.7602 158.353 65.6104 173.462 65.6104 173.462C65.6104 173.462 89.1168 168.262 91.1435 165.908C92.4295 164.331 93.5025 162.593 94.3351 160.739C94.3351 160.739 85.4942 163.045 84.7283 162.091C83.9623 161.136 89.412 156.166 89.412 156.166Z" fill="#CCC7CA"/>
<path d="M106.507 156.166C104.114 158.154 80.9743 171.673 54.6432 172.866C43.8715 191.951 46.2652 216.603 45.4673 223.76C44.6694 230.917 40.2809 252.786 39.483 254.376C38.6851 255.967 34.6955 258.75 33.4986 259.148C33.7947 260.165 33.8404 261.238 33.6321 262.276C33.4237 263.314 32.9674 264.287 32.3018 265.112C31.5039 266.062 27.9133 275.848 26.3175 277.836C24.7216 279.824 19.1363 290.559 17.1415 294.138C15.1467 297.716 5.57181 326.742 5.17285 329.525C7.56658 334.694 9.96031 338.67 12.354 338.273C14.7478 337.875 22.7269 331.911 23.1258 330.718C23.5248 329.525 21.131 328.73 21.53 327.14C21.929 325.549 33.8976 308.849 37.4882 302.885C41.0788 296.921 44.6694 288.174 47.861 284.993C51.0526 281.812 55.8401 275.052 58.6328 271.474C61.4255 267.895 69.8035 248.015 71.7983 238.074C73.7931 228.134 81.7722 207.856 82.969 206.265C84.1659 204.675 85.4705 205.534 85.4705 205.534C85.4705 205.534 87.7565 219.784 89.3523 226.941C90.9481 234.098 92.9429 246.822 92.9429 251.593C92.9429 256.365 92.145 263.919 92.5439 267.895C92.9429 271.871 96.1345 284.595 96.9324 288.571C97.7304 292.547 97.3314 317.597 97.3314 320.778C96.1345 322.766 94.9377 324.754 95.7356 325.152C96.5335 325.549 98.1812 326.694 97.3314 327.537C96.4816 328.38 97.3314 328.73 98.1293 329.525C98.9272 330.32 108.103 335.489 112.492 334.297C112.492 331.911 114.885 329.128 114.885 327.537C114.885 325.947 113.29 324.754 113.29 323.163C113.29 321.573 117.279 300.102 117.678 295.728C118.077 291.354 115.284 268.293 115.683 266.702C116.082 265.112 118.157 262.118 117.718 261.033C117.279 259.947 115.284 257.557 115.284 256.762C115.284 255.967 122.067 220.977 121.269 206.663C120.471 192.349 122.067 180.421 106.507 156.166Z" fill="#586D9C"/>
<path d="M106.503 156.206L105.837 156.711C105.115 157.168 104.385 157.661 103.647 158.075C100.673 159.808 97.6099 161.386 94.4709 162.802C83.001 168.015 70.6892 171.737 58.0982 172.838L54.6552 173.101L54.8467 172.981C49.2893 182.957 47.1469 194.452 46.3969 205.725C46.1455 209.51 46.0618 213.303 46.0179 217.1C45.978 219.943 46.0179 222.85 45.5471 225.673C44.8689 230.381 43.9952 235.06 43.1015 239.728C42.0722 244.635 41.2743 249.605 39.846 254.416C39.4922 255.09 39.0113 255.689 38.4297 256.182C37.0105 257.53 35.3851 258.646 33.6144 259.486L33.8458 259.052C34.3134 260.682 34.1716 262.426 33.4468 263.959C33.1356 264.706 32.5452 265.271 32.2021 266.003C30.6262 269.378 29.0543 273.621 27.3069 276.921C27.0046 277.452 26.6674 277.962 26.2975 278.448C24.8772 280.591 23.6604 282.877 22.4077 285.132C21.7814 286.472 17.2692 294.325 16.8024 295.653C14.6919 300.822 12.9206 306.098 11.1133 311.358C9.13849 317.386 6.96418 323.422 5.40427 329.557L5.38433 329.434C6.12638 331.024 6.88839 332.615 7.77806 334.11C8.64778 335.541 9.64516 337.136 11.1652 337.903C11.9631 338.281 12.761 338.026 13.5589 337.648C14.3454 337.268 15.1088 336.842 15.8449 336.372C17.3241 335.436 18.7542 334.424 20.1297 333.342C21.0991 332.547 22.2402 331.752 22.9543 330.702C23.0015 330.516 22.9962 330.321 22.9392 330.138C22.8822 329.955 22.7756 329.791 22.6311 329.664C20.6364 327.601 21.2348 327.152 22.5912 324.937C27.3548 317.533 32.601 310.448 37.2768 302.989C40.0136 298.464 42.1281 293.617 44.7931 289.044C45.6507 287.493 46.6943 286.051 47.9009 284.75C49.1257 283.498 50.2468 282.138 51.3439 280.774C53.8094 277.685 56.1314 274.46 58.545 271.319C60.2725 268.786 61.4933 265.939 62.77 263.16C65.8299 256.341 68.4367 249.329 70.5735 242.17C71.4113 239.216 71.918 236.154 72.7758 233.204C75.227 224.739 78.1886 216.43 81.6445 208.321C81.973 207.482 82.3945 206.681 82.9012 205.935C83.5356 205.116 84.8002 204.743 85.7218 205.383C86.5197 210.206 87.3456 215.029 88.2432 219.836C89.6196 226.993 91.2872 234.074 92.2607 241.307C92.9788 246.114 93.5573 250.989 93.1823 255.86C93.0227 259.486 92.7155 263.108 92.8432 266.726C93.0666 270.305 94.04 273.852 94.7861 277.382C95.4803 280.742 97.0801 286.527 97.491 289.867C98.1054 300.17 97.7743 310.503 97.7503 320.81V320.929L97.6905 321.028C97.1167 321.932 96.5984 322.869 96.1385 323.835C95.9932 324.125 95.9142 324.442 95.9072 324.766C95.9094 324.776 95.9094 324.787 95.9072 324.798C96.4328 325.062 96.9156 325.404 97.3394 325.812C97.6785 326.146 98.0735 326.706 97.9378 327.263C97.8925 327.469 97.7918 327.658 97.6466 327.812C97.4471 328.01 97.3913 328.142 97.4032 328.209C97.4734 328.366 97.5817 328.502 97.7184 328.607L98.3168 329.167C98.9299 329.654 99.5901 330.079 100.288 330.436C103.595 332.173 108.666 334.67 112.364 333.923L112.061 334.32C112.129 332.265 113.329 330.591 114.103 328.821C115.213 326.833 113.27 325.577 112.907 323.7C112.767 322.69 113.066 321.712 113.178 320.718L113.641 317.879C114.71 311.382 115.987 304.523 116.956 298.046C117.483 295.203 117.255 292.412 117.06 289.537C116.788 285.72 116.437 281.907 116.094 278.09C115.867 275.307 115.404 270.774 115.296 268.046C115.25 267.534 115.274 267.018 115.368 266.512C115.903 264.699 117.247 263.16 117.423 261.311C117.239 260.647 116.409 259.593 116.038 258.977C115.639 258.265 114.842 257.43 114.977 256.54L115.033 256.142C117.028 244.826 118.979 233.478 120.219 222.07C120.718 217.299 121.173 212.528 121.049 207.756C120.766 201.24 120.786 194.162 119.705 187.725C117.914 176.349 112.524 165.884 106.475 156.202L106.503 156.206ZM106.503 156.126C112.707 165.769 118.161 176.269 120.068 187.673C121.073 193.108 121.129 199.335 121.392 204.87C121.767 210.623 121.333 216.401 120.734 222.11C119.537 233.55 117.626 244.905 115.679 256.233L115.631 256.559C115.616 256.65 115.616 256.743 115.631 256.834C115.878 257.464 116.21 258.058 116.617 258.599C117.076 259.363 117.906 260.305 118.113 261.211C118.053 263.2 116.585 264.842 116.066 266.675C116.014 266.877 115.994 267.086 116.006 267.295C116.082 270.305 116.605 274.953 116.864 277.999C117.223 281.816 117.59 285.629 117.878 289.458C118.089 292.313 118.324 295.291 117.79 298.138C116.824 304.619 115.564 311.505 114.49 317.987C114.291 319.124 113.864 321.748 113.74 322.917C113.617 324.086 114.399 324.869 114.937 326.026C115.182 326.512 115.311 327.049 115.312 327.593C115.273 328.122 115.137 328.639 114.913 329.12C114.187 330.833 113.002 332.448 112.943 334.289V334.611C110.577 335.271 108.203 334.571 105.977 333.851C103.362 332.936 100.856 331.735 98.5043 330.273C98.3164 330.15 98.1353 330.017 97.9618 329.875L97.7942 329.72L97.1958 329.163C96.9061 328.931 96.7071 328.604 96.6333 328.241C96.6284 328.045 96.6667 327.851 96.7452 327.672C96.8238 327.493 96.9408 327.333 97.0881 327.203C97.3394 326.929 97.0322 326.603 96.8008 326.356C96.4345 326.009 96.0192 325.717 95.568 325.489C95.4552 325.428 95.3573 325.342 95.2815 325.238C95.2057 325.134 95.1536 325.015 95.1292 324.889C95.0837 324.394 95.1806 323.896 95.4085 323.454C95.878 322.45 96.411 321.476 97.0043 320.539L96.9444 320.754C96.9883 311.06 97.2277 301.37 96.8447 291.684C96.8168 289.263 96.2263 286.937 95.6837 284.591L94.064 277.498C93.3219 273.919 92.3405 270.372 92.1211 266.706C91.9695 261.84 92.52 257.001 92.6038 252.15C92.524 246.114 91.4069 240.13 90.4614 234.178C89.6635 229.406 88.5105 224.675 87.6687 219.903C86.8269 215.132 85.9931 210.361 85.2231 205.554L85.3468 205.745C83.5715 204.902 82.7536 207.236 82.1791 208.528C80.0647 213.355 78.2175 218.301 76.4581 223.267C74.6987 228.233 73.071 233.255 71.9699 238.412C71.6108 240.074 71.1321 241.899 70.6294 243.534C68.5325 250.263 66.0278 256.86 63.129 263.287C61.8324 266.07 60.5957 268.949 58.8403 271.502C56.4226 274.635 54.0887 277.863 51.6112 280.941C50.5061 282.313 49.3771 283.673 48.1363 284.917C46.9292 286.202 45.8841 287.63 45.0245 289.168C42.3555 293.716 40.237 298.575 37.4962 303.104C32.8364 310.575 27.6021 317.676 22.8545 325.088C22.4356 325.816 21.8492 326.551 21.6577 327.346C21.6283 327.751 21.7602 328.151 22.0247 328.46C22.4037 328.984 22.9902 329.418 23.2575 330.05C23.5886 330.778 22.8186 331.414 22.3678 331.867C20.3986 333.65 18.276 335.258 16.0244 336.67C15.2764 337.152 14.5011 337.59 13.7025 337.982C12.9046 338.38 11.8713 338.682 11.0056 338.253C9.33797 337.434 8.36053 335.808 7.41501 334.309C6.5208 332.788 5.70455 331.223 4.96941 329.621L4.9375 329.557V329.493C6.47348 323.275 8.61985 317.275 10.5787 311.203C12.362 305.915 14.1095 300.599 16.204 295.418C16.6708 294.07 21.0832 286.301 21.7893 284.826C23.05 282.551 24.2669 280.249 25.7071 278.066C26.0654 277.603 26.3894 277.114 26.6765 276.603C28.3881 273.335 29.9719 269.048 31.5398 265.704C31.8669 264.977 32.4574 264.404 32.7766 263.669C33.4714 262.185 33.5657 260.492 33.0399 258.941C34 258.559 34.9033 258.048 35.7248 257.422C36.8841 256.65 37.9335 255.726 38.8447 254.675C39.1105 254.322 39.2933 253.914 39.3793 253.482C39.6386 252.583 39.854 251.657 40.0695 250.738C41.9286 242.388 43.5922 234.007 44.8769 225.569C45.3317 222.75 45.3117 219.935 45.3556 217.08C45.4793 201.971 46.8597 186.182 54.4119 172.743L54.4757 172.631H54.6074L58.0304 172.385C70.5855 171.335 82.8813 167.729 94.3632 162.627C96.9404 161.51 99.6015 160.158 102.067 158.822C103.594 158.012 105.07 157.111 106.487 156.122L106.503 156.126Z" fill="black"/>
<path d="M99.4492 160.926C102.184 159.574 104.752 157.91 107.101 155.967C111.091 161.534 111.123 163.892 111.123 163.892C108.455 165.93 105.644 167.776 102.713 169.415" fill="#07090C"/>
<path d="M95.3447 70.266C98.7438 71.3634 102.103 72.7551 104.991 74.8783C107.042 76.7391 107.413 79.92 106.811 82.4966C106.615 83.3894 106.135 84.1954 105.442 84.7948L105.414 84.7669C106 84.1098 106.382 83.2978 106.515 82.429C106.822 80.7014 106.692 78.9248 106.136 77.26C105.339 74.6119 102.63 73.3555 100.22 72.4529C98.6241 71.769 96.8049 71.1169 95.3447 70.2541V70.266Z" fill="black"/>
<path d="M98.6035 73.5105C103.391 75.5662 110.149 78.4091 113.074 82.8783C113.893 84.3191 114.407 85.9123 114.584 87.5591C114.761 89.206 114.598 90.8716 114.103 92.4528C113.704 93.6655 112.946 94.8862 111.769 95.4746C112.718 94.6535 113.352 93.529 113.56 92.2937C114.227 88.7908 113.477 84.6675 110.975 82.087C107.416 78.5085 102.745 76.3455 98.6075 73.5065L98.6035 73.5105Z" fill="black"/>
<path d="M103.555 54.5086C101.855 58.2859 99.2977 57.4907 96.9838 60.0752C94.6698 62.6597 92.9144 68.8227 96.9838 72.099C101.053 75.3753 107.887 79.5622 110.855 87.0174C113.824 94.4726 112.627 98.8424 108.406 102.127C109.435 98.8384 110.349 96.1267 107.5 92.5124C108.238 97.6456 108.238 99.0492 106.044 102.127C103.85 105.204 97.4665 105.2 97.4665 105.2C97.4665 105.2 76.7209 86.3136 76.7209 79.8524C76.7209 73.3912 76.1025 54.3257 81.1971 47.3596C86.2918 40.3934 81.4844 33.63 92.6671 37.6061C103.85 41.5822 103.555 54.5086 103.555 54.5086Z" fill="url(#paint0_linear_3293_38937)"/>
<path d="M86.8435 36.2764C88.0985 36.0845 89.9366 36.424 92.7343 37.4188C98.3998 39.4332 101.156 43.7175 102.493 47.4822C103.161 49.364 103.476 51.1195 103.624 52.4042C103.698 53.0467 103.731 53.5723 103.745 53.938C103.752 54.1207 103.754 54.2636 103.755 54.3612C103.755 54.4099 103.755 54.4475 103.755 54.473C103.755 54.4858 103.754 54.4959 103.754 54.5025V54.5126L103.555 54.5088L103.754 54.513L103.753 54.5534L103.737 54.5899C102.864 56.5304 101.76 57.3046 100.592 57.9153C99.4305 58.5225 98.259 58.95 97.1329 60.2077C96.0057 61.4668 95.0043 63.6132 94.7887 65.8465C94.5736 68.0747 95.1415 70.36 97.1092 71.9443C101.15 75.198 108.048 79.4264 111.041 86.9441C112.532 90.6896 112.988 93.6863 112.523 96.1726C112.056 98.6658 110.668 100.619 108.529 102.283L108.025 102.675L108.216 102.067C108.733 100.415 109.207 98.946 109.208 97.4416C109.209 96.1293 108.848 94.7802 107.807 93.2647C108.101 95.3927 108.236 96.8558 108.07 98.1164C107.881 99.5392 107.313 100.69 106.207 102.242C105.062 103.847 102.849 104.627 100.973 105.012C100.027 105.206 99.1519 105.303 98.5133 105.351C98.194 105.375 97.9333 105.387 97.752 105.393C97.6614 105.396 97.5904 105.398 97.542 105.398C97.5178 105.399 97.499 105.399 97.4863 105.399H97.4668V105.2L97.4664 105.399H97.3893L97.332 105.347C97.3319 105.347 97.3315 105.346 97.3312 105.346C97.3306 105.345 97.3294 105.345 97.3281 105.343C97.3256 105.341 97.3217 105.338 97.3168 105.333C97.3068 105.324 97.2917 105.31 97.272 105.292C97.2326 105.256 97.1743 105.202 97.0983 105.133C96.946 104.992 96.7229 104.786 96.4391 104.521C95.8712 103.992 95.0599 103.228 94.0866 102.291C92.1402 100.418 89.5445 97.8529 86.9483 95.085C84.3529 92.318 81.753 89.3446 79.801 86.6556C78.8251 85.3112 78.0077 84.0334 77.4338 82.8852C76.8621 81.7415 76.5217 80.7063 76.5217 79.8523C76.5217 76.6276 76.3668 70.2347 76.8498 63.7804C77.0913 60.5527 77.4926 57.3038 78.1541 54.4226C78.8149 51.5448 79.7389 49.0163 81.0361 47.2426C82.291 45.5266 82.9378 43.8216 83.3745 42.2833C83.5934 41.5122 83.7584 40.7871 83.923 40.1167C84.0867 39.4501 84.2501 38.8359 84.4642 38.3053C84.6786 37.7737 84.9486 37.3136 85.3322 36.9618C85.7185 36.6075 86.2083 36.3736 86.8435 36.2764ZM76.9207 79.8523C76.9207 80.6136 77.2283 81.5824 77.791 82.7082C78.3516 83.8295 79.1551 85.0875 80.124 86.4222C82.0618 89.0916 84.6488 92.0514 87.2397 94.8136C89.8298 97.5749 92.4203 100.135 94.3636 102.005C95.3352 102.94 96.1448 103.702 96.7114 104.231C96.9947 104.495 97.2174 104.701 97.369 104.841C97.4448 104.91 97.5029 104.964 97.542 104.999C97.5424 105 97.5428 105 97.5432 105C97.5892 105 97.6552 104.999 97.7388 104.996C97.9151 104.99 98.1702 104.978 98.4833 104.955C99.1101 104.907 99.9677 104.812 100.892 104.623C102.756 104.24 104.832 103.484 105.882 102.011C106.97 100.485 107.498 99.396 107.674 98.0644C107.852 96.7191 107.673 95.1128 107.303 92.5405L107.197 91.8059L107.657 92.3895C109.106 94.2276 109.608 95.8517 109.607 97.442C109.606 98.8142 109.229 100.152 108.794 101.554C110.581 100.03 111.723 98.2755 112.131 96.0996C112.577 93.7162 112.147 90.8005 110.67 87.0908C107.727 79.6981 100.956 75.5527 96.8587 72.2538C94.7571 70.5617 94.1679 68.127 94.3917 65.8085C94.615 63.4952 95.6487 61.2683 96.8353 59.9429C98.0231 58.6162 99.287 58.1486 100.407 57.5631C101.513 56.9848 102.532 56.2736 103.356 54.4641C103.356 54.4406 103.356 54.4068 103.356 54.3635C103.355 54.2699 103.353 54.1313 103.346 53.9531C103.333 53.5964 103.301 53.0809 103.228 52.4496C103.082 51.1864 102.772 49.4614 102.116 47.6146C100.805 43.9222 98.1173 39.7552 92.6003 37.7935C89.8067 36.8002 88.0518 36.4938 86.9039 36.6694C86.3378 36.756 85.9237 36.9594 85.6022 37.2542C85.278 37.5515 85.0363 37.9529 84.8343 38.4536C84.6319 38.9552 84.4743 39.5445 84.3107 40.211C84.148 40.8736 83.9797 41.6114 83.7582 42.3917C83.314 43.9565 82.651 45.7097 81.3586 47.4768C80.1085 49.1861 79.1992 51.653 78.543 54.5111C77.8876 57.3657 77.4883 60.5933 77.2475 63.8103C76.766 70.2453 76.9207 76.6157 76.9207 79.8523Z" fill="black"/>
<path d="M90.8842 68.1666C93.8763 77.769 93.8763 78.5642 99.0627 83.3355C104.249 88.1069 106.044 93.1605 105.346 96.7947C104.648 100.429 100.559 108.059 94.6742 108.385C88.7896 108.711 79.889 94.7271 83.1045 90.6198C86.3201 86.5124 90.8842 68.1666 90.8842 68.1666Z" fill="#5C2F32"/>
<path d="M62.6221 11.0376C54.643 8.25436 45.866 10.64 40.2807 19.7851C34.6953 28.9302 33.4984 42.449 33.4984 53.1846C33.4984 58.5444 31.1047 66.3058 28.312 70.2819C26.6963 72.5881 21.1747 75.2322 15.6811 78.5642C6.50516 84.1307 6.90411 87.3117 11.3245 90.5164C6.1062 86.5164 12.4895 82.5403 18.5057 83.3594C14.1172 85.745 7.9055 93.3713 10.012 97.1128C12.1185 100.854 15.9963 102.31 15.9963 102.31C15.9963 102.31 8.49595 96.0591 14.3127 92.3414C18.9007 89.7212 18.6653 90.3176 18.6653 90.3176C18.6653 90.3176 14.8792 94.4687 15.7091 98.071C16.6266 102.047 18.9007 103.638 18.9007 103.638L53.4821 71.8286C53.4821 71.8286 69.5639 13.4591 62.6221 11.0376Z" fill="url(#paint1_linear_3293_38937)"/>
<path d="M50.4862 10.7513C54.4232 9.34279 58.6595 9.44479 62.6878 10.8499C63.191 11.0255 63.5676 11.4476 63.8438 12.035C64.1199 12.6224 64.3064 13.397 64.42 14.3209C64.6472 16.1698 64.5871 18.6651 64.321 21.5758C63.7884 27.4003 62.4268 34.9327 60.85 42.3821C59.2729 49.8331 57.4789 57.2079 56.0793 62.7193C55.3795 65.4752 54.7782 67.7655 54.3518 69.3669C54.1387 70.1676 53.9693 70.7962 53.8531 71.2245C53.7951 71.4386 53.7505 71.6028 53.7203 71.7134C53.7052 71.7687 53.6933 71.8107 53.6856 71.8388C53.6818 71.8528 53.679 71.8636 53.677 71.8706C53.6761 71.8741 53.6752 71.8766 53.6747 71.8784C53.6744 71.8793 53.6744 71.8803 53.6743 71.8807L53.4818 71.8287L53.6739 71.8811L53.6591 71.9363L53.617 71.9747L19.0358 103.784L18.9173 103.892L18.7856 103.8L18.7849 103.8C18.7844 103.799 18.7836 103.799 18.7829 103.798C18.7814 103.797 18.7793 103.796 18.7767 103.794C18.7715 103.79 18.7641 103.785 18.7549 103.778C18.7362 103.764 18.7095 103.744 18.6758 103.717C18.6082 103.662 18.5123 103.581 18.3949 103.472C18.1599 103.254 17.8389 102.923 17.4898 102.466C16.7912 101.551 15.9799 100.134 15.5141 98.1158V98.1154C15.0819 96.2389 15.8533 94.2442 16.702 92.7457C17.1291 91.9917 17.5818 91.3523 17.9277 90.9017C18.026 90.7737 18.116 90.6608 18.1942 90.5646C17.667 90.7602 16.5898 91.2695 14.4174 92.51C13.007 93.4122 12.4273 94.4498 12.3198 95.4878C12.211 96.5383 12.5821 97.6255 13.1465 98.6221C13.7095 99.6163 14.4536 100.501 15.0598 101.138C15.3624 101.456 15.6294 101.712 15.8204 101.888C15.9157 101.975 15.9921 102.043 16.0444 102.089C16.0705 102.112 16.0909 102.129 16.1044 102.14C16.111 102.146 16.1159 102.15 16.1192 102.153C16.1208 102.155 16.1223 102.156 16.1231 102.156L16.1239 102.157L17.0254 102.908L15.9255 102.496L15.9252 102.495H15.9244C15.9238 102.495 15.9231 102.495 15.922 102.494C15.9198 102.493 15.9163 102.492 15.9123 102.491C15.9042 102.488 15.8927 102.483 15.8776 102.477C15.8473 102.465 15.8032 102.447 15.7467 102.422C15.6336 102.374 15.4706 102.301 15.2691 102.202C14.8659 102.004 14.307 101.7 13.6818 101.279C12.4327 100.436 10.9107 99.1162 9.83759 97.2103C9.27503 96.2111 9.27888 94.9725 9.64084 93.6679C9.91922 92.6646 10.4134 91.6069 11.0473 90.56C8.92977 88.9901 7.69426 87.3517 8.21099 85.3759C8.47145 84.38 9.17234 83.3297 10.3694 82.186C11.5679 81.041 13.277 79.7898 15.5772 78.3944L16.0931 78.0833C17.2963 77.3626 18.4946 76.6748 19.6455 76.0164C20.9617 75.2635 22.215 74.5495 23.3471 73.868C24.4795 73.1864 25.4863 72.5397 26.3089 71.9215C27.1335 71.3018 27.7621 70.719 28.1482 70.168L28.2772 69.9808C29.6082 68.0208 30.8468 65.1936 31.7614 62.1944C32.7052 59.0992 33.2988 55.8388 33.2988 53.1844C33.2988 42.4469 34.4932 28.878 40.1098 19.6817C42.9233 15.0751 46.5484 12.1601 50.4862 10.7513ZM17.8829 83.4911C15.1116 83.2597 12.362 84.0259 10.8287 85.2842C10.0102 85.9561 9.5604 86.7477 9.59798 87.5864C9.63386 88.3859 10.1154 89.2834 11.2628 90.2132C11.39 90.0132 11.5218 89.8136 11.6582 89.6153C13.3658 87.1327 15.7715 84.7904 17.8829 83.4911ZM33.6977 53.1844C33.6977 55.8898 33.094 59.1906 32.1428 62.3101C31.2216 65.3312 29.9689 68.1995 28.6072 70.2045L28.4751 70.3959C28.0533 70.9979 27.3855 71.6104 26.5489 72.2391C25.7101 72.8694 24.6902 73.5244 23.5536 74.2086C22.4167 74.8929 21.1588 75.6093 19.8442 76.3613C18.6931 77.0197 17.4977 77.7059 16.2984 78.4243L15.7845 78.7341C13.4968 80.1219 11.8146 81.3558 10.6452 82.473C9.47457 83.5915 8.83095 84.5803 8.5967 85.4761C8.31586 86.5499 8.61712 87.5353 9.39617 88.5044C9.27769 88.2018 9.21274 87.9012 9.19942 87.6043C9.15429 86.5981 9.69817 85.6969 10.5751 84.9771C12.3232 83.5424 15.4829 82.7474 18.5324 83.1626L19.1335 83.2441L18.601 83.5338C16.4404 84.7083 13.8123 87.187 11.9874 89.8401C11.0758 91.1654 10.3722 92.5238 10.0254 93.7739C9.67797 95.026 9.69491 96.1438 10.1855 97.0154C11.2189 98.8508 12.6891 100.129 13.9054 100.95C14.2776 101.201 14.6254 101.408 14.9285 101.575C14.8771 101.523 14.8239 101.468 14.77 101.412C14.1517 100.761 13.384 99.8505 12.799 98.8174C12.2154 97.7868 11.8023 96.614 11.9231 95.447C12.0452 94.2681 12.7085 93.1304 14.2047 92.1741L14.209 92.1714L14.2132 92.1691C16.507 90.8591 17.6095 90.3444 18.1436 90.1593C18.2781 90.1126 18.3826 90.0848 18.4646 90.0711C18.5424 90.0582 18.6194 90.0544 18.6878 90.075C18.7709 90.1001 18.8403 90.1625 18.8608 90.2536C18.8691 90.2904 18.867 90.3221 18.8636 90.3433C18.8618 90.3542 18.8592 90.3636 18.8569 90.3713C18.8558 90.3751 18.8549 90.3787 18.8538 90.3818C18.8533 90.3833 18.8528 90.385 18.8523 90.3864C18.852 90.3871 18.8517 90.3877 18.8515 90.3884L18.8511 90.3895L18.6649 90.3177L18.8507 90.3903L18.8371 90.4245L18.8125 90.4513L18.8121 90.4516C18.8118 90.452 18.8113 90.4528 18.8106 90.4536C18.8089 90.4554 18.8061 90.4584 18.8028 90.4621C18.796 90.4697 18.7861 90.4812 18.7728 90.4963C18.7461 90.5266 18.7063 90.5718 18.6563 90.631C18.5562 90.7495 18.4137 90.9233 18.2449 91.1432C17.9069 91.5834 17.4648 92.2071 17.0492 92.941C16.2124 94.4185 15.5055 96.3007 15.9029 98.0265L15.9918 98.3868C16.4527 100.153 17.1813 101.405 17.8073 102.225C18.1414 102.663 18.4467 102.977 18.6668 103.181C18.7564 103.265 18.8321 103.329 18.8897 103.376L53.3046 71.7208C53.3121 71.6934 53.3225 71.6561 53.3353 71.6089C53.3655 71.4985 53.4102 71.3344 53.4682 71.1205C53.5842 70.6926 53.7535 70.0647 53.9665 69.2648C54.3925 67.6647 54.9935 65.376 55.6928 62.6219C57.0917 57.1134 58.884 49.7442 60.4596 42.3002C62.0356 34.8545 63.3932 27.3404 63.9236 21.5397C64.189 18.6377 64.2461 16.1756 64.0241 14.369C63.9131 13.4653 63.7334 12.7375 63.4826 12.2039C63.2317 11.6703 62.9202 11.3526 62.5557 11.2254C58.605 9.84735 54.4634 9.75059 50.621 11.1252C46.7791 12.4997 43.2227 15.3501 40.4507 19.8886C34.8968 28.9824 33.6977 42.4509 33.6977 53.1844Z" fill="black"/>
<path d="M18.3263 90.7232C23.3412 85.0294 29.1579 83.0254 34.4321 77.769C44.2264 68.0076 47.5976 51.7452 47.5976 51.7452C47.5976 51.7452 44.5017 70.604 41.4258 82.9379L18.9168 103.638C18.9168 103.638 16.6427 102.047 15.7251 98.071C15.0389 95.1327 17.4167 91.8484 18.3263 90.7232Z" fill="#5C2F32"/>
<path d="M83.7029 60.0752C82.3066 65.443 79.1588 74.429 80.9103 77.093C82.6617 79.757 80.6908 87.1963 76.7013 88.8425C72.7117 90.4886 61.94 84.5284 62.3389 80.5522C62.7379 76.5761 66.3285 68.0712 71.1159 65.3674C75.9034 62.6637 83.7029 60.0752 83.7029 60.0752Z" fill="black"/>
<path d="M83.8952 60.1249C83.1922 62.8275 82.0625 66.3914 81.32 69.642C80.9496 71.2631 80.6798 72.7912 80.6101 74.0755C80.5398 75.37 80.676 76.3751 81.0765 76.9842C81.5444 77.696 81.7521 78.7048 81.7513 79.8215C81.7504 80.9425 81.5398 82.194 81.1481 83.4101C80.3687 85.8305 78.852 88.1698 76.7772 89.026C75.7196 89.4623 74.2463 89.3862 72.6692 88.9937C71.0839 88.5992 69.359 87.8763 67.7754 86.9785C66.1923 86.081 64.7404 85.0027 63.7067 83.8916C62.6811 82.7891 62.0311 81.6151 62.1397 80.5324C62.3425 78.5114 63.3507 75.3664 64.904 72.3911C66.4557 69.4189 68.5725 66.575 71.0169 65.1945C73.4237 63.8352 76.5816 62.5079 79.1319 61.522C80.4083 61.0286 81.5349 60.62 82.3423 60.3346C82.746 60.1919 83.0701 60.08 83.2933 60.0038C83.4049 59.9656 83.4911 59.9361 83.5497 59.9164C83.5789 59.9066 83.6013 59.8993 83.6163 59.8943C83.6238 59.8917 83.6296 59.8897 83.6334 59.8884C83.6353 59.8878 83.6367 59.8876 83.6377 59.8873C83.6382 59.8871 83.6386 59.887 83.6389 59.8869L83.6393 59.8865L83.9876 59.7712L83.8952 60.1249ZM82.4755 60.7093C81.6709 60.9937 80.5481 61.4011 79.2761 61.8928C76.7299 62.8771 73.5942 64.196 71.2136 65.5404C68.8706 66.8637 66.7983 69.6242 65.2581 72.5744C63.7196 75.5214 62.7329 78.617 62.5367 80.572C62.4459 81.4774 62.9929 82.5395 63.9993 83.6213C64.9978 84.6946 66.4138 85.7492 67.9725 86.6329C69.5306 87.5163 71.2219 88.2235 72.7658 88.6078C74.3179 88.9941 75.6873 89.0453 76.6244 88.6586C78.5391 87.8686 80.0029 85.6652 80.7683 83.2885C81.1491 82.1061 81.3515 80.8955 81.3523 79.8211C81.3531 78.7423 81.1507 77.8223 80.743 77.202C80.2677 76.4792 80.1406 75.3615 80.2115 74.0541C80.2831 72.7366 80.5589 71.1831 80.9311 69.5538C81.641 66.4463 82.7159 63.0072 83.4149 60.3819C83.1931 60.4577 82.8733 60.5687 82.4755 60.7093Z" fill="black"/>
<path d="M31.2407 76.5761C26.8522 78.5324 22.719 81.0413 18.6058 83.5304L18.4023 83.1884C22.5874 80.8027 26.7804 78.4171 31.2407 76.5761Z" fill="black"/>
<path d="M22.9934 74.5363C19.8784 76.2584 16.5987 77.6663 13.2031 78.7391C8.84253 80.091 3.62819 82.2818 5.5711 87.8166C5.97477 88.915 6.63694 89.9008 7.50204 90.6913C7.00883 90.3607 6.5678 89.9587 6.19347 89.4985C2.88215 85.3673 5.01655 81.0492 9.58857 79.2361C11.8227 78.3097 14.1047 77.7172 16.3389 76.9737C18.573 76.2302 20.7952 75.435 22.9934 74.5523V74.5363Z" fill="black"/>
<path d="M149.79 183.005C150.189 181.415 154.578 169.089 160.562 165.908C157.798 162.817 154.513 160.232 150.855 158.27C149.558 157.572 148.489 156.517 147.775 155.232C146.981 153.808 145.894 152.568 144.584 151.594C141.392 149.208 131.817 140.063 131.019 136.882C130.221 133.701 127.453 134.564 127.453 134.564V131.144C127.451 130.847 127.355 130.557 127.178 130.317C127.001 130.077 126.752 129.899 126.467 129.808C124.991 129.343 122.278 128.528 121.329 128.508C119.47 125.749 116.653 123.363 115.081 118.989C113.086 113.423 105.107 99.904 101.916 95.1327C98.7239 90.3613 97.1281 85.9081 93.737 84.9538C90.3459 83.9995 85.9574 104.278 89.149 111.037C92.3406 117.797 103.91 150.003 107.501 154.377C111.092 158.751 115.105 165.908 118.085 167.498C121.065 169.089 142.21 181.812 149.79 183.005Z" fill="#464450"/>
<path d="M99.2581 106.6C98.516 105.085 98.7115 102.966 99.7208 102.52C101.498 101.821 103.23 101.014 104.907 100.103C109.659 106.341 116.477 121.972 116.477 121.972C116.477 121.972 114.913 124.588 111.929 124.29C111.039 124.202 109.711 123.916 108.163 121.904L99.2581 106.6Z" fill="#605E6A"/>
<path d="M99.2342 106.612C98.6637 105.419 98.3844 103.272 99.6889 102.461C101.424 101.665 103.136 100.834 104.8 99.8921L104.979 99.7887L105.107 99.9597C107.584 103.304 109.4 107.041 111.267 110.735C113.134 114.429 114.917 118.147 116.653 121.9L116.688 121.983C116.233 122.763 115.592 123.419 114.821 123.892C112.312 125.415 109.539 124.337 107.943 122.067C107.197 120.783 106.447 119.498 105.721 118.198C103.726 114.64 101.297 110.17 99.2342 106.612ZM99.282 106.588C101.369 110.139 104.069 114.437 106.16 117.948C106.926 119.208 107.66 120.488 108.41 121.757C108.886 122.383 109.46 122.93 110.11 123.375C112.18 124.735 114.993 123.868 116.325 121.88V122.047C113.102 114.492 109.515 106.938 104.732 100.25L105.039 100.318C103.529 101.111 101.962 101.792 100.351 102.353L99.7568 102.584C98.5041 103.3 98.7714 105.467 99.294 106.588H99.282Z" fill="black"/>
<path d="M115.683 120.779C115.683 120.779 115.049 122.154 112.556 121.904C111.814 121.828 110.705 121.59 109.408 119.916L101.963 107.129C101.341 105.864 101.505 104.091 102.362 103.717C104.006 102.997 103.723 102.99 106.125 101.705" fill="#47444F"/>
<path d="M115.711 120.791C114.837 122.643 112.001 122.461 110.601 121.339C110.106 120.944 109.672 120.48 109.312 119.96C108.115 117.797 106.834 115.693 105.53 113.598C104.393 111.785 102.829 109.129 101.712 107.264C101.169 106.127 100.962 104.147 102.254 103.451C102.935 103.173 103.601 102.86 104.249 102.512C104.848 102.206 105.446 101.924 106.076 101.669L106.104 101.717C104.944 102.549 103.724 103.294 102.454 103.948C101.564 104.512 101.816 106.166 102.203 106.989L104.022 110.17C104.628 111.248 105.219 112.321 105.821 113.407C106.994 115.574 108.187 117.733 109.483 119.832C109.859 120.294 110.295 120.703 110.78 121.049C111.746 121.741 113.018 121.769 114.139 121.578C114.719 121.483 115.249 121.193 115.639 120.755H115.691L115.711 120.791Z" fill="black"/>
<path d="M107.9 104.675C107.9 104.675 104.971 105.832 104.604 106.178C104.102 106.652 105.801 109.129 106.416 109.188C107.03 109.248 109.496 107.459 109.496 107.459" fill="#9226A7"/>
<path d="M110.693 110.242C110.693 110.242 111.187 109.952 108.051 111.395C107.405 111.693 109.248 114.345 109.859 114.405C110.469 114.465 112.288 113.025 112.288 113.025" fill="#9226A7"/>
<path d="M113.485 115.013C113.485 115.013 114.602 114.616 110.96 116.27C110.313 116.564 112.193 119.482 112.739 119.327C115.021 118.691 114.682 118.194 114.682 118.194" fill="#9226A7"/>
<path d="M149.79 182.973C151.418 177.534 155.351 168.552 160.47 165.697L160.402 166.067C157.808 163.205 154.761 160.788 151.382 158.91C149.772 158.171 148.429 156.956 147.536 155.431C146.534 153.478 144.807 152.142 143.115 150.822C141.619 149.562 140.187 148.238 138.783 146.886C137.378 145.534 136.026 144.13 134.717 142.675C133.277 140.997 131.713 139.347 130.832 137.276C130.64 136.667 130.433 135.896 129.962 135.455C129.26 134.695 128.099 134.659 127.169 134.977C127.169 134.242 127.169 132.023 127.169 131.296C127.198 131.027 127.131 130.756 126.98 130.532C126.829 130.307 126.604 130.143 126.343 130.067C125.509 129.797 124.676 129.538 123.838 129.304C122.98 129.029 122.097 128.843 121.201 128.751L121.137 128.651C120.108 127.121 118.843 125.729 117.738 124.21C116.597 122.704 115.682 121.04 115.021 119.272C114.365 117.529 113.612 115.824 112.763 114.166C110.257 109.156 107.453 104.302 104.532 99.5223C102.578 96.3414 100.451 93.248 98.58 90.0234C97.4869 88.3057 96.3459 86.4449 94.4827 85.4906C94.283 85.3891 94.0748 85.3053 93.8604 85.2401C93.6906 85.152 93.4931 85.1335 93.3098 85.1884C93.1198 85.2528 92.9467 85.3588 92.8031 85.4985C92.1901 86.1614 91.707 86.9328 91.3789 87.7729C90.6652 89.4827 90.1058 91.2524 89.7073 93.0611C88.8579 96.6775 88.415 100.377 88.3867 104.091C88.3577 105.928 88.5628 107.761 88.9971 109.546C94.7341 123.045 99.7689 137.649 105.969 150.938C106.753 152.604 107.752 154.161 108.941 155.57C110.07 157.077 111.123 158.623 112.188 160.158C113.254 161.693 114.319 163.22 115.5 164.643C116.385 165.701 117.291 166.707 118.512 167.359C127.448 172.429 136.249 177.864 145.8 181.745C147.095 182.259 148.429 182.67 149.79 182.973ZM149.834 183.041L148.433 182.751C147.775 182.615 147.053 182.321 146.403 182.146C140.45 180.003 134.833 177.041 129.248 174.071C125.948 172.293 122.681 170.46 119.429 168.611C118.955 168.333 118.029 167.856 117.582 167.562C116.602 166.863 115.726 166.029 114.981 165.085C112.587 162.198 110.593 159.017 108.318 156.047C107.76 155.284 107.122 154.604 106.615 153.781C104.221 149.717 102.554 145.315 100.722 141.009C97.8699 134.099 95.2049 127.117 92.492 120.158C91.4706 117.554 90.4573 114.946 89.3562 112.377C88.9371 111.523 88.585 110.638 88.3029 109.729C87.8606 107.879 87.6634 105.98 87.7165 104.079C87.7796 100.32 88.2599 96.5796 89.1487 92.926C89.5817 91.0943 90.1772 89.3046 90.9281 87.5781C91.2899 86.6793 91.8222 85.8584 92.496 85.1606C92.6638 84.984 92.8752 84.8544 93.109 84.7846C93.3428 84.7149 93.5908 84.7074 93.8284 84.763C94.1199 84.8555 94.404 84.9699 94.6782 85.1049C96.6211 86.1109 97.7861 88.0552 98.8912 89.8445C100.734 93.1089 102.817 96.2063 104.768 99.3872C107.66 104.19 110.469 109.053 113.018 114.047C113.882 115.71 114.65 117.419 115.32 119.168C115.995 120.896 116.918 122.516 118.061 123.979C119.174 125.463 120.455 126.83 121.536 128.393L121.34 128.286C123.132 128.457 124.799 129.057 126.527 129.546C126.843 129.637 127.126 129.816 127.343 130.063C127.559 130.31 127.7 130.613 127.748 130.938C127.795 131.618 127.787 133.856 127.807 134.576L127.408 134.282C127.798 134.161 128.208 134.12 128.614 134.161C129.02 134.201 129.414 134.322 129.772 134.517C130.13 134.711 130.445 134.976 130.699 135.294C130.953 135.612 131.141 135.978 131.25 136.369C131.37 136.822 131.538 137.261 131.753 137.677C133.724 140.965 136.6 143.669 139.285 146.385C141.358 148.418 143.533 150.347 145.8 152.162C146.913 153.16 147.691 154.437 148.445 155.701C149.274 156.85 150.384 157.77 151.669 158.373C153.373 159.343 154.995 160.45 156.52 161.681C158.134 162.97 159.621 164.409 160.961 165.979L160.697 166.118C155.615 168.934 151.649 177.649 149.834 183.041Z" fill="black"/>
<path d="M111.091 140.484C110.959 138.496 110.728 136.349 111.609 134.5C114.101 132.969 116.87 131.941 119.76 131.474C120.718 131.311 121.691 131.258 122.66 131.315V131.355C119.796 131.701 117.015 132.516 114.282 133.371C113.373 133.638 112.517 134.061 111.753 134.62C111.414 135.538 111.434 136.556 111.354 137.522C111.262 138.317 111.294 139.908 111.115 140.504L111.091 140.484Z" fill="black"/>
<path d="M118.476 152.985C118.452 151.232 118.42 149.486 118.408 147.737C118.374 145.974 118.439 144.212 118.604 142.457C118.657 141.75 118.834 141.058 119.126 140.413C119.765 139.439 120.862 138.85 121.775 138.234C123.273 137.303 124.834 136.477 126.447 135.761C124.999 136.763 123.539 137.749 122.122 138.747C121.419 139.234 120.752 139.772 120.128 140.357C119.857 140.616 119.671 140.95 119.593 141.315C119.36 142.577 119.226 143.854 119.194 145.136C119.035 147.677 118.931 150.484 118.484 152.985H118.476Z" fill="black"/>
<path d="M110.828 142.592C111.893 144.834 114.478 145.912 115.18 142.592C115.883 139.272 115.085 135.339 118.476 133.327C121.867 131.315 124.309 131.315 124.309 131.315C124.309 131.315 113.621 132.178 111.893 135.292C110.166 138.405 110.828 142.592 110.828 142.592Z" fill="#383640"/>
<path d="M112.687 190.162C116.676 188.969 121.332 182.961 121.332 182.961C121.332 182.961 119.565 177.582 119.517 174.727C119.469 171.872 121.863 168.293 120.666 165.908C119.469 163.522 105.506 142.846 105.506 141.653V134.309C105.506 133.701 101.915 131.713 101.516 130.123C101.117 128.532 99.9203 120.58 98.7234 115.411C97.5266 110.242 95.1328 101.097 95.1328 101.097L95.9307 86.7828C95.9307 86.7828 89.1485 80.588 83.1642 79.1129C77.1799 77.6377 74.7861 87.5781 74.7861 87.5781C80.9221 102.417 105.107 164.715 112.687 190.162Z" fill="#464450"/>
<path d="M112.711 190.13C116.237 188.751 118.859 185.717 121.2 182.854L121.173 183.013C120.323 180.349 119.489 177.649 119.289 174.838C119.174 172.055 121.057 169.474 120.642 166.727C120.454 165.884 119.844 165.136 119.405 164.369C118.519 162.942 112.874 154.317 111.825 152.695C109.802 149.578 107.764 146.484 105.893 143.248C105.581 142.764 105.339 142.24 105.174 141.689C105.174 139.745 105.174 136.846 105.174 134.89C105.174 134.787 105.174 134.492 105.174 134.369C105.174 134.349 105.174 134.286 105.174 134.333C104.033 133.021 102.071 132.127 101.297 130.389C101.12 129.699 100.979 129.001 100.874 128.298C99.98 122.989 99.0465 117.113 97.718 111.92C96.8403 108.31 95.9267 104.707 95.0011 101.109C95.0011 101.109 95.7671 86.3971 95.7711 86.3971L95.8229 86.5204C94.0248 85.0481 92.125 83.7035 90.1378 82.4966C87.6683 81.0652 85.0432 79.6059 82.2026 79.2361C80.4831 79.1328 78.987 80.1745 77.9537 81.4946C76.591 83.3424 75.6129 85.4432 75.0773 87.6735V87.4826C87.1257 117.029 98.4959 146.866 108.661 177.116C110.078 181.379 111.454 185.832 112.707 190.15L112.711 190.13ZM112.675 190.198C111.29 185.88 109.814 181.45 108.314 177.216C97.6422 147.121 86.1962 117.296 74.4629 87.5979C75.4084 84.3415 77.0282 80.2978 80.4233 78.9777C81.5993 78.6083 82.8671 78.6532 84.0139 79.1049C86.2484 79.8503 88.3797 80.8736 90.3573 82.1506C92.347 83.3886 94.2455 84.7665 96.0384 86.2739L96.0942 86.3216V86.3852C96.0942 86.3852 95.2684 101.22 95.2644 101.061C96.2113 104.648 97.1421 108.241 98.0571 111.84C99.601 117.602 100.622 124.019 101.779 129.884C101.843 130.189 101.98 130.474 102.178 130.715C103 131.773 104.217 132.552 105.254 133.443C105.506 133.673 105.881 133.971 105.861 134.361C105.861 134.468 105.861 134.759 105.861 134.882C105.861 136.6 105.861 139.431 105.861 141.14C105.861 141.216 105.861 141.578 105.861 141.645C105.861 141.618 105.861 141.681 105.885 141.713C107.58 145.061 110.413 149.085 112.403 152.317C113.449 153.944 119.01 162.552 119.924 164.039C120.403 164.878 121.017 165.629 121.22 166.604C121.659 169.478 119.716 172.003 119.768 174.818C119.916 177.566 120.734 180.262 121.504 182.898L121.532 182.989L121.476 183.057C120.273 184.535 118.953 185.915 117.53 187.184C116.078 188.428 114.554 189.649 112.679 190.19L112.675 190.198Z" fill="black"/>
<path d="M33.7932 167.498C33.2985 172.667 30.2745 192.126 30.7891 194.138C31.3038 196.15 60.0963 198.91 63.256 198.114C65.6139 192.15 63.4196 114.127 60.4275 97.916C57.4353 81.7053 45.2672 73.264 45.2672 73.264C45.2672 73.264 30.5058 82.4091 26.1173 88.7709C21.7288 95.1327 11.356 118.989 10.5581 122.966C9.76021 126.942 4.57379 140.063 4.17484 143.641C3.77589 147.22 33.7932 167.498 33.7932 167.498Z" fill="#464450"/>
<path d="M35.8924 121.972C30.706 131.164 24.3706 137.924 25.344 140.484C26.3175 143.045 35.8924 147.458 37.0893 146.246C38.2861 145.033 42.0722 111.005 42.0722 111.005L35.8924 121.972Z" fill="#383640"/>
<path d="M56.7897 106.731C52.5049 106.954 50.582 107.399 48.0885 107.689C46.9954 107.813 45.2759 107.813 45.2679 108.27C45.2679 109.514 44.7692 111.502 44.8929 112.624C44.9448 113.081 44.47 113.856 46.2812 113.816C49.413 113.749 55.4373 112.882 57.2565 112.679C59.0757 112.477 58.1781 108.874 58.1821 107.578C58.1821 107.32 58.3616 106.663 56.7897 106.731Z" fill="#605E6A"/>
<path d="M56.7933 106.755C53.1269 106.914 49.5602 107.809 45.9018 108.091C45.7331 108.108 45.572 108.17 45.435 108.27C45.435 108.298 45.435 108.361 45.435 108.405C45.3911 108.95 45.2316 109.872 45.1318 110.417C44.9707 111.357 44.9185 112.312 44.9762 113.264C45.1597 113.813 45.9178 113.689 46.4045 113.689C49.8554 113.486 53.3024 112.946 56.7374 112.52C57.0805 112.465 57.4476 112.5 57.7109 112.266C57.9401 112.019 58.0804 111.703 58.1098 111.367C58.2933 110.246 58.1417 109.105 58.1098 107.96C58.0619 107.582 58.2614 107.129 57.8984 106.93C57.5517 106.772 57.1681 106.711 56.7893 106.755H56.7933ZM56.7933 106.711C57.3119 106.687 58.2135 106.667 58.2494 107.375C58.2494 108.345 58.5407 109.268 58.5766 110.25C58.6125 111.232 58.5766 112.659 57.3797 112.882C56.9808 112.938 56.0472 113.049 55.6483 113.101C52.5803 113.459 49.5163 113.872 46.4125 113.936C45.5028 113.936 44.6132 113.896 44.8366 112.703C44.7608 111.594 45.0081 110.357 45.08 109.248C45.1079 108.906 45.1199 108.584 45.1199 108.242C45.1276 108.154 45.1674 108.072 45.2316 108.011C45.9218 107.55 46.8074 107.673 47.5894 107.55C50.6334 107.176 53.7293 106.83 56.8052 106.711H56.7933Z" fill="black"/>
<path d="M57.5876 115.479C53.3028 115.701 51.3798 116.146 48.8864 116.437C47.7932 116.56 46.0737 116.56 46.0658 117.017C46.0658 118.262 45.5671 120.25 45.6907 121.371C45.7426 121.828 45.2678 122.604 47.0791 122.564C50.2109 122.496 56.2351 121.63 58.0543 121.427C59.8736 121.224 58.9759 117.622 58.9799 116.325C58.9799 116.067 59.1595 115.411 57.5876 115.479Z" fill="#605E6A"/>
<path d="M57.5911 115.502C53.9247 115.661 50.3581 116.556 46.6997 116.838C46.5309 116.856 46.3699 116.918 46.2329 117.017C46.2329 117.045 46.2329 117.109 46.2329 117.152C46.189 117.697 46.0294 118.62 45.9297 119.164C45.7686 120.104 45.7164 121.06 45.7741 122.011C45.9576 122.56 46.7156 122.437 47.2023 122.437C50.6533 122.234 54.1003 121.693 57.5353 121.268C57.8784 121.212 58.2454 121.248 58.5087 121.013C58.7379 120.766 58.8783 120.45 58.9077 120.115C59.0912 118.993 58.9396 117.852 58.9077 116.707C58.8598 116.329 59.0593 115.876 58.6962 115.677C58.3495 115.519 57.9659 115.459 57.5871 115.502H57.5911ZM57.5911 115.459C58.1098 115.435 59.0114 115.415 59.0473 116.123C59.0473 117.093 59.3385 118.015 59.3744 118.997C59.4103 119.979 59.3744 121.407 58.1776 121.63C57.7786 121.685 56.8451 121.797 56.4461 121.848C53.3782 122.206 50.3142 122.62 47.2103 122.683C46.3007 122.683 45.411 122.644 45.6344 121.451C45.5586 120.341 45.806 119.105 45.8778 117.995C45.9057 117.653 45.9177 117.331 45.9177 116.989C45.9255 116.902 45.9652 116.82 46.0294 116.759C46.7196 116.298 47.6053 116.421 48.3872 116.298C51.4312 115.924 54.5271 115.578 57.6031 115.459H57.5911Z" fill="black"/>
<path d="M39.0681 132.703C41.0309 119.999 43.3728 107.077 41.8608 94.2023C39.7942 91.3991 36.0959 88.7868 32.8564 86.8703C31.7278 86.202 30.5391 85.6402 29.3057 85.1924C30.5025 85.4111 31.8271 86.091 32.98 86.6636C35.3263 87.9032 37.5286 89.3966 39.5468 91.1168C40.5522 92.0313 41.6254 92.926 42.2996 94.1307C43.0975 100.588 42.4512 107.073 41.9445 113.518C41.4379 119.964 40.62 126.508 39.0801 132.687L39.0681 132.703Z" fill="black"/>
<path d="M33.8292 167.498C33.123 174.619 31.9102 182.607 31.212 189.737C31.1043 191.184 30.8809 192.639 31.0285 194.071C31.1841 194.309 31.5192 194.381 31.8264 194.52C34.7667 195.47 37.8826 195.8 40.9425 196.257C47.1104 197.053 53.3101 197.673 59.5378 197.9C60.7501 197.972 61.9664 197.936 63.1723 197.792L62.9289 198.003L63.0486 197.55C63.1284 197.426 63.2561 196.297 63.2999 196.098C63.7947 191.403 63.8266 186.667 63.9024 181.943C64.0101 171.12 63.9024 160.293 63.6231 149.47C63.1005 133.252 62.5978 116.985 60.6509 100.862C59.6623 92.7965 56.2685 85.2119 50.9084 79.089C49.165 77.0477 47.2054 75.2 45.0637 73.5781H45.4627C41.1537 76.2847 37.008 79.2414 33.0472 82.4329C30.1348 84.8584 27.2584 87.3832 25.4032 90.7073C22.2435 96.2102 19.5865 102.003 16.9893 107.805C14.3921 113.606 11.8029 119.435 10.243 125.598C8.703 130.572 6.21752 136.89 4.83713 141.9C4.67969 142.497 4.5545 143.102 4.46212 143.713C4.50201 144.206 4.92889 144.775 5.26003 145.188C6.50619 146.62 7.86568 147.949 9.32538 149.164C17.1289 155.749 25.4671 161.61 33.8292 167.498ZM33.7574 167.534C25.3115 161.86 16.8457 156.055 8.99823 149.538C7.50313 148.318 6.10893 146.981 4.82915 145.538C4.43019 144.961 3.9315 144.484 3.8916 143.681C3.93549 143.331 3.98736 143.021 4.05119 142.699C4.93687 138.783 7.11117 132.886 8.36389 129.009C9.20968 126.584 9.87592 124.178 10.5143 121.689C11.3122 119.236 12.2697 116.878 13.2272 114.512C16.6981 106.29 20.2567 98.0631 24.6811 90.2898C26.5881 86.9021 29.5843 84.2699 32.5445 81.8365C36.5438 78.6402 40.7281 75.6808 45.0757 72.9737L45.2871 72.8425L45.4786 72.9817C47.6617 74.6472 49.6515 76.5503 51.4111 78.6556C55.8915 83.8441 58.9906 90.0721 60.4235 96.7669C61.7281 103.423 61.9595 110.246 62.4542 116.985C63.4276 133.204 64.0221 149.443 64.409 165.685C64.5726 175.164 64.7841 184.659 64.1976 194.134C64.1458 195.584 63.9235 197.022 63.5353 198.42L63.3438 198.456C60.7985 198.806 58.305 198.48 55.7637 198.373C50.7768 198.028 45.8071 197.517 40.8548 196.838C39.1831 196.544 30.9846 195.589 30.5458 194.174C30.3742 192.671 30.6415 191.156 30.7612 189.677C31.5312 182.568 32.8916 174.603 33.7574 167.518V167.534Z" fill="black"/>
<path d="M82.6379 76.3535C77.7826 72.27 49.4568 66.3058 47.6575 67.6974C45.8582 69.0891 52.7123 77.2401 63.2527 79.1367C73.7931 81.0334 82.6379 76.3535 82.6379 76.3535Z" fill="black"/>
<path d="M67.8087 71.4429C67.0108 74.6556 66.2368 79.3554 67.0108 81.7809C67.7847 84.2063 53.3944 80.087 52.417 75.1884C53.4343 70.2859 54.4118 62.8625 53.4343 57.1647C52.6364 52.3933 69.7915 54.779 68.9936 63.1289C68.1956 71.4787 67.8087 71.4429 67.8087 71.4429Z" fill="#BC795D"/>
<path d="M67.8325 71.4747C67.3741 73.7443 67.0874 76.045 66.9748 78.3574C66.9203 79.4964 67.0455 80.6368 67.3458 81.7371C67.383 81.8603 67.3875 81.991 67.3588 82.1165C67.3301 82.2419 67.2693 82.3578 67.1822 82.4528C67.0324 82.5965 66.8463 82.6968 66.6436 82.7431C63.053 83.2242 56.9809 80.5005 54.276 78.1507C53.3903 77.3554 52.4887 76.3773 52.2812 75.1566C53.1332 71.2695 53.5639 67.3025 53.5659 63.3237C53.5788 61.3521 53.4307 59.3827 53.1231 57.435C53.0635 57.1569 53.046 56.8714 53.0712 56.5881C53.6297 53.6617 58.7882 54.2025 60.9266 54.7035C63.8868 55.4112 66.9628 56.8426 68.5586 59.5623C69.0933 60.4793 69.369 61.5235 69.3565 62.5841C69.3246 63.4827 69.1052 64.6875 69.0094 65.5781C68.8179 67.0612 68.6105 68.5443 68.2993 70.0115C68.2302 70.5162 68.0793 71.0064 67.8525 71.4628L67.8325 71.4747ZM67.7886 71.4072C67.9456 70.9492 68.0461 70.4738 68.0878 69.9917C68.2793 68.5125 68.399 67.0255 68.5267 65.5424C68.6583 63.6617 69.0733 61.5901 67.9562 59.9241C65.8298 56.7074 61.549 55.3794 57.8546 55.1528C56.3626 55.1249 53.4183 55.2283 53.8412 57.3356C54.3997 61.3118 54.0726 65.3515 53.5419 69.3157C53.2866 71.2083 52.9196 73.4906 52.5605 75.1606C53.1909 77.3952 55.5527 78.6238 57.4876 79.6457C59.5694 80.6477 61.7592 81.4094 64.0145 81.916C64.8683 82.0512 65.9095 82.3494 66.7075 81.9995C66.7075 81.9717 66.7314 81.9797 66.7075 81.8962C66.4143 80.7272 66.3253 79.5167 66.4441 78.3177C66.6276 75.9652 67.0745 73.6406 67.7766 71.3873L67.7886 71.4072Z" fill="black"/>
<path d="M54.04 59.7452C54.8379 61.7332 58.8275 69.2879 61.2212 71.2759C63.615 73.264 65.2108 74.4568 66.0087 74.4568C66.8066 74.4568 69.4836 72.3296 69.3439 71.4072C69.2043 70.4847 54.04 59.7452 54.04 59.7452Z" fill="black"/>
<path d="M65.4268 91.5939C71.7661 98.584 76.1985 155.236 76.386 157.16C81.5725 155.967 89.9505 150.798 93.1421 147.22C90.7484 136.882 85.562 115.411 76.785 98.3136C66.9268 79.1049 65.4268 91.5939 65.4268 91.5939Z" fill="#4BA184"/>
<path d="M89.7633 133.645C85.8615 134.977 80.5355 136.488 75.002 138.075C75.0618 139.375 75.1137 140.643 75.1615 141.864C80.2801 141.069 86.5118 138.246 90.5812 136.695C90.3178 135.713 90.0465 134.691 89.7633 133.645Z" fill="#2A768C"/>
<path d="M91.2949 139.522C87.058 141.029 81.6841 142.798 75.2529 144.647C75.9152 151.407 76.3062 156.282 76.382 157.085C76.5815 157.061 76.7809 157.037 76.9964 157.005C82.2067 155.57 90.0741 150.663 93.1381 147.22C92.6514 145.085 92.033 142.468 91.2949 139.522Z" fill="#2A768C"/>
<path d="M65.4629 91.582C67.2502 93.7331 67.9324 96.6039 68.7502 99.2241C69.4923 101.92 70.0868 104.644 70.6333 107.379C73.7531 123.2 75.1335 141.021 76.5139 157.148L76.3583 157.041C77.9398 156.629 79.4776 156.066 80.9503 155.359C85.3388 153.248 89.6116 150.588 92.9788 147.073L92.9269 147.272C91.5226 141.522 90.0385 135.797 88.3868 130.119C85.0635 118.791 81.1697 107.566 75.7599 97.0532C73.9047 93.4428 67.4856 81.7968 65.4629 91.582ZM65.3871 91.6059C65.8897 87.4787 68.1797 85.9319 71.3275 89.3514C75.317 93.8285 77.7108 99.3951 80.2721 104.739C86.2564 118.333 90.206 132.703 93.3618 147.172L93.3857 147.288L93.3099 147.371C91.0239 149.757 88.2591 151.614 85.4345 153.311C82.5501 154.985 79.542 156.532 76.2586 157.315C75.7878 151.717 75.2319 146.129 74.5909 140.552C73.2664 129.51 71.9977 118.441 70.0708 107.483C69.5841 104.743 69.0455 102.015 68.3672 99.3235C67.689 96.6317 67.0507 93.8524 65.3711 91.6059H65.3871Z" fill="black"/>
<path d="M54.8389 83.6019C62.6544 92.2182 62.5866 143.244 62.818 145.629C68.4033 145.232 75.9356 141.693 80.372 140.063C80.0209 134.496 77.5793 117.001 69.4366 93.6774C60.6676 68.5642 54.8389 83.6019 54.8389 83.6019Z" fill="#43A47C"/>
<path d="M77.4916 121.948C73.5539 123.319 68.0044 124.886 62.2275 126.544C62.2874 127.844 62.3393 129.113 62.3871 130.333C67.6454 129.51 74.0845 126.556 78.1418 125.045C77.9424 124.051 77.723 123.017 77.4916 121.948Z" fill="#2A768C"/>
<path d="M62.8175 145.629C68.4029 145.232 75.9352 141.693 80.3716 140.063C80.037 135.991 79.4763 131.941 78.6919 127.932C74.4311 129.451 68.9974 131.244 62.4824 133.101C62.7138 139.971 62.7537 144.93 62.8175 145.629Z" fill="#2A768C"/>
<path d="M54.8819 83.6019C58.8714 88.1705 60.2678 100.119 61.0537 106.242C62.2865 116.54 62.5857 127.359 62.7692 137.749C62.8291 139.995 62.837 143.399 62.9487 145.622L62.8131 145.51C65.8731 145.248 68.8333 144.297 71.7098 143.264C74.5862 142.23 77.4188 140.965 80.2993 139.86L80.1557 140.083C79.9003 137.069 79.4256 134.067 78.9149 131.081C77.1563 121.38 74.8074 111.794 71.8813 102.377C69.7868 95.9478 68.0235 89.2003 64.5166 83.3673C61.325 78.1308 57.6307 77.7173 54.8819 83.6019ZM54.8061 83.6019C57.3953 77.3952 61.4726 77.7013 64.9116 83.1009C68.207 88.25 69.9863 94.2341 71.9492 99.9557C74.3209 107.189 76.3026 114.543 77.8856 121.987C79.1503 127.999 80.2275 134.067 80.6105 140.21C74.7857 142.293 69.0727 145.16 62.8171 145.757H62.6854V145.629C62.4501 135.236 61.9314 124.472 61.0896 114.139C60.3915 106.52 59.2624 89.2918 54.7861 83.5979L54.8061 83.6019Z" fill="black"/>
<path d="M47.6573 67.6974C51.6468 70.0831 64.8123 77.6377 68.8019 78.0353C72.7914 78.433 77.5789 76.8425 77.1799 76.4449C76.781 76.0473 68.8019 73.6616 66.8071 72.0712C65.5224 71.0493 69.2008 70.0831 70.7966 70.4807C72.3924 70.8783 85.9569 74.8544 86.7548 75.6497C87.5527 76.4449 82.1589 82.5204 81.6642 83.4588C81.1694 84.3971 84.76 87.9757 84.76 89.9637C84.76 91.9518 77.5789 104.91 74.7862 105.59C71.9935 106.27 55.0698 96.1506 52.4447 93.5184C47.6573 88.7709 40.0771 78.433 40.4761 74.4568C40.875 70.4807 47.6573 67.6974 47.6573 67.6974Z" fill="#3EA277"/>
<path d="M66.612 100.898C65.9737 100.21 63.0214 94.1387 61.0267 90.1625C61.0267 90.1625 63.4204 91.753 65.0162 92.1506C61.0267 88.1745 58.6329 85.3912 56.6382 82.6079C54.6434 79.8246 47.0632 68.6915 45.8664 68.6915C44.6695 68.6915 39.4831 72.6676 40.68 75.8485C44.3144 85.5065 51.6472 97.1208 66.612 100.898Z" fill="#006837"/>
<path d="M67.8086 89.7649C70.6013 88.9697 81.4209 83.6576 82.7933 81.9399C84.1657 80.2222 74.5908 92.5482 71.7981 92.5482C69.0055 92.5482 67.8086 89.7649 67.8086 89.7649Z" fill="#006837"/>
<path d="M47.6572 67.6577C53.4939 70.8863 59.3187 74.1745 65.4785 76.7153C66.9985 77.3236 68.5505 77.8524 70.2022 77.7729C72.4084 77.7053 74.7143 77.3753 76.733 76.4528C76.7864 76.4242 76.8371 76.3909 76.8846 76.3534C76.8607 76.3853 76.8846 76.3813 76.8408 76.4568C76.8371 76.5008 76.8426 76.5451 76.857 76.5869C76.8715 76.6286 76.8944 76.6669 76.9245 76.6994C76.5814 76.5403 76.1625 76.3773 75.7556 76.2262C73.8047 75.5105 71.8179 74.8107 69.891 74.0155C68.6941 73.4906 67.5252 73.0374 66.4919 72.1825C66.3703 72.0668 66.2912 71.9138 66.2673 71.7479C66.2434 71.5821 66.2762 71.4131 66.3602 71.268C66.5099 71.0576 66.7101 70.888 66.9427 70.7749C68.1369 70.2046 69.4791 70.0171 70.7846 70.2382C72.8113 70.7948 74.7742 71.431 76.7929 72.0513C80.0763 73.1089 83.4115 74.0155 86.5832 75.3952C87.4609 75.7729 86.5553 76.93 86.284 77.4588C84.9754 79.6258 83.1642 81.4866 81.8077 83.6019C81.8159 83.9238 81.9155 84.2368 82.095 84.5045C82.7054 85.586 83.4794 86.5641 84.1217 87.6456C84.5486 88.4091 85.0193 89.1645 85.0034 90.0949C84.9406 90.5308 84.8268 90.9578 84.6643 91.3673C83.8903 93.3148 82.977 95.2043 81.9314 97.0213C80.7232 99.2281 79.3565 101.345 77.8421 103.355C76.9884 104.349 76.2224 105.49 74.8939 105.976C74.4189 106.042 73.9354 106.009 73.4736 105.88C71.0041 105.212 68.7539 104.027 66.4959 102.89C62.0356 100.566 57.7407 97.9397 53.6415 95.0293C52.2572 94.0551 51.1201 92.755 50.011 91.4866C47.8217 88.9516 45.8102 86.2694 43.9908 83.4588C42.6503 81.3355 41.3577 79.1328 40.5957 76.7232C38.9241 72.1427 44.1265 69.1885 47.6692 67.6577H47.6572ZM47.6572 67.7372C45.463 68.7829 43.2208 70.1229 41.7088 72.0712C41.2052 72.7004 40.8641 73.4431 40.7154 74.2342C40.6368 75.0325 40.7446 75.8382 41.0306 76.588C41.8285 78.926 43.161 81.0492 44.5055 83.1208C46.9127 86.7434 49.6592 90.1303 52.708 93.2361C56.9967 96.7669 62.0236 99.4547 66.8789 102.135C69.0651 103.264 71.2873 104.449 73.6611 105.113C74.0025 105.213 74.3596 105.25 74.7143 105.22C77.5549 103.964 82.2945 95.3235 83.7028 92.2977C84.5765 90.3733 84.8996 89.7729 83.7506 87.8444C83.1362 86.7669 82.3743 85.757 81.7798 84.6635C81.554 84.3201 81.4488 83.9119 81.4806 83.5025C81.9115 82.6795 82.5697 82.0433 83.1043 81.3236C84.3451 79.6894 85.7893 78.1228 86.6431 76.2501C86.7468 75.9359 86.7907 75.7411 86.4795 75.6179C85.6357 75.2245 84.7667 74.8871 83.8783 74.6079C79.9247 73.2839 75.9192 72.1109 71.9097 71.0294C71.1443 70.7502 70.3297 70.6298 69.5159 70.6755C68.6023 70.7869 67.4933 70.926 66.8629 71.5821C66.7911 71.7014 66.9227 71.7928 67.0145 71.8723C67.1063 71.9519 67.3057 72.0672 67.3775 72.1189C70.0864 73.6179 73.1145 74.5045 76.0149 75.586C76.382 75.7451 76.8567 75.8763 77.2118 76.0711C77.3192 76.1067 77.4114 76.1776 77.473 76.2723C77.5346 76.367 77.5621 76.4797 77.5509 76.592C77.515 76.8505 77.2357 77.0095 77.0841 77.097C76.4956 77.3851 75.8777 77.609 75.241 77.765C73.186 78.3255 71.0509 78.5366 68.9255 78.3892C67.6567 78.1886 66.4199 77.8223 65.2471 77.2998C59.1152 74.6676 53.3184 71.2481 47.6532 67.7571L47.6572 67.7372Z" fill="black"/>
<path d="M27.5138 139.466C27.1148 143.045 37.8068 157.558 44.2699 155.769C40.6793 141.852 34.695 137.478 32.7002 136.683C30.7054 135.888 27.5138 139.466 27.5138 139.466Z" fill="black"/>
<path d="M30.9765 136.597C31.5785 136.365 32.2091 136.273 32.7745 136.499C34.8488 137.326 40.8634 141.766 44.4634 155.719L44.5121 155.908L44.3235 155.96C42.6273 156.43 40.6863 155.824 38.7651 154.649C36.8376 153.47 34.8927 151.697 33.1696 149.762C31.4456 147.827 29.9363 145.722 28.8816 143.873C28.3543 142.949 27.9386 142.085 27.6668 141.335C27.3972 140.592 27.2607 139.938 27.3158 139.444L27.3228 139.382L27.3648 139.334L27.3652 139.334L27.3656 139.333C27.3661 139.333 27.3668 139.332 27.3676 139.331C27.3693 139.329 27.3718 139.327 27.375 139.323C27.3814 139.316 27.3908 139.306 27.403 139.293C27.4275 139.266 27.4635 139.227 27.5098 139.178C27.6025 139.08 27.7368 138.941 27.9041 138.778C28.2382 138.451 28.7062 138.023 29.2385 137.619C29.7693 137.215 30.3721 136.83 30.9765 136.597ZM32.6265 136.868C32.1945 136.695 31.678 136.753 31.1206 136.968C30.5656 137.182 29.9964 137.543 29.48 137.935C28.965 138.326 28.51 138.742 28.1834 139.061C28.0203 139.221 27.8897 139.356 27.8 139.451C27.761 139.492 27.7297 139.525 27.7069 139.55C27.6792 139.948 27.7912 140.509 28.042 141.2C28.3038 141.922 28.7083 142.765 29.2283 143.677C30.2681 145.5 31.7609 147.582 33.468 149.498C35.1759 151.416 37.0909 153.159 38.9735 154.31C40.7845 155.418 42.5313 155.956 44.0255 155.624C40.4391 141.898 34.5328 137.628 32.6265 136.868Z" fill="black"/>
<path d="M9.71674 132.707C7.16742 136.286 -1.21062 147.021 -1.60958 149.009C-2.00853 150.997 5.97056 171.951 8.16481 173.403C10.3591 174.854 24.7214 177.522 29.1099 175.991C33.4984 174.46 36.714 164.965 38.2859 162.953C39.8578 160.942 41.4775 159.347 44.2024 155.769C38.6729 156.166 30.2948 150.6 32.6886 136.683L23.1136 137.081C23.1136 137.081 16.9657 133.236 15.0548 134.564C13.1438 135.892 9.71674 132.707 9.71674 132.707Z" fill="#464450"/>
<path d="M9.75652 132.731C6.46913 137.534 2.88253 142.134 -0.237296 147.045C-0.624955 147.627 -0.953715 148.247 -1.21873 148.894C-1.29835 149.078 -1.31516 149.284 -1.26661 149.478C-0.739985 152.285 0.369106 155.021 1.29867 157.733C1.95296 159.554 2.64715 161.363 3.36527 163.16C4.73368 166.452 5.95447 170.007 7.96919 172.957C8.10327 173.13 8.27888 173.267 8.47986 173.355C9.79777 173.944 11.1773 174.386 12.5931 174.671C14.9599 175.23 17.3578 175.648 19.7743 175.924C21.6988 176.172 23.6386 176.283 25.5791 176.258C27.494 176.214 29.5128 176.015 30.8692 174.623C33.997 171.574 35.4572 167.283 37.5198 163.49C38.2698 162.218 39.339 161.144 40.2646 160.011C41.5253 158.536 42.7421 157.037 43.907 155.494L44.2621 156.15C39.726 156.425 35.5609 153.331 33.6459 149.391C32.1818 146.437 31.7948 143.073 32.0222 139.848C32.0461 138.89 32.2855 137.582 32.4211 136.631L32.7523 137.005C29.5606 137.121 26.369 137.192 23.1774 137.284H23.1095L23.0577 137.252C21.2624 136.198 17.1132 133.574 15.1304 134.592L15.0826 134.528C15.7209 134.107 16.5308 134.198 17.2449 134.325C19.3279 134.857 21.311 135.72 23.1175 136.882C26.4328 136.703 29.7481 136.504 33.0674 136.349L33.0196 136.747L32.8281 138.337C32.4012 141.916 32.7443 145.804 34.3521 149.073C36.3468 153.113 40.5 155.852 45.072 155.355C43.153 157.928 41.0026 160.325 38.94 162.771C38.3457 163.501 37.8446 164.303 37.448 165.156C36.5703 166.878 35.7165 168.635 34.7351 170.325C33.4305 172.484 31.9424 174.866 29.5925 176.035C28.3279 176.552 26.9116 176.6 25.5631 176.623C21.6494 176.603 17.7835 176.011 13.9535 175.275C11.9268 174.814 9.80838 174.508 7.96919 173.478L7.81361 173.343L7.68594 173.2C6.61275 171.856 5.89862 170.266 5.13263 168.739C4.29084 166.985 3.5049 165.204 2.7389 163.415C0.959565 158.878 -0.97138 154.369 -1.92887 149.562C-2.07649 148.528 -1.25065 147.574 -0.77988 146.727C0.269371 145.077 1.42634 143.514 2.58331 141.956C4.89325 138.83 7.31093 135.789 9.67274 132.707L9.73657 132.751L9.75652 132.731Z" fill="black"/>
<path d="M16.1396 161.136C18.2501 158.715 23.241 153.824 23.241 153.824C30.901 167.896 34.4557 165.387 42.0717 165.51C40.4759 167.896 33.2947 174.258 33.2947 174.258C22.9219 176.643 20.1292 169.609 16.1396 161.136Z" fill="#615E6A"/>
<path d="M16.1074 161.136C17.6998 159.132 19.4061 157.22 21.218 155.411C21.9122 154.699 22.6064 153.979 23.3245 153.291C24.3618 155.184 25.411 157.073 26.5959 158.858C28.7662 162.218 31.6946 165.454 36.0073 165.454C38.002 165.542 40.0407 165.291 42.0794 165.307H42.4703C41.8114 166.274 41.0735 167.185 40.2641 168.031C38.1337 170.305 35.8756 172.429 33.5657 174.524L33.4979 174.588H33.4021C22.8099 177.228 19.5185 169.311 16.1274 161.105L16.1074 161.136ZM16.1832 161.136C20.1528 168.723 22.9176 176.285 33.2186 173.892L33.055 173.975C35.3729 171.932 37.6669 169.844 39.8652 167.669C40.6006 166.96 41.2846 166.2 41.9118 165.395L42.0754 165.701C40.0487 165.621 38.022 165.796 35.9913 165.701C31.6826 165.637 28.491 162.452 26.173 159.148C24.9933 157.494 23.918 155.767 22.9535 153.979L23.4761 154.055C21.6689 155.832 18.0024 159.375 16.1832 161.14V161.136Z" fill="black"/>
<path d="M7.86523 144.687C8.32023 143.429 8.99563 142.262 9.86001 141.24C11.0369 139.399 12.142 137.264 13.8176 135.912C12.7285 137.856 11.2284 139.49 9.96772 141.307C9.32141 142.441 8.72697 143.757 7.86922 144.687H7.86523Z" fill="black"/>
<path d="M11.8275 132.707C14.0537 131.319 16.4234 129.924 19.0087 129.359C19.1433 129.345 19.2793 129.36 19.4076 129.403C20.2654 129.781 21.0766 130.256 21.8253 130.818C24.761 133.002 27.8577 134.963 31.089 136.683C28.5576 135.583 26.1336 134.252 23.848 132.707C22.707 131.932 21.6178 131.117 20.4688 130.361C19.8904 130.043 19.3996 129.566 18.7174 129.753C16.2918 130.393 14.0257 131.534 11.8115 132.695L11.8275 132.707Z" fill="black"/>
<path d="M51.2478 57.3595C52.0457 59.3476 66.3402 73.6616 69.2007 73.6616C72.0612 73.6616 73.1464 72.5403 76.7809 69.9201C80.4153 67.2998 85.1589 64.5165 86.3558 61.7332C87.5526 58.9499 89.5474 52.9858 89.9464 50.2025C90.3453 47.4192 93.138 44.5683 93.138 42.4172C93.138 40.2661 98.3244 21.5744 85.9568 16.4054C73.5892 11.2364 60.4237 13.6221 55.2373 19.5863C50.0509 25.5505 48.4551 41.0574 48.4551 46.2263C48.4551 51.3953 51.2478 57.3595 51.2478 57.3595Z" fill="#BC795D"/>
<path d="M54.4273 45.3874C53.9765 47.9997 57.4314 53.8049 61.8439 54.0713C66.2563 54.3377 69.4719 53.7293 70.8443 53.7452C72.2167 53.7611 74.0559 56.5842 76.4576 56.612C78.8593 56.6398 80.483 54.3735 81.3009 54.2263C82.1188 54.0792 85.0072 59.1488 86.3158 57.8883C87.6243 56.6279 89.8625 50.6359 87.9635 49.3635C86.0644 48.0912 82.2784 49.7611 81.0097 48.8387C79.741 47.9162 78.955 45.8606 76.9603 45.4073C74.9655 44.954 71.0877 48.8188 69.803 48.4649C68.5184 48.1111 63.332 48.2661 61.7043 46.0793C60.0765 43.8924 59.5299 41.5107 57.6828 42.1429C55.8356 42.7751 54.6986 43.797 54.4273 45.3874Z" fill="#C16D53"/>
<path d="M72.9951 67.4986C70.8288 67.9638 67.6013 66.4171 65.8139 62.3297C65.0981 60.5811 64.4971 58.7881 64.0146 56.9619L74.7864 63.6299L78.776 61.7332C77.2639 63.0692 76.6855 66.7113 72.9951 67.4986Z" fill="#A55153"/>
<path d="M63.4195 56.7631C62.6216 56.7631 62.2227 56.3655 62.2227 55.9679C62.2227 55.5703 63.0206 55.5703 63.4195 55.5703C63.8185 55.5703 64.9595 56.3655 64.7879 56.7631C64.6164 57.1607 63.4195 56.7631 63.4195 56.7631Z" fill="url(#paint2_linear_3293_38937)" fill-opacity="0.5"/>
<path d="M93.3055 41.1131C94.1034 36.2542 96.9479 20.9978 85.9607 16.4054C73.5931 11.2364 60.4276 13.6221 55.2412 19.5863C50.0548 25.5505 48.459 41.0574 48.459 46.2263C48.459 51.3953 51.2517 57.3595 51.2517 57.3595C51.7065 58.4847 56.482 63.5622 61.062 67.7571C58.0299 62.5285 56.0351 56.5643 55.6362 50.6001C55.3729 46.624 56.833 39.4669 58.4289 36.286C60.0247 33.1051 64.4132 27.1409 67.8921 25.2245C67.8921 25.2245 73.5891 25.5505 76.7608 27.0018C79.362 28.1906 89.4994 38.2025 93.3055 41.1131Z" fill="#9D5749"/>
<path d="M78.7757 60.938C77.9173 60.2904 76.9786 59.7558 75.983 59.3476C74.5627 58.8466 71.9934 58.1547 70.3976 58.1547C68.521 58.1235 66.6513 57.9198 64.8122 57.5464C63.5117 57.3197 69.113 61.3436 70.7607 61.9201C72.4083 62.4966 79.414 61.7332 79.414 61.7332L78.7757 60.938Z" fill="#833B39"/>
<path d="M87.9518 52.6756C87.9518 52.5643 87.9518 52.278 87.1539 51.8804C87.0771 51.8488 86.9943 51.8343 86.9112 51.8377C86.8282 51.8411 86.7469 51.8625 86.6729 51.9003C86.5989 51.9381 86.5341 51.9915 86.4828 52.0567C86.4315 52.1219 86.3951 52.1974 86.376 52.278C86.3462 52.4331 86.3692 52.5936 86.4415 52.7341C86.5138 52.8746 86.6312 52.987 86.7749 53.0534C87.3973 53.3516 87.9518 53.0613 87.9518 52.6756Z" fill="#42210B"/>
<path d="M75.9115 34.2065C75.3889 34.8944 73.793 37.2801 72.9951 37.6777C72.1972 38.0753 68.2077 37.2801 65.016 36.8825C63.0213 36.6359 59.4307 36.8825 59.4307 36.8825C59.4307 36.8825 60.6275 35.292 61.8244 34.8944C63.0213 34.4968 69.0056 34.4968 71.0004 34.4968C72.6416 34.4943 74.2814 34.3973 75.9115 34.2065Z" fill="black"/>
<path d="M76.0305 34.2966C75.9013 34.4666 75.7055 34.7417 75.4687 35.0701C75.2329 35.397 74.9582 35.7738 74.6747 36.1418C74.3915 36.5093 74.0979 36.8705 73.8234 37.1657C73.5529 37.4566 73.2876 37.6985 73.0617 37.8111C72.9357 37.8738 72.7626 37.9065 72.5657 37.9225C72.3652 37.9387 72.1244 37.9386 71.8531 37.926C71.3104 37.9008 70.6319 37.8255 69.8829 37.726C68.374 37.5255 66.5977 37.23 64.9969 37.0306V37.0302C64.0117 36.9085 62.6252 36.9081 61.4788 36.9389C60.9069 36.9543 60.397 36.9776 60.0302 36.9968C59.8469 37.0064 59.6994 37.015 59.5978 37.0213C59.547 37.0244 59.5075 37.0269 59.4809 37.0286C59.4676 37.0295 59.4573 37.0301 59.4505 37.0306C59.4472 37.0308 59.4448 37.0309 59.4431 37.031C59.4423 37.031 59.4416 37.0313 59.4411 37.0314H59.4404L59.1143 37.0535L59.3106 36.7929L59.311 36.7926C59.3112 36.7923 59.3115 36.7918 59.3118 36.7914C59.3124 36.7905 59.3134 36.7894 59.3145 36.7879C59.317 36.7846 59.3207 36.7797 59.3254 36.7735C59.3349 36.7613 59.3488 36.7437 59.3667 36.7211C59.4026 36.6758 59.4549 36.6109 59.5214 36.532C59.6543 36.3743 59.8442 36.1595 60.0723 35.9321C60.5242 35.4818 61.1435 34.9632 61.7768 34.7529C62.0968 34.6466 62.7143 34.5716 63.4712 34.516C64.2351 34.4598 65.1604 34.4224 66.1088 34.3976C68.0058 34.3478 70.0021 34.3479 70.9995 34.3479L71.6128 34.3424C73.0435 34.3197 74.4724 34.225 75.8937 34.0586L76.242 34.0178L76.0305 34.2966ZM75.5891 34.3917C74.0652 34.5579 72.5335 34.6437 71.0003 34.6461H70.9999C70.0024 34.6461 68.0094 34.6457 66.1166 34.6954C65.1701 34.7202 64.2501 34.7574 63.493 34.813C62.7291 34.8692 62.1496 34.9434 61.8711 35.0359C61.3076 35.2232 60.73 35.6987 60.2842 36.1429C60.0687 36.3578 59.8878 36.5611 59.7594 36.713C59.834 36.7087 59.9196 36.704 60.0146 36.699C60.3834 36.6797 60.8959 36.6566 61.471 36.6411C62.6184 36.6103 64.0244 36.6096 65.0339 36.7343H65.0343C66.625 36.9325 68.4395 37.2334 69.9227 37.4305C70.6697 37.5298 71.3378 37.6036 71.8672 37.6282C72.1319 37.6404 72.3587 37.6403 72.5416 37.6255C72.728 37.6103 72.8542 37.5809 72.9277 37.5443C73.1007 37.4581 73.3342 37.2527 73.6036 36.963C73.8691 36.6776 74.1566 36.3246 74.4374 35.9601C74.7179 35.5959 74.9902 35.2224 75.2256 34.8961C75.3602 34.7095 75.4835 34.5374 75.5891 34.3917Z" fill="black"/>
<path d="M82.9688 39.2681C83.7667 38.0753 84.9635 36.4848 84.9635 36.4848C84.9635 36.4848 90.9478 35.6896 92.5437 37.2801C93.003 37.7544 93.3252 38.3436 93.4762 38.9854C93.6272 39.6272 93.6013 40.2978 93.4014 40.9262C93.4014 40.9262 92.1806 38.4729 89.751 38.4729C87.3213 38.4729 82.9688 39.2681 82.9688 39.2681Z" fill="black"/>
<path d="M88.1551 36.1369C89.0075 36.1369 89.9156 36.1869 90.714 36.3385C91.457 36.4795 92.1281 36.7127 92.565 37.096L92.6496 37.1745L92.6511 37.1764L92.7392 37.2704C93.1705 37.7469 93.4743 38.3251 93.6216 38.9513C93.7788 39.6192 93.7522 40.3172 93.5441 40.9712L93.4319 41.3234L93.2675 40.9925C93.2674 40.9924 93.2669 40.9918 93.2667 40.9914C93.2663 40.9905 93.2657 40.989 93.2648 40.9871C93.2627 40.983 93.2591 40.9768 93.2546 40.9685C93.2458 40.9517 93.2324 40.9265 93.2141 40.8943C93.1775 40.8299 93.1218 40.737 93.0478 40.6252C92.8993 40.4012 92.6767 40.1025 92.3808 39.8044C91.7879 39.2072 90.9113 38.622 89.7509 38.622C88.5478 38.622 86.8615 38.8193 85.47 39.0181C84.7756 39.1173 84.1568 39.2166 83.7117 39.291C83.4891 39.3282 83.3099 39.3591 83.1865 39.3807C83.1248 39.3916 83.077 39.4002 83.0447 39.406C83.0285 39.4089 83.0163 39.4111 83.008 39.4126L82.9964 39.4145L82.996 39.4149H82.9956L82.6484 39.4782L82.844 39.1854C83.2447 38.5865 83.7448 37.8886 84.1441 37.3414C84.3439 37.0676 84.5187 36.8311 84.6436 36.6631C84.706 36.5791 84.7561 36.5121 84.7905 36.4662C84.8076 36.4433 84.8212 36.4258 84.8302 36.4138C84.8347 36.4078 84.838 36.4033 84.8404 36.4002L84.8435 36.3955H84.8439L84.8813 36.3454L84.9436 36.3369L84.9635 36.4848L84.944 36.3369H84.9448C84.9455 36.3368 84.9468 36.3367 84.9483 36.3365C84.9513 36.3361 84.9558 36.3353 84.9615 36.3346C84.9731 36.3331 84.9903 36.3311 85.0126 36.3284C85.0573 36.3229 85.123 36.3148 85.207 36.3055C85.3748 36.2867 85.6162 36.2617 85.9106 36.2367C86.4993 36.1868 87.3018 36.1369 88.1551 36.1369ZM88.1551 36.4351C87.3129 36.4351 86.5195 36.4847 85.9363 36.5342C85.6449 36.5589 85.4061 36.5836 85.2405 36.6021C85.1578 36.6113 85.0933 36.6189 85.0496 36.6242C85.0482 36.6244 85.0466 36.6245 85.0453 36.6246C85.0407 36.6308 85.0358 36.6376 85.0305 36.6448C84.9963 36.6905 84.9466 36.7572 84.8844 36.8409C84.7599 37.0084 84.5856 37.244 84.3865 37.5169C84.0515 37.9759 83.6473 38.5395 83.2909 39.06C83.3948 39.0421 83.5197 39.0205 83.6622 38.9967C84.1091 38.922 84.7302 38.8226 85.4275 38.723C86.8197 38.5241 88.5245 38.3238 89.7509 38.3238C91.0201 38.3238 91.9685 38.9652 92.5935 39.5947C92.9064 39.9099 93.1411 40.2246 93.2975 40.4606C93.3157 40.488 93.3321 40.515 93.3481 40.5402C93.4534 40.0395 93.4484 39.5205 93.3306 39.0196C93.186 38.4047 92.8774 37.84 92.4376 37.3853V37.3857C92.0717 37.021 91.4362 36.779 90.6579 36.6312C89.8855 36.4846 88.9983 36.4351 88.1551 36.4351Z" fill="black"/>
<path d="M72.2445 46.1349C71.1993 44.6359 68.7896 41.3636 65.0075 41.4113C62.6681 41.4685 60.3906 42.1719 58.4287 43.4431L59.6256 44.6359C59.6256 44.6359 63.5393 43.1886 65.6099 43.4431C67.6805 43.6975 69.9984 45.0335 71.9932 47.0216C71.9932 46.2264 72.2445 46.1349 72.2445 46.1349Z" fill="black"/>
<path d="M79.9727 49.4073C81.5685 48.7075 84.3612 47.4192 85.957 48.2144C86.6799 48.6002 87.3059 49.1439 87.7882 49.8049C87.7882 49.8049 89.4438 48.111 89.9465 47.0216L88.3507 47.4192C87.7451 47.0252 87.0671 46.7549 86.3559 46.624C84.3612 46.2263 81.9674 47.0216 80.3716 48.2144C80.3025 48.6305 80.1678 49.0331 79.9727 49.4073Z" fill="black"/>
<path d="M64.4136 57.7571C64.8126 59.0454 67.1744 64.9658 72.5762 66.1348C73.1906 66.107 74.3635 66.1746 77.3637 63.1607C78.377 62.1309 78.776 61.7332 78.776 61.7332L78.4448 61.6378L72.7597 59.9559C70.5031 59.7343 68.2954 59.1614 66.2169 58.2581C64.3737 57.4629 64.0146 56.9619 64.0146 56.9619L64.4136 57.7571Z" fill="black"/>
<path d="M72.7635 59.9559C70.5069 59.7343 68.2992 59.1614 66.2207 58.2581L65.6143 57.9798C65.6143 58.7074 65.6143 59.439 66.0132 59.7452C67.609 60.938 70.8007 62.1309 73.1944 62.5285C73.9165 62.6478 75.648 62.8823 76.2504 62.9261C76.3383 62.9326 76.4261 62.9117 76.5017 62.8664C77.0586 62.4683 77.5557 61.993 77.9779 61.4549L72.7635 59.9559Z" fill="#EFE9E8"/>
<path d="M78.995 61.5503C77.5228 63.1845 74.4868 66.9459 72.0133 66.103C69.6195 65.4072 67.6447 63.7173 66.2883 61.6736C65.3613 60.159 64.6053 58.5468 64.0342 56.8665C64.8999 58.4052 65.7138 59.9758 66.6513 61.447C68.1035 63.4668 70.0185 65.8207 72.6835 66.0235C73.5373 65.9797 74.2793 65.443 74.9855 64.9738C76.4137 64.0036 77.6665 62.5881 78.975 61.5503H78.995Z" fill="black"/>
<path d="M63.2445 56.1667C64.897 57.6691 66.9355 58.6849 69.1331 59.1011C70.5972 59.3476 72.1053 59.5305 73.5615 59.8963C75.7158 60.3694 77.6827 61.7889 79.9687 61.3356V61.3913C79.6177 61.5485 79.2453 61.653 78.8636 61.7014C76.9446 61.944 75.1732 60.9659 73.3939 60.437C71.2635 59.7452 68.9496 59.6617 66.887 58.7352C65.4991 58.1444 64.2401 57.2895 63.1807 56.2184L63.2245 56.1746L63.2445 56.1667Z" fill="black"/>
<path d="M51.2921 57.3594C53.2549 60.6517 65.806 73.1407 69.2012 73.7769C71.4712 73.8723 73.2465 72.5443 75.0299 71.1844C77.7866 69.0174 80.8586 67.264 83.5037 65.0493C84.4612 64.2143 85.4226 63.3435 86.0051 62.2143C86.8908 60.2461 87.6009 58.1825 88.2991 56.1308C88.8577 54.4864 89.3252 52.8125 89.6994 51.1169C89.8159 50.2383 90.0633 49.382 90.4335 48.5762C91.2314 46.5881 92.915 44.8824 93.0267 42.6756C94.6225 33.5305 95.7715 20.4888 84.9519 16.7751C76.3225 13.5465 65.4031 13.0575 57.5676 18.4372C54.7111 20.4252 53.223 23.6777 52.074 26.8705C50.3864 31.781 49.4569 36.9739 48.8824 42.1388C48.6831 43.8665 48.5872 45.6045 48.5951 47.3436C48.7348 50.8187 49.8518 54.2104 51.2881 57.3594H51.2921ZM51.2163 57.3913C49.7242 54.2382 48.6151 50.8505 48.3677 47.3515C48.3078 45.6021 48.3558 43.8506 48.5114 42.107C48.9103 36.8625 49.7082 31.6458 51.3519 26.624C52.2017 24.123 53.2948 21.6022 55.0742 19.5863C62.3232 12.0316 76.0991 12.4929 85.1913 16.1549C96.2383 20.1071 94.9018 33.3556 93.2741 42.6915C93.2741 44.0315 92.5201 45.2521 91.9136 46.3893C91.0679 47.9122 90.1742 49.4271 90.0306 51.1607C89.6926 52.88 89.2584 54.5791 88.73 56.2501C88.1043 58.3547 87.372 60.4262 86.5357 62.4568C85.0397 65.2401 82.1472 66.8862 79.7056 68.6914C78.2614 69.6854 76.8491 70.6795 75.4368 71.7212C73.6295 73.085 71.5869 74.5045 69.2012 74.3574C67.8806 74.1705 66.8274 73.1645 65.7981 72.429C64.4177 71.3355 63.1211 70.1546 61.8444 68.9578C59.3031 66.5483 56.8695 64.0354 54.5037 61.4628C53.3587 60.1467 52.086 58.8982 51.2163 57.3753V57.3913Z" fill="black"/>
<path opacity="0.2" d="M85.2728 59.277C89.5472 60.3693 94.0407 57.0924 95.9903 52.0915C97.4487 46.8703 95.1342 41.6674 90.8206 40.4706C86.507 39.2738 82.0733 42.6958 80.6149 47.9171C79.1564 53.1384 80.9592 58.0802 85.2728 59.277Z" fill="url(#paint3_linear_3293_38937)"/>
<path d="M83.9714 41.9055C88.0092 38.7152 93.1081 38.828 95.4608 42.2414L95.5707 42.4064L95.5715 42.408L95.6962 42.6099C96.9519 44.7143 97.2458 47.3099 96.8116 49.7855C96.3634 52.3411 95.1342 54.7993 93.3394 56.498C91.57 58.1768 89.5569 59.39 87.5269 59.6863C85.5409 59.9761 83.5714 59.3827 81.8504 57.5635L81.6844 57.3833C79.9695 55.4736 79.4829 52.4342 79.9347 49.4936C80.3873 46.548 81.7929 43.6178 83.9714 41.9055ZM95.0763 42.7205C93.0358 39.5526 88.2836 39.2442 84.3353 42.3641L84.3345 42.3645C82.3043 43.9603 80.9515 46.7377 80.5144 49.5821C80.0766 52.4316 80.5693 55.2649 82.1216 56.9934V56.9938C83.7568 58.8151 85.5964 59.3775 87.442 59.1081C89.3076 58.8358 91.2142 57.7074 92.9354 56.0743L92.9358 56.074C94.6278 54.4725 95.8044 52.1334 96.2338 49.685C96.6633 47.2366 96.3408 44.7091 95.0763 42.7209V42.7205Z" fill="#FEF2EF"/>
<path d="M80.7709 41.8526C77.9782 45.7492 78.2854 49.0812 78.3772 50.2025C78.4849 51.4987 80.1525 53.5901 80.4837 54.771C80.6911 55.5186 80.0847 56.107 79.6179 56.4768C78.1737 57.5981 77.2242 57.7531 77.2242 57.7531C75.3691 57.8247 71.6388 56.0712 72.0857 55.2323C72.5325 54.3933 75.0579 52.3496 75.6763 51.3118C76.2946 50.274 77.1803 49.4073 77.5793 48.2144" fill="#C16D53"/>
<path d="M77.2198 57.7571C75.5322 58.2581 73.9484 57.3595 72.9949 56.7352C72.0414 56.111 72.2728 54.3098 72.2728 54.3098C72.2728 54.3098 72.8792 56.604 73.2063 56.1627C74.0401 55.0374 75.6359 54.3416 77.5948 54.437C78.8276 54.4967 79.3382 54.4371 80.2997 54.9579C81.0418 55.3714 78.9991 57.2243 77.2198 57.7571Z" fill="url(#paint4_linear_3293_38937)"/>
<path d="M82.1708 40.461C81.1135 41.7969 80.0683 43.1687 79.4379 44.7234C78.9903 45.8967 78.7801 47.1467 78.8195 48.4013C78.7434 49.6511 78.972 50.9008 79.4858 52.0434C79.8449 53.0375 80.5789 53.952 80.7066 55.0573C80.6627 56.4132 78.3807 57.5146 77.2197 57.7531C78.4182 57.3527 79.4669 56.6 80.2279 55.5941C80.3119 55.4254 80.3522 55.2385 80.3453 55.0503C80.3383 54.8621 80.2842 54.6786 80.188 54.5166C79.8568 53.7611 79.41 53.0176 79.0629 52.2263C78.5087 51.0292 78.2646 49.7127 78.3528 48.3973C78.3233 47.0868 78.5806 45.7856 79.1068 44.5842C79.8785 43.0419 80.9155 41.6464 82.1708 40.461Z" fill="black"/>
<path d="M75.9109 56.111C75.113 56.2462 74.3869 56.4211 73.585 56.5325C73.8729 56.2182 74.2564 56.0068 74.6766 55.9306C75.0967 55.8545 75.5303 55.9179 75.9109 56.111Z" fill="black"/>
<path opacity="0.2" d="M65.1782 54.6272C69.54 55.8373 74.2586 51.6854 75.7382 46.8247C77.2672 41.3507 75.077 36.0145 70.7152 34.8043C66.3533 33.5941 61.5779 37.0506 60.0489 42.5245C58.5199 47.9984 60.8163 53.417 65.1782 54.6272Z" fill="url(#paint5_linear_3293_38937)"/>
<path d="M61.9044 38.0745C65.5024 33.5256 71.2737 33.6319 74.1384 36.3881L74.2747 36.5236L74.2755 36.524L74.4341 36.6925C77.6569 40.2035 77.1293 45.605 74.5175 49.8995L74.3897 50.1065C72.873 52.519 70.8834 54.0868 68.7299 54.6697C66.5706 55.2542 64.2802 54.8386 62.1962 53.3472L62.1958 53.3468C60.1558 51.881 59.176 49.2592 59.1297 46.4655C59.0833 43.6666 59.9699 40.6394 61.7322 38.2981L61.9044 38.0745ZM73.7223 36.8168C71.0878 34.284 65.5949 34.1467 62.2114 38.6553L62.211 38.6557C60.5345 40.8829 59.6838 43.7783 59.7281 46.4554C59.7725 49.1376 60.7121 51.5455 62.5457 52.863H62.5453C64.4948 54.2582 66.6011 54.628 68.5729 54.0943C70.5505 53.559 72.4269 52.1048 73.8824 49.7897L74.0071 49.5881C76.5882 45.3443 76.9739 40.1664 73.8454 36.9391L73.7223 36.8168Z" fill="#FEF2EF"/>
<path d="M75.4981 47.6516C76.347 47.5097 77.4076 47.5287 78.3218 47.7256C78.7801 47.8244 79.2189 47.9715 79.581 48.1776C79.9422 48.3831 80.2519 48.6619 80.4025 49.0312C80.4809 49.2235 80.3724 49.4409 80.1604 49.5165C79.9484 49.5919 79.7131 49.4971 79.6347 49.3048C79.5653 49.1349 79.406 48.9674 79.1383 48.8151C78.8715 48.6634 78.5211 48.5409 78.1188 48.4543C77.312 48.2804 76.3654 48.2648 75.6299 48.3877C75.4067 48.425 75.1962 48.2902 75.1599 48.0869C75.1236 47.8837 75.2751 47.6889 75.4981 47.6516Z" fill="#FEF2EF"/>
<path d="M63.4199 40.461C66.1647 39.0296 69.8471 38.9182 71.399 42.0514C69.1888 39.4192 66.452 39.7771 63.4199 40.461Z" fill="black"/>
<path d="M84.166 45.2323C85.6741 43.6419 88.4269 43.9719 89.7514 45.6299C88.0399 44.4808 86.0052 44.1707 84.166 45.2323Z" fill="black"/>
<path d="M61.0264 27.3398C62.5704 26.4849 66.2766 25.1966 67.5972 25.3517C68.9177 25.5068 63.851 20.4094 62.315 22.1271C60.779 23.8447 61.0264 27.3398 61.0264 27.3398Z" fill="black"/>
<path d="M62.1707 21.9989C62.6363 21.4782 63.3477 21.5051 64.0385 21.7461C64.7384 21.9904 65.4941 22.4769 66.149 23.0034C66.8044 23.5305 67.3753 24.1113 67.7015 24.5582C67.7835 24.6704 67.8526 24.7774 67.9037 24.8754C67.9535 24.9707 67.9929 25.0698 68.0046 25.1635C68.0164 25.2581 68.0024 25.3846 67.8948 25.4718C67.7984 25.5499 67.6747 25.555 67.5749 25.5433C67.2769 25.5083 66.8228 25.554 66.2693 25.6656C65.7211 25.7761 65.0928 25.9472 64.455 26.1505C63.177 26.558 61.8775 27.0894 61.1207 27.5084L60.855 27.6556L60.8336 27.3535L61.0268 27.3399L60.8336 27.3531V27.35C60.8335 27.3481 60.833 27.3454 60.8328 27.3418C60.8324 27.3347 60.832 27.3243 60.8312 27.3108C60.8298 27.2837 60.8277 27.2441 60.8258 27.1935C60.8219 27.0923 60.818 26.9465 60.8184 26.7664C60.8192 26.4064 60.8368 25.908 60.9029 25.3545C61.0342 24.2572 61.3617 22.9038 62.1707 21.9989ZM63.9103 22.11C63.2605 21.8833 62.7621 21.9172 62.4598 22.2552C61.733 23.068 61.4162 24.3209 61.2871 25.4004C61.2231 25.9353 61.2065 26.4181 61.2057 26.7672C61.2054 26.8643 61.2064 26.951 61.208 27.0254C62.0079 26.6191 63.1861 26.1501 64.3369 25.7832C64.9837 25.577 65.6263 25.4019 66.1926 25.2878C66.7468 25.1761 67.2457 25.1192 67.6068 25.1588C67.5974 25.1316 67.5829 25.0966 67.5605 25.0536C67.5209 24.9778 67.4633 24.8876 67.3887 24.7853C67.0883 24.3737 66.5442 23.8166 65.9062 23.3036C65.2675 22.79 64.551 22.3335 63.9103 22.11Z" fill="black"/>
<path d="M66.6117 16.4889C64.617 15.0138 61.8243 12.1152 59.4305 13.5704C57.0368 15.0257 54.8106 19.805 56.3227 21.7851C57.8347 23.7652 69.9709 24.5406 70.685 21.5664C71.3992 18.5923 66.6117 16.4889 66.6117 16.4889Z" fill="url(#paint6_linear_3293_38937)"/>
<path d="M98.1288 16.6042C90.812 8.13905 79.2383 3.18877 68.0397 4.97405C64.5289 5.61421 60.3598 6.99393 59.0312 10.64C59.3783 8.72354 60.8505 7.17683 62.4583 6.16292C67.4731 3.12118 73.7806 3.02178 79.3939 4.13112C87.0294 5.71112 93.7516 10.1828 98.1448 16.6042H98.1288Z" fill="black"/>
<path d="M79.3778 26.1469C75.1808 21.9839 73.0424 22.4849 68.207 25.308C71.5981 20.7632 76.984 20.644 79.3778 26.1469Z" fill="black"/>
<path d="M47.4617 51.1965C48.8294 56.0208 49.1342 61.0827 48.3553 66.0354C47.9263 68.5436 47.1865 70.9891 46.1531 73.3157C45.647 74.4802 45.0701 75.6129 44.4256 76.7073C43.7992 77.8087 43.117 78.8703 42.3909 79.8882C40.951 81.9225 39.4049 83.8802 37.7591 85.753C37.3601 86.2182 36.9612 86.6874 36.5423 87.1446L35.9319 87.8325C35.7244 88.0631 35.513 88.2977 35.3454 88.5005C34.9859 88.9177 34.6554 89.3587 34.356 89.8206C34.0642 90.285 33.8068 90.7701 33.586 91.2719C32.6874 93.3295 32.5323 95.6339 33.1472 97.7927C33.7735 99.9597 35.2377 102.031 37.5357 102.962C36.9089 102.887 36.2977 102.716 35.7244 102.453C35.1421 102.175 34.5967 101.827 34.1007 101.415C33.0984 100.56 32.2974 99.4959 31.7548 98.2977C30.6435 95.8172 30.5208 93.0082 31.4117 90.4409C31.8484 89.1558 32.4985 87.9529 33.3347 86.8822C33.5461 86.5999 33.7336 86.3733 33.9291 86.1347L34.5116 85.423L35.6686 84.0075C36.4385 83.0651 37.1965 82.1149 37.9466 81.1685C38.6966 80.2222 39.4028 79.252 40.1009 78.2819C41.4855 76.3528 42.7167 74.3187 43.7833 72.1984C44.8334 70.0783 45.661 67.8558 46.2528 65.5662C47.4736 60.9977 47.6571 56.1189 47.4617 51.1965Z" fill="url(#paint7_linear_3293_38937)"/>
<path d="M59.0312 10.64C62.2229 7.45914 65.7935 4.01581 77.7821 5.47107C90.4011 7.00586 102.517 19.7851 107.704 28.9302C112.368 37.1528 122.349 56.5245 112.491 59.5464C116.082 56.3655 116.481 51.9917 110.895 46.8228C112.89 55.9679 112.89 64.7153 100.921 68.2938C106.906 61.932 106.786 57.614 104.512 54.3774C101.719 50.4013 96.6846 49.0613 88.1549 39.6658C80.5748 31.3159 78.58 24.9541 76.5853 22.966C74.375 20.7633 70.6009 22.5684 67.9758 25.3517C66.2124 20.1827 63.4198 15.0138 59.0312 10.64Z" fill="url(#paint8_linear_3293_38937)"/>
<path d="M59.0154 10.64C63.4837 5.63807 68.6222 4.67584 75.0813 5.07346C81.0297 5.24841 86.6909 7.59432 91.5182 10.974C97.944 15.5382 103.363 21.3665 107.441 28.0992C110.365 33.1926 113.058 38.4371 115.021 43.9798C116.64 48.8387 119.126 57.4987 112.531 59.6458L112.005 59.8088L112.404 59.443C117.107 55.3714 114.761 50.4371 110.808 46.8784L110.967 46.787C111.881 51.1369 112.599 55.8207 111.031 60.111C109.491 64.4847 105.202 67.1129 100.918 68.3376L100.698 68.4052L100.854 68.2382C103.599 65.2561 106.627 61.3396 105.641 57.0533C104.504 52.7989 100.188 50.6915 97.0039 48.0911C92.5032 44.6042 88.444 40.5854 84.9155 36.123C82.2665 32.7791 80.1081 29.0853 78.0495 25.3636C77.3434 24.2066 76.6731 22.8269 75.3446 22.3139C72.5878 21.4273 69.851 23.5624 68.0038 25.4074L67.9041 25.5147L67.8562 25.3755C66.0722 19.8447 63.0349 14.7973 58.9795 10.6241L59.0154 10.64ZM59.0513 10.64C63.1964 14.7036 66.1846 19.8726 68.0597 25.3517L67.9121 25.3199C69.3683 23.7771 71.1755 22.3935 73.3059 21.9601C75.9151 21.4273 77.2157 23.2364 78.3328 25.2523C79.0469 26.4849 79.7251 27.7215 80.4512 28.9382C83.34 33.8077 86.8332 38.295 90.848 42.294C93.8202 45.3397 97.1634 47.9758 100.582 50.5007C104.173 53.0971 107.205 56.5722 105.609 61.272C104.72 63.9956 102.884 66.274 100.969 68.3535L100.906 68.2541C108.31 66.0871 112.248 61.3277 111.773 53.4947C111.625 51.1581 111.278 48.8383 110.736 46.5603C112.635 48.3098 114.462 50.3536 115.084 52.9221C115.755 55.4351 114.49 58.0315 112.571 59.6497L112.459 59.447C113.383 59.1745 114.222 58.6724 114.897 57.9877C120.387 51.9321 110.584 34.4292 107.125 28.3139C102.039 20.0794 94.9532 12.807 86.2879 8.31797C82.8002 6.54909 78.9745 5.54065 75.0653 5.35974C68.6821 4.90248 63.5874 5.80109 59.0513 10.652V10.64Z" fill="black"/>
<path d="M62.8177 89.2202C53.7694 78.087 54.9822 67.0931 53.7534 45.622C52.4329 22.5605 47.3702 51.6577 48.2519 62.3217C48.6428 67.0056 49.4487 80.6039 62.8177 89.2202Z" fill="url(#paint9_linear_3293_38937)"/>
<path d="M51.9162 36.7784C52.0501 36.7435 52.1841 36.7611 52.3077 36.8278C52.5362 36.9509 52.7142 37.2333 52.8653 37.6125C53.0209 38.0033 53.1651 38.5433 53.2977 39.2441C53.5632 40.6472 53.7874 42.7249 53.9526 45.6106L54.0613 47.5959C54.5723 57.3696 54.6322 64.8825 55.5508 71.2698C56.5284 78.067 58.4764 83.5627 62.9728 89.0952L63.7609 90.0647L62.7094 89.3872C49.2525 80.7142 48.4442 67.0219 48.0533 62.3382V62.3379C47.6103 56.9796 48.659 47.0182 49.9826 41.2803C50.3134 39.846 50.6643 38.6627 51.0181 37.8781C51.1937 37.4888 51.3783 37.1781 51.5753 36.9862C51.6749 36.8891 51.7883 36.8118 51.9162 36.7784ZM52.0175 37.1632C51.9792 37.1732 51.9242 37.2023 51.8542 37.2704C51.712 37.409 51.5521 37.6641 51.382 38.0412C51.0447 38.7891 50.7008 39.9413 50.3714 41.3692C49.0539 47.0805 48.012 56.9994 48.4506 62.3052L48.5317 63.2833C48.9776 68.5039 50.3911 80.3255 61.8834 88.3531C57.882 83.0825 56.0828 77.7723 55.1557 71.3261C54.2342 64.9183 54.1724 57.3643 53.6628 47.613L53.5545 45.6335C53.3896 42.7538 53.1665 40.6959 52.9058 39.3179C52.7753 38.6282 52.6366 38.116 52.4944 37.7589C52.3475 37.3903 52.2128 37.2288 52.118 37.1776C52.08 37.1571 52.0497 37.1549 52.0175 37.1632Z" fill="black"/>
<path d="M58.6326 18.5923C58.0782 18.7467 57.5692 19.0317 57.1484 19.4233C56.9561 19.6026 56.786 19.8041 56.6418 20.0237C56.4903 20.2376 56.3568 20.4637 56.2428 20.6996C55.8055 21.7003 55.4843 22.7475 55.2853 23.8209C54.8265 26.0237 54.5114 28.3537 54.0286 30.6996C53.5698 33.1081 52.9269 35.4781 52.1057 37.789C51.2453 40.2147 50.0633 42.5147 48.5909 44.6279C47.8254 45.7145 46.9599 46.7275 46.0056 47.6538C44.1035 49.4895 41.8966 50.9828 39.4827 52.0673C38.2924 52.6136 37.0527 53.0463 35.7804 53.3595C34.4703 53.6965 33.1196 53.8504 31.767 53.8168C31.0446 53.7913 30.328 53.6792 29.6325 53.4828C28.8751 53.2688 28.173 52.8945 27.5739 52.3854C26.967 51.8604 26.5285 51.169 26.3132 50.3973C26.1275 49.7175 26.0854 49.0067 26.1896 48.3098C26.3966 47.0744 26.8438 45.8912 27.5061 44.8267C27.3536 45.977 27.3657 47.1431 27.542 48.29C27.6259 48.779 27.8063 49.2466 28.0726 49.6657C28.2946 50.0032 28.6108 50.2686 28.9822 50.4291C29.8213 50.7234 30.7288 50.7649 31.5914 50.5484C32.6046 50.3422 33.591 50.022 34.5317 49.5941C35.0144 49.3794 35.4932 49.1408 35.964 48.8824C36.4347 48.6239 36.9015 48.3615 37.3523 48.0872C38.2526 47.5137 39.1149 46.8828 39.9336 46.1985C41.5275 44.8564 42.9065 43.2796 44.0228 41.5226C46.3448 38.0077 47.8927 33.801 49.5803 29.4232C50.4129 27.1383 51.4047 24.9143 52.5485 22.7672C53.1695 21.6055 53.9782 20.5537 54.9422 19.6539C55.4528 19.1903 56.0566 18.8406 56.7136 18.6281C57.3363 18.4313 58.0029 18.4189 58.6326 18.5923Z" fill="url(#paint10_linear_3293_38937)"/>
<path d="M61.8241 17.0018C58.421 14.8348 55.3809 19.9839 54.2439 23.7612C52.4726 29.6499 51.4752 42.1667 39.8816 51.1965C37.416 53.1209 33.0993 57.1607 23.5244 54.775C24.7213 57.1607 26.3171 60.4171 32.3014 60.7392C47.0627 61.5344 55.0857 47.8884 59.0314 35.292C61.0262 28.9302 62.223 24.5565 63.0209 24.1589C64.6167 23.3636 66.0849 25.1648 67.4094 25.3517C68.734 25.5386 65.5663 19.3796 61.8241 17.0018Z" fill="url(#paint11_linear_3293_38937)"/>
<path d="M59.3074 16.4283C60.1447 16.1743 61.0309 16.2683 61.9275 16.8391H61.9279C63.8343 18.0504 65.5804 20.2126 66.6823 22.0391C67.2333 22.9525 67.6316 23.7955 67.8074 24.4069C67.8935 24.7062 67.9356 24.9798 67.8924 25.1839C67.8698 25.2903 67.8198 25.3979 67.7202 25.4705C67.6191 25.5441 67.4982 25.5591 67.382 25.5427C67.0166 25.4911 66.6523 25.3303 66.2993 25.1455C66.1217 25.0524 65.9421 24.9505 65.7644 24.8503C65.5855 24.7496 65.4074 24.6503 65.2283 24.5587C64.5066 24.1898 63.817 23.9775 63.1073 24.3312C63.0547 24.3574 62.9719 24.4334 62.8634 24.5968C62.7586 24.7546 62.6436 24.9725 62.5178 25.2507C62.2664 25.8067 61.9821 26.5818 61.6583 27.5498C61.1726 29.002 60.6033 30.8714 59.9277 33.0593L59.2159 35.3494C57.239 41.6606 54.2365 48.2502 49.8669 53.1655C45.5613 58.0088 39.9225 61.2314 32.639 60.948L32.2907 60.9317C29.2613 60.7687 27.3225 59.8608 25.9885 58.675C24.6604 57.4944 23.9481 56.0507 23.3513 54.8612L23.1631 54.4861L23.571 54.5878C28.3243 55.7721 31.7575 55.3588 34.3019 54.4212C36.8517 53.4816 38.5217 52.0128 39.7622 51.0446L40.0306 50.8334C51.3084 41.8699 52.2878 29.592 54.0583 23.706V23.7057C54.6316 21.8012 55.6869 19.5409 57.0396 18.0242C57.716 17.2657 58.4792 16.6795 59.3074 16.4283ZM61.7199 17.1645C60.9151 16.652 60.1453 16.5771 59.42 16.7971C58.6857 17.0199 57.9796 17.5505 57.3286 18.2804C56.1077 19.6495 55.1231 21.6713 54.5403 23.4618L54.4292 23.8167C52.6847 29.6161 51.6728 42.0733 40.2718 51.1351L40.0006 51.3483C38.7755 52.3045 37.0545 53.8182 34.4359 54.7831C31.8862 55.7227 28.4974 56.1391 23.8842 55.06C24.4431 56.1632 25.1104 57.377 26.2464 58.3869C27.5056 59.5062 29.3569 60.3875 32.3118 60.5466L32.6531 60.5625C39.7967 60.8407 45.3306 57.6868 49.5775 52.9096C53.8961 48.0515 56.8778 41.5196 58.8465 35.2345L59.5576 32.9474C60.2331 30.76 60.8046 28.8831 61.2913 27.4278C61.6159 26.4575 61.905 25.667 62.1648 25.0923C62.2946 24.8051 62.4196 24.5664 62.5408 24.384C62.6582 24.2073 62.7874 24.0596 62.9343 23.9864C63.8203 23.5449 64.6627 23.8359 65.4051 24.2155C65.592 24.311 65.7759 24.4139 65.9545 24.5145C66.1342 24.6157 66.3081 24.7141 66.4793 24.8038C66.8239 24.9842 67.1397 25.1187 67.4365 25.1606C67.4613 25.1641 67.4764 25.1628 67.4841 25.1614C67.4877 25.1607 67.4898 25.1602 67.4907 25.1598C67.4915 25.1595 67.4919 25.159 67.4919 25.159C67.492 25.1589 67.4924 25.1586 67.493 25.1579C67.494 25.1568 67.4959 25.1544 67.4981 25.1505C67.5026 25.1425 67.5087 25.128 67.5137 25.1043C67.5362 24.998 67.5189 24.8023 67.4358 24.5133C67.2732 23.9482 66.8938 23.1381 66.3507 22.2379C65.2983 20.4935 63.6619 18.4624 61.8917 17.2767L61.7199 17.1645Z" fill="black"/>
<path d="M105.629 34.457C107.959 38.2542 109.946 42.2979 110.919 46.6717L110.728 46.7154C109.822 42.3417 107.903 38.286 105.629 34.457Z" fill="black"/>
<path d="M65.0156 9.84481C66.4385 9.0174 68.0239 8.50607 69.6634 8.34581C71.3641 8.21251 73.0715 8.49931 74.6344 9.1808C76.1895 9.86782 77.6187 10.8085 78.8633 11.9641C80.0894 13.0882 81.2111 14.3205 82.2146 15.646C84.1498 18.2699 85.8606 21.051 87.3292 23.9601C88.8173 26.8149 90.1617 29.7334 91.6339 32.457C92.0089 33.129 92.3959 33.7851 92.8028 34.3894C92.999 34.6751 93.2108 34.9499 93.4372 35.2125L94.2351 36.1071C95.3122 37.3159 96.3549 38.5564 97.3629 39.8288C99.4094 42.3719 101.201 45.1086 102.713 47.9997C103.46 49.4737 104.06 51.0172 104.504 52.608C104.971 54.2182 105.136 55.9004 104.991 57.5702C104.911 58.4097 104.72 59.2348 104.42 60.0235C104.115 60.8012 103.698 61.531 103.184 62.1905C102.157 63.4633 100.834 64.4666 99.3297 65.1129C100.682 64.2901 101.832 63.1744 102.693 61.8485C103.485 60.5392 103.906 59.0398 103.91 57.5106C103.889 55.9851 103.61 54.474 103.084 53.0414C102.556 51.5861 101.888 50.1852 101.089 48.8585C99.4881 46.1664 97.6382 43.6292 95.5636 41.2801C94.5463 40.0872 93.481 38.9143 92.3959 37.7691L91.574 36.9023C91.2648 36.573 90.9744 36.2265 90.7043 35.8646C90.2067 35.1818 89.7459 34.473 89.3239 33.7413C88.4901 32.3139 87.764 30.8745 87.0459 29.4431L84.9314 25.1529C83.5647 22.3337 82.0231 19.6021 80.3155 16.974C78.6 14.4174 76.5853 12.0317 73.9881 10.5247C72.6748 9.76764 71.205 9.32017 69.6914 9.21658C68.1072 9.13521 66.5216 9.34824 65.0156 9.84481Z" fill="url(#paint12_linear_3293_38937)"/>
<path opacity="0.2" d="M51.1401 21.5744C53.115 20.9859 46.217 22.9263 45.5548 21.6459C44.8925 20.3656 45.4351 18.4213 45.4351 18.4213C45.4351 18.4213 43.0413 20.0118 41.7806 23.8885C40.5199 27.7652 40.5 28.6877 40.5 28.6877C40.5 28.6877 41.1702 25.964 43.9549 25.3239C46.7397 24.6837 46.0734 28.9024 46.0734 28.9024C46.0734 28.9024 48.4552 22.3696 51.1401 21.5744Z" fill="#C79984"/>
<path opacity="0.2" d="M85.2507 25.9481C83.0006 25.6141 90.8361 26.6439 91.3587 25.1529C91.8813 23.6618 90.9598 21.6141 90.9598 21.6141C90.9598 21.6141 93.8402 22.974 95.819 27.0058C97.7978 31.0376 97.9814 32.0475 97.9814 32.0475C97.9814 32.0475 96.8164 29.1767 93.6727 28.9183C90.5289 28.6598 91.9412 33.1449 91.9412 33.1449C91.9412 33.1449 88.3267 26.4054 85.2507 25.9481Z" fill="#C79984"/>
<path opacity="0.2" d="M94.275 22.2424C92.8348 21.8885 97.8656 23.0376 98.2965 22.0992C98.7273 21.1609 98.2685 19.7732 98.2685 19.7732C98.2685 19.7732 100.056 20.8388 101.089 23.5783C102.122 26.3179 102.178 26.9899 102.178 26.9899C101.985 26.4131 101.643 25.8971 101.186 25.4938C100.73 25.0904 100.175 24.8138 99.5771 24.6917C97.5504 24.3259 98.1768 27.3358 98.1768 27.3358C98.1768 27.3358 96.2458 22.7314 94.275 22.2424Z" fill="#C79984"/>
</g>
</g>
<defs>
<linearGradient id="paint0_linear_3293_38937" x1="94.598" y1="105.204" x2="94.598" y2="36.4292" gradientUnits="userSpaceOnUse">
<stop offset="0.16" stop-color="#934661"/>
<stop offset="0.33" stop-color="#7C3B4F"/>
<stop offset="0.61" stop-color="#592B34"/>
<stop offset="0.85" stop-color="#442123"/>
<stop offset="1" stop-color="#3C1D1D"/>
</linearGradient>
<linearGradient id="paint1_linear_3293_38937" x1="53.6616" y1="83.6377" x2="21.3268" y2="27.4442" gradientUnits="userSpaceOnUse">
<stop offset="0.24" stop-color="#934661"/>
<stop offset="0.57" stop-color="#592B34"/>
<stop offset="0.77" stop-color="#3C1D1D"/>
</linearGradient>
<linearGradient id="paint2_linear_3293_38937" x1="62.2227" y1="56.2581" x2="64.8039" y2="56.2581" gradientUnits="userSpaceOnUse">
<stop stop-color="#955241"/>
<stop offset="0.41" stop-color="#975140"/>
<stop offset="0.59" stop-color="#9F4E3F"/>
<stop offset="0.74" stop-color="#AB4A3B"/>
<stop offset="0.77" stop-color="#B0483A"/>
</linearGradient>
<linearGradient id="paint3_linear_3293_38937" x1="90.8205" y1="40.4707" x2="85.572" y2="59.3878" gradientUnits="userSpaceOnUse">
<stop stop-color="#60FFFF"/>
<stop offset="1" stop-opacity="0"/>
</linearGradient>
<linearGradient id="paint4_linear_3293_38937" x1="80.6692" y1="56.4981" x2="72.4548" y2="56.086" gradientUnits="userSpaceOnUse">
<stop stop-color="#955241"/>
<stop offset="0.41" stop-color="#975140"/>
<stop offset="0.59" stop-color="#9F4E3F"/>
<stop offset="0.74" stop-color="#AB4A3B"/>
<stop offset="0.77" stop-color="#B0483A"/>
</linearGradient>
<linearGradient id="paint5_linear_3293_38937" x1="70.7152" y1="34.8043" x2="65.2127" y2="54.6367" gradientUnits="userSpaceOnUse">
<stop stop-color="#60FFFF"/>
<stop offset="1" stop-opacity="0"/>
</linearGradient>
<linearGradient id="paint6_linear_3293_38937" x1="55.8958" y1="18.1311" x2="70.8405" y2="18.6554" gradientUnits="userSpaceOnUse">
<stop stop-color="#3C1D1D"/>
<stop offset="0.44" stop-color="#3E1E1E"/>
<stop offset="0.6" stop-color="#452124"/>
<stop offset="0.71" stop-color="#50272D"/>
<stop offset="0.8" stop-color="#612F3A"/>
<stop offset="0.88" stop-color="#77394B"/>
<stop offset="0.94" stop-color="#924560"/>
<stop offset="0.95" stop-color="#934661"/>
<stop offset="1" stop-color="#934661"/>
</linearGradient>
<linearGradient id="paint7_linear_3293_38937" x1="43.4123" y1="103.518" x2="36.6471" y2="52.606" gradientUnits="userSpaceOnUse">
<stop stop-color="#9A657E"/>
<stop offset="0.11" stop-color="#945A74"/>
<stop offset="0.31" stop-color="#843D59"/>
<stop offset="0.33" stop-color="#823A56"/>
<stop offset="0.42" stop-color="#74354B"/>
<stop offset="0.65" stop-color="#582933"/>
<stop offset="0.85" stop-color="#462225"/>
<stop offset="1" stop-color="#402020"/>
</linearGradient>
<linearGradient id="paint8_linear_3293_38937" x1="114.031" y1="59.5225" x2="67.2439" y2="3.57029" gradientUnits="userSpaceOnUse">
<stop offset="0.24" stop-color="#934661"/>
<stop offset="0.57" stop-color="#592B34"/>
<stop offset="0.77" stop-color="#3C1D1D"/>
</linearGradient>
<linearGradient id="paint9_linear_3293_38937" x1="58.2728" y1="90.6456" x2="48.3111" y2="38.1845" gradientUnits="userSpaceOnUse">
<stop offset="0.24" stop-color="#934661"/>
<stop offset="0.57" stop-color="#592B34"/>
<stop offset="0.77" stop-color="#3C1D1D"/>
</linearGradient>
<linearGradient id="paint10_linear_3293_38937" x1="23.0378" y1="48.0554" x2="64.3239" y2="26.9369" gradientUnits="userSpaceOnUse">
<stop stop-color="#9A657E"/>
<stop offset="0.11" stop-color="#945A74"/>
<stop offset="0.31" stop-color="#843D59"/>
<stop offset="0.33" stop-color="#823A56"/>
<stop offset="0.42" stop-color="#74354B"/>
<stop offset="0.65" stop-color="#582933"/>
<stop offset="0.85" stop-color="#462225"/>
<stop offset="1" stop-color="#402020"/>
</linearGradient>
<linearGradient id="paint11_linear_3293_38937" x1="53.1787" y1="52.6041" x2="39.1191" y2="28.1615" gradientUnits="userSpaceOnUse">
<stop offset="0.24" stop-color="#934661"/>
<stop offset="0.57" stop-color="#592B34"/>
<stop offset="0.77" stop-color="#3C1D1D"/>
</linearGradient>
<linearGradient id="paint12_linear_3293_38937" x1="92.2243" y1="67.8724" x2="79.5759" y2="5.21194" gradientUnits="userSpaceOnUse">
<stop stop-color="#9A657E"/>
<stop offset="0.11" stop-color="#945A74"/>
<stop offset="0.31" stop-color="#843D59"/>
<stop offset="0.33" stop-color="#823A56"/>
<stop offset="0.42" stop-color="#74354B"/>
<stop offset="0.65" stop-color="#582933"/>
<stop offset="0.85" stop-color="#462225"/>
<stop offset="1" stop-color="#402020"/>
</linearGradient>
<clipPath id="clip0_3293_38937">
<rect width="207.169" height="399.469" fill="white" transform="translate(-13.0361 3.48301)"/>
</clipPath>
</defs>
</svg>
