<svg width="124" height="151" viewBox="0 0 124 151" fill="none" xmlns="http://www.w3.org/2000/svg">
<rect x="1.5" y="29.5" width="121" height="121" rx="60.5" stroke="black" stroke-opacity="0.05"/>
<mask id="mask0_3347_117828" style="mask-type:luminance" maskUnits="userSpaceOnUse" x="0" y="-13" width="124" height="164">
<path d="M121 102.001C119.5 104.001 117 131.001 85 145.499C82 146.499 77 149.999 61.9997 150C46.9657 150.001 33.5703 144.919 21.9994 135.001C14.9994 129.001 6.99941 119.001 3.99948 104.5C-7.50038 70.4989 11.9998 65.9994 14.4999 64.4994C14.4999 34.676 32.5287 -14.1268 53.3508 -12.4941C111.851 -14.4947 111 14.5 122.5 50.0002C127 62.5002 111.5 91.5007 121 102.001Z" fill="white"/>
</mask>
<g mask="url(#mask0_3347_117828)">
<g clip-path="url(#clip0_3347_117828)">
<path d="M27.891 76.6915C25.7247 78.0292 23.504 79.2516 21.3377 80.5328C19.2212 81.8049 17.0481 83.1087 15.2961 84.8259C12.7404 87.2888 11.8214 91.4826 12.3873 94.9148C12.6137 96.1237 13.0845 97.3325 14.0624 98.1415C12.9079 97.5201 12.2198 96.2706 11.8418 95.0504C11.3994 93.4585 11.2895 91.7929 11.5189 90.1569C11.7483 88.5209 12.312 86.9494 13.175 85.5399C16.0363 81.3213 23.2075 78.4879 27.8887 76.6825L27.891 76.6915Z" fill="black"/>
<path d="M30.9833 73.858C25.0978 77.0982 10.4136 84.2249 16.7699 104.05C23.1262 123.876 62.054 61.2633 62.054 61.2633L48.3499 47.9432C48.3499 47.9432 36.8529 70.6269 30.9833 73.858Z" fill="url(#paint0_linear_3347_117828)"/>
<path d="M62.3061 61.2324L62.2221 61.3675L62.0539 61.2633L62.2217 61.3684C62.2214 61.3688 62.221 61.3696 62.2204 61.3706C62.2192 61.3725 62.2172 61.3754 62.2148 61.3792C62.2101 61.3868 62.203 61.3982 62.1936 61.4132C62.1748 61.4433 62.1468 61.4881 62.1098 61.5471C62.0359 61.6651 61.9261 61.8399 61.7827 62.067C61.4957 62.5211 61.0742 63.1846 60.5355 64.0218C59.458 65.6961 57.9116 68.0656 56.0363 70.847C52.286 76.4093 47.2181 83.6212 41.9502 90.2145C36.6864 96.8026 31.2087 102.792 26.6383 105.892C24.3583 107.439 22.2652 108.294 20.5185 108.1C18.74 107.903 17.3893 106.632 16.581 104.111C13.3841 94.1394 15.4747 87.3328 19.1289 82.6137C22.771 77.9103 27.9538 75.3001 30.8875 73.6849L31.021 73.6083C31.6952 73.2084 32.4539 72.5475 33.2703 71.6813C34.1391 70.7596 35.0646 69.6151 36.0134 68.3284C37.9111 65.755 39.8946 62.6229 41.6971 59.5881C43.4991 56.5539 45.1184 53.6201 46.2871 51.4446C46.8714 50.357 47.343 49.459 47.6685 48.8331C47.8312 48.5202 47.9575 48.2753 48.043 48.1087C48.0857 48.0254 48.1182 47.9616 48.14 47.9187L48.171 47.858C48.1717 47.8567 48.1722 47.8556 48.1725 47.855C48.1727 47.8546 48.1729 47.8545 48.173 47.8543C48.174 47.8547 48.185 47.86 48.3012 47.9187L48.173 47.8543L48.2948 47.6138L62.3061 61.2324ZM48.3956 48.2888C48.3098 48.456 48.1831 48.7018 48.02 49.0154C47.6938 49.6426 47.2214 50.5422 46.6362 51.6315C45.4658 53.8102 43.8438 56.7492 42.0379 59.7898C40.2325 62.8297 38.2412 65.9744 36.3324 68.563C35.378 69.8572 34.4422 71.0151 33.5588 71.9523C32.7325 72.8289 31.944 73.521 31.2222 73.949L31.0787 74.0311C28.127 75.6562 23.0248 78.2292 19.4424 82.8555C15.8722 87.4661 13.799 94.1357 16.9584 103.99C17.7391 106.425 18.9953 107.534 20.5623 107.707C22.1611 107.884 24.1521 107.1 26.4155 105.565C30.9318 102.501 36.3777 96.5548 41.6405 89.968C46.899 83.3865 51.9604 76.1843 55.7078 70.6264C57.5812 67.8477 59.1259 65.4803 60.2021 63.808C60.7402 62.9719 61.1612 62.3095 61.4476 61.8562C61.5908 61.6296 61.7003 61.4551 61.7741 61.3375C61.7838 61.3219 61.7928 61.3073 61.8012 61.2938L48.404 48.2718C48.4011 48.2773 48.3985 48.2831 48.3956 48.2888Z" fill="black"/>
<path d="M56.8906 47.349C56.2115 37.9876 50.7334 33.4753 48.3498 30.7977C45.9662 28.1201 34.0481 41.1284 34.0481 41.1284C30.879 49.9407 35.8251 50.1666 35.7323 54.4123C35.6395 58.658 32.4591 59.4466 30.2996 59.25C27.6466 58.9992 24.4911 57.0922 23.1193 53.104C22.9337 58.6422 25.3173 62.21 28.8916 63.0031C31.8909 63.6675 34.8495 62.21 34.8495 62.21C34.9156 63.2571 34.7343 64.305 34.3203 65.2694C33.9062 66.2337 33.271 67.0874 32.4659 67.7618C29.5073 70.2925 18.961 72.5068 15.3867 74.8974C11.8124 77.288 9.03038 86.0235 15.3867 87.7972C13.0031 84.4079 16.1812 78.0699 21.7407 78.4675C30.0822 77.6744 31.7755 75.7561 36.6378 72.3215" fill="url(#paint1_linear_3347_117828)"/>
<path d="M56.8703 47.3512C56.293 40.1952 53.0673 35.6512 48.1122 30.7616C46.462 29.7176 42.1521 33.5996 40.8437 34.6954C38.5076 36.7539 36.3164 38.9705 34.1772 41.2482L34.2135 41.1894C33.9871 41.8221 33.7766 42.4548 33.6136 43.101C33.102 44.999 32.8892 47.0981 33.6634 48.9465C34.1546 50.2005 35.0646 51.2444 35.54 52.5211C35.9874 53.8368 35.957 55.2678 35.4539 56.5634C35.2075 57.21 34.8054 57.7862 34.2831 58.2409C33.7608 58.6957 33.1344 59.0151 32.4591 59.1709C28.3008 60.1787 24.2942 56.9724 23.0492 53.1424L23.1805 53.1221C23.115 54.6629 23.2992 56.2042 23.726 57.6864C25.3309 63.0099 30.2227 64.2617 34.9605 62.027C35.0628 63.1409 34.8914 64.2629 34.4611 65.2957C34.0307 66.3285 33.3544 67.241 32.4908 67.9538C31.4812 68.765 30.2793 69.2847 29.0954 69.7908C25.1589 71.4155 21.0391 72.4616 17.1614 74.1812C16.3967 74.5067 15.677 74.9289 15.02 75.4375C13.7728 76.5198 12.899 78.0179 12.3467 79.5657C11.1832 82.7765 11.6404 86.62 15.423 87.621L15.1966 87.9283C13.1322 84.8417 15.174 80.4718 18.3023 78.9782C19.3582 78.471 20.5293 78.2504 21.6978 78.3387C23.056 78.2145 24.4142 78.0495 25.7542 77.7942C30.3653 76.9853 32.9164 74.9155 36.5971 72.3215L36.6197 72.3532C35.5105 73.1531 34.4262 73.9868 33.308 74.7777C32.2038 75.5844 31.017 76.2721 29.7677 76.8293C27.2324 77.9162 24.473 78.3342 21.7476 78.6189C18.2684 78.3094 15.14 81.1406 14.8027 84.5502C14.6638 85.6519 14.9265 86.7667 15.5429 87.691L15.8689 88.1429C10.289 86.9589 10.6037 81.0457 13.0801 77.0869C13.536 76.3445 14.1032 75.6762 14.762 75.1053C15.4486 74.5753 16.2011 74.1363 17.0007 73.7993C20.8942 72.0911 25.0525 71.0449 28.9686 69.4542C30.1253 68.9684 31.3024 68.4713 32.2894 67.6962C33.0966 67.04 33.7369 66.2026 34.1583 65.2523C34.5796 64.302 34.7699 63.2658 34.7137 62.2281L34.9016 62.3298C27.4588 65.4932 22.7028 60.5628 23.0469 53.104L23.0582 52.7425L23.1759 53.0837C24.3553 56.8504 28.3665 60.016 32.4139 58.9924C34.5168 58.4795 35.583 56.5996 35.6033 54.5298C35.6871 50.8716 32.2464 50.1056 32.887 45.0058C33.0637 43.6336 33.408 42.2882 33.9124 40.9996C36.0345 38.7009 38.2748 36.5137 40.6241 34.4469C42.4192 32.9443 44.2278 31.3332 46.4485 30.4746C47.0981 30.2486 48.0126 30.1334 48.4857 30.7593L48.6804 30.9853C49.7375 32.1263 50.8377 33.2448 51.8201 34.4672C54.7922 38.0531 56.7276 42.7621 56.8544 47.3467L56.8703 47.3512Z" fill="black"/>
<path d="M79.5314 10.0776C87.4768 7.30062 93.8331 12.4569 99.3926 21.5765C104.952 30.696 103.648 44.4183 99.1957 53.0995C97.1486 57.0042 96.1886 61.3857 96.4159 65.7869C96.5744 68.5865 102.175 74.4184 109.126 75.3042C116.078 76.1899 114.713 89.7766 113.099 90.3709C113.495 86.0099 108.728 83.2352 105.948 83.2352C110.317 85.6122 116.501 93.2179 114.403 96.9484C112.304 100.679 108.443 102.136 108.443 102.136C108.443 102.136 114.29 96.3926 110.118 92.1943C105.55 89.5823 105.785 90.1765 105.785 90.1765C105.785 90.1765 110.715 94.3409 108.728 97.9087C106.74 101.477 105.559 103.46 105.559 103.46L71.1084 71.7431C71.1084 71.7431 72.6228 12.4908 79.5314 10.0776Z" fill="url(#paint2_linear_3347_117828)"/>
<path d="M79.6548 9.82642C83.6138 8.50036 87.1905 9.12016 90.4631 11.1991C93.7776 13.3048 96.7757 16.9035 99.5618 21.4737C102.367 26.0756 103.435 31.8272 103.247 37.5088C103.058 43.1911 101.613 48.8209 99.372 53.1896L99.3713 53.1911C97.3408 57.0642 96.3885 61.4102 96.6138 65.7758L96.6182 65.8371C96.673 66.4761 97.0269 67.3056 97.6545 68.2187C98.2989 69.1561 99.2183 70.1622 100.351 71.1117C102.618 73.0118 105.721 74.6711 109.151 75.1081C110.964 75.339 112.23 76.401 113.078 77.8487C113.922 79.2907 114.358 81.1225 114.522 82.9289C114.687 84.7374 114.581 86.5368 114.332 87.9253C114.207 88.619 114.045 89.217 113.86 89.6648C113.767 89.8884 113.666 90.0807 113.557 90.2301C113.503 90.3034 113.444 90.3706 113.379 90.4267C114.007 91.4667 114.497 92.5169 114.772 93.5135C115.133 94.8143 115.136 96.0491 114.576 97.0452C113.507 98.9455 111.991 100.263 110.747 101.105C110.124 101.526 109.568 101.829 109.167 102.027C108.966 102.127 108.804 102.2 108.691 102.248C108.635 102.272 108.591 102.29 108.561 102.302C108.546 102.308 108.534 102.313 108.526 102.316C108.522 102.318 108.519 102.319 108.516 102.32C108.515 102.32 108.515 102.321 108.514 102.321C108.514 102.321 108.513 102.321 108.513 102.321C108.513 102.321 108.509 102.31 108.443 102.136L108.513 102.321L107.635 102.653L108.304 101.995L108.304 101.995C108.305 101.994 108.306 101.993 108.307 101.992C108.31 101.989 108.314 101.986 108.319 101.98C108.329 101.97 108.345 101.954 108.365 101.933C108.406 101.891 108.465 101.829 108.54 101.748C108.689 101.585 108.898 101.348 109.136 101.05C109.614 100.453 110.205 99.6168 110.666 98.6543C111.128 97.6907 111.455 96.6116 111.418 95.5255C111.381 94.452 110.989 93.3605 109.995 92.3522C108.031 91.2297 106.971 90.7097 106.403 90.4797C106.484 90.5592 106.573 90.6481 106.667 90.7458C107.104 91.1976 107.666 91.8392 108.167 92.5958C109.161 94.0969 109.952 96.1186 108.901 98.0049C107.907 99.7897 107.114 101.178 106.57 102.121C106.297 102.593 106.087 102.952 105.945 103.195C105.874 103.316 105.82 103.407 105.784 103.469C105.766 103.499 105.752 103.523 105.743 103.538C105.739 103.546 105.735 103.552 105.733 103.556L105.729 103.561L105.729 103.561L105.604 103.771L70.9082 71.8276L70.9104 71.738L71.1085 71.7431C70.9105 71.738 70.9104 71.7378 70.9104 71.7373C70.9104 71.7369 70.9106 71.7362 70.9106 71.7353C70.9107 71.7335 70.9108 71.7308 70.9109 71.7272C70.911 71.72 70.9111 71.7092 70.9115 71.695C70.9123 71.6664 70.9135 71.6238 70.9151 71.5676C70.9181 71.4553 70.9228 71.2887 70.9292 71.0714C70.942 70.6366 70.9617 69.9985 70.9891 69.1858C71.044 67.5603 71.1303 65.2356 71.2553 62.4385C71.5052 56.8445 71.9105 49.3598 72.5319 41.7991C73.1531 34.2398 73.9907 26.5989 75.1061 20.6943C75.6636 17.7431 76.2921 15.2173 77.0008 13.3501C77.355 12.4168 77.7322 11.6404 78.1353 11.0557C78.5364 10.474 78.977 10.0619 79.4661 9.89107L79.6548 9.82642ZM90.2504 11.5326C87.0711 9.51284 83.6178 8.91576 79.78 10.2015L79.5969 10.2642C79.2224 10.395 78.8416 10.7286 78.4616 11.2799C78.0835 11.8283 77.7196 12.5725 77.3713 13.4903C76.6748 15.3253 76.0514 17.8246 75.4954 20.7676C74.3838 26.6515 73.5476 34.2762 72.9267 41.8315C72.3059 49.3855 71.9008 56.8648 71.651 62.4559C71.526 65.2514 71.4399 67.5748 71.385 69.1991C71.3576 70.0112 71.3379 70.6485 71.3251 71.0828C71.3187 71.3 71.314 71.4664 71.311 71.5784C71.3101 71.6094 71.3094 71.6362 71.3088 71.6588L105.513 103.149C105.539 103.104 105.569 103.053 105.604 102.995C105.745 102.753 105.955 102.394 106.227 101.924C106.77 100.983 107.562 99.5956 108.555 97.8127C109.491 96.1311 108.811 94.2867 107.837 92.8136C107.353 92.0833 106.808 91.4608 106.382 91.0203C106.169 90.8003 105.987 90.6264 105.859 90.5077C105.794 90.4484 105.744 90.4029 105.709 90.3725C105.692 90.3573 105.679 90.3458 105.67 90.3383C105.666 90.3345 105.662 90.3317 105.66 90.3299C105.659 90.329 105.658 90.3283 105.658 90.3279L105.657 90.3274L105.619 90.2954L105.601 90.2493L105.785 90.1765L105.601 90.2482C105.601 90.248 105.6 90.2476 105.6 90.2473C105.6 90.2467 105.6 90.246 105.6 90.2454C105.599 90.244 105.598 90.2425 105.598 90.2409C105.597 90.2378 105.596 90.2342 105.595 90.2304C105.592 90.2227 105.59 90.2132 105.588 90.2023C105.585 90.1813 105.583 90.1497 105.591 90.1132C105.611 90.0224 105.68 89.9603 105.762 89.9353C105.83 89.9148 105.907 89.9185 105.984 89.9314C106.066 89.945 106.17 89.9727 106.304 90.0192C106.802 90.1923 107.797 90.6541 109.802 91.7871L110.216 92.0228L110.24 92.036L110.258 92.055C111.337 93.1406 111.774 94.3345 111.814 95.5121C111.854 96.6837 111.502 97.8278 111.023 98.825C110.545 99.8232 109.935 100.685 109.446 101.297C109.376 101.385 109.307 101.467 109.243 101.545C109.599 101.358 110.041 101.105 110.525 100.778C111.736 99.958 113.201 98.6819 114.23 96.8517C114.719 95.9825 114.736 94.8675 114.39 93.6188C114.124 92.6578 113.647 91.6329 113.026 90.6081L112.874 90.6646L112.898 90.3985C112.751 90.1639 112.598 89.9294 112.437 89.6961C110.621 87.0506 108.004 84.5792 105.853 83.4089L105.171 83.0375H105.948C107.392 83.0375 109.323 83.7528 110.841 85.0157C112.246 86.1838 113.323 87.8417 113.32 89.8685C113.378 89.7707 113.436 89.6525 113.494 89.5136C113.665 89.1012 113.82 88.5331 113.942 87.8556C114.185 86.5019 114.289 84.7379 114.128 82.9647C113.966 81.1895 113.54 79.4213 112.736 78.0482C111.935 76.6807 110.765 75.7122 109.101 75.5002C105.58 75.0515 102.407 73.3519 100.096 71.4147C98.9404 70.4457 97.9956 69.4135 97.328 68.4424C96.6641 67.4765 96.2609 66.551 96.2183 65.798L96.2181 65.7972C95.989 61.3606 96.9568 56.944 99.0202 53.008C101.232 48.6956 102.664 43.1242 102.851 37.4958C103.037 31.8662 101.977 26.197 99.2234 21.6794C96.45 17.13 93.4902 13.5907 90.2504 11.5326ZM106.797 83.5117C108.842 84.8312 111.126 87.0867 112.764 89.4724C112.817 89.5498 112.87 89.6275 112.922 89.7052C112.867 87.8996 111.891 86.4035 110.588 85.3196C109.417 84.3462 108.001 83.7215 106.797 83.5117Z" fill="black"/>
<path d="M32.1309 86.6087C32.6583 83.4318 33.8739 79.4753 36.2462 76.1018C38.6185 72.7283 43.7162 61.5796 43.7162 61.5796L40.8685 85.2778L32.1309 86.6087Z" fill="black"/>
<path d="M41.0471 85.4506L31.8906 86.8454L31.9353 86.5764C32.4659 83.3805 33.6894 79.3933 36.0839 75.9883C37.2593 74.3168 39.1199 70.7016 40.6927 67.4889C41.4776 65.8857 42.1884 64.3876 42.7031 63.2904C42.9604 62.7418 43.1686 62.2935 43.3125 61.9823C43.3844 61.8268 43.4402 61.7054 43.4781 61.6231C43.497 61.582 43.5115 61.5507 43.5212 61.5295C43.526 61.519 43.5298 61.5108 43.5322 61.5055C43.5334 61.5029 43.5343 61.5008 43.5349 61.4995C43.5352 61.4989 43.5354 61.4983 43.5356 61.498L43.5358 61.4975L44.0643 60.3419L41.0471 85.4506ZM43.0618 63.4581C42.5465 64.5567 41.8347 66.0569 41.0486 67.6625C39.4796 70.8675 37.6051 74.5132 36.4082 76.2153C34.1244 79.463 32.9194 83.262 32.3721 86.3718L40.6896 85.1048L43.37 62.7983C43.2774 62.997 43.1744 63.218 43.0618 63.4581Z" fill="url(#paint3_linear_3347_117828)"/>
<path d="M26.9924 95.7237C24.7129 92.1559 24.6111 85.8721 25.9059 82.6387C27.4904 78.6731 31.0692 76.6915 36.631 72.3306C42.1339 68.0171 43.637 62.2191 43.637 62.2191L30.0755 96.318L26.9924 95.7237Z" fill="black"/>
<path d="M43.8287 62.2685L43.8285 62.2692C43.8284 62.2694 43.8284 62.2698 43.8282 62.2703C43.828 62.2711 43.8278 62.2723 43.8274 62.2738C43.8265 62.2769 43.8252 62.2816 43.8236 62.2875C43.8204 62.2993 43.8156 62.3166 43.8092 62.3391C43.7965 62.3841 43.7771 62.45 43.7506 62.535C43.6978 62.7052 43.6165 62.952 43.5017 63.261C43.3221 63.7449 43.0599 64.3816 42.6973 65.1168L30.1989 96.5431L26.871 95.9016L26.8253 95.8302C25.6609 94.0076 25.0606 91.5076 24.9109 89.0678C24.7612 86.628 25.0602 84.2173 25.7218 82.5652C26.5305 80.5414 27.8473 79.0299 29.6478 77.483C31.4386 75.9443 33.742 74.3442 36.5085 72.175L36.7612 71.9738C39.341 69.8834 41.0015 67.4737 42.0229 65.564C42.1346 65.3551 42.2384 65.152 42.3352 64.9561L43.4529 62.146L43.8287 62.2685ZM41.3146 67.522C40.2893 69.0704 38.8898 70.7584 37.0108 72.2809L36.7533 72.4861C33.9581 74.6778 31.6913 76.2491 29.9062 77.7828C28.1307 79.3083 26.8657 80.7703 26.0898 82.7119C25.4566 84.2932 25.159 86.6414 25.3064 89.0438C25.4518 91.4137 26.0289 93.8062 27.1149 95.5459L29.9517 96.0927L41.3146 67.522Z" fill="black"/>
<path d="M47.3563 46.1604C46.9783 54.0689 44.1555 67.938 46.9466 67.755C49.7377 67.572 79.62 70.2766 83.1513 69.5197C86.6826 68.7627 89.6366 58.0547 90.5421 48.3409C91.4475 38.6271 88.0973 35.057 78.8481 35.2558C69.5989 35.4547 48.1509 29.5053 47.3563 46.1604Z" fill="#010001"/>
<path d="M92.0448 58.2536C92.2123 62.671 91.651 72.5339 94.8246 77.2858C97.2082 80.8559 98.6026 85.2869 97.9937 89.9754C97.3848 94.664 85.6455 81.1812 85.6455 81.1812L92.0448 58.2536Z" fill="#010001"/>
<path d="M34.2361 159.077C33.8512 167.889 35.438 179.779 48.3499 177.994C61.2617 176.209 84.9009 179.282 89.3671 168.626C93.8332 157.97 94.6278 95.3577 87.0785 87.8063C79.5293 80.2548 72.7791 76.0114 60.2657 77.9365C47.7523 79.8617 37.0068 92.5513 34.2338 95.7237C31.4608 98.8962 34.2361 159.077 34.2361 159.077Z" fill="#F4F4F4"/>
<path d="M43.7184 76.7955C35.4425 80.2594 23.1192 90.172 23.1192 90.172V93.7308C23.1192 93.7308 3.65191 123.48 1.67349 124.28C-0.304936 125.08 -5.4751 129.025 -5.4751 129.025L-9.84619 136.163C-9.84619 136.163 -5.8735 153.616 0.482809 159.961C6.83912 166.305 12.797 167.096 12.797 167.096L12.0025 174.234C12.0025 174.234 16.7018 180.066 16.935 180.916C17.1681 181.765 18.7459 197.232 18.7459 197.232C18.7459 197.232 34.6457 188.508 42.5866 185.74C43.7795 177.413 48.5445 127.055 48.5445 123.487C48.5445 119.919 53.6558 93.9613 53.6558 93.9613C53.6558 93.9613 56.4921 81.0525 53.314 79.0708C50.1358 77.0892 43.7184 76.7955 43.7184 76.7955Z" fill="#464450"/>
<path d="M43.7185 76.8158C36.364 80.1012 29.3444 85.5987 23.2462 90.172L23.2575 93.7308V93.776L23.2348 93.8076C17.9945 101.825 12.6998 109.808 7.18109 117.639C6.0719 119.201 4.9514 120.757 3.76525 122.269C3.19255 122.974 2.64928 123.722 1.95434 124.303C-0.596786 125.539 -3.22035 127.59 -5.3278 129.115L-9.72153 136.256L-9.70568 136.147C-8.93001 139.433 -7.98833 142.676 -6.88066 145.877C-5.18066 150.622 -3.30637 155.455 -0.015029 159.332C2.2895 161.812 5.01643 163.864 8.03901 165.393C9.56167 166.171 11.1873 166.73 12.8674 167.053V167.114L12.0864 174.255L12.0683 174.198C13.7343 176.333 15.5226 178.396 16.9442 180.708L17.0279 180.9C17.0958 181.207 17.1321 181.557 17.1773 181.867C17.8112 186.98 18.3318 192.107 18.8819 197.232L18.703 197.137C20.6407 196.083 22.5867 195.04 24.541 194.01C28.4548 191.963 32.3935 189.963 36.4115 188.135C38.4216 187.231 40.4453 186.327 42.5369 185.586L42.4169 185.731C42.546 184.813 42.7588 182.997 42.8697 182.079C45.0133 161.969 46.9872 141.749 48.5491 121.6C49.8598 112.501 51.7182 103.442 53.4658 94.4155C54.2105 90.7369 55.6298 83.2035 54.0045 79.9543C53.7954 79.5535 53.4651 79.2285 53.0606 79.0256L52.6622 78.7997C49.8847 77.4937 46.7609 77.0802 43.7299 76.8429L43.7185 76.8158ZM43.7185 76.7774C46.7812 76.983 49.9005 77.3739 52.7142 78.6618C52.9926 78.8013 53.2617 78.9583 53.5201 79.1318C53.7649 79.3335 53.9692 79.5796 54.1222 79.8571C55.8245 83.1584 54.412 90.7527 53.6876 94.438C51.9537 103.768 50.0182 113.122 48.8027 122.531C48.4699 128.971 47.818 135.377 47.2566 141.796C46.0478 154.599 44.6919 169.399 43.2319 182.1C43.1255 182.981 42.9014 184.87 42.7791 185.758L42.7655 185.866L42.6614 185.903C36.4568 188.185 30.5555 191.24 24.6722 194.24C22.7104 195.257 20.7614 196.29 18.8253 197.338L18.6645 197.426L18.6464 197.243C18.2322 193.144 17.8111 189.043 17.3584 184.949C17.1977 183.611 17.08 182.262 16.8582 180.936C16.5707 180.301 16.1247 179.752 15.7263 179.178C14.513 177.515 13.2363 175.895 11.9506 174.282L11.9325 174.257V174.216L12.7383 167.08L12.7949 167.153C11.9567 166.998 11.1335 166.771 10.3343 166.475C6.33901 165.022 2.79189 162.485 -0.119159 159.409C-5.14671 153.421 -8.04191 143.717 -9.97958 136.19L-9.99316 136.134L-9.96147 136.082L-5.61075 128.935L-5.59491 128.908L-5.57001 128.889C-3.21808 127.141 -0.891063 125.328 1.74608 124.016C2.42517 123.444 2.94129 122.719 3.49588 122.034C8.12729 115.933 12.3694 109.55 16.6567 103.212C18.737 100.132 21.0595 96.553 22.9949 93.7218L23.0062 90.163V90.1065L23.0515 90.0703C26.2794 87.5329 29.5889 85.0993 33.0115 82.8262C36.4341 80.5531 39.9337 78.3862 43.7208 76.7683L43.7185 76.7774Z" fill="black"/>
<path d="M123.691 161.129C124.078 163.904 124.56 172.408 124.56 172.408C124.56 172.408 122.156 168.115 115.005 168.506C111.836 167.713 108.058 169.374 108.058 169.374L105.154 172.343C105.501 174.894 105.223 177.492 104.344 179.912C102.705 184.468 103.171 185.692 104.16 191.285C101.58 192.672 82.7099 186.131 73.1754 184.147C71.5909 173.046 71.1902 123.48 71.1902 123.48C71.1902 123.48 69.9995 96.1214 67.5163 85.7455C66.0902 79.7916 75.7582 75.32 81.3245 75.1098C88.4754 77.279 100.792 87.1917 103.171 89.571V93.8641L114.571 132.084" fill="#464450"/>
<path d="M123.711 161.127C124.191 164.866 124.413 168.633 124.664 172.393L124.689 172.804C124.168 171.92 123.461 171.161 122.616 170.578C120.418 168.981 117.636 168.545 114.962 168.667C112.678 168.138 110.252 168.626 108.09 169.442C107.83 169.717 106.996 170.517 106.657 170.904L105.238 172.422L105.267 172.327C105.605 174.742 105.388 177.202 104.633 179.522C103.275 183.254 103.132 184.96 103.9 188.885L104.33 191.255L104.353 191.38C103.658 191.748 102.908 191.649 102.177 191.606C97.5367 191.048 93.0547 189.613 88.5546 188.415C83.432 187.003 78.3297 185.457 73.1347 184.348L72.9921 184.319L72.974 184.179C72.648 181.727 72.485 179.273 72.3288 176.817C71.3985 159.631 71.2264 142.415 71.0046 125.211C71.0159 123.073 70.8099 120.003 70.699 117.854C70.2712 110.497 69.7641 103.137 68.9379 95.8141C68.5417 92.4655 68.1184 89.1123 67.3669 85.8224C65.9204 79.3849 76.1725 75.155 81.3155 74.9765C83.4433 75.6205 85.4217 76.6757 87.3481 77.7693C91.1342 80.0141 94.7643 82.5113 98.2136 85.2439C99.9407 86.5997 101.661 87.9735 103.25 89.5009L103.28 89.5303V89.5732V93.8664C103.216 93.7331 114.702 132.166 114.568 132.087C114.568 132.057 103.08 93.9003 103.087 93.8664V89.5732C99.8153 86.6895 96.3761 84.0005 92.7876 81.5202C89.1658 79.0821 85.467 76.617 81.2996 75.2431C78.8665 75.4374 76.4881 76.0665 74.2778 77.1005C70.982 78.6302 66.7331 81.5925 67.6838 85.7456C68.4489 89.0468 68.8813 92.4158 69.2865 95.7735C70.1286 103.106 70.6673 110.461 71.0974 117.829C71.1517 119.11 71.3419 122.122 71.3849 123.354C71.6112 141.17 71.7946 158.996 72.7431 176.79C72.8947 179.239 73.0577 181.695 73.3769 184.117L73.2162 183.948C78.4225 185.078 83.5225 186.63 88.6565 188.056C92.5047 189.12 96.3302 190.236 100.246 190.98C100.898 191.097 101.55 191.206 102.204 191.262C102.811 191.314 103.529 191.368 104.076 191.133L103.99 191.314C103.739 189.848 103.368 187.995 103.203 186.551C102.994 184.932 103.128 183.288 103.597 181.725C103.773 181.09 104.119 180.073 104.35 179.431C105.111 177.156 105.343 174.737 105.029 172.359V172.302L105.068 172.264C105.944 171.41 107.182 170.194 107.993 169.306C109.645 168.559 111.433 168.154 113.246 168.115C113.836 168.116 114.423 168.185 114.996 168.319C115.902 168.262 116.812 168.291 117.713 168.407C120.404 168.743 123.145 169.989 124.642 172.343L124.445 172.399C124.345 170.52 124.243 168.637 124.125 166.751C124.008 164.864 123.899 162.988 123.673 161.12H123.713L123.711 161.127Z" fill="black"/>
<path d="M27.7325 130.819C27.5876 134.084 27.0262 137.311 26.3223 140.497C25.8854 142.304 25.4779 144.132 24.5702 145.775C23.3908 147.553 21.8742 149.501 20.6971 151.279C20.267 151.957 19.7509 152.583 19.5087 153.358C18.5149 156.436 17.7159 159.597 17.0187 162.753C16.7086 164.31 16.4166 165.917 16.3917 167.498L15.5541 167.388C16.1698 165.176 17.0836 163.059 18.2705 161.093C18.8575 160.114 19.5046 159.173 20.2082 158.275C20.9076 157.371 21.6614 156.526 22.4424 155.706L22.5035 155.756C22.1685 156.207 21.8244 156.659 21.5007 157.125C19.8465 159.389 18.4745 161.846 17.4148 164.441C16.661 166.262 16.0159 168.96 15.4907 170.874L15.5337 167.498C15.6492 164.161 16.6067 161.018 17.5484 157.864C18.1369 156.117 18.6802 154.355 19.4498 152.667C20.1991 151.483 21.0887 150.285 21.8561 149.122C22.6235 147.958 23.4406 146.681 24.0948 145.506C24.5227 144.618 24.7626 143.635 25.0252 142.684C25.6545 140.339 26.1842 137.966 26.6935 135.589C27.0285 134.007 27.3567 132.412 27.6374 130.81H27.7167L27.7325 130.819Z" fill="black"/>
<path d="M15.9528 133.18C13.3066 131.87 7.18573 130.374 4.30412 130.882L4.27921 130.347C6.80452 130.929 9.25304 131.803 11.5749 132.952C13.6326 133.978 13.7865 135.212 11.1743 135.101C8.62541 135.015 6.08333 134.586 3.5639 134.855C1.08748 135.128 -1.18975 136.436 -3.26777 137.77C-4.30678 138.486 -5.37748 139.213 -6.22635 140.156L-6.29199 140.113C-5.57215 139.026 -4.5671 138.176 -3.57562 137.358C-2.1783 136.227 -0.624471 135.303 1.03768 134.615C1.31384 134.523 1.71677 134.369 1.98615 134.301C3.73142 133.788 5.61929 133.919 7.38267 134.075C8.66842 134.193 9.94511 134.376 11.1992 134.495C11.6745 134.511 12.211 134.62 12.6321 134.41C12.6321 134.41 12.6524 134.398 12.6479 134.394C12.6434 134.389 12.6479 134.394 12.6479 134.371C12.6237 134.261 12.5678 134.161 12.4872 134.082C12.1651 133.751 11.7987 133.467 11.3984 133.237C9.22075 131.933 6.68999 131.217 4.18414 130.891L2.82596 130.715L4.15698 130.354C6.19426 129.814 8.34019 130.238 10.3435 130.726C11.8405 131.099 13.2935 131.629 14.6784 132.308C15.1411 132.535 15.5814 132.805 15.9936 133.115L15.9483 133.18H15.9528Z" fill="black"/>
<path d="M18.3657 136.565C20.4166 135.951 24.6315 138.542 25.9127 140.133C24.4029 139.003 20.1676 136.405 18.3657 136.565Z" fill="black"/>
<path d="M1.67383 145.294C4.60524 143.787 7.74718 142.738 10.8552 141.667C13.9813 140.648 17.1277 139.649 20.3443 138.956C17.628 139.814 13.7232 141.143 10.9797 142.049C8.23612 142.955 4.33134 144.2 1.67383 145.294Z" fill="black"/>
<path d="M25.9057 140.133C24.5656 140.49 23.1644 140.513 21.813 140.772C20.4634 141.006 19.1626 141.465 17.9648 142.128C20.113 140.171 23.1712 140.169 25.9102 140.144L25.9057 140.133Z" fill="black"/>
<path d="M31.0692 114.361C30.6731 119.119 29.8785 125.066 29.084 127.841L31.0692 114.361Z" fill="#464450"/>
<path d="M31.0692 114.361C31.1611 116.644 31.0429 118.931 30.7161 121.193C30.3878 123.453 29.9804 125.728 29.084 127.841C29.6499 123.385 30.1117 118.746 31.0692 114.361Z" fill="black"/>
<path d="M-2.521 130.618C-1.10622 128.239 2.16474 123.878 2.16474 123.878L-2.521 130.618Z" fill="#464450"/>
<path d="M-2.521 130.618C-1.1447 128.248 0.43306 126.002 2.00629 123.758L2.3232 123.984C0.650369 126.144 -1.03378 128.309 -2.521 130.607V130.618Z" fill="black"/>
<path d="M31.8636 101.275C31.4675 98.8962 29.8784 92.5513 25.5073 90.172L31.8636 101.275Z" fill="#464450"/>
<path d="M31.8636 101.275C30.5055 97.2083 29.025 92.8948 25.5073 90.172C29.6181 91.8192 31.7052 97.1224 31.8636 101.275Z" fill="black"/>
<path d="M100.187 90.9651C100.386 94.3364 92.441 106.233 94.3357 129.418L100.187 90.9651Z" fill="#464450"/>
<path d="M100.187 90.9651C100.219 92.6146 99.5082 94.1782 99.0827 95.7418C98.5802 97.2987 98.0889 98.8532 97.6339 100.419C94.8315 109.819 93.9714 119.643 94.3358 129.418C93.2648 121.256 93.7184 112.967 95.6736 104.97C96.4844 101.788 97.5037 98.6619 98.725 95.613C99.2728 94.0878 100.056 92.5965 100.194 90.9651H100.187Z" fill="black"/>
<path d="M85.8877 163.131C91.0511 157.184 95.4222 146.082 96.4159 140.133L85.8877 163.131Z" fill="#464450"/>
<path d="M85.8877 163.131C88.5022 159.807 90.5372 155.993 92.2644 152.149C93.5775 149.249 94.6974 146.265 95.6168 143.217C95.936 142.205 96.1782 141.184 96.4159 140.133C96.2662 141.185 96.0622 142.229 95.8047 143.26C94.0594 150.014 90.5983 157.916 85.8877 163.122V163.131Z" fill="black"/>
<path d="M95.8184 132.204C98.202 136.963 96.665 155.826 100.239 159.393L95.8184 132.204Z" fill="#464450"/>
<path d="M95.8184 132.204C96.8257 134.31 96.9841 136.703 97.258 138.983C97.7108 143.592 97.79 148.234 98.3152 152.834C98.4374 153.981 98.6271 155.119 98.8833 156.244C99.1504 157.358 99.4809 158.503 100.242 159.387C99.5104 158.668 99.1391 157.667 98.82 156.714C98.4578 155.455 98.1885 154.171 98.0141 152.872C97.3644 148.274 97.2875 143.629 96.957 139.008C96.751 136.719 96.6718 134.358 95.8252 132.197L95.8184 132.204Z" fill="black"/>
<path d="M5.64619 146.478C6.22795 145.441 17.9604 150.407 17.9604 150.407C17.9604 150.407 13.1932 160.349 13.5916 167.494C9.61889 167.494 1.67351 164.59 1.67351 164.59C1.67351 164.59 0.0844262 156.391 5.64619 146.478Z" fill="#615E6A"/>
<path d="M5.63029 146.469C6.02416 145.994 8.21537 146.758 8.81071 146.903C10.9001 147.524 12.9577 148.258 14.995 149.029C16.0657 149.449 17.1409 149.86 18.198 150.319C17.5393 151.704 16.9485 153.132 16.3871 154.56C14.8026 158.707 13.4602 163.115 13.707 167.6C12.6345 167.594 11.5651 167.487 10.513 167.279C7.43441 166.703 4.44188 165.772 1.48783 164.744C1.25065 163.132 1.19825 161.499 1.33163 159.875C1.54668 156.528 2.47477 153.238 3.79221 150.159C4.01858 149.653 4.43508 148.803 4.66145 148.283C4.88781 147.764 5.3745 146.948 5.63255 146.462L5.63029 146.469ZM5.66425 146.487C5.40846 146.982 4.97157 147.843 4.72257 148.322C4.37171 149.131 3.98236 149.928 3.70167 150.764C2.60875 153.7 1.94547 156.777 1.7323 159.902C1.61331 161.452 1.66265 163.01 1.87944 164.55L1.74588 164.394C3.66545 165.09 5.61897 165.72 7.5906 166.262C9.56223 166.805 11.5565 167.311 13.5915 167.392L13.4851 167.503C13.4127 165.088 13.8315 162.677 14.3702 160.333C15.198 156.901 16.347 153.555 17.8019 150.337L17.8924 150.574C15.8846 149.738 13.8767 148.9 11.8508 148.102C10.8525 147.745 6.35692 145.879 5.66425 146.491V146.487Z" fill="black"/>
<path d="M96.416 133.79C98.202 139.34 101.579 146.67 101.579 146.67L96.416 133.79Z" fill="#464450"/>
<path d="M96.416 133.79C97.9259 138.163 99.8115 142.406 101.758 146.593L101.398 146.76C99.5557 142.508 97.8036 138.21 96.4183 133.79H96.416Z" fill="black"/>
<path d="M7.33488 153.227C8.1679 154.389 10.0784 154.108 11.1989 153.559C11.9527 153.168 12.702 152.43 11.955 151.632C11.5835 151.224 11.1247 150.905 10.6126 150.699C9.55552 150.357 8.44859 150.943 7.7197 151.713C7.35752 152.1 7.01797 152.714 7.33488 153.227ZM7.30093 153.247C6.96817 152.721 7.21038 152.043 7.51144 151.555C8.14979 150.513 9.54872 149.878 10.7394 150.348C11.4796 150.663 12.4371 151.501 12.4009 152.366C12.3149 152.99 11.7694 153.374 11.3212 153.745C10.1327 154.678 8.1679 154.535 7.30093 153.247Z" fill="black"/>
<path d="M42.1929 152.425C43.3835 152.823 59.3286 153.218 62.8758 152.425C66.4229 151.632 64.0393 99.2938 64.0393 99.2938C64.0393 99.2938 55.0934 93.5501 54.8217 92.3999C54.1087 89.3812 48.3024 116.663 46.9601 124.273C45.8102 130.774 42.1929 152.425 42.1929 152.425Z" fill="#409F7D"/>
<path d="M42.2266 152.405C43.7455 152.581 45.2961 152.585 46.8263 152.631C51.8358 152.669 56.8859 152.762 61.866 152.276C62.1806 152.253 62.493 152.163 62.8031 152.124C62.9276 152.082 63.0046 151.926 63.0974 151.756C63.3106 151.249 63.4626 150.718 63.5501 150.174C63.8177 148.664 63.9983 147.139 64.0911 145.608C64.6276 136.414 64.6525 127.046 64.528 117.829C64.4058 111.651 64.159 105.474 63.8217 99.3006L63.9214 99.4769C61.0103 97.6014 58.054 95.7802 55.3874 93.5523C55.0433 93.2292 54.6178 92.9016 54.482 92.4225C54.482 92.3977 54.4571 92.3864 54.5001 92.4225C54.5354 92.4535 54.5784 92.4745 54.6245 92.4832C54.6707 92.492 54.7184 92.4882 54.7627 92.4722L54.7966 92.4564C54.8125 92.4451 54.7966 92.4564 54.7785 92.4835C54.5264 92.9592 54.3246 93.4598 54.1764 93.9771C52.8386 98.3516 51.881 102.853 50.876 107.308C47.4964 122.161 45.0969 137.388 42.2289 152.38L42.2266 152.405ZM42.1587 152.445C43.7432 142.216 45.3663 130.925 47.227 120.651C49.0379 111.633 50.8488 102.595 53.5041 93.7624C53.7169 93.1885 53.873 92.6214 54.2307 92.0881C54.2793 92.0179 54.3398 91.9567 54.4095 91.9074C54.4831 91.8551 54.5706 91.826 54.6608 91.8237C54.9619 91.8237 55.1135 92.0994 55.1452 92.3028C55.1452 92.3276 55.1452 92.3186 55.1588 92.3299C55.1581 92.3374 55.1581 92.345 55.1588 92.3525L55.1882 92.3954C55.5912 92.94 56.1548 93.3535 56.6754 93.7918C59.1021 95.6989 61.6803 97.4478 64.2496 99.1628C64.451 105.381 64.6095 111.59 64.7747 117.815C64.8992 123.279 65.1618 130.975 65.112 136.366C65.0373 141.014 65.0215 145.689 64.2066 150.29C64.0994 150.889 63.9192 151.474 63.6701 152.03C63.5479 152.289 63.2966 152.646 62.9435 152.726C62.5903 152.805 62.2644 152.848 61.9429 152.877C58.4569 153.225 54.9573 153.121 51.4623 153.069C49.9139 153.035 48.3656 152.97 46.8173 152.888C45.2644 152.766 43.6867 152.777 42.161 152.436L42.1587 152.445Z" fill="black"/>
<path d="M63.2445 119.119C61.2593 116.74 57.8932 108.809 56.2 103.456C54.5068 98.103 54.2986 93.767 54.0043 92.1582C53.71 90.5494 62.4794 89.1846 65.0463 94.2347C67.6133 99.2848 63.2445 119.119 63.2445 119.119Z" fill="#258052"/>
<path d="M43.6959 143.464C42.8516 148.487 42.1929 152.425 42.1929 152.425C43.3835 152.823 59.3286 153.218 62.8758 152.425C63.6703 152.249 64.1683 149.488 64.4603 145.289" fill="#2A768C"/>
<path d="M43.8914 143.496C43.4692 146.008 43.0935 148.248 42.8232 149.861C42.6881 150.667 42.5794 151.316 42.5045 151.764C42.4675 151.985 42.4386 152.156 42.4189 152.274C42.4713 152.283 42.5344 152.293 42.6088 152.303C42.7874 152.327 43.0182 152.351 43.295 152.375C43.8483 152.422 44.5799 152.467 45.4375 152.507C47.1524 152.587 49.3657 152.649 51.653 152.674C53.9404 152.699 56.3001 152.686 58.3084 152.618C60.323 152.55 61.9666 152.426 62.8326 152.232H62.833L62.8509 152.227C62.8947 152.213 62.949 152.179 63.0125 152.108C63.0852 152.027 63.1613 151.907 63.238 151.743C63.3916 151.413 63.5337 150.938 63.6627 150.325C63.9201 149.101 64.117 147.372 64.2628 145.276L64.6581 145.303C64.5119 147.405 64.3136 149.155 64.0504 150.406C63.9191 151.03 63.7696 151.54 63.5972 151.91C63.511 152.094 63.4154 152.252 63.3077 152.372C63.1998 152.492 63.0711 152.584 62.919 152.618L62.9193 152.618C62.0117 152.821 60.3319 152.945 58.3219 153.013C56.3057 153.081 53.9396 153.094 51.6486 153.069C49.3574 153.044 47.1394 152.983 45.4189 152.902C44.5589 152.862 43.8218 152.816 43.2614 152.769C42.9813 152.745 42.7437 152.72 42.5562 152.695C42.3736 152.671 42.2245 152.644 42.1302 152.613L41.9697 152.559L41.9976 152.392L41.9978 152.392C41.9979 152.391 41.9979 152.39 41.998 152.39C41.9983 152.388 41.9989 152.385 41.9996 152.381C42.0008 152.373 42.0028 152.362 42.0053 152.347C42.0103 152.317 42.0178 152.272 42.0276 152.213C42.0473 152.096 42.0764 151.922 42.1139 151.699C42.1888 151.251 42.2975 150.601 42.4326 149.795C42.7028 148.183 43.0786 145.942 43.5008 143.431L43.8914 143.496Z" fill="black"/>
<path d="M44.3774 141.125L63.4441 143.159L64.4605 141.125L44.7668 139.143C44.6559 139.842 44.4929 140.445 44.3774 141.125Z" fill="#2A768C"/>
<path d="M59.168 158.684C61.2596 158.77 66.4116 158.374 69.6011 156.788C72.7906 155.202 81.2498 152.884 81.2498 152.884C81.2498 152.884 79.5317 127.048 78.7372 119.515C77.9426 111.981 75.5681 100.482 73.5738 91.3628C71.5795 82.2432 64.4377 93.7421 63.6387 96.9145C62.8396 100.087 60.0621 146.082 60.0621 148.857C60.0621 151.632 59.46 156.221 59.168 158.684Z" fill="#409F7D"/>
<path d="M59.197 158.659C62.4906 158.578 65.8884 158.146 68.9488 156.87C72.8423 154.974 77.0255 153.79 81.1725 152.576L80.9303 152.915C80.0837 142.765 79.2076 127.848 78.1618 117.861C77.03 109.15 75.2531 100.525 73.5033 91.9187C72.2243 84.4215 67.7015 89.6004 65.4538 93.3444C64.7797 94.4255 64.2321 95.5801 63.8217 96.7857C63.4912 98.3832 63.4255 100.046 63.2716 101.673C62.3231 115.291 61.4109 131.856 60.4579 145.56C60.3787 146.781 60.2791 148.724 60.2451 149.951C60.055 152.825 59.6452 155.826 59.2061 158.668L59.197 158.659ZM59.1382 158.711C59.4098 155.46 59.8671 152.095 59.8626 148.835C60.3606 134.554 61.2886 120.249 62.5427 106.018C62.7464 103.829 62.9366 101.637 63.1743 99.4475C63.2551 98.5296 63.3866 97.6169 63.5681 96.7134C63.7369 96.1824 63.9442 95.6644 64.1884 95.1634C65.379 92.766 67.9347 88.4344 70.642 87.8108C72.8355 87.4786 73.5191 90.1901 73.8722 91.8351C74.5174 94.6957 75.1625 97.5585 75.7782 100.421C77.2835 107.591 78.7526 114.821 79.4001 122.142C80.3055 131.879 80.9846 143.059 81.5867 152.872L81.6026 153.141L81.3445 153.211C77.6774 154.235 73.9605 155.245 70.427 156.659L69.1141 157.245C68.7111 157.425 68.1611 157.588 67.7423 157.73C64.9461 158.516 62.0423 158.851 59.1404 158.722L59.1382 158.711Z" fill="black"/>
<path d="M60.0598 149.402C59.9919 152.201 59.4419 156.375 59.168 158.684C61.2596 158.77 66.4116 158.374 69.6011 156.788C72.7906 155.202 81.2498 152.884 81.2498 152.884C81.2498 152.884 81.0234 149.454 80.6929 144.729" fill="#2A768C"/>
<path d="M80.8903 144.715C81.0556 147.078 81.1947 149.117 81.2926 150.565C81.3416 151.289 81.3803 151.865 81.4067 152.261C81.4199 152.458 81.4299 152.611 81.4368 152.714C81.4402 152.765 81.4428 152.805 81.4445 152.831C81.4454 152.844 81.4461 152.854 81.4465 152.861C81.4467 152.864 81.4468 152.867 81.4469 152.868C81.447 152.869 81.4471 152.87 81.4472 152.87V152.871L81.4578 153.032L81.3019 153.074L81.3017 153.075C81.3015 153.075 81.3011 153.075 81.3006 153.075C81.2996 153.075 81.298 153.076 81.2959 153.076C81.2919 153.077 81.2858 153.079 81.2778 153.081C81.2618 153.085 81.2379 153.092 81.2066 153.101C81.1441 153.118 81.0519 153.144 80.9334 153.177C80.6963 153.243 80.3536 153.34 79.9327 153.461C79.0907 153.703 77.9351 154.042 76.68 154.43C74.1641 155.209 71.2673 156.18 69.6893 156.965C68.0672 157.772 65.9578 158.271 64.0014 158.559C62.0431 158.847 60.2197 158.925 59.1596 158.881L58.9458 158.873L58.971 158.661C59.2457 156.345 59.794 152.185 59.8616 149.397L60.0597 149.402L60.2576 149.406C60.1914 152.133 59.6707 156.152 59.3901 158.493C60.4455 158.518 62.1337 158.434 63.9437 158.168C65.8836 157.882 67.9453 157.391 69.5126 156.611C71.1241 155.81 74.0516 154.829 76.5626 154.052C77.821 153.663 78.9795 153.323 79.8233 153.081C80.2452 152.96 80.5885 152.863 80.8264 152.796C80.912 152.772 80.984 152.752 81.0411 152.736C81.0342 152.633 81.0245 152.482 81.0114 152.287C80.9851 151.892 80.9463 151.315 80.8974 150.591C80.7995 149.143 80.6603 147.105 80.4951 144.743L80.8903 144.715Z" fill="black"/>
<path d="M60.6349 145.023C60.5829 146.001 60.5421 146.83 60.5127 147.47L80.1272 142.316C80.0638 141.385 80.1272 140.332 80.1272 139.539C76.3061 140.284 71.1337 141.66 66.8237 142.91C64.7256 143.507 62.6599 144.212 60.6349 145.023Z" fill="#2A768C"/>
<path d="M65.6282 65.7869C56.0892 65.3101 45.1717 65.7869 45.1717 65.7869C45.1717 65.7869 44.9725 70.3467 54.9053 72.3396C64.8382 74.3325 84.8103 68.4984 84.8103 68.4984C84.8103 68.4984 69.6009 65.9835 65.6282 65.7869Z" fill="#247D50"/>
<path d="M51.8196 65.4104C55.7433 65.3508 60.8623 65.3507 65.638 65.5894L65.8334 65.6004C67.9366 65.7308 72.5782 66.3888 76.7386 67.021C78.8888 67.3478 80.9147 67.6683 82.4031 67.9072C83.1472 68.0266 83.757 68.1257 84.1808 68.1949C84.3926 68.2295 84.558 68.2565 84.6705 68.275C84.7267 68.2842 84.7697 68.2914 84.7987 68.2962C84.8131 68.2986 84.8241 68.3003 84.8314 68.3015C84.8351 68.3021 84.8379 68.3025 84.8398 68.3028C84.8407 68.303 84.8413 68.3032 84.8418 68.3033C84.842 68.3033 84.8423 68.3032 84.8424 68.3033L85.6986 68.4449L84.8659 68.6881L84.8102 68.4983L84.8654 68.6883C84.8653 68.6883 84.865 68.6885 84.8648 68.6885C84.8641 68.6887 84.8631 68.6888 84.8619 68.6892C84.8594 68.6899 84.8557 68.6911 84.8508 68.6925C84.8411 68.6953 84.8266 68.6996 84.8075 68.7051C84.7692 68.7161 84.7123 68.7324 84.6377 68.7536C84.4885 68.796 84.2685 68.8577 83.9852 68.9357C83.4186 69.0916 82.5983 69.3122 81.5832 69.5705C79.553 70.087 76.7423 70.7549 73.6204 71.3605C67.3876 72.5696 59.8755 73.5386 54.8662 72.5335C49.8727 71.5316 47.393 69.8779 46.1631 68.4445C45.5483 67.7279 45.2499 67.0707 45.1058 66.5867C45.0339 66.3451 45.0007 66.1474 44.9855 66.008C44.978 65.9382 44.9749 65.8831 44.9738 65.8442C44.9733 65.8248 44.9731 65.8094 44.9732 65.7983C44.9732 65.7928 44.9733 65.7884 44.9734 65.7851C44.9734 65.7834 44.9736 65.782 44.9736 65.7809V65.7787C44.974 65.7785 44.9819 65.7786 45.1715 65.7869L44.9736 65.7782L44.9816 65.5973L45.1628 65.5894L45.1715 65.7869C45.1628 65.5894 45.163 65.5894 45.1631 65.5894H45.1648C45.1662 65.5893 45.1684 65.5893 45.171 65.5891C45.1763 65.5889 45.1842 65.5885 45.1947 65.588C45.2157 65.5871 45.2472 65.5858 45.2884 65.5841C45.3709 65.5807 45.4931 65.5758 45.6518 65.5697C45.9694 65.5576 46.4335 65.5409 47.0202 65.5223C48.1936 65.485 49.8575 65.4402 51.8196 65.4104ZM65.6181 65.9843C60.8548 65.7463 55.7455 65.7463 51.8258 65.8058C49.8662 65.8356 48.2044 65.8803 47.0328 65.9175C46.4469 65.9361 45.9836 65.9528 45.6668 65.9649C45.5517 65.9693 45.4559 65.9731 45.3806 65.9762C45.3939 66.0936 45.4229 66.2637 45.4856 66.4742C45.6146 66.9075 45.887 67.5149 46.464 68.1874C47.6178 69.5321 50.0049 71.1548 54.9442 72.1458C59.8678 73.1337 67.3084 72.1821 73.5448 70.9723C76.6574 70.3685 79.4605 69.7024 81.4854 69.1872C82.4978 68.9297 83.3155 68.7099 83.88 68.5546C83.8859 68.5529 83.8918 68.5511 83.8976 68.5495C83.4933 68.4837 82.964 68.3976 82.3403 68.2975C80.8527 68.0587 78.8277 67.7383 76.679 67.4118C72.3758 66.7578 67.5922 66.082 65.6183 65.9843H65.6181Z" fill="black"/>
<path d="M59.4734 60.7504C59.3467 62.61 59.2244 69.4722 57.3614 71.1985C55.4985 72.9248 59.8696 78.2416 64.8315 77.1705C69.7934 76.0995 72.1815 75.1867 72.9806 73.0649C73.7796 70.9432 71.7876 64.5984 72.9806 62.6145C74.1735 60.6306 59.8718 54.9117 59.4734 60.7504Z" fill="#BC795D"/>
<path d="M59.514 60.7526C59.4054 62.9376 59.3442 65.9632 58.9707 68.0984C58.7444 69.2531 58.4795 70.5342 57.6284 71.42C56.8022 72.2583 57.6284 73.6524 58.2532 74.4478C59.7155 76.2712 62.1602 77.4756 64.5325 77.0937C66.8595 76.6011 69.3926 76.1086 71.3664 74.7415C73.0732 73.4942 72.951 71.9216 72.7246 70.0281C72.5277 68.1798 72.1814 66.3992 72.17 64.5057C72.17 63.8279 72.2266 63.089 72.6047 62.4044C72.6047 62.3863 72.6047 62.3908 72.6047 62.384C72.6071 62.3698 72.6071 62.3553 72.6047 62.3411C72.5869 62.2587 72.5505 62.1814 72.4983 62.1151C71.5815 61.026 70.1577 60.4363 68.8402 59.8398C66.4453 58.8297 59.9441 56.6515 59.4982 60.7571L59.514 60.7526ZM59.4348 60.7526C59.6883 54.8394 75.2192 60.0002 73.2996 62.9218C73.0929 63.4318 72.992 63.9783 73.0031 64.5283C72.951 66.9551 73.5554 69.3728 73.4829 71.8425C73.5056 73.1598 72.7156 74.4161 71.6177 75.103C70.006 76.1266 68.177 76.4927 66.3774 76.9491C65.7752 77.0847 65.189 77.2383 64.5665 77.3536C62.0606 77.8055 59.4235 76.7706 57.7371 74.8681C56.8316 73.8648 55.9261 72.0504 57.1395 70.9161C57.2332 70.8238 57.3202 70.7249 57.3998 70.6201C57.9453 69.8383 58.2215 68.9119 58.475 67.9877C59.0749 65.6672 59.299 63.141 59.4257 60.7413L59.4348 60.7526Z" fill="black"/>
<path d="M72.8495 62.732C72.8875 62.6635 72.9101 62.5876 72.9155 62.5095C72.921 62.4315 72.9093 62.3531 72.8812 62.2801C72.0685 61.5096 70.6832 60.8023 68.4625 60.3843C64.5758 59.6545 61.3705 60.6916 59.4713 61.8304C59.3989 63.2223 59.4442 65.3101 59.0752 67.3822C60.0848 69.0113 61.3388 70.0642 62.8487 70.3557C64.7094 70.715 69.6192 67.9177 72.1839 66.1936C72.0685 64.752 72.4239 63.4415 72.8495 62.732Z" fill="url(#paint4_linear_3347_117828)"/>
<path d="M45.172 65.7869C50.1361 67.9674 62.6745 75.7583 84.8083 68.4984C80.7338 80.6616 81.2227 91.8802 72.433 96.5801C63.6433 101.28 60.8613 103.266 59.2722 102.464C57.6831 101.662 45.0112 79.1205 44.7985 77.3106C44.5857 75.5007 45.172 65.7869 45.172 65.7869Z" fill="#3AA675"/>
<path d="M45.1606 65.7711C45.8216 66.04 46.847 66.5235 47.508 66.8286C59.5189 72.6672 72.2474 72.4323 84.7744 68.3944L84.9736 68.3312L84.9057 68.5255C83.1151 73.6524 82.1893 79.0256 80.77 84.261C79.6019 88.5926 77.8023 93.1117 73.9904 95.7847C72.485 96.8309 68.5214 98.8577 66.8848 99.8045C65.2844 100.672 63.7157 101.58 62.0429 102.31C61.1374 102.676 59.7792 103.214 58.9258 102.453C57.2077 100.471 55.9627 98.1279 54.5774 95.9181C51.7931 91.2483 49.1522 86.5033 46.6546 81.6829C45.9642 80.2458 45.1289 78.8652 44.6807 77.3265C44.5381 74.4591 44.8256 71.3703 44.9705 68.4984C45.0316 67.7392 45.0791 66.5326 45.1606 65.7756V65.7711ZM45.181 65.805C45.1312 67.3098 45.0112 69.6756 44.9546 71.2098C44.9026 73.0175 44.8188 74.8251 44.8641 76.6328C44.8188 77.5366 45.3032 78.3342 45.6722 79.1386C46.8878 81.5744 48.1894 83.9402 49.5068 86.3195C52.1779 91.0352 54.8286 95.778 57.8121 100.304C58.1901 100.86 58.5659 101.418 58.9937 101.931C59.1089 102.089 59.2563 102.22 59.4261 102.317C60.7232 102.85 63.0932 101.352 64.3178 100.776C65.1169 100.356 65.9024 99.9242 66.706 99.4904C68.295 98.6197 69.8894 97.7588 71.489 96.9077C73.1075 96.0988 74.6174 95.1272 75.8556 93.8054C79.5883 89.7698 80.6817 84.1458 81.9493 78.9714C82.7575 75.4442 83.5859 71.9171 84.7087 68.469L84.84 68.6C79.9777 70.2269 74.9275 71.3477 69.7981 71.6369C62.9329 72.0462 56.0698 70.8016 49.7875 68.008C48.4112 67.3912 46.546 66.4851 45.181 65.814V65.805Z" fill="black"/>
<path d="M62.69 88.3802C63.8269 88.7222 65.0272 88.7995 66.1987 88.6062C70.2958 87.9079 75.3325 85.4428 68.211 84.4328C61.7234 83.5086 53.9048 79.0098 49.7012 76.9875C49.5658 76.9223 49.4146 76.897 49.2653 76.9146C49.116 76.9322 48.9748 76.9919 48.8583 77.0869C48.7418 77.1818 48.6549 77.3079 48.6077 77.4504C48.5606 77.5929 48.5551 77.7459 48.5921 77.8913C49.7239 82.5167 60.664 96.327 64.6367 96.327C61.8547 93.5523 59.8695 91.5707 58.6766 88.3983C58.3778 87.5984 58.5408 86.9318 59.333 87.2549C59.9918 87.517 61.4495 88.0119 62.69 88.3802Z" fill="#258052"/>
<path d="M50.5341 81.4501C49.9886 80.8175 47.4714 77.0011 49.1533 76.8497C49.7668 76.8858 50.2851 77.2293 50.8375 77.453L52.9562 78.4404C57.1847 80.404 61.4155 82.4037 65.8771 83.7752C66.6168 84.001 67.3679 84.188 68.1272 84.3356C68.9104 84.4689 69.7117 84.5615 70.4112 84.9954C71.371 85.5603 71.3166 86.4279 70.4791 87.099C69.8453 87.6074 69.0756 87.8515 68.3128 88.0661C66.7927 88.4349 65.2398 88.6528 63.6768 88.7169C65.2261 88.5721 66.7593 88.2901 68.2584 87.874C68.9783 87.6481 69.7343 87.3905 70.3093 86.9047C70.959 86.3421 71.0722 85.723 70.2482 85.262C69.5917 84.8711 68.8085 84.8101 68.0638 84.6768C67.292 84.532 66.5282 84.348 65.7752 84.1255C61.2774 82.7878 57.0308 80.7587 52.8272 78.7025L50.7356 77.6676C50.2218 77.4417 49.7147 77.1005 49.1511 77.0485C47.8291 77.1186 50.1199 80.953 50.5319 81.4501H50.5341Z" fill="black"/>
<path d="M44.4497 113.486C40.692 113.233 38.9513 113.468 36.742 113.486C35.7708 113.486 34.2791 113.299 34.2021 113.762C33.9894 115.029 33.2559 117.002 33.1858 118.157C33.1586 118.631 32.6244 119.368 34.2021 119.53C36.9344 119.811 42.3015 119.605 43.9109 119.605C45.5204 119.605 45.3144 115.832 45.5226 114.51C45.5634 114.243 45.8237 113.581 44.4497 113.486Z" fill="#605E6A"/>
<path d="M44.4473 113.506C41.5816 113.242 38.7543 113.732 35.884 113.637C35.5349 113.618 35.185 113.618 34.8359 113.637C34.6678 113.632 34.5022 113.679 34.3628 113.773C34.3311 113.879 34.3085 114.015 34.2791 114.128C34.0119 115.174 33.6339 116.161 33.394 117.214C33.2831 117.72 33.2423 118.279 33.154 118.785C33.154 119.359 33.8784 119.381 34.3107 119.424C35.017 119.478 35.7301 119.49 36.4408 119.501C38.9308 119.533 41.4344 119.429 43.9267 119.393C45.2102 119.336 45.2079 115.856 45.4071 114.849C45.423 114.496 45.6516 114.121 45.4071 113.848C45.1626 113.574 44.7756 113.545 44.4405 113.511L44.4473 113.506ZM44.4473 113.468C44.9612 113.484 45.7263 113.66 45.6041 114.329C45.5767 114.504 45.5594 114.681 45.552 114.858C45.4501 116.152 45.7784 119.677 43.9312 119.811C40.7191 119.829 37.4912 119.973 34.2858 119.65C33.3419 119.53 32.7556 119.318 33.102 118.24C33.2536 116.83 33.7539 115.456 33.9938 114.062C34.0346 113.861 34.0187 113.595 34.2202 113.473C34.3992 113.367 34.6013 113.308 34.8088 113.299C35.5376 113.233 36.2416 113.323 36.9615 113.299C39.4602 113.222 41.9612 113.277 44.4541 113.463L44.4473 113.468Z" fill="black"/>
<path d="M43.492 121.275C39.7367 121.019 37.9959 121.254 35.7957 121.275C34.8246 121.275 33.3328 121.087 33.2559 121.548C33.0431 122.816 32.3097 124.788 32.2395 125.943C32.2123 126.418 31.6781 127.154 33.2559 127.317C35.9881 127.599 41.3552 127.391 42.9646 127.391C44.5741 127.391 44.3681 123.618 44.5763 122.298C44.6239 122.02 44.8774 121.367 43.492 121.275Z" fill="#605E6A"/>
<path d="M43.4923 121.293C40.6265 121.029 37.7992 121.519 34.9266 121.424C34.5783 121.405 34.2292 121.405 33.8808 121.424C33.7123 121.418 33.5463 121.466 33.4077 121.562C33.376 121.666 33.3534 121.801 33.324 121.914C33.0569 122.96 32.6788 123.948 32.4389 125.001C32.328 125.507 32.2872 126.065 32.1989 126.582C32.1989 127.156 32.9233 127.179 33.3557 127.222C34.0619 127.276 34.775 127.29 35.4858 127.299C37.9758 127.33 40.4794 127.226 42.9694 127.19C44.2551 127.134 44.2528 123.654 44.452 122.646C44.4679 122.294 44.6965 121.919 44.452 121.645C44.2076 121.372 43.8205 121.343 43.4855 121.309L43.4923 121.293ZM43.4923 121.254C44.0061 121.273 44.7712 121.449 44.649 122.118C44.6215 122.292 44.6042 122.468 44.5969 122.644C44.4951 123.939 44.8233 127.464 42.9761 127.599C39.764 127.615 36.5361 127.762 33.3308 127.437C32.3868 127.319 31.8006 127.104 32.1469 126.029C32.3076 124.529 32.8622 123.078 33.0795 121.591C33.0795 121.202 33.5775 121.105 33.8469 121.085C34.5758 121.019 35.2798 121.11 35.9996 121.085C38.4983 121.01 40.9993 121.065 43.4923 121.25V121.254Z" fill="black"/>
<path d="M97.5432 110.293C97.3734 109.005 98.0389 107.281 98.8833 106.983C100.529 106.402 104.022 104.95 106.496 103.878C108.425 109.286 111.496 121.187 111.496 121.187C111.496 121.187 104.533 126.015 102.442 125.581C101.815 125.45 100.918 125.13 100.284 123.381L97.5432 110.293Z" fill="#605E6A"/>
<path d="M97.5229 110.298C97.4029 109.188 97.7787 107.494 98.8381 106.938C99.5172 106.68 100.253 106.366 100.921 106.088L106.421 103.704L106.609 103.623L106.675 103.815C107.152 105.203 107.626 106.716 108.015 108.124C109.131 112.133 110.489 117.126 111.637 121.151L111.664 121.245L111.58 121.304C110.675 121.957 109.724 122.567 108.769 123.162C107.327 124.04 105.853 124.895 104.262 125.491C103.087 125.97 101.837 126.009 100.93 124.985C100.542 124.526 100.248 123.997 100.063 123.426C99.7277 121.844 99.3836 120.093 99.0848 118.507C98.6547 116.146 98.0073 112.657 97.5252 110.298H97.5229ZM97.5637 110.298C98.202 113.31 99.112 117.09 99.782 120.082C100.029 121.166 100.257 122.255 100.486 123.347C100.776 124.185 101.475 125.301 102.575 125.38C103.605 125.419 104.692 124.874 105.64 124.449C106.641 123.97 107.614 123.419 108.583 122.856C109.552 122.294 110.489 121.691 111.422 121.078L111.365 121.232C109.986 115.385 108.302 109.615 106.319 103.944L106.571 104.052C105.656 104.455 104.733 104.841 103.802 105.212C102.181 105.858 100.534 106.484 98.8811 107.053C97.8285 107.562 97.455 109.213 97.5637 110.291V110.298Z" fill="black"/>
<path d="M111.05 119.987C111.05 119.987 105.231 124.029 103.479 123.668C102.956 123.559 102.204 123.29 101.668 121.828L99.3837 110.888C99.2433 109.812 99.7979 108.373 100.515 108.122C101.894 107.636 104.803 106.43 106.874 105.526" fill="#47444F"/>
<path d="M111.062 120.012C109.42 121.241 105.568 123.975 103.551 123.853C102.51 123.729 101.86 122.773 101.586 121.853C101.416 120.936 101.228 120.025 101.029 119.115C100.404 116.392 99.7479 113.674 99.1684 110.942C99.1111 110.488 99.1426 110.028 99.2612 109.586C99.4446 108.944 99.7388 108.23 100.409 107.925L101.002 107.713L102.175 107.281L106.874 105.505L106.89 105.546C106.135 105.917 105.381 106.275 104.626 106.622C103.494 107.146 102.331 107.638 101.165 108.108C100.807 108.267 100.441 108.305 100.196 108.657C99.7597 109.299 99.5568 110.07 99.6211 110.842C100.183 113.581 100.667 116.333 101.183 119.078C101.36 119.982 101.57 120.956 101.765 121.79C102.337 123.281 103.349 123.885 104.891 123.234C106.185 122.716 107.436 122.098 108.633 121.385C109.445 120.925 110.251 120.452 111.053 119.966L111.077 120.003L111.062 120.012Z" fill="black"/>
<path d="M107.553 107.726C107.553 107.726 101.894 110.031 101.552 110.289C101.068 110.646 101.704 112.774 102.131 112.869C102.559 112.964 108.359 110.158 108.359 110.158" fill="#9226A7"/>
<path d="M109.049 112.044C109.049 112.044 105.427 113.8 102.774 114.779C102.233 114.98 102.928 117.264 103.354 117.359C103.78 117.454 109.581 114.648 109.581 114.648" fill="#9226A7"/>
<path d="M109.993 116.112C107.956 117.183 105.856 118.132 103.705 118.954C103.162 119.153 103.816 121.666 104.253 121.571C106.064 121.196 110.738 118.654 110.738 118.654" fill="#9226A7"/>
<path d="M66.6223 66.9777C70.5837 67.2805 82.0151 60.4973 83.9007 57.6593C90.257 48.1421 95.0242 19.9903 77.1482 15.2317C59.7182 10.5928 49.74 21.9719 48.9455 35.4547C48.151 48.9374 50.9307 52.9007 51.7253 54.4869C52.5198 56.0731 61.4589 66.58 66.6223 66.9777Z" fill="#BC795D"/>
<path d="M66.6245 66.937C70.2802 66.9754 76.1544 63.4053 79.2103 61.3559C80.7677 60.2533 82.3794 59.1461 83.5678 57.6616C84.1911 56.702 84.7419 55.6975 85.2158 54.6563C90.5172 42.9067 93.306 19.9812 77.3994 15.4712C63.4825 11.5825 51.7818 18.5532 49.6245 32.994C49.294 35.2762 49.2736 37.5877 49.2216 39.8902C49.2026 42.1953 49.338 44.4992 49.6268 46.7863C49.9822 49.4458 50.6975 52.0398 51.9991 54.3965C52.9905 56.0143 54.2989 57.4672 55.5575 58.8998C58.1811 61.7288 62.7061 66.4512 66.6245 66.9348V66.937ZM66.6245 67.0161C62.8329 66.6162 57.9366 61.8191 55.2927 59.1529C53.9571 57.7203 52.5763 56.3194 51.5033 54.6631C50.9071 53.6453 50.4004 52.5778 49.989 51.4726C48.4474 47.0145 48.3207 42.2085 48.4316 37.5538C48.4624 35.9885 48.5818 34.4261 48.7892 32.8742C51.0257 18.5735 62.3371 11.1983 76.3627 14.8543C93.2675 18.7114 91.735 42.6333 85.793 54.9275C85.2868 55.995 84.6909 57.0177 84.0115 57.9847C82.7325 59.4963 81.0371 60.5764 79.4186 61.6519C76.4351 63.5274 70.0629 67.12 66.6312 67.0161H66.6245Z" fill="black"/>
<path opacity="0.5" d="M53.4866 40.3604C51.0215 40.975 49.3441 44.2016 51.2863 45.9844C53.2285 47.7672 59.578 48.018 62.4234 46.425C65.2688 44.832 67.3129 43.4876 69.4928 43.6548C71.6727 43.822 72.8181 44.9767 74.9436 46.5357C77.0692 48.0948 83.0656 51.3486 84.5845 49.0212C86.1034 46.6939 87.1016 45.6952 84.795 43.7339C82.4883 41.7726 77.4812 42.4008 75.2266 41.7432C72.972 41.0857 71.8787 38.6205 69.2936 38.6386C66.7085 38.6567 63.9423 41.2461 61.905 41.219C59.8678 41.1919 55.4605 39.8768 53.4866 40.3604Z" fill="#C66344"/>
<path opacity="0.5" d="M87.0789 43.388C84.899 52.0985 77.2162 60.2352 70.9912 65.7914C75.9033 63.6584 82.5675 59.6613 83.894 57.657C86.6601 53.5175 88.8264 45.7605 89.2588 38.0283C88.539 38.3898 87.9595 39.8698 87.0789 43.388Z" fill="#A05A4A"/>
<path d="M52.9633 35.7394C52.2141 36.8059 54.3012 39.2665 55.7295 39.9715C57.5404 40.8618 57.9932 40.3986 58.7673 40.4053C59.5415 40.4121 60.6665 40.8166 62.4141 39.9015C63.1113 39.5377 64.2386 38.8237 64.2386 37.2374C64.2386 35.6512 62.8939 34.5757 61.4814 33.83C60.0689 33.0844 54.8603 33.0347 52.9633 35.7394Z" fill="#F2F2F2"/>
<path d="M84.9782 37.016C85.6346 38.1458 84.5662 41.1171 83.088 41.7046C82.0558 42.1158 80.3943 42.1565 79.6133 42.1384C78.8324 42.1204 77.8749 42.1384 76.5733 41.7046C75.7493 41.4312 73.9678 39.9715 74.1806 38.9931C74.5564 37.2804 75.2264 36.2365 76.6706 35.5405C78.1148 34.8446 82.6534 33.0347 84.9782 37.016Z" fill="#F2F2F2"/>
<path d="M64.834 48.2166C64.834 47.8189 70.3957 45.0532 71.5864 46.235C72.7771 47.4167 71.5864 48.612 70.7941 49.0097C70.0019 49.4074 67.2176 49.4051 64.834 48.2166Z" fill="#B04839"/>
<path d="M74.1852 29.3516C72.9787 29.7041 75.2401 27.1576 75.9214 26.7509C78.0922 25.4494 84.1724 25.8832 87.2125 31.9478C83.3054 29.7854 80.9376 27.3677 74.1852 29.3516Z" fill="#1B0000"/>
<path d="M74.1895 29.3787C72.94 29.7109 75.2262 27.1463 75.4684 26.9452C76.8425 25.6889 79.1514 25.8651 80.8197 26.3419C83.6538 27.2028 85.9808 29.2951 87.3503 31.8913L87.5767 32.3274C86.3973 31.7287 85.2632 31.0192 84.1156 30.391C81.0212 28.5834 77.5917 28.3687 74.185 29.3787H74.1895ZM74.1782 29.3403C77.92 28.2105 80.8355 27.9507 84.3148 30.0408C85.3266 30.6192 86.2932 31.2496 87.2869 31.8258L87.0741 32.0292C86.4716 30.7174 85.6136 29.5384 84.5502 28.5608C82.4405 26.6718 79.2804 25.8154 76.5482 26.6492C75.5522 26.9926 74.7894 27.8897 74.1397 28.6828C73.9744 28.9087 73.5896 29.5166 74.1782 29.3358V29.3403Z" fill="black"/>
<path d="M66.3687 28.4749C67.0885 28.807 66.294 25.4042 65.4994 25.0065C64.7049 24.6088 58.4323 22.4984 52.4722 28.0501C57.2394 27.257 61.203 26.1046 66.3687 28.4749Z" fill="#1B0000"/>
<path d="M66.3754 28.4749C66.9481 28.6421 66.3958 26.7396 66.2781 26.4955C66.0834 26.021 65.8774 25.4335 65.4473 25.1511C63.8945 24.5659 62.1922 24.4145 60.5307 24.4732C57.5065 24.5749 54.6928 26.0775 52.5785 28.1766L52.445 27.9078C57.7192 26.8797 61.2732 26.0278 66.3754 28.4772V28.4749ZM66.3596 28.5111C61.959 26.4232 57.09 27.4649 52.497 28.2151L51.9741 28.2896L52.3635 27.9439C55.7272 24.9726 60.6303 23.1853 65.0399 24.6788C65.4202 24.7963 65.8253 25.0133 65.9883 25.3838C66.2554 25.6685 67.1609 28.7845 66.3641 28.5111H66.3596Z" fill="black"/>
<path d="M75.9575 33.4708C78.323 31.5276 82.6579 30.8384 84.6069 33.6854C82.2776 31.34 78.6037 32.0834 75.9575 33.4708Z" fill="black"/>
<path d="M62.8486 31.8484C60.3586 30.2238 58.8669 30.3729 56.0962 31.0553C58.464 29.7809 60.9427 29.7787 62.8486 31.8484Z" fill="black"/>
<path d="M62.4935 37.1448C62.0611 38.444 60.7573 39.7456 59.4534 39.7456C57.7172 39.7456 56.4156 38.8779 56.4156 37.1448C56.0421 35.658 57.7172 33.6764 59.3266 33.6425C61.1489 33.1092 62.9802 35.6897 62.4935 37.1448Z" fill="url(#paint5_linear_3347_117828)"/>
<path d="M82.2324 37.0612C83.0655 39.9715 80.9829 41.2188 79.3169 40.803C78.0673 40.803 76.6005 39.9421 76.399 38.3175C76.2292 36.8556 77.6508 34.9915 79.5002 35.0412C80.9829 34.5599 81.3994 35.8072 82.2324 37.0612Z" fill="url(#paint6_linear_3347_117828)"/>
<path d="M60.731 36.67C60.7719 35.9899 60.3449 35.411 59.7773 35.377C59.2097 35.343 58.7165 35.8668 58.6756 36.5469C58.6347 37.227 59.0617 37.8059 59.6293 37.8399C60.1968 37.8739 60.6901 37.3501 60.731 36.67Z" fill="black"/>
<path d="M79.2693 39.1332C79.8618 39.1332 80.3422 38.5546 80.3422 37.8408C80.3422 37.1269 79.8618 36.5483 79.2693 36.5483C78.6767 36.5483 78.1963 37.1269 78.1963 37.8408C78.1963 38.5546 78.6767 39.1332 79.2693 39.1332Z" fill="black"/>
<path d="M59.4145 34.6322C58.835 34.23 57.7643 35.0276 58.0292 35.3846C58.294 35.7416 58.6539 35.475 59.0093 35.2084C59.3647 34.9417 59.7903 34.8875 59.4145 34.6322Z" fill="white"/>
<path d="M79.1087 35.7755C78.5246 35.3665 77.4404 36.1732 77.7097 36.5347C77.9791 36.8963 78.339 36.6274 78.7012 36.3585C79.0634 36.0896 79.4844 36.0331 79.1087 35.7755Z" fill="white"/>
<path d="M72.9198 48.1534C72.5508 48.2822 72.1932 48.359 71.8355 48.4968C71.484 48.6563 71.1147 48.7731 70.7354 48.8448C71.3216 48.3206 72.1252 47.941 72.9198 48.1534Z" fill="black"/>
<path d="M57.5269 39.2168C55.6005 37.7504 55.6753 35.24 57.8189 34.004C58.8964 33.3262 60.3316 33.4934 61.3819 34.1464C61.917 34.5127 62.3267 35.0341 62.5554 35.6403C62.7841 36.2464 62.8209 36.908 62.6608 37.5357C62.3915 38.8304 61.1261 39.7004 59.8653 39.8518C59.0338 39.9428 58.1985 39.7168 57.5269 39.2191V39.2168ZM57.5495 39.1852C58.8851 40.1862 60.7481 39.6032 61.7758 38.4418C62.2184 37.8209 62.418 37.0598 62.3371 36.302C62.237 35.5331 61.8438 34.8322 61.2393 34.3452C60.3338 33.6335 58.8783 33.4098 57.9344 34.1735C57.0017 34.8672 56.3385 35.9585 56.4494 37.1471C56.4775 37.5446 56.5901 37.9316 56.7798 38.2823C56.9695 38.6329 57.2319 38.9392 57.5495 39.1807V39.1852Z" fill="black"/>
<path d="M82.0082 39.7456C82.6737 38.7514 82.4066 37.4566 81.766 36.5257C81.4446 36.0738 81.105 35.5812 80.6138 35.31C79.5974 34.7406 78.2438 35.188 77.4719 35.9879C77.0918 36.3986 76.8357 36.9082 76.7332 37.4579C76.6307 38.0076 76.6858 38.5751 76.8924 39.0948C77.1133 39.5905 77.4502 40.026 77.8748 40.3647C79.1673 41.0651 81.1141 41.0855 82.0082 39.7433V39.7456ZM82.0399 39.7659C81.1344 41.1646 79.1107 41.4673 77.6846 40.7081C77.1628 40.3441 76.7598 39.8349 76.5257 39.2439C75.8171 37.3391 77.0056 35.475 78.9251 35.0231C80.2448 34.6548 81.3314 35.2106 82.0512 36.3404C82.3856 36.8497 82.5628 37.4459 82.5608 38.0548C82.5588 38.6638 82.3776 39.2588 82.0399 39.7659Z" fill="black"/>
<path d="M74.3682 37.4363C78.5265 33.2516 83.305 33.6854 85.4758 38.4531C86.0367 38.2452 86.619 38.1004 87.2121 38.0215C85.4758 36.2862 85.0412 33.6854 80.2649 33.2516C77.2203 33.2516 75.054 35.8523 74.3682 37.4363Z" fill="black"/>
<path d="M80.2743 33.0539L80.2831 33.0548C82.7129 33.2755 84.0604 34.0517 85.0189 35.0087C85.4928 35.482 85.8679 35.9957 86.2265 36.4891C86.5878 36.9861 86.9315 37.4608 87.3526 37.8817L87.6355 38.1646L87.2385 38.2175C86.6602 38.2945 86.0922 38.4355 85.5452 38.6383L85.3721 38.7025L85.2958 38.5348C84.2331 36.2009 82.5496 34.958 80.6496 34.7845C78.7413 34.6103 76.5618 35.5096 74.5091 37.5754L73.7705 38.3188L74.1868 37.3579C74.5418 36.5379 75.2733 35.4667 76.3047 34.5987C77.3377 33.7295 78.684 33.0539 80.2652 33.0539H80.2743ZM80.257 33.4493C78.7973 33.4516 77.541 34.0755 76.56 34.901C75.9906 35.3803 75.5184 35.9244 75.1572 36.4456C76.9947 34.9194 78.9225 34.2296 80.6857 34.3906C82.71 34.5755 84.4657 35.8766 85.5788 38.2067C85.9809 38.0677 86.3931 37.9602 86.8116 37.8848C86.4796 37.5127 86.1914 37.1142 85.9058 36.7212C85.5453 36.2254 85.1875 35.7363 84.7388 35.2883C83.8531 34.4039 82.5972 33.6636 80.257 33.4493Z" fill="black"/>
<path d="M75.7039 41.2708C78.0702 42.1478 80.6378 42.3335 83.106 41.8063C81.1321 43.4693 77.4469 43.1417 75.7017 41.2798L75.7039 41.2708Z" fill="black"/>
<path d="M64.1957 35.4208C60.8433 32.7839 56.3794 31.9524 52.9069 36.72C52.2801 36.5369 51.6913 36.243 51.1685 35.8523C53.3393 34.1193 54.6431 32.3862 57.6832 31.9524C60.7233 31.5185 63.4487 33.22 64.1957 35.4208Z" fill="black"/>
<path d="M57.6551 31.7567C60.7756 31.3114 63.6013 33.0537 64.3833 35.3574L64.5975 35.9885L64.0731 35.5761C62.4193 34.2752 60.5095 33.4346 58.6021 33.4913C56.7046 33.5476 54.7737 34.4929 53.067 36.8362L52.985 36.9488L52.8513 36.9097C52.2423 36.7318 51.6679 36.4531 51.152 36.0853L51.0496 36.0105L50.8447 35.8576L51.0446 35.6979L51.2426 35.5381C53.2659 33.8835 54.6422 32.1866 57.6551 31.7567ZM63.7079 34.8143C62.718 33.0483 60.3474 31.772 57.7113 32.1481C54.8339 32.5587 53.5786 34.141 51.4957 35.842C51.9079 36.1197 52.3575 36.3379 52.8314 36.4898C54.5775 34.1476 56.5821 33.1557 58.5904 33.0961C60.3828 33.0429 62.1498 33.733 63.7079 34.8143Z" fill="black"/>
<path d="M62.6768 39.9715C60.2026 41.8492 56.4834 41.3882 54.4258 39.1038C57.5428 40.3308 59.3605 40.611 62.6768 39.9715Z" fill="black"/>
<path d="M85.4897 44.1765C85.8881 43.7811 85.4897 43.3834 85.0936 43.3834C84.6974 43.3834 83.9006 44.1765 84.299 44.5742C84.6974 44.9719 85.0936 44.5742 85.4897 44.1765Z" fill="#42210B"/>
<path d="M70.2213 41.9396C70.6532 42.9839 71.1584 43.9965 71.7335 44.9696C72.1002 45.6362 72.7544 46.3502 72.6095 47.1772C72.1839 48.4109 70.8167 48.6685 69.8003 49.2108C70.0951 48.968 70.4093 48.7496 70.7397 48.5578C71.292 48.185 72.0436 47.7466 72.2088 47.0914C72.2745 46.7705 72.0775 46.4429 71.9417 46.1559C71.1562 44.8634 70.4681 43.4444 70.2213 41.9418V41.9396Z" fill="black"/>
<path d="M67.8128 47.6314C67.0598 47.7679 66.3263 47.9956 65.6284 48.3093C65.9748 47.5252 67.0794 47.2043 67.8128 47.6314Z" fill="black"/>
<path d="M62.2808 55.6619C62.781 56.5657 63.3175 58.4027 67.9172 57.2978C73.9453 57.0605 73.848 56.9521 73.8593 56.0821C73.8706 55.2122 73.5129 54.2451 73.2119 54.2745C72.9108 54.3039 62.7448 54.218 62.4935 54.4756C62.2423 54.7332 61.7828 54.7513 62.2808 55.6619Z" fill="#9F484C"/>
<path d="M62.2466 54.7106C62.6563 53.3323 66.7739 51.7732 70.0381 52.1144C73.3022 52.4555 73.5037 53.3164 73.6599 53.5695C73.8161 53.8226 73.8862 54.575 73.4199 54.9094C72.9536 55.2438 64.6189 55.9827 62.2466 54.7106Z" fill="#792F32"/>
<path d="M63.1567 54.2338C64.5579 53.7412 70.9979 53.687 71.9645 53.8904C73.8388 54.279 73.0646 54.5818 73.2571 55.3659C70.6471 55.7952 70.6109 54.8688 63.0141 55.7658C61.8279 55.9104 63.1567 54.2338 63.1567 54.2338Z" fill="#F2F2F2"/>
<path d="M72.9198 54.1773C72.757 54.5781 72.6926 55.012 72.7319 55.4427C72.8949 55.4246 73.067 55.3997 73.2526 55.3704C73.1122 54.7806 73.5129 54.4598 72.9198 54.1773Z" fill="black"/>
<path d="M63.1702 55.7522C63.1776 55.7104 63.1821 55.6681 63.1838 55.6257C63.1838 55.289 63.4102 54.6948 63.1838 54.2338H63.1679C63.1679 54.2338 61.8369 55.9059 63.0253 55.7658L63.1702 55.7522Z" fill="black"/>
<path d="M66.8076 57.9598C67.3799 57.6422 68.0178 57.4605 68.6718 57.4288C69.3258 57.397 69.9784 57.5161 70.5788 57.7768C69.4787 57.8197 67.8942 57.9327 66.8076 57.9598Z" fill="black"/>
<path d="M89.6702 61.426C91.6532 59.5279 93.6112 68.8825 96.8732 74.2354C99.9087 79.2177 99.3179 87.5916 97.5002 91.2973C95.6825 95.0029 91.2888 98.3267 86.9448 97.145C89.1224 96.5236 95.3656 91.3447 95.0283 83.9537C94.691 76.5627 89.3126 74.0117 89.7314 68.2837L90.4105 67.0229" fill="url(#paint7_linear_3347_117828)"/>
<path d="M94.0439 50.901C94.6279 55.6754 92.233 76.9288 86.2841 86.6019C80.3353 96.2751 77.5102 103.775 77.9267 106.884C78.3433 109.993 79.1355 115.827 83.9005 119.058C73.1754 115.151 70.0289 96.8038 72.3808 88.5858C74.7644 80.2571 78.7371 78.6709 83.9005 67.172C86.6169 61.1074 90.585 39.723 89.6275 36.5957C88.67 33.4685 92.6653 31.8281 94.0439 34.4333C95.4224 37.0386 94.0439 50.901 94.0439 50.901Z" fill="url(#paint8_linear_3347_117828)"/>
<path d="M90.8776 33.1846C92.0104 32.6725 93.4736 32.9329 94.2187 34.3409C94.4073 34.6973 94.5404 35.2264 94.6354 35.8597C94.7311 36.4979 94.7906 37.261 94.8231 38.0979C94.888 39.7719 94.8448 41.7553 94.7585 43.6532C94.6722 45.5518 94.5427 47.3683 94.4349 48.71C94.381 49.381 94.3325 49.9335 94.2974 50.3182C94.2799 50.5105 94.2659 50.6611 94.2561 50.7635C94.2512 50.8146 94.2474 50.8538 94.2448 50.8802C94.2441 50.8873 94.2433 50.8935 94.2428 50.8988C94.3883 52.119 94.3456 54.3501 94.1115 57.1496C93.8756 59.9709 93.4443 63.3836 92.8086 66.9491C91.5386 74.0723 89.4478 81.8353 86.4527 86.7054C83.4825 91.5351 81.2947 95.8182 79.9021 99.2779C79.2057 101.008 78.7093 102.529 78.413 103.808C78.116 105.09 78.0232 106.115 78.1228 106.858C78.5408 109.978 79.3295 115.72 84.0115 118.895L85.3324 119.79L83.8325 119.244C78.3815 117.258 74.8864 111.619 73.0468 105.495C71.2059 99.3675 71.0012 92.6864 72.1902 88.5316L72.3038 88.1432C73.4911 84.1802 75.0544 81.7473 76.9337 78.9574C78.8696 76.0833 81.1453 72.824 83.7195 67.0912C85.0668 64.0831 86.7346 57.2429 87.9468 50.7461C88.5522 47.5017 89.0425 44.3511 89.3216 41.8182C89.4612 40.5514 89.5476 39.4419 89.5696 38.5537C89.5918 37.6577 89.5472 37.0107 89.4379 36.6536C88.9283 34.9895 89.7409 33.6986 90.8776 33.1846ZM93.8686 34.5256C93.2351 33.3285 92.0113 33.1064 91.0412 33.545C90.0751 33.9818 89.3688 35.075 89.8168 36.538C89.9468 36.9628 89.9877 37.6682 89.9655 38.5637C89.9432 39.4672 89.8555 40.5889 89.7153 41.8614C89.4348 44.4071 88.9426 47.568 88.3361 50.8187C87.1246 57.3118 85.4502 64.1961 84.0812 67.2527L84.081 67.2529C81.4918 73.0189 79.1996 76.3022 77.2624 79.178C75.3896 81.9584 73.853 84.3521 72.6832 88.2573L72.5711 88.6401C71.4082 92.7034 71.6008 99.3048 73.4264 105.382C75.0837 110.899 78.0691 115.927 82.5466 118.247C78.7975 114.863 78.1068 109.721 77.7302 106.91C77.6214 106.098 77.7256 105.02 78.027 103.719C78.3292 102.415 78.833 100.873 79.5344 99.1305C80.9374 95.645 83.1366 91.3417 86.1151 86.4984C89.0689 81.6954 91.15 73.9952 92.4186 66.8798C93.0523 63.326 93.4819 59.9255 93.7167 57.1167C93.9519 54.3029 93.9905 52.0969 93.8471 50.925L93.8445 50.9032L93.8467 50.8815L94.0436 50.901C93.8618 50.8829 93.8477 50.8815 93.8467 50.8813V50.8809C93.8467 50.8805 93.8468 50.8797 93.8469 50.8789C93.8471 50.8773 93.8472 50.8748 93.8476 50.8716C93.8482 50.865 93.8492 50.8551 93.8504 50.842C93.853 50.8159 93.8568 50.7769 93.8617 50.726C93.8714 50.6241 93.8856 50.474 93.903 50.2822C93.938 49.8987 93.9863 49.3478 94.0401 48.6785C94.1477 47.3396 94.2768 45.5277 94.3628 43.6351C94.4489 41.7417 94.4917 39.771 94.4274 38.1131C94.3952 37.284 94.3362 36.5367 94.2435 35.9182C94.15 35.2948 94.0246 34.8205 93.8686 34.5256Z" fill="black"/>
<path d="M69.8003 79.8187C81.5192 72.3306 84.6611 64.5351 89.0412 40.6765C93.4214 16.8179 90.3066 54.1909 89.4555 57.6593C88.2875 62.4518 88.2716 77.4846 69.8003 79.8187Z" fill="url(#paint9_linear_3347_117828)"/>
<path d="M90.9594 32.5759C91.0384 32.5543 91.1173 32.5692 91.182 32.6114C91.2391 32.6487 91.2764 32.7013 91.3013 32.7462C91.3273 32.793 91.348 32.8464 91.365 32.902C91.399 33.0132 91.4253 33.1552 91.4461 33.32C91.4881 33.6508 91.5115 34.1024 91.5197 34.6477C91.5362 35.7399 91.4923 37.2301 91.4079 38.93C91.2389 42.331 90.9064 46.5853 90.563 50.2059C90.2204 53.8172 89.8649 56.8208 89.6478 57.7059L89.648 57.7061C89.0755 60.0556 88.7655 65.0761 86.2917 69.7533C83.8028 74.459 79.1252 78.8396 69.8252 80.0148L68.9536 80.1249L69.6935 79.6523C75.5282 75.924 79.2149 72.129 81.9939 66.3015C84.779 60.4609 86.6561 52.5717 88.8465 40.6408C89.3942 37.6576 89.8256 35.6258 90.16 34.3635C90.3267 33.7343 90.4718 33.2864 90.5984 33.0057C90.6601 32.8688 90.7256 32.7526 90.7993 32.6763C90.8366 32.6377 90.8896 32.5949 90.9594 32.5759ZM91.0025 33.0788C90.9892 33.1043 90.975 33.134 90.9596 33.1681C90.8471 33.4176 90.7088 33.839 90.5431 34.4645C90.2128 35.7114 89.7833 37.7308 89.236 40.712C87.0462 52.6397 85.1621 60.5778 82.3515 66.4716C79.6558 72.1247 76.111 75.8909 70.6536 79.4998C79.2407 78.184 83.5915 74.0119 85.9415 69.5686C88.3855 64.9478 88.6675 60.0557 89.263 57.6126L89.2632 57.6124L89.2831 57.5265C89.4936 56.5767 89.8355 53.681 90.1686 50.1686C90.5117 46.5519 90.8436 42.3038 91.0122 38.9104C91.0965 37.2131 91.1399 35.733 91.1236 34.6536C91.1154 34.1131 91.0923 33.6785 91.0531 33.3694C91.0379 33.2499 91.0207 33.1534 91.0025 33.0788Z" fill="black"/>
<path d="M82.5104 12.0005C86.671 12.7936 92.4433 13.8669 95.4132 19.5926C98.3831 25.3183 95.4132 55.1128 102.166 58.0547C108.918 60.9967 111.311 53.104 111.311 53.104C111.311 53.104 108.133 63.6064 100.989 61.2384C93.8445 58.8704 88.8237 46.7163 88.2782 37.8453C87.6873 28.2715 85.4961 21.9832 84.3055 20.397C83.1148 18.8108 80.7312 17.2336 79.339 17.4234C77.9469 17.6132 75.9572 10.7532 82.5104 12.0005Z" fill="url(#paint10_linear_3347_117828)"/>
<path d="M78.9465 12.1827C79.695 11.695 80.8102 11.5014 82.3932 11.778L82.5478 11.8062L83.3449 11.9591C87.4197 12.7511 92.7585 14.0442 95.5893 19.5017C95.976 20.2472 96.2581 21.3655 96.4749 22.7377C96.6925 24.1147 96.8469 25.7665 96.9694 27.5909C97.214 31.2334 97.3331 35.6019 97.5689 39.8567C97.8053 44.1219 98.1595 48.2873 98.8734 51.5671C99.2304 53.2071 99.6752 54.616 100.235 55.7018C100.796 56.7895 101.46 57.5316 102.245 57.8735C103.897 58.5934 105.266 58.6443 106.39 58.3318C107.518 58.0185 108.419 57.3343 109.123 56.5507C109.827 55.7667 110.328 54.89 110.653 54.2066C110.815 53.8655 110.933 53.574 111.01 53.3683C111.048 53.2656 111.076 53.1842 111.095 53.1291C111.104 53.1016 111.111 53.0806 111.115 53.0667C111.117 53.0598 111.119 53.0546 111.12 53.0512C111.121 53.0496 111.121 53.0482 111.121 53.0475C111.121 53.0472 111.121 53.047 111.121 53.0468V53.0466C111.121 53.0466 111.121 53.0467 111.311 53.104L111.5 53.1614V53.162C111.5 53.1622 111.5 53.1624 111.5 53.1627C111.5 53.1629 111.5 53.1631 111.5 53.1633C111.5 53.1645 111.499 53.1663 111.498 53.1684C111.498 53.1688 111.498 53.1693 111.498 53.1697C111.496 53.1751 111.494 53.1831 111.491 53.1933C111.484 53.2139 111.475 53.244 111.462 53.2829C111.436 53.3608 111.398 53.4741 111.347 53.617C111.245 53.903 111.091 54.308 110.885 54.7863C110.472 55.7419 109.845 56.9948 108.989 58.1752C108.135 59.3543 107.046 60.4722 105.704 61.1433C104.356 61.8175 102.764 62.0353 100.926 61.4262C97.2779 60.2168 94.2055 56.5265 91.9819 52.0686C89.7541 47.6024 88.3553 42.3203 88.0809 37.8575L88.0519 37.4122C87.7426 32.8365 87.0684 29.0372 86.3252 26.1753C85.5556 23.2116 84.7178 21.2757 84.1473 20.5156C83.5687 19.7448 82.6944 18.97 81.7937 18.4123C81.344 18.1339 80.8923 17.9124 80.4725 17.7724C80.0505 17.6317 79.6729 17.5774 79.3661 17.6193C79.1056 17.6548 78.8645 17.5222 78.6702 17.3366C78.4722 17.1476 78.2933 16.8771 78.1467 16.5645C77.8534 15.939 77.6708 15.1031 77.7483 14.2966C77.8262 13.4868 78.1695 12.6889 78.9465 12.1827ZM82.4735 12.1946C80.8623 11.8879 79.817 12.0878 79.1631 12.5139C78.5136 12.9371 78.2125 13.6087 78.1427 14.3343C78.0726 15.0632 78.239 15.8287 78.5055 16.397C78.6388 16.6813 78.7923 16.906 78.944 17.0509C79.0993 17.1992 79.225 17.2395 79.3126 17.2276C79.7018 17.1745 80.1443 17.246 80.598 17.3973C81.0538 17.5492 81.5334 17.7859 82.0024 18.0763C82.9392 18.6563 83.8523 19.4631 84.4643 20.2784C85.0845 21.1047 85.9374 23.1061 86.7087 26.0763C87.4584 28.9631 88.1363 32.7867 88.4471 37.3857L88.4761 37.833V37.8332L88.5048 38.2487C88.8346 42.5674 90.2004 47.61 92.3365 51.8923C94.5456 56.3213 97.5556 59.8921 101.051 61.0508C102.786 61.6257 104.27 61.4187 105.527 60.7898C106.79 60.1576 107.835 59.094 108.669 57.9435C108.932 57.5802 109.173 57.2092 109.392 56.8422C108.658 57.6527 107.703 58.3774 106.497 58.7127C105.273 59.0527 103.811 58.987 102.087 58.2359C101.184 57.8424 100.464 57.0099 99.8827 55.8827C99.3008 54.7537 98.8469 53.3073 98.4863 51.6509C97.7652 48.3379 97.4099 44.1453 97.1734 39.8785C96.9364 35.6012 96.819 31.2635 96.5742 27.6174C96.4519 25.7973 96.2985 24.159 96.0836 22.7993C95.868 21.4347 95.5934 20.3695 95.2376 19.6835C92.3174 14.0535 86.6458 12.9901 82.4735 12.1948V12.1946Z" fill="black"/>
<path d="M42.9871 33.8685C46.9598 49.7283 42.1088 65.1746 40.6035 71.9329C37.4344 86.2088 35.4379 98.5007 44.9723 113.567C41.0019 96.5169 45.7556 91.8893 47.7521 77.4846C49.1592 67.5047 49.6894 57.4211 49.3366 47.349C49.1578 42.2265 48.9405 30.696 48.3452 30.147C46.6746 28.6082 42.9871 33.8685 42.9871 33.8685Z" fill="url(#paint11_linear_3347_117828)"/>
<path d="M46.7182 29.9009C47.3096 29.619 47.9335 29.5406 48.4318 29.9596L48.4798 30.0016V30.0018L48.5119 30.0356C48.5412 30.0711 48.5629 30.1107 48.5795 30.1461C48.6031 30.1963 48.6239 30.2548 48.6427 30.3182C48.6804 30.4452 48.7149 30.6087 48.7471 30.801C48.8116 31.1866 48.8701 31.7083 48.9237 32.3291C49.031 33.5718 49.1198 35.2283 49.1954 37.0247C49.3465 40.6164 49.4456 44.7851 49.5349 47.3421L49.5654 48.2874C49.854 58.0565 49.3133 67.8331 47.9486 77.5122C47.4482 81.1226 46.7749 84.1199 46.1098 86.8485C45.4441 89.58 44.7892 92.0325 44.3197 94.5696C43.3831 99.6307 43.1862 105.023 45.1655 113.523L45.4307 114.662L44.8051 113.673C35.2263 98.5361 37.2393 86.1755 40.4105 71.89L40.4837 71.5659C42.0694 64.6296 46.692 49.473 42.7953 33.9165L42.7734 33.8289L42.8251 33.7552L42.9874 33.8684C42.8277 33.7569 42.8251 33.7551 42.8251 33.755L42.8253 33.7548C42.8255 33.7546 42.8258 33.7542 42.826 33.7539C42.8265 33.7532 42.8273 33.7521 42.8282 33.7508C42.8301 33.7481 42.8328 33.7442 42.8364 33.7391C42.8436 33.7289 42.8543 33.7139 42.8682 33.6945C42.8961 33.6557 42.9372 33.5993 42.9898 33.5282C43.095 33.3858 43.2469 33.1844 43.4344 32.9478C43.8089 32.4753 44.3273 31.8593 44.9002 31.2904C45.4702 30.7245 46.1069 30.1923 46.7182 29.9009ZM48.211 30.292C47.8816 29.9888 47.4394 29.9953 46.8888 30.2578C46.3389 30.5199 45.7403 31.0142 45.1796 31.5709C44.6219 32.1247 44.114 32.7275 43.7449 33.1932C43.5607 33.4257 43.4116 33.6234 43.3086 33.7627C43.2639 33.8232 43.2277 33.8727 43.2014 33.9092C47.148 49.7942 42.295 65.251 40.7971 71.9759C37.701 85.9228 35.7395 97.9173 44.5204 112.459C42.808 104.564 43.0267 99.3806 43.9302 94.4979C44.4024 91.9463 45.0619 89.4753 45.725 86.755C46.3886 84.032 47.0584 81.0492 47.5562 77.4575V77.4571L47.6855 76.5221C48.9519 67.1707 49.4482 57.7314 49.1695 48.2991L49.139 47.3558C49.0494 44.7904 48.9505 40.6326 48.7995 37.0413C48.7239 35.2461 48.6356 33.5968 48.5291 32.3631C48.4758 31.7457 48.4182 31.2364 48.3562 30.8663C48.3252 30.6809 48.2938 30.5353 48.2627 30.4305C48.2472 30.3781 48.2329 30.34 48.2207 30.314C48.2071 30.2851 48.2021 30.2839 48.211 30.2922V30.292Z" fill="black"/>
<path d="M82.9089 11.0763C83.5043 6.51655 73.1753 0.173987 62.8485 0.96709C49.5677 1.98615 40.9999 12.0683 35.2321 20.1982C29.496 28.2896 21.7249 42.4028 27.2867 49.5385C27.6851 47.9568 27.6851 45.1775 30.0665 43.1959C28.0994 47.5478 27.2958 53.104 32.853 54.6857C30.4694 51.1156 33.6475 46.3593 35.2366 44.7731C36.8257 43.1869 49.6221 34.9056 52.7142 32.4811C58.276 28.1179 62.6448 20.5845 65.0284 18.2052C67.412 15.8259 73.9653 12.0592 78.7325 17.2133C81.9152 16.0248 82.5377 13.903 82.9089 11.0763Z" fill="url(#paint12_linear_3347_117828)"/>
<path d="M82.8793 11.0763C83.0626 9.13086 81.6071 7.49946 80.2444 6.28834C75.862 2.64819 69.9992 0.976125 64.3627 1.01228C52.4333 1.23823 43.2859 9.41556 36.6444 18.6052C31.5761 25.4539 21.3422 41.3724 27.3906 49.4571L27.1778 49.5C27.6487 47.0801 27.9565 44.7753 30.0142 43.11L30.3469 42.8321C29.7856 43.9905 29.3405 45.2015 29.0182 46.4474C28.0856 50.0762 28.8801 53.5288 32.8664 54.6225L32.7985 54.7174C32.4104 54.1289 32.1462 53.4677 32.022 52.7741C31.5693 49.9678 33.0475 47.2224 34.795 45.1255C35.265 44.6059 35.792 44.1405 36.366 43.7382C37.4774 42.9021 38.6138 42.1045 39.7614 41.3069C43.055 39.018 46.7425 36.5121 50.0497 34.2074C51.1815 33.4052 52.3292 32.6257 53.3727 31.7219C56.5237 29.0104 59.0726 25.6798 61.5513 22.3605C62.8212 20.7156 63.9711 18.9192 65.5647 17.55C68.6885 14.9311 73.5463 13.3065 77.1908 15.8169C77.7704 16.2103 78.3022 16.6698 78.7753 17.1862H78.7323C81.675 16.1445 82.5624 14.0047 82.8974 11.0854L82.8793 11.0763ZM82.9178 11.0763C82.6914 13.0128 82.1934 15.1435 80.5002 16.3275C79.9585 16.7147 79.3668 17.0271 78.7413 17.2562H78.7164L78.6983 17.2359C77.7755 16.201 76.5862 15.4384 75.2596 15.0309C73.9331 14.6234 72.52 14.5865 71.174 14.9244C68.4709 15.5641 66.0531 17.0724 64.2925 19.2175C60.467 24.1253 57.0806 29.5798 51.9308 33.2629C47.9762 36.0941 43.8813 38.7242 39.8746 41.4764C38.7292 42.2604 37.5838 43.0468 36.4678 43.8692C35.8973 44.2587 35.3746 44.7138 34.9104 45.225C32.7939 47.7105 30.9106 51.5811 32.9003 54.6428L32.9909 54.7829L32.8302 54.7377C30.4352 54.1095 28.7352 52.3652 28.5292 49.8435C28.3232 47.5229 29.0453 45.2363 29.9734 43.1394L30.1251 43.2546C29.6781 43.629 29.2851 44.0632 28.9571 44.5448C27.8637 46.0881 27.7505 48.0065 27.3408 49.7983L27.1869 49.5972C20.946 41.3634 31.1415 25.3567 36.2913 18.3498C39.6867 13.7607 43.5349 9.402 48.2501 6.11887C56.0936 0.469985 66.6241 -0.980648 75.4523 3.19501C78.3203 4.52362 83.2166 7.48364 82.9268 11.0763H82.9178Z" fill="black"/>
<path d="M67.831 16.1377C69.5084 14.9741 71.4098 13.9505 73.5512 14.1041C74.4685 14.1793 75.3608 14.4405 76.1735 14.8718C76.9862 15.303 77.7022 15.8953 78.2777 16.6122C78.4362 16.8111 78.5946 17.0099 78.7304 17.2155C78.2777 17.0054 77.8635 16.7343 77.4107 16.5241C75.2807 15.365 73.1098 14.965 70.7307 15.5367C69.7981 15.7265 68.8406 16.0338 67.8242 16.14L67.831 16.1377Z" fill="black"/>
<path d="M37.9238 78.8629C35.5696 84.5412 32.8872 92.8722 34.4717 98.9391C34.7237 99.8746 35.1382 100.759 35.6963 101.551L35.3749 101.777C31.443 95.9791 35.3274 84.7694 37.9238 78.8675V78.8629Z" fill="black"/>
<path d="M89.4621 41.8063C89.951 43.9935 90.0393 46.244 90.1412 48.4742C90.2948 52.9474 90.2049 57.4257 89.8718 61.8892C89.5187 66.3541 89.0433 70.8302 87.8571 75.1641C87.5673 76.2535 87.1888 77.3176 86.7253 78.3455C85.2059 81.3694 83.0946 84.0586 80.5162 86.2539C78.7829 87.6836 76.8497 88.8528 74.7778 89.7246C76.8053 88.7751 78.6933 87.5534 80.3894 86.0935C82.884 83.8648 84.9285 81.1804 86.4129 78.1851C87.7711 75.1347 88.2986 71.7883 88.8101 68.5052C89.7024 61.8654 90.0936 55.168 89.9804 48.4697C89.9261 46.2418 89.8786 43.9958 89.4711 41.7972L89.4621 41.8063Z" fill="black"/>
<path d="M98.202 69.1582C101.038 71.1714 104.121 72.4684 107.587 72.8412C109.289 73.0672 111.134 73.1666 112.793 73.7993C115.845 74.8907 117.979 77.5411 117.547 80.8649C117.404 82.0416 116.97 83.1643 116.284 84.1322C116.735 83.0899 116.966 81.9663 116.963 80.831C116.997 77.9139 115.048 75.7854 112.379 74.8974C110.779 74.3326 109.111 74.258 107.399 73.9597C103.864 73.4685 100.607 71.7721 98.1816 69.1582H98.202Z" fill="black"/>
<path d="M49.3412 35.057C49.2594 36.2128 49.2443 37.3724 49.2959 38.5299C49.3322 39.6845 49.3933 40.8392 49.4589 41.9915C49.597 44.2963 49.7849 46.5988 49.9818 48.8945C50.3938 53.4859 50.8669 58.0683 51.5483 62.5919C51.8923 64.8514 52.2862 67.0974 52.8227 69.2734C53.0769 70.3422 53.3974 71.3942 53.7825 72.4232C53.8775 72.6695 53.9794 72.9113 54.0858 73.144L54.2533 73.4852L54.4457 73.8558C54.706 74.3484 54.9731 74.8364 55.2516 75.3177C56.3742 77.2476 57.7214 79.0383 59.265 80.6525C60.0522 81.4661 60.8923 82.227 61.7799 82.9301C62.6854 83.6442 63.627 84.3062 64.6049 84.9637C63.4657 84.6444 62.3574 84.224 61.2932 83.7074C60.216 83.1798 59.1906 82.5527 58.2305 81.8343C56.2955 80.3738 54.6061 78.6149 53.2256 76.6237C52.8838 76.1244 52.5465 75.625 52.2341 75.1053L52.0078 74.7189L51.7814 74.2873C51.632 74.0004 51.4985 73.7112 51.3694 73.4242C51.1159 72.848 50.9054 72.2718 50.7152 71.6934C50.5251 71.1149 50.3508 70.5365 50.1946 69.958C49.5995 67.6636 49.1459 65.3349 48.8364 62.9851C48.515 60.6577 48.2931 58.3236 48.1573 55.9804C48.0804 54.8123 48.0328 53.6441 47.9921 52.4759C47.9513 51.3077 47.9377 50.1418 47.9445 48.9713C47.9445 46.6372 48.0351 44.2986 48.223 41.9667C48.3158 40.8008 48.4493 39.6348 48.6123 38.4757C48.7548 37.3171 48.9987 36.1731 49.3412 35.057Z" fill="url(#paint13_linear_3347_117828)"/>
<path d="M60.4692 4.13047C59.2854 4.37676 58.3143 5.03429 57.4563 5.77542C56.598 6.54563 55.7962 7.37626 55.0569 8.26093C53.5425 10.0347 52.0779 11.9033 50.4843 13.6974C48.8945 15.5291 47.1676 17.2377 45.3187 18.8085C44.3772 19.5996 43.395 20.341 42.376 21.0297C41.3541 21.7238 40.2904 22.3547 39.191 22.9187L38.3897 23.3276L37.6065 23.7298C37.0881 23.9987 36.5742 24.2744 36.0604 24.5546C35.0372 25.1172 34.0231 25.7047 33.0316 26.308C31.0421 27.5094 29.137 28.8449 27.3295 30.3051C26.4366 31.0363 25.5871 31.8187 24.7852 32.6483C23.9872 33.467 23.2771 34.3667 22.6664 35.3326C22.3679 35.812 22.1147 36.318 21.9104 36.8443C21.7006 37.3581 21.5848 37.9053 21.5686 38.4599C21.5631 38.7314 21.6006 39.0021 21.6795 39.262C21.7549 39.5222 21.8888 39.7618 22.0711 39.9625C22.2581 40.165 22.491 40.3199 22.7502 40.4144C23.0276 40.5092 23.3195 40.5543 23.6126 40.5477C23.3148 40.6117 23.0074 40.6178 22.7072 40.5658C22.3949 40.5065 22.1014 40.3732 21.8515 40.1771C21.3535 39.7498 21.0431 39.1447 20.9868 38.4915C20.9171 37.8592 20.9608 37.2195 21.1158 36.6025C21.2612 35.9953 21.469 35.4046 21.7361 34.8401C22.2659 33.7269 22.9213 32.6777 23.6896 31.7128C24.4465 30.7551 25.267 29.8492 26.1456 29.0014C29.6452 25.612 33.7719 22.9593 37.937 20.641C38.9171 20.0603 39.8792 19.448 40.805 18.7792C41.7308 18.1103 42.6385 17.4234 43.5214 16.6913C45.2893 15.2204 46.9893 13.6409 48.6689 12.0005C50.3485 10.3601 52.0281 8.66991 53.8753 7.10178C54.8065 6.29884 55.815 5.58966 56.8859 4.98458C57.4423 4.68903 58.0309 4.45854 58.6402 4.29767C59.233 4.12292 59.8545 4.06611 60.4692 4.13047Z" fill="url(#paint14_linear_3347_117828)"/>
<path d="M46.9601 55.28C47.2791 56.2894 47.4133 57.348 47.3563 58.4049C47.313 59.4623 47.1874 60.5146 46.9805 61.5525C46.5568 63.6045 45.9965 65.626 45.3031 67.6036C43.9585 71.542 42.3604 75.3403 40.8279 79.1273C39.2954 82.9143 37.7878 86.6878 36.6809 90.5516C36.109 92.4713 35.7053 94.437 35.4744 96.4265C35.2307 98.4417 35.3511 100.484 35.8298 102.457C34.7432 100.67 34.2452 98.5233 34.1072 96.4039C33.9997 94.2797 34.1479 92.1503 34.5486 90.0613C35.3114 85.8969 36.699 81.9269 38.2519 78.0857C39.8048 74.2444 41.5817 70.5184 43.2772 66.7992C44.1238 64.9396 44.9523 63.08 45.6653 61.1865C46.0259 60.2418 46.3358 59.2786 46.5934 58.301C46.8557 57.3159 46.9791 56.2991 46.9601 55.28Z" fill="url(#paint15_linear_3347_117828)"/>
<path d="M39.4176 43.388C37.5818 45.3651 37.154 48.5171 38.4601 50.8739C38.7104 51.2507 38.9306 51.6466 39.1188 52.0579C40.2665 55.0156 39.601 58.7303 37.2423 60.9243C36.5636 61.5515 35.7788 62.0534 34.9243 62.4066L34.7749 62.0406C35.595 61.7203 36.351 61.2557 37.0069 60.669C39.3226 58.5902 40.013 55.0201 38.9581 52.1234C38.7798 51.7147 38.5701 51.3204 38.3311 50.9439C37.0408 48.5352 37.5343 45.3402 39.4176 43.388Z" fill="black"/>
<path opacity="0.2" d="M64.5009 16.6778C66.8823 16.7794 58.6154 16.2914 58.3755 14.6442C58.1355 12.997 59.4711 11.0763 59.4711 11.0763C59.4711 11.0763 56.2364 11.9124 53.3977 15.6745C50.5591 19.4367 50.1743 20.4467 50.1743 20.4467C50.1743 20.4467 51.9422 17.7194 55.2268 18.0697C58.5113 18.4199 56.1865 22.7831 56.1865 22.7831C56.1865 22.7831 61.2458 16.5399 64.5009 16.6778Z" fill="#C79984"/>
<path opacity="0.2" d="M55.1273 12.884C56.6824 12.9518 51.2791 12.6332 51.1274 11.5554C50.9758 10.4776 51.8428 9.2235 51.8428 9.2235C51.8428 9.2235 49.733 9.76806 47.8791 12.2242C46.0252 14.6803 45.7739 15.3401 45.7739 15.3401C45.7739 15.3401 46.9261 13.5596 49.0721 13.7878C51.218 14.016 49.6991 16.8653 49.6991 16.8653C49.6991 16.8653 52.9995 12.7981 55.1273 12.884Z" fill="#C79984"/>
<path opacity="0.2" d="M85.6073 19.7734C83.9978 19.2265 89.623 21.0364 90.2047 19.9993C90.7865 18.9622 90.3994 17.3398 90.3994 17.3398C90.3994 17.3398 92.3325 18.7294 93.2448 21.9606C94.157 25.1918 94.1502 25.9623 94.1502 25.9623C94.1502 25.9623 93.6817 23.7027 91.409 23.0813C89.1363 22.46 89.5528 25.9645 89.5528 25.9645C89.5528 25.9645 87.8053 20.5213 85.6073 19.7734Z" fill="#C79984"/>
<path d="M47.3561 26.3351C44.4134 29.1415 40.8074 31.1615 37.7538 33.8436C34.6616 36.4579 32.0267 39.6303 30.2543 43.2727L29.8989 43.0987C31.7506 39.4428 34.4647 36.2794 37.6247 33.6922C40.7304 31.053 44.3568 29.0963 47.3584 26.3351H47.3561Z" fill="black"/>
<path d="M61.6558 0.958055C67.994 -0.74339 75.8601 -0.515174 80.7722 4.41291C81.5821 5.23678 82.2213 6.21191 82.6533 7.28255C83.0313 8.31968 83.2554 9.62119 82.6035 10.586C82.9883 9.54662 82.6035 8.44848 82.1214 7.52432C78.1577 0.937718 68.5735 0.562633 61.6648 0.958055H61.6558Z" fill="black"/>
<path opacity="0.2" d="M81.2871 48.4686C86.5201 48.4686 90.7623 43.5719 90.7623 37.5315C90.7623 31.4911 86.5201 26.5943 81.2871 26.5943C76.0542 26.5943 71.812 31.4911 71.812 37.5315C71.812 43.5719 76.0542 48.4686 81.2871 48.4686Z" fill="url(#paint16_linear_3347_117828)"/>
<path opacity="0.2" d="M57.9972 46.7317C63.2243 46.7317 67.4618 41.8417 67.4618 35.8095C67.4618 29.7774 63.2243 24.8873 57.9972 24.8873C52.7701 24.8873 48.5327 29.7774 48.5327 35.8095C48.5327 41.8417 52.7701 46.7317 57.9972 46.7317Z" fill="url(#paint17_linear_3347_117828)"/>
<path d="M90.8975 37.4363C90.8975 41.4696 89.0866 45.7966 85.3629 47.7353C78.2415 51.2896 71.652 44.4816 71.5547 37.4363C71.4777 34.6954 72.3107 31.8981 74.0447 29.7402C76.7158 26.2967 81.4604 24.9703 85.3765 27.1056C89.0866 29.0827 90.9043 33.3962 90.8952 37.4363H90.8975ZM90.8092 37.4363C90.8545 30.7073 84.2447 24.6653 77.6552 27.8784C72.9423 30.2577 70.9684 36.424 72.5779 41.3318C73.7097 45.0871 77.3541 48.1579 81.32 47.9794C86.7686 47.8415 90.85 42.6988 90.8092 37.4363Z" fill="#E6E6E6"/>
<path d="M67.4596 35.7913C67.4596 39.8337 65.6487 44.1517 61.9408 46.1243C58.0247 48.2573 53.2824 46.9332 50.609 43.4896C48.8683 41.3318 48.0353 38.5344 48.119 35.7913C48.2209 28.7483 54.8103 21.9403 61.9272 25.4923C65.66 27.4378 67.4505 31.758 67.4618 35.7913H67.4596ZM67.3736 35.7913C67.4143 30.5311 63.3307 25.3974 57.8821 25.2483C53.9162 25.072 50.265 28.1405 49.1422 31.8981C47.5305 36.8059 49.5066 42.9699 54.2195 45.3492C60.809 48.5623 67.4166 42.5225 67.3736 35.7913Z" fill="#E6E6E6"/>
<path d="M67.2148 35.4495C68.9686 34.4191 70.7208 34.8464 72.0067 35.7085C72.1888 35.8306 72.2373 36.0768 72.115 36.2586C71.9927 36.4404 71.7458 36.4889 71.5637 36.3668C70.4502 35.6202 69.0333 35.3016 67.618 36.1331C67.429 36.2442 67.1853 36.1813 67.074 35.9925C66.9627 35.8038 67.0258 35.5606 67.2148 35.4495Z" fill="#E6E6E6"/>
</g>
</g>
<defs>
<linearGradient id="paint0_linear_3347_117828" x1="15.2057" y1="77.9365" x2="62.054" y2="77.9365" gradientUnits="userSpaceOnUse">
<stop offset="0.24" stop-color="#934661"/>
<stop offset="0.57" stop-color="#592B34"/>
<stop offset="0.77" stop-color="#3C1D1D"/>
</linearGradient>
<linearGradient id="paint1_linear_3347_117828" x1="11.5838" y1="59.119" x2="56.8906" y2="59.119" gradientUnits="userSpaceOnUse">
<stop offset="0.24" stop-color="#934661"/>
<stop offset="0.57" stop-color="#592B34"/>
<stop offset="0.77" stop-color="#3C1D1D"/>
</linearGradient>
<linearGradient id="paint2_linear_3347_117828" x1="77.2134" y1="87.1261" x2="113.273" y2="24.5569" gradientUnits="userSpaceOnUse">
<stop offset="0.24" stop-color="#934661"/>
<stop offset="0.57" stop-color="#592B34"/>
<stop offset="0.77" stop-color="#3C1D1D"/>
</linearGradient>
<linearGradient id="paint3_linear_3347_117828" x1="31.266" y1="86.324" x2="49.3345" y2="64.7515" gradientUnits="userSpaceOnUse">
<stop stop-color="#9A657E"/>
<stop offset="0.11" stop-color="#945A74"/>
<stop offset="0.31" stop-color="#843D59"/>
<stop offset="0.33" stop-color="#823A56"/>
<stop offset="0.42" stop-color="#74354B"/>
<stop offset="0.65" stop-color="#582933"/>
<stop offset="0.85" stop-color="#462225"/>
<stop offset="1" stop-color="#402020"/>
</linearGradient>
<linearGradient id="paint4_linear_3347_117828" x1="65.9974" y1="70.3783" x2="65.9974" y2="60.1312" gradientUnits="userSpaceOnUse">
<stop stop-color="#A05A4A" stop-opacity="0.9"/>
<stop offset="0.2" stop-color="#9C5848" stop-opacity="0.9"/>
<stop offset="0.36" stop-color="#915143" stop-opacity="0.91"/>
<stop offset="0.52" stop-color="#7D463A" stop-opacity="0.92"/>
<stop offset="0.66" stop-color="#62372D" stop-opacity="0.94"/>
<stop offset="0.81" stop-color="#3E231D" stop-opacity="0.96"/>
<stop offset="0.94" stop-color="#140B09" stop-opacity="0.99"/>
<stop offset="1"/>
</linearGradient>
<linearGradient id="paint5_linear_3347_117828" x1="58.3691" y1="39.6348" x2="60.524" y2="33.7033" gradientUnits="userSpaceOnUse">
<stop stop-color="#A86104"/>
<stop offset="0.21" stop-color="#A66005"/>
<stop offset="0.28" stop-color="#9F5D07"/>
<stop offset="0.34" stop-color="#94570A"/>
<stop offset="0.38" stop-color="#834F0F"/>
<stop offset="0.42" stop-color="#6D4416"/>
<stop offset="0.45" stop-color="#52371E"/>
<stop offset="0.48" stop-color="#302728"/>
</linearGradient>
<linearGradient id="paint6_linear_3347_117828" x1="78.5087" y1="40.6901" x2="80.5711" y2="35.0162" gradientUnits="userSpaceOnUse">
<stop stop-color="#A86104"/>
<stop offset="0.15" stop-color="#A66005"/>
<stop offset="0.23" stop-color="#9E5C07"/>
<stop offset="0.28" stop-color="#92560B"/>
<stop offset="0.32" stop-color="#7F4D10"/>
<stop offset="0.36" stop-color="#684217"/>
<stop offset="0.4" stop-color="#4B3420"/>
<stop offset="0.43" stop-color="#302728"/>
</linearGradient>
<linearGradient id="paint7_linear_3347_117828" x1="81.671" y1="75.1067" x2="100.541" y2="86.1268" gradientUnits="userSpaceOnUse">
<stop stop-color="#51272E"/>
<stop offset="0.06" stop-color="#562932"/>
<stop offset="0.41" stop-color="#6E3246"/>
<stop offset="0.73" stop-color="#7D3852"/>
<stop offset="1" stop-color="#823A56"/>
</linearGradient>
<linearGradient id="paint8_linear_3347_117828" x1="71.6474" y1="76.1018" x2="94.6551" y2="76.1018" gradientUnits="userSpaceOnUse">
<stop offset="0.24" stop-color="#934661"/>
<stop offset="0.57" stop-color="#592B34"/>
<stop offset="0.77" stop-color="#3C1D1D"/>
</linearGradient>
<linearGradient id="paint9_linear_3347_117828" x1="69.8003" y1="56.29" x2="91.3343" y2="56.29" gradientUnits="userSpaceOnUse">
<stop offset="0.24" stop-color="#934661"/>
<stop offset="0.57" stop-color="#592B34"/>
<stop offset="0.77" stop-color="#3C1D1D"/>
</linearGradient>
<linearGradient id="paint10_linear_3347_117828" x1="84.2443" y1="51.7935" x2="101.936" y2="21.0969" gradientUnits="userSpaceOnUse">
<stop offset="0.24" stop-color="#934661"/>
<stop offset="0.57" stop-color="#592B34"/>
<stop offset="0.77" stop-color="#3C1D1D"/>
</linearGradient>
<linearGradient id="paint11_linear_3347_117828" x1="37.9777" y1="71.716" x2="49.4498" y2="71.716" gradientUnits="userSpaceOnUse">
<stop offset="0.24" stop-color="#934661"/>
<stop offset="0.57" stop-color="#592B34"/>
<stop offset="0.77" stop-color="#3C1D1D"/>
</linearGradient>
<linearGradient id="paint12_linear_3347_117828" x1="29.0886" y1="52.3403" x2="72.8807" y2="0.0553604" gradientUnits="userSpaceOnUse">
<stop offset="0.24" stop-color="#934661"/>
<stop offset="0.57" stop-color="#592B34"/>
<stop offset="0.77" stop-color="#3C1D1D"/>
</linearGradient>
<linearGradient id="paint13_linear_3347_117828" x1="72.367" y1="78.3704" x2="39.1574" y2="43.0478" gradientUnits="userSpaceOnUse">
<stop stop-color="#9A657E"/>
<stop offset="0.11" stop-color="#945A74"/>
<stop offset="0.31" stop-color="#843D59"/>
<stop offset="0.33" stop-color="#823A56"/>
<stop offset="0.42" stop-color="#74354B"/>
<stop offset="0.65" stop-color="#582933"/>
<stop offset="0.85" stop-color="#462225"/>
<stop offset="1" stop-color="#402020"/>
</linearGradient>
<linearGradient id="paint14_linear_3347_117828" x1="25.8808" y1="44.1449" x2="53.7589" y2="-1.33515" gradientUnits="userSpaceOnUse">
<stop stop-color="#9A657E"/>
<stop offset="0.11" stop-color="#945A74"/>
<stop offset="0.31" stop-color="#843D59"/>
<stop offset="0.33" stop-color="#823A56"/>
<stop offset="0.42" stop-color="#74354B"/>
<stop offset="0.65" stop-color="#582933"/>
<stop offset="0.85" stop-color="#462225"/>
<stop offset="1" stop-color="#402020"/>
</linearGradient>
<linearGradient id="paint15_linear_3347_117828" x1="50.9102" y1="88.9541" x2="31.7467" y2="68.5723" gradientUnits="userSpaceOnUse">
<stop stop-color="#9A657E"/>
<stop offset="0.11" stop-color="#945A74"/>
<stop offset="0.31" stop-color="#843D59"/>
<stop offset="0.33" stop-color="#823A56"/>
<stop offset="0.42" stop-color="#74354B"/>
<stop offset="0.65" stop-color="#582933"/>
<stop offset="0.85" stop-color="#462225"/>
<stop offset="1" stop-color="#402020"/>
</linearGradient>
<linearGradient id="paint16_linear_3347_117828" x1="81.2871" y1="26.5943" x2="81.2871" y2="48.4686" gradientUnits="userSpaceOnUse">
<stop stop-color="#60FFFF"/>
<stop offset="1" stop-opacity="0"/>
</linearGradient>
<linearGradient id="paint17_linear_3347_117828" x1="57.9972" y1="24.8873" x2="57.9972" y2="46.7317" gradientUnits="userSpaceOnUse">
<stop stop-color="#60FFFF"/>
<stop offset="1" stop-opacity="0"/>
</linearGradient>
<clipPath id="clip0_3347_117828">
<rect width="141" height="230" fill="white" transform="translate(-10)"/>
</clipPath>
</defs>
</svg>
