<svg width="125" height="149" viewBox="0 0 125 149" fill="none" xmlns="http://www.w3.org/2000/svg">
<rect x="3" y="27.5" width="121" height="121" rx="60.5" stroke="black" stroke-opacity="0.05"/>
<mask id="mask0_3347_158754" style="mask-type:luminance" maskUnits="userSpaceOnUse" x="0" y="-5" width="124" height="154">
<path d="M83.9988 144.499L79 146C78 146.5 68.5 147.999 68.5 147.999C65 148.499 60.6082 148.138 59.4988 147.999C55.4988 147.499 51.4988 146.999 47.9988 145.999C37.6205 143.034 27.4988 137.999 17.9988 126.999C5.76444 112.833 -1.50116 95.9982 1.49958 78.9985C4.01452 64.7509 11.9988 50.9981 16.9988 46.9981C7.97266 14 55 -13.4993 79 -1.50078C106 1.0007 120.705 54.7926 123.499 83.9991C123.999 126.499 93.4988 141.499 83.9988 144.499Z" fill="white"/>
</mask>
<g mask="url(#mask0_3347_158754)">
<g clip-path="url(#clip0_3347_158754)">
<path d="M26.5111 76.1775C22.3122 78.8507 17.5995 80.8548 13.9541 84.2639C11.3882 86.7394 10.5075 90.7963 11.0549 94.2845C11.2781 95.4705 11.7399 96.6687 12.7216 97.4898C11.5748 96.8664 10.8867 95.6347 10.5075 94.4183C10.0695 92.8371 9.96213 91.1833 10.192 89.5592C10.4219 87.9351 10.9841 86.3751 11.8439 84.9755C14.8685 80.6693 21.7219 78.0448 26.5233 76.1775H26.5111Z" fill="black"/>
<path d="M29.5939 73.3614C23.7191 76.582 9.08551 83.6587 15.4221 103.35C21.7588 123.042 60.5706 60.8502 60.5706 60.8502L46.9095 47.6243C46.9095 47.6243 35.4412 70.153 29.5939 73.3614Z" fill="url(#paint0_linear_3347_158754)"/>
<path d="M60.7092 60.7086L60.8238 60.8194L60.7396 60.9545L60.5706 60.8502L60.739 60.9551C60.7387 60.9556 60.7381 60.9565 60.7375 60.9575C60.7364 60.9593 60.7347 60.9622 60.7325 60.9658C60.7277 60.9733 60.7206 60.9847 60.7112 60.9996C60.6925 61.0295 60.6645 61.0741 60.6276 61.1327C60.5539 61.2499 60.4442 61.4236 60.3012 61.6491C60.0151 62.1003 59.5947 62.7593 59.0576 63.5908C57.9833 65.2539 56.4418 67.6075 54.5721 70.3701C50.833 75.8951 45.7801 83.0587 40.5279 89.6077C35.28 96.1515 29.8184 102.101 25.2616 105.18C22.9884 106.717 20.9014 107.566 19.1595 107.374C17.3857 107.178 16.0387 105.915 15.2328 103.41C12.0457 93.5063 14.1286 86.7458 17.7714 82.0583C21.402 77.3867 26.5693 74.7936 29.4977 73.1883L29.6309 73.1125C30.3024 72.7155 31.0583 72.0592 31.872 71.199C32.7379 70.2837 33.6603 69.1471 34.6062 67.8692C36.498 65.3135 38.476 62.203 40.2735 59.1889C42.0705 56.1755 43.6853 53.2617 44.8509 51.1011C45.4337 50.0209 45.9043 49.1291 46.2289 48.5075C46.3912 48.1967 46.517 47.9534 46.6022 47.7879C46.6449 47.7052 46.6775 47.6419 46.6993 47.5993C46.7102 47.5781 46.7183 47.562 46.7238 47.5512C46.7265 47.5459 46.7287 47.5417 46.7301 47.539C46.7307 47.5378 46.7312 47.5367 46.7316 47.5361C46.7317 47.5357 46.7321 47.5353 46.7322 47.5352C46.733 47.5354 46.7428 47.5403 46.86 47.5993L46.7322 47.5352L46.8543 47.2949L60.7092 60.7086ZM46.9561 47.9682C46.8706 48.1342 46.7443 48.3781 46.5816 48.6895C46.2563 49.3125 45.785 50.2059 45.2013 51.2879C44.0339 53.4517 42.4163 56.3708 40.6154 59.3906C38.8149 62.4097 36.8294 65.5328 34.9264 68.1035C33.9749 69.3889 33.042 70.5391 32.1614 71.4699C31.283 72.3985 30.4477 73.1188 29.6901 73.5345C26.7437 75.1497 21.6566 77.7055 18.0859 82.3001C14.5274 86.879 12.462 93.5027 15.6115 103.29C16.3898 105.708 17.6419 106.809 19.2034 106.981C20.7969 107.157 22.7818 106.378 25.0382 104.853C29.5408 101.81 34.9703 95.9038 40.2173 89.3612C45.4601 82.8239 50.5063 75.6701 54.2424 70.1495C56.1102 67.3896 57.6501 65.0384 58.7231 63.3773C59.2596 62.5468 59.6794 61.8885 59.9649 61.4383C60.1076 61.2132 60.2169 61.0402 60.2904 60.9233C60.2999 60.9082 60.3087 60.8938 60.317 60.8805L46.9639 47.9527C46.9613 47.9578 46.9588 47.963 46.9561 47.9682Z" fill="black"/>
<path d="M55.4237 47.0312C54.7387 37.7345 49.2859 33.2518 46.9097 30.5908C44.5334 27.9298 32.6492 40.8486 32.6492 40.8486C29.4809 49.5919 34.4199 49.8291 34.3282 54.0441C34.2364 58.2591 31.0651 59.0437 28.9243 58.8461C26.2575 58.6028 23.1137 56.7173 21.7467 52.7638C21.5601 58.2622 23.9364 61.8081 27.5022 62.5958C30.4932 63.2557 33.4413 61.8081 33.4413 61.8081C33.5074 62.848 33.3269 63.8889 32.9141 64.8466C32.5013 65.8043 31.868 66.6522 31.0651 67.3217C28.1139 69.8368 17.6089 72.0477 14.0369 74.4106C10.4649 76.7736 7.7003 85.4591 14.0369 87.2199C11.6607 83.8747 14.829 77.5612 20.3735 77.9536C28.6888 77.1659 30.377 75.2652 35.2242 71.85" fill="url(#paint1_linear_3347_158754)"/>
<path d="M55.402 47.0343C54.8913 40.2951 51.775 35.5813 47.0622 30.9497C45.0989 27.7626 34.4838 39.2064 32.7834 40.9611C32.0495 43.0899 31.1993 46.198 32.2697 48.6066C32.759 49.8534 33.6673 50.8874 34.1413 52.1556C34.8019 54.0502 34.4471 56.477 32.8874 57.8425C30.0983 60.0595 25.9025 58.6758 23.7281 56.2337C22.8189 55.2305 22.1221 54.0556 21.6791 52.779L21.8075 52.7577C21.5017 60.1294 26.2664 64.8858 33.551 61.6074C33.6551 62.7122 33.4866 63.8255 33.0603 64.8509C32.634 65.8763 31.9626 66.7829 31.1045 67.492C30.0953 68.2979 28.8995 68.8119 27.7251 69.3167C24.5782 70.6001 21.3243 71.5459 18.1621 72.7258C16.633 73.3341 14.9999 73.8906 13.6941 74.9246C10.9417 77.3301 8.94769 83.0231 11.957 85.8909C12.5713 86.4307 13.3046 86.8192 14.0977 87.0253L13.8806 87.3294C11.8285 84.2518 13.8561 79.9273 16.9786 78.4432C18.0331 77.9412 19.201 77.721 20.3671 77.8045C27.4438 77.175 29.6243 75.8795 35.2208 71.8287L35.2453 71.8591C34.1382 72.6528 33.0587 73.4831 31.9424 74.2677C29.723 75.8893 27.1655 76.9941 24.459 77.5004C23.1103 77.7711 21.7494 77.9444 20.3854 78.0934C19.2602 78.0133 18.1339 78.2327 17.1223 78.729C14.2017 80.1401 12.2995 84.2274 14.2078 87.1013L14.5137 87.5544L13.9754 87.4054C11.1527 86.6908 9.77953 84.1879 10.0731 81.3992C10.3331 78.8507 11.4677 76.3205 13.4158 74.6083C14.7675 73.5409 16.4281 72.9722 18.0031 72.3579C21.1867 71.184 24.4437 70.2473 27.5692 68.9944C29.0983 68.3436 30.7069 67.6806 31.762 66.382C32.8405 65.1124 33.3879 63.4795 33.2911 61.8203L33.4776 61.9207C32.7633 62.2394 32.017 62.482 31.2513 62.6445C26.9698 63.6328 23.3916 61.5314 22.1837 57.3438C21.7334 55.736 21.5607 54.064 21.6729 52.3989C22.4772 55.0507 24.4253 57.4167 27.0829 58.3625C29.4775 59.3022 32.8935 58.7944 33.8263 56.103C34.2911 54.8658 34.3063 53.506 33.8691 52.259C33.3951 51.0425 32.4776 50.0055 31.9577 48.7312C30.8598 46.1676 31.5877 43.2998 32.4654 40.7939C33.5021 39.6109 34.6428 38.5069 35.7621 37.3939C36.8814 36.2808 38.013 35.2468 39.1904 34.225C40.9825 32.7318 42.7838 31.1322 45.001 30.2715C45.8176 29.9917 46.6769 29.9674 47.2366 30.7703C48.2886 31.9046 49.3773 33.0146 50.3651 34.228C53.3285 37.7892 55.2583 42.4695 55.3837 47.0282L55.402 47.0343Z" fill="black"/>
<path d="M77.9961 10.0114C85.92 7.25616 92.2566 12.3744 97.8011 21.434C103.346 30.4935 102.043 44.1209 97.6023 52.7577C95.5609 56.6361 94.604 60.9885 94.8316 65.3602C94.9906 68.1398 100.572 73.9332 107.502 74.8121C114.432 75.6909 113.074 89.1875 111.477 89.7775C111.875 85.4469 107.123 82.6886 104.349 82.6886C108.707 85.0516 114.872 92.6058 112.78 96.3129C110.688 100.02 106.82 101.443 106.82 101.443C106.82 101.443 111.3 96.1882 107.141 92.0158C102.584 89.4217 104.171 89.5646 104.171 89.5646C104.171 89.5646 109.086 93.6975 107.107 97.2435C105.129 100.789 103.945 102.76 103.945 102.76L69.6074 71.26C69.6074 71.26 71.109 12.3987 77.9961 10.0114Z" fill="url(#paint2_linear_3347_158754)"/>
<path d="M77.9309 9.82464C81.9544 8.42565 85.5826 9.02781 88.8978 11.1254C92.203 13.2168 95.1925 16.7909 97.9712 21.3311C100.769 25.903 101.834 31.616 101.645 37.2608C101.457 42.9063 100.014 48.5012 97.7797 52.8476L97.7789 52.8494C95.7541 56.6961 94.8048 61.0129 95.0303 65.3489L95.0411 65.4716C95.1127 66.097 95.4626 66.8968 96.0682 67.7744C96.7104 68.7053 97.6268 69.7044 98.7558 70.6475C101.015 72.5346 104.108 74.1825 107.527 74.6161C109.334 74.8453 110.597 75.9004 111.443 77.3386C112.285 78.7711 112.72 80.5908 112.885 82.3852C113.051 84.1817 112.947 85.9692 112.7 87.3485C112.577 88.0374 112.417 88.6313 112.233 89.076C112.142 89.2982 112.042 89.4894 111.933 89.6379C111.881 89.7098 111.823 89.7758 111.76 89.8313C112.386 90.8651 112.875 91.909 113.15 92.8997C113.509 94.1922 113.513 95.4193 112.954 96.4095C111.888 98.2985 110.372 99.6023 109.127 100.433C108.503 100.848 107.946 101.146 107.544 101.341C107.343 101.438 107.181 101.509 107.068 101.557C107.011 101.581 106.967 101.598 106.937 101.61C106.922 101.616 106.91 101.621 106.902 101.624C106.898 101.625 106.895 101.626 106.893 101.627C106.892 101.628 106.891 101.628 106.89 101.628L106.89 101.628L106.889 101.629L106.178 101.89L106.668 101.315L106.669 101.315C106.669 101.315 106.67 101.314 106.671 101.313C106.673 101.311 106.675 101.307 106.679 101.302C106.687 101.293 106.699 101.279 106.714 101.26C106.745 101.222 106.79 101.165 106.845 101.091C106.957 100.943 107.113 100.725 107.287 100.451C107.636 99.9026 108.058 99.1305 108.351 98.233C108.935 96.4476 109.01 94.1853 107.018 92.173C106.827 92.0641 106.646 91.9599 106.476 91.8603C106.5 91.8951 106.524 91.9301 106.547 91.9654C107.538 93.4559 108.328 95.4641 107.281 97.3394C106.292 99.1134 105.5 100.494 104.957 101.43C104.685 101.899 104.475 102.256 104.333 102.497C104.261 102.617 104.208 102.708 104.171 102.769C104.153 102.8 104.139 102.823 104.13 102.838C104.125 102.846 104.122 102.852 104.12 102.856C104.118 102.858 104.117 102.859 104.117 102.86C104.117 102.86 104.116 102.861 104.116 102.861L104.116 102.861L103.991 103.07L103.81 102.906L69.4067 71.3445L69.4091 71.2551L69.6077 71.2601C69.409 71.2551 69.4091 71.2547 69.4091 71.2542C69.4091 71.2537 69.4091 71.253 69.4091 71.2521C69.4092 71.2503 69.4093 71.2476 69.4094 71.2441C69.4096 71.2369 69.4097 71.2262 69.41 71.212C69.4108 71.1837 69.4121 71.1415 69.4136 71.0858C69.4167 70.9742 69.4213 70.8085 69.4276 70.5925C69.4403 70.1605 69.4598 69.5267 69.4871 68.7194C69.5416 67.1047 69.6272 64.7953 69.7514 62.0167C69.9998 56.4598 70.4029 49.025 71.0213 41.5149C71.6396 34.0061 72.4737 26.4164 73.5849 20.5521C74.1403 17.621 74.7664 15.1127 75.4727 13.2587C75.8257 12.332 76.2015 11.5609 76.6034 10.9805C76.9783 10.4391 77.3883 10.0458 77.8401 9.85939L77.9309 9.82464ZM88.6845 11.459C85.4644 9.42144 81.9623 8.84174 78.062 10.198C77.6892 10.3272 77.3097 10.6578 76.931 11.2047C76.5543 11.7488 76.1916 12.4874 75.8445 13.3986C75.1505 15.2205 74.5294 17.7024 73.9755 20.6251C72.8682 26.4687 72.0356 34.0421 71.4176 41.5469C70.7997 49.0505 70.3969 56.4804 70.1486 62.0345C70.0244 64.8114 69.9388 67.1193 69.8843 68.7328C69.857 69.5395 69.8375 70.1727 69.8249 70.6041C69.8185 70.8198 69.8139 70.9852 69.8108 71.0965C69.81 71.1267 69.8093 71.153 69.8087 71.1752L103.899 102.449C103.926 102.405 103.956 102.354 103.99 102.297C104.132 102.057 104.341 101.7 104.612 101.233C105.155 100.298 105.945 98.9195 106.934 97.1475C107.866 95.4769 107.188 93.6458 106.216 92.1834C106.01 91.8737 105.792 91.584 105.578 91.3192C105.193 91.079 104.884 90.8742 104.639 90.6991C104.147 90.348 103.887 90.1019 103.777 89.9186C103.722 89.8261 103.681 89.71 103.722 89.5919C103.763 89.4717 103.865 89.4185 103.929 89.3962C103.995 89.373 104.063 89.3674 104.106 89.3659C104.129 89.3651 104.149 89.3656 104.163 89.3662C104.17 89.3665 104.176 89.3668 104.181 89.3671C104.183 89.3672 104.185 89.3673 104.186 89.3674C104.187 89.3675 104.188 89.3676 104.188 89.3677H104.189C104.19 89.368 104.189 89.3748 104.172 89.5566L104.189 89.3677L104.252 89.3733L104.3 89.4137L104.172 89.5646C104.3 89.4143 104.3 89.4137 104.3 89.4137L104.301 89.414C104.301 89.4142 104.301 89.4143 104.301 89.4146C104.302 89.4152 104.303 89.4162 104.304 89.4173C104.307 89.4195 104.311 89.4227 104.315 89.4268C104.325 89.4352 104.34 89.4476 104.358 89.4636C104.394 89.4957 104.447 89.543 104.514 89.6041C104.647 89.7262 104.834 89.9041 105.052 90.1286C105.289 90.3732 105.563 90.6744 105.845 91.0192C106.13 91.1956 106.456 91.3918 106.832 91.6096L107.24 91.8443L107.264 91.8576L107.282 91.8766C109.431 94.0323 109.344 96.4755 108.729 98.3554C108.423 99.2932 107.984 100.096 107.623 100.663C107.555 100.769 107.49 100.867 107.429 100.956C107.812 100.768 108.33 100.488 108.905 100.104C110.117 99.2958 111.581 98.0343 112.607 96.2162C113.094 95.3529 113.111 94.2455 112.767 93.0052C112.502 92.0506 112.025 91.0324 111.407 90.0145L111.251 90.0721L111.276 89.8022C111.13 89.5705 110.978 89.3388 110.82 89.1084C109.008 86.4804 106.399 84.0255 104.254 82.8622L103.569 82.491H104.349C105.79 82.491 107.716 83.2023 109.23 84.4573C110.628 85.6161 111.699 87.2597 111.699 89.2682C111.754 89.1731 111.811 89.0593 111.866 88.9261C112.035 88.5164 112.189 87.9522 112.309 87.2793C112.549 85.9346 112.651 84.1824 112.489 82.4212C112.327 80.6579 111.902 78.9018 111.1 77.5381C110.301 76.1801 109.135 75.2184 107.477 75.0081C103.966 74.5628 100.804 72.8745 98.5001 70.9504C97.3478 69.9878 96.4057 68.9626 95.7402 67.998C95.0783 67.0387 94.6762 66.1194 94.6334 65.3715V65.3703C94.4041 60.9633 95.3686 56.5759 97.4264 52.6661C99.6319 48.3759 101.061 42.8393 101.248 37.2478C101.435 31.6549 100.378 26.0243 97.6316 21.5366C94.8658 17.0174 91.9147 13.5028 88.6845 11.459ZM105.201 82.9653C107.24 84.2771 109.515 86.5167 111.147 88.8851C111.199 88.9593 111.249 89.0339 111.299 89.1084C111.243 87.3193 110.273 85.8361 108.975 84.7608C107.81 83.7952 106.401 83.1747 105.201 82.9653Z" fill="black"/>
<path d="M30.7378 86.0247C31.2638 82.8711 32.4749 78.9419 34.8419 75.5906C37.209 72.2393 42.2887 61.1665 42.2887 61.1665L39.4506 84.7049L30.7378 86.0247Z" fill="black"/>
<path d="M39.6479 84.7285L39.6297 84.8776L39.4804 84.9004L30.4966 86.2612L30.5414 85.9924C31.0706 82.8198 32.2896 78.8599 34.6789 75.477C35.8516 73.8167 37.7063 70.2259 39.274 67.0349C40.0563 65.4427 40.7648 63.955 41.2777 62.8652C41.5341 62.3204 41.7418 61.8749 41.8851 61.5659C41.9568 61.4114 42.0126 61.291 42.0503 61.2092C42.0692 61.1684 42.0834 61.137 42.093 61.116C42.0978 61.1056 42.1016 61.0978 42.1041 61.0925C42.1053 61.0899 42.1061 61.0876 42.1067 61.0863C42.107 61.0857 42.1072 61.0851 42.1073 61.0848L42.1076 61.0845L42.6381 59.9283L39.6479 84.7285ZM41.6379 63.0327C41.1243 64.1238 40.415 65.6138 39.6315 67.2086C38.0676 70.3919 36.1988 74.0132 35.0045 75.7042C32.7263 78.9297 31.5257 82.7014 30.9798 85.7881L39.271 84.5322L41.9416 62.3826C41.85 62.5785 41.749 62.7965 41.6379 63.0327Z" fill="url(#paint3_linear_3347_158754)"/>
<path opacity="0.5" d="M25.6152 95.0813C23.3429 91.5353 23.239 85.2949 24.5326 82.0834C26.1167 78.1452 29.6796 76.1775 35.2363 71.8439C38.5231 69.27 40.9565 65.7737 42.2213 61.8081L28.6887 95.6712L25.6152 95.0813Z" fill="black"/>
<path opacity="0.5" d="M42.4109 61.8678C42.1093 62.8135 41.7409 63.7324 41.3118 64.6191L28.8129 95.8962L28.651 95.8654L25.4936 95.2592L25.4476 95.1876C24.2868 93.3761 23.6878 90.8924 23.5383 88.4689C23.3889 86.0455 23.6869 83.6512 24.348 82.01L24.4253 81.8229C25.2391 79.906 26.5253 78.4508 28.2651 76.9622C30.0515 75.4337 32.3496 73.8441 35.1139 71.6883C37.596 69.7444 39.5859 67.2689 40.9469 64.4617L42.0367 61.7351L42.4109 61.8678ZM39.8881 67.1108C38.6562 68.9592 37.1307 70.612 35.3593 71.9992L35.359 71.9995C32.5665 74.1774 30.3046 75.7385 28.5244 77.2618C26.7537 78.7769 25.4927 80.2286 24.7171 82.1568C24.0846 83.727 23.7881 86.0588 23.9352 88.4449C24.0804 90.7984 24.656 93.1746 25.7382 94.9034L28.5647 95.446L39.8881 67.1108Z" fill="black"/>
<path d="M45.9188 45.8513C45.5426 53.7187 42.726 67.4799 45.509 67.3004C48.292 67.121 78.0851 69.8063 81.5959 69.0521C85.1068 68.2979 88.0641 57.6661 88.9662 48.0166C89.8684 38.367 86.5197 34.8241 77.3083 35.0218C68.097 35.2195 46.7109 29.3105 45.9188 45.8513Z" fill="#010001"/>
<path d="M90.4889 57.8638C90.6541 62.2491 90.0975 72.0477 93.2597 76.7675C95.6359 80.3104 97.0274 84.714 96.428 89.37C95.8286 94.026 84.1187 80.6359 84.1187 80.6359L90.4889 57.8638Z" fill="#010001"/>
<path d="M32.8388 158.012C32.4535 166.758 34.0376 178.573 46.9066 176.8C59.7756 175.027 91.7676 178.034 96.2204 167.451C100.673 156.868 93.0459 94.7103 85.5166 87.2138C77.9873 79.7174 71.2592 75.4994 58.7847 77.4122C46.3103 79.3251 35.5943 91.9306 32.8327 95.0813C30.0711 98.2319 32.8388 158.012 32.8388 158.012Z" fill="#F4F4F4"/>
<path d="M44.5853 75.2895C36.3281 78.7321 22.398 88.3664 22.398 88.3664L21.5845 92.7822C21.5845 92.7822 11.838 117.558 9.85929 118.346C7.88062 119.134 -3.67026 126.861 -3.67026 126.861L-5.47461 142.109C-5.47461 142.109 -1.86591 152.425 10.3088 155.563C18.985 157.799 30.6032 144.351 30.6032 144.351C30.6032 144.351 28.7988 157.805 28.7988 167.223C28.7988 169.51 29.0251 195.253 29.0251 195.253C29.0404 197.011 55.4084 194.131 64.4271 190.083C65.6167 181.812 64.2527 118.732 64.2527 115.189C64.2527 111.646 65.3292 83.3485 65.3292 83.3485C65.3292 83.3485 55.3013 74.663 52.133 72.7045C48.9647 70.746 44.5853 75.2895 44.5853 75.2895Z" fill="#464450"/>
<path d="M44.6158 75.326C36.8051 78.9359 29.6611 83.7834 22.5599 88.5884L22.6731 88.4151L21.884 92.8339C20.5721 96.2947 19.1745 99.722 17.7585 103.14C16.3426 106.559 14.9021 109.931 13.3333 113.273C12.4342 115.055 11.6818 116.95 10.3515 118.477C5.6021 121.101 1.08511 124.188 -3.45634 127.174L-3.29425 126.907L-5.14447 142.149V142.006C-3.8884 145.05 -1.98187 147.785 0.443019 150.023C2.86791 152.261 5.75317 153.948 8.89885 154.967C13.4862 156.835 18.2998 154.46 22.0737 151.838C25.2973 149.55 28.2355 146.889 30.8263 143.91L30.7712 144.375C29.6641 153.353 28.8109 162.4 29.0678 171.441C29.1412 178.39 29.2482 188.286 29.3216 195.223V195.244C29.3216 195.244 29.3063 195.19 29.3216 195.193C29.3393 195.209 29.3601 195.223 29.3828 195.232C29.4673 195.27 29.5554 195.3 29.6458 195.32C30.5214 195.467 31.4101 195.522 32.2973 195.485C35.916 195.372 39.5259 195.065 43.1111 194.563C48.5089 193.83 53.8974 192.906 59.1545 191.485C60.8962 191.027 62.602 190.444 64.2587 189.74L64.0201 190.044C64.2709 187.87 64.3076 185.628 64.3688 183.429C64.5064 176.763 64.4697 170.094 64.4269 163.425C64.3841 147.121 63.8825 129.705 63.8611 113.365C64.1883 103.368 64.6073 93.3417 65.0538 83.3516L65.1486 83.5705C60.9191 79.9486 56.7691 76.1988 52.2368 72.957C49.6955 71.2022 46.5027 73.5652 44.6096 75.326H44.6158ZM44.5638 75.253C46.3559 73.5165 49.0379 71.4151 51.6802 72.3183C53.1329 73.0178 54.3531 74.1126 55.6559 75.0554C59.02 77.6707 62.277 80.4047 65.5217 83.16L65.6196 83.2421V83.3759L64.8 110.053C64.7663 112.06 64.644 114.736 64.7143 116.704C65.0783 138.785 65.6563 161.393 65.2251 183.448C65.1486 185.768 65.115 188.061 64.8153 190.378C61.3595 191.899 57.6896 192.693 54.0228 193.462C48.6449 194.528 43.2126 195.301 37.7501 195.78C36.5604 195.831 28.6702 196.692 28.7497 195.256C28.7497 194.007 28.7161 189.125 28.71 187.76C28.6886 184.047 28.6427 175.015 28.6213 171.45C28.5999 167.886 28.5907 164.152 28.8445 160.572C29.2034 155.143 29.7416 149.731 30.4593 144.336L30.7131 144.448C29.4387 145.865 28.0902 147.214 26.6732 148.49C22.67 152.021 17.2203 156.278 11.587 155.941C3.9843 154.724 -2.8294 149.284 -5.78363 142.213L-5.80811 142.149V142.067L-4.05269 126.816L-4.03433 126.645C-0.138167 124.054 3.74882 121.454 7.75508 119.042C8.38819 118.649 9.04376 118.293 9.71846 117.975C10.4341 117.279 10.8622 116.299 11.3699 115.396C11.7899 114.585 12.1977 113.766 12.5932 112.939C15.7431 106.306 18.5047 99.4727 21.2938 92.6788C21.2357 92.9312 22.1256 88.2813 22.1134 88.3208L22.1348 88.2083C29.3216 83.455 36.6093 78.6804 44.5454 75.2591L44.5638 75.253Z" fill="black"/>
<path d="M122.49 163.288C122.041 171.499 116.068 186.735 116.068 186.735C116.068 186.735 105.242 191.218 97.1253 188.976C93.9662 168.348 83.3634 120.584 83.3634 120.584C83.3634 120.584 68.4912 95.4736 66.0233 85.1763C64.6012 79.2612 74.2407 74.8212 79.7852 74.6113C86.9139 76.7675 103.098 90.4253 105.474 92.7791L104.557 98.1589L108.165 130.897C110.089 136.003 116.579 147.462 120.166 153.651C121.864 156.571 122.671 159.919 122.49 163.288Z" fill="#464450"/>
<path d="M122.536 163.291C122.062 169.373 120.111 175.249 118.255 181.036C117.606 182.985 116.927 184.926 116.2 186.851C113.175 188.097 110.021 189.006 106.796 189.56C103.493 190.102 100.031 190.199 96.7768 189.299C95.8961 183.472 94.8104 177.673 93.7186 171.873C90.5687 154.97 86.9905 137.417 83.2198 120.618C78.3939 112.407 73.4335 103.587 69.311 94.7863C67.9813 92.012 66.849 89.1483 65.9225 86.2163L65.6778 85.304C65.5979 84.9877 65.5457 84.6652 65.5219 84.34C65.3384 80.2952 69.2376 77.6099 72.516 76.068C74.7926 74.9907 77.2521 74.347 79.767 74.1704H79.8404L79.9077 74.1917C82.4889 75.031 84.7642 76.4299 87.0334 77.841C91.4619 80.7327 95.7217 83.8722 99.7922 87.2442C101.902 88.9868 103.991 90.6929 105.97 92.6027L105.93 92.843L105.013 98.2228V98.0981C106.169 108.529 107.407 120.402 108.45 130.854C109.368 133.248 110.897 136.328 112.181 138.871C114.22 142.842 116.347 146.777 118.564 150.673L119.671 152.617C121.662 155.785 122.772 159.529 122.524 163.261L122.536 163.291ZM122.448 163.291C122.665 159.553 121.53 155.865 119.533 152.723C118.845 151.552 116.894 148.14 116.169 146.905C113.248 141.693 110.202 136.529 107.887 131.009C107.883 130.986 107.883 130.962 107.887 130.939L106.909 122.762C106.016 115.159 104.945 105.841 104.11 98.2197V98.1559V98.092L105.006 92.7092L105.138 93.1136C101.306 89.5616 97.1438 86.3076 92.9785 83.1387C89.8286 80.794 86.6205 78.501 83.1922 76.6063C82.0695 75.9718 80.8888 75.4443 79.6661 75.031L79.8099 75.0493C75.0054 75.1922 65.0631 79.17 66.3996 85.1519C67.2192 88.3938 68.5403 91.4714 69.8921 94.5369C73.9259 103.438 78.611 112.057 83.5164 120.514C88.2261 142.639 93.8532 166.654 97.523 188.916L97.2172 188.59C98.7463 188.996 100.32 189.213 101.902 189.235C105.102 189.236 108.288 188.827 111.383 188.019C112.938 187.632 114.469 187.158 115.97 186.598L115.885 186.683C117.371 182.906 118.723 179.081 119.888 175.179C121.053 171.277 122.114 167.342 122.411 163.291H122.448Z" fill="black"/>
<path d="M35.7899 105.561C35.5299 110.305 35.1049 115.576 34.6614 120.332C34.432 123.616 34.218 126.916 33.7929 130.188C33.5543 131.833 33.38 133.427 33.1812 135.084C32.7439 138.357 31.9579 141.665 30.3677 144.579C32.0589 139.92 32.3372 134.935 33.0222 130.091C33.5146 126.42 33.7378 122.728 34.0865 119.039C34.6431 114.572 35.1446 110.016 35.7807 105.561H35.7899Z" fill="black"/>
<path d="M50.5975 103.304C46.0958 103.052 44.9734 103.286 42.325 103.304C41.1629 103.304 39.3769 103.116 39.2821 103.575C39.0282 104.834 39.1108 106.796 39.0282 107.942C38.9946 108.414 38.3554 109.143 40.2515 109.305C43.5238 109.584 48.995 109.381 50.9216 109.381C52.8483 109.381 51.6403 105.631 51.8911 104.32C51.9339 104.056 52.2611 103.399 50.5975 103.304Z" fill="#605E6A"/>
<path d="M50.5977 103.329C47.5394 103.073 44.5271 103.548 41.4658 103.481C40.909 103.44 40.3498 103.44 39.793 103.481C39.6704 103.488 39.552 103.528 39.4505 103.596C39.299 104.329 39.207 105.072 39.1752 105.82C39.1171 106.589 39.1752 107.34 39.0774 108.1C38.9734 108.444 38.8755 108.818 39.2761 108.979C39.6201 109.109 39.9849 109.175 40.3526 109.174C41.8634 109.259 43.3833 109.259 44.9033 109.247C46.885 109.247 48.9065 109.156 50.8943 109.137C52.4234 109.216 51.5732 105.613 51.7659 104.591C51.7906 104.402 51.8284 104.215 51.879 104.031C51.9219 103.405 51.0625 103.368 50.5977 103.317V103.329ZM50.5977 103.286C51.1053 103.326 52.0044 103.362 51.9953 104.053C51.6405 105.5 53.1941 108.967 51.2276 109.578C51.0255 109.61 50.8205 109.622 50.616 109.612C47.1939 109.636 43.7595 109.755 40.3374 109.438C39.4933 109.341 38.481 109.198 38.9336 108.079C39.1202 106.58 38.8878 105.038 39.1232 103.533C39.3312 102.894 40.9337 103.122 41.4842 103.095C44.5424 103.095 47.5333 103.049 50.6038 103.286H50.5977Z" fill="black"/>
<path d="M51.1326 111.488C46.6309 111.236 44.5452 111.47 41.8937 111.488C40.7316 111.488 38.9456 111.303 38.8355 111.762C38.5817 113.021 38.6031 114.979 38.5297 116.126C38.4961 116.597 37.8569 117.342 39.753 117.491C43.0283 117.771 49.0102 117.567 50.9399 117.567C52.8697 117.567 52.1632 113.818 52.4201 112.507C52.469 112.239 52.784 111.579 51.1326 111.488Z" fill="#605E6A"/>
<path d="M51.133 111.509C47.9494 111.278 44.7994 111.646 41.6128 111.674L40.4231 111.64C39.9522 111.655 39.4078 111.564 39.0194 111.792C38.7558 113.18 38.6217 114.589 38.6188 116.001C38.6049 116.202 38.568 116.401 38.5087 116.594C38.4802 116.674 38.4749 116.76 38.4933 116.843C38.5116 116.926 38.553 117.002 38.6127 117.063C38.931 117.263 39.3003 117.368 39.6769 117.367C41.2519 117.464 42.8391 117.464 44.4233 117.452C46.5885 117.452 48.7965 117.364 50.9648 117.339C51.9496 117.303 52.0321 116.029 52.1269 115.25C52.2431 114.295 52.1606 113.258 52.4052 112.303C52.5398 111.631 51.607 111.564 51.133 111.522V111.509ZM51.133 111.467C51.5917 111.513 52.2523 111.506 52.4939 111.993C52.5887 112.297 52.4389 112.601 52.4603 112.89C52.396 114.307 53.0964 117.619 50.9709 117.789C48.7965 117.808 46.5916 117.844 44.4202 117.823C42.8299 117.802 41.2397 117.765 39.6494 117.598C39.1723 117.519 38.4506 117.458 38.3252 116.883C38.6524 115.186 38.4322 113.441 38.6799 111.713C38.8665 111.135 39.9613 111.284 40.4262 111.248L41.6158 111.275C44.7719 111.224 47.9739 111.242 51.133 111.455V111.467Z" fill="black"/>
<path d="M34.4379 104.664C34.0403 102.301 28.4927 91.9306 24.1348 89.5677L34.4379 104.664Z" fill="#464450"/>
<path d="M34.4379 104.664C33.9302 103.21 33.1137 101.887 32.3767 100.543C31.6396 99.199 30.817 97.8943 29.979 96.6079C28.7673 94.6573 27.3869 92.8156 25.8535 91.1034C25.3348 90.5345 24.7589 90.0199 24.1348 89.5677C28.3887 91.3923 33.7253 100.184 34.4379 104.664Z" fill="black"/>
<path d="M104.339 93.4543C99.3791 97.0398 99.3791 98.834 98.0273 111.397L104.339 93.4543Z" fill="#464450"/>
<path d="M104.339 93.4543C100.306 96.7995 99.9815 99.1017 99.2292 104.059C98.8745 106.434 98.5197 109.049 98.0273 111.391C98.0273 109.733 98.1252 108.082 98.2536 106.434C98.3685 104.782 98.5665 103.136 98.8469 101.504C99.1528 99.8589 99.584 98.1589 100.553 96.7478C101.523 95.3367 102.896 94.3149 104.339 93.4634V93.4543Z" fill="black"/>
<path d="M97.8013 111.169C98.2508 116.999 99.153 138.974 100.957 144.804L97.8013 111.169Z" fill="#464450"/>
<path d="M97.8013 111.169C98.8319 121.679 99.0246 132.277 100.532 142.736C100.633 143.432 100.801 144.114 100.957 144.804C99.4497 139.357 99.1897 133.658 98.679 128.056C98.2937 122.61 98.0153 116.643 97.8013 111.169Z" fill="black"/>
<path d="M88.8652 79.5319C97.1224 82.9745 109.41 92.8278 109.41 92.8278V96.3646C109.41 96.3646 131.001 123.784 132.983 124.571C134.13 125.027 136.347 126.542 138.002 127.737C139.372 128.726 140.531 129.974 141.415 131.411L143.485 134.783C143.807 135.304 144.02 135.884 144.11 136.489C144.2 137.094 144.165 137.711 144.008 138.302C142.785 142.967 139.237 155.028 134.176 160.061C127.833 166.369 121.888 167.156 121.888 167.156L122.68 174.251C122.68 174.251 117.986 180.032 117.756 180.878C117.527 181.723 116.291 194.581 116.291 194.581C116.291 194.581 100.957 194.581 92.266 189.509C92.8409 165.879 86.2107 127.33 86.2107 123.781C86.2107 120.231 81.1127 94.4365 81.1127 94.4365C81.1127 94.4365 76.1155 83.7591 79.2777 81.7884C82.4399 79.8178 88.8652 79.5319 88.8652 79.5319Z" fill="#464450"/>
<path d="M88.8744 79.4863C92.6819 81.0616 96.1775 83.2147 99.6149 85.4469C103.052 87.6791 106.343 90.0999 109.585 92.6149L109.689 92.694V92.8278L109.713 96.3646L109.649 96.1791C117.206 105.43 124.426 115.016 132.586 123.759C132.742 123.913 132.911 124.054 133.09 124.182C133.533 124.382 133.964 124.604 134.384 124.848C136.086 125.869 137.712 127.012 139.249 128.266C140.778 129.547 141.812 131.341 142.809 133.026C142.947 133.229 143.632 134.406 143.757 134.592C144.099 135.15 144.325 135.77 144.42 136.416C144.516 137.063 144.48 137.722 144.314 138.354C142.308 145.376 139.46 154.472 134.5 159.946C132.44 162.061 130.068 163.851 127.466 165.256C125.728 166.203 123.859 166.89 121.918 167.293L122.041 167.135L122.848 174.23V174.294C121.405 176.119 119.949 177.919 118.622 179.817C118.227 180.361 117.854 180.914 117.842 181.599C117.738 182.478 117.695 182.879 117.612 183.648C117.233 187.298 116.897 190.947 116.56 194.618L116.539 194.858H116.297C108.328 194.679 99.15 193.709 92.0703 189.864L91.8715 189.752V189.515C91.9999 169.717 89.0549 149.594 86.4768 129.969C86.171 127.637 85.8315 124.848 85.6908 122.512C84.4676 113.121 82.547 103.822 80.8558 94.5035C80.0631 92.7368 79.3908 90.9192 78.8435 89.0628C78.3297 87.1743 77.8098 85.2067 78.1952 83.233C78.2527 82.9128 78.3757 82.6077 78.5567 82.3367C78.7377 82.0657 78.9727 81.8346 79.2472 81.6577L79.5744 81.4813C82.4522 80.055 85.7061 79.7053 88.8775 79.4985L88.8744 79.4863ZM88.8591 79.5745C85.7612 79.8482 82.5011 80.2587 79.712 81.7215C79.3976 81.8646 79.1239 82.0832 78.9157 82.3577C78.7075 82.6322 78.5713 82.9539 78.5193 83.2938C78.1952 85.1732 78.7456 87.1165 79.2625 88.926C79.8489 90.7932 80.5537 92.6215 81.3726 94.4001C83.1464 103.219 84.9416 112.039 86.3239 120.925C86.6297 122.874 86.6633 124.909 86.963 126.886C87.2322 128.753 88.6848 139.607 88.9784 141.723C90.4219 152.611 91.6758 163.559 92.3425 174.528C92.6483 179.525 92.7767 184.524 92.6789 189.533L92.4801 189.18C97.8503 192.185 104.08 193.286 110.147 193.949C112.193 194.153 114.255 194.295 116.304 194.332L116.038 194.569C116.463 190.464 116.882 186.337 117.377 182.237L117.469 181.55C117.493 181.063 117.656 180.592 117.94 180.194C118.319 179.61 118.735 179.053 119.163 178.5C120.276 177.028 121.42 175.583 122.579 174.151L122.545 174.266L121.766 167.172L121.75 167.038L121.891 167.013C127.16 166.007 133.069 161.843 136.093 157.452C139.32 152.586 141.194 146.939 142.867 141.377C143.133 140.44 143.396 139.503 143.638 138.56C143.772 138.118 143.846 137.66 143.858 137.198C143.86 136.4 143.633 135.618 143.204 134.945C143.133 134.817 142.338 133.561 142.234 133.387C141.775 132.655 141.155 131.624 140.671 130.936C139.844 129.773 138.821 128.761 137.647 127.944C136.479 127.141 135.222 126.226 134.005 125.532C133.527 125.255 133.2 125.1 132.686 124.854C132.266 124.546 131.877 124.199 131.524 123.817C124.925 116.664 118.921 108.76 112.814 101.182L109.175 96.5471L109.111 96.465V96.3646L109.135 92.8278L109.239 93.0407C106.055 90.4952 102.768 88.0623 99.4069 85.7419C96.046 83.4215 92.5718 81.238 88.8591 79.5654V79.5745Z" fill="black"/>
<path opacity="0.5" d="M110.389 117.476C111.38 123.586 112.967 126.347 114.949 128.71C117.423 131.666 119.9 132.764 119.9 132.764C119.9 132.764 110.114 137.776 109.001 140.537C105.435 124.374 105.025 129.106 104.643 122.728C104.643 122.728 107.615 118.659 107.615 115.506C108.01 119.055 107.508 121.418 107.508 121.418C107.508 121.418 109.991 119.842 110.389 117.476Z" fill="#1A1A1A"/>
<path d="M118.692 133.363C120.362 132.147 122.362 131.538 124.328 130.985C126.337 130.501 128.432 130.073 130.5 130.614L131.803 130.979C128.854 131.283 125.836 131.937 123.276 133.479C122.878 133.709 122.512 133.993 122.191 134.321C122.093 134.44 121.986 134.58 122.053 134.646C122.087 134.671 122.124 134.691 122.163 134.704C122.599 134.782 123.045 134.791 123.484 134.732C124.735 134.613 126.007 134.428 127.292 134.315C129.212 134.139 131.286 134.011 133.154 134.689C134.995 135.364 136.709 136.34 138.225 137.578C139.222 138.393 140.225 139.239 140.943 140.315L140.876 140.358C139.124 138.563 136.879 137.225 134.637 136.131C132.338 134.981 129.876 134.881 127.353 135.072C126.084 135.148 124.818 135.303 123.515 135.334C122.921 135.313 122.172 135.407 121.68 134.96C120.457 133.366 129.175 130.827 130.371 130.605L130.347 131.14C129.378 131 128.394 130.994 127.423 131.125C125.429 131.357 123.461 131.77 121.542 132.357C120.572 132.628 119.629 132.986 118.723 133.424L118.68 133.36L118.692 133.363Z" fill="black"/>
<path d="M116.334 136.781C114.918 136.745 113.643 137.536 112.404 138.123C111.147 138.761 109.943 139.499 108.805 140.33C110.114 138.731 114.239 136.194 116.334 136.781Z" fill="black"/>
<path d="M132.998 145.464C130.374 144.387 126.438 143.162 123.714 142.231C122.184 141.72 118.209 140.406 116.71 139.914C115.933 139.649 115.151 139.403 114.368 139.157C117.571 139.898 120.736 140.799 123.848 141.857C126.949 142.924 130.084 143.965 133.023 145.464H132.998Z" fill="black"/>
<path d="M108.805 140.34C111.533 140.364 114.588 140.367 116.732 142.31C115.534 141.654 114.235 141.203 112.887 140.975C111.539 140.717 110.135 140.689 108.805 140.34Z" fill="black"/>
<path d="M103.639 114.718C104.034 119.447 104.826 125.362 105.621 128.12L103.639 114.718Z" fill="#464450"/>
<path d="M103.639 114.718C104.593 119.064 105.055 123.701 105.621 128.12C104.722 126.019 104.324 123.753 103.991 121.509C103.666 119.261 103.548 116.987 103.639 114.718Z" fill="black"/>
<path d="M129.023 146.647C128.442 145.613 116.735 150.552 116.735 150.552C116.735 150.552 121.49 160.441 121.096 167.536C125.072 167.536 132.986 164.65 132.986 164.65C132.986 164.65 134.567 156.5 129.023 146.647Z" fill="#615E6A"/>
<path d="M129.001 146.656C128.827 146.461 128.487 146.534 128.249 146.55C127.447 146.688 126.657 146.892 125.888 147.158C123.824 147.836 121.817 148.678 119.805 149.481L116.79 150.713L116.881 150.476C118.107 153.168 119.111 155.955 119.885 158.808C120.655 161.655 121.267 164.587 121.187 167.543L121.083 167.43C123.114 167.363 125.114 166.843 127.071 166.314C129.029 165.785 130.986 165.146 132.9 164.453L132.769 164.611C132.985 163.08 133.034 161.53 132.916 159.988C132.597 155.314 131.258 150.764 128.992 146.656H129.001ZM129.035 146.635C131.322 150.731 133.01 155.256 133.316 159.964C133.452 161.578 133.4 163.203 133.16 164.805C129.243 166.104 125.246 167.485 121.083 167.643H120.97V167.53C121.038 166.064 120.954 164.594 120.72 163.145C120.013 158.79 118.383 154.63 116.557 150.628L116.484 150.467L116.649 150.394C119.657 149.128 122.728 148.019 125.851 147.07C126.769 146.817 127.686 146.495 128.64 146.486C128.711 146.481 128.783 146.492 128.849 146.518C128.915 146.544 128.975 146.585 129.023 146.638L129.035 146.635Z" fill="black"/>
<path d="M105 123.507C105.658 127.141 106.444 130.754 107.318 134.339C107.786 136.067 108.141 137.949 108.899 139.549C110.373 142.161 112.159 144.615 113.841 147.106C115.126 149.299 116.484 151.497 117.655 153.751C118.53 155.393 119.334 157.075 120.044 158.805C120.747 160.581 121.429 162.351 121.49 164.31L121.576 168.157L120.579 164.431C119.218 159.566 115.508 155.779 112.074 152.227C111.556 151.713 111.065 151.172 110.603 150.606L110.667 150.552C114.949 154.463 119.817 158.395 121.475 164.191L120.557 164.31C120.519 163.428 120.368 162.554 120.108 161.71C119.362 159.064 118.193 156.54 117.022 154.064C115.398 150.771 113.854 147.355 111.646 144.384C110.588 142.864 109.447 141.395 108.413 139.823C107.942 138.993 107.57 138.113 107.303 137.198C106.508 134.522 105.905 131.793 105.499 129.033C105.198 127.2 105.003 125.352 104.915 123.498H105V123.507Z" fill="black"/>
<path d="M100.902 112.057C100.902 109.66 104.664 98.5238 108.572 95.4796L100.902 112.057Z" fill="#464450"/>
<path d="M100.902 112.057C100.865 107.526 104.667 97.9795 108.572 95.4796C108.032 96.029 107.55 96.6311 107.132 97.277C105.901 99.2164 104.843 101.259 103.97 103.381C102.817 106.178 101.523 109.095 100.911 112.057H100.902Z" fill="black"/>
<path d="M32.4075 134.935C30.9946 138.281 29.0435 141.349 27.0709 144.363C25.0984 147.377 22.9515 150.324 20.5264 153.009C22.6671 150.111 24.6855 147.112 26.6948 144.117C28.704 141.121 30.6888 138.104 32.4075 134.932V134.935Z" fill="black"/>
<path d="M6.47655 137.39C6.92611 134.251 7.82828 124.386 7.82828 124.386C-0.288228 123.936 -2.29748 122.035 -7.053 119.003C-7.47504 123.461 -8.19371 131.73 -8.38332 132.414C-8.38838 132.43 -8.38907 132.447 -8.3853 132.463C-8.38153 132.479 -8.37345 132.494 -8.36192 132.506C-5.60035 135.389 -1.59714 137.39 6.47655 137.39Z" fill="#615E6A"/>
<path d="M-0.0707571 129.008C1.26263 127.6 3.52876 128.199 4.51657 129.717C5.46767 130.86 3.97832 131.992 2.92324 132.274C1.69995 132.579 0.415494 131.779 -0.0860537 130.684C-0.321536 130.17 -0.474442 129.467 -0.0707571 129.008ZM-0.0432342 129.033C-0.709925 129.978 0.568409 131.192 1.33296 131.63C1.67564 131.831 2.06642 131.937 2.46451 131.937C2.86259 131.937 3.25337 131.831 3.59604 131.63C4.05172 131.383 4.62054 131.079 4.69394 130.523C4.6236 128.896 1.02408 127.746 -0.0432342 129.023V129.033Z" fill="black"/>
<path d="M53.8301 148.167C55.0167 148.56 78.1827 152.65 78.1827 151.753C78.1827 147.27 70.0661 95.6956 70.0661 95.6956C70.0661 95.6956 55.0136 90.112 54.7322 88.9686C54.0197 85.97 53.8301 115.426 54.2796 123.942C54.6283 130.495 53.8301 148.167 53.8301 148.167Z" fill="url(#paint4_linear_3347_158754)"/>
<path d="M53.8671 148.14H53.9068L53.9833 148.158C54.6164 148.295 55.6867 148.462 56.3351 148.578C62.9347 149.618 69.8738 150.816 76.5193 151.467C77.0017 151.522 77.4885 151.527 77.972 151.482C77.972 151.482 77.9719 151.482 77.9261 151.51C77.9112 151.52 77.8978 151.532 77.8863 151.546C77.8376 151.603 77.8114 151.675 77.8129 151.75V151.732C77.553 148.006 76.2838 139.728 75.8098 135.893C74.5192 126.125 73.0574 115.411 71.4671 105.75L69.7912 95.726L69.9686 95.9419C65.4455 94.2936 60.9255 92.6453 56.5522 90.6108C55.8458 90.2428 55.0812 89.9356 54.4971 89.367C54.421 89.2848 54.3637 89.1873 54.3289 89.0811C54.3075 89.002 54.3044 88.9929 54.2983 88.9746C54.3108 89.0021 54.3284 89.0269 54.3503 89.0476C54.3884 89.0847 54.433 89.1145 54.4818 89.1358C54.5708 89.1671 54.668 89.1671 54.757 89.1358C54.8134 89.1173 54.8647 89.0861 54.9069 89.0446C54.9243 89.0282 54.9397 89.0098 54.9528 88.9899C54.96 88.9804 54.9661 88.9702 54.9711 88.9594C54.8668 89.5861 54.8055 90.2191 54.7876 90.8541C54.4298 100.379 54.5001 109.946 54.5613 119.48C54.5919 122.664 54.7846 125.867 54.7112 129.042C54.5919 135.392 54.3075 141.781 53.8671 148.116V148.14ZM53.7937 148.192C53.9007 142.517 54.0506 134.646 54.0169 129.063C54.0383 125.873 53.7906 122.707 53.7111 119.523C53.6316 116.339 53.5888 113.137 53.5674 109.959C53.5674 103.572 53.5918 97.2161 53.9313 90.8267C53.9465 90.0949 54.0357 89.3664 54.1974 88.6523L54.2157 88.6158C54.2251 88.5946 54.2364 88.5742 54.2494 88.555C54.2684 88.5241 54.291 88.4955 54.3166 88.4698C54.3666 88.4182 54.4286 88.3796 54.4971 88.3573C54.6195 88.3232 54.7505 88.3382 54.862 88.399C54.9735 88.4599 55.0566 88.5617 55.0934 88.6827C55.121 88.7587 55.1393 88.8469 55.1454 88.8621C55.1271 88.8013 55.124 88.8195 55.1454 88.8317C55.6953 89.2545 56.2939 89.6108 56.9284 89.8931C61.2343 91.9611 65.7269 93.6823 70.1735 95.4371L70.3264 95.4979L70.3509 95.653C71.1858 101.611 72.4243 109.886 73.3235 115.74C75.0881 127.463 77.3787 139.108 78.5224 150.923L78.5622 151.57V151.735C78.5691 151.846 78.5317 151.955 78.4582 152.039C78.3869 152.113 78.2973 152.168 78.1983 152.197C77.6019 152.331 77.0392 152.221 76.4704 152.197C75.6141 152.124 74.7669 152.017 73.9198 151.908C72.2286 151.689 70.5558 151.421 68.8646 151.139C65.5005 150.573 62.1549 149.98 58.8183 149.314C57.5125 149.046 55.4084 148.633 54.1362 148.313C54.0218 148.289 53.9102 148.253 53.8029 148.207L53.7937 148.192Z" fill="black"/>
<path d="M69.8766 116.971C67.898 114.608 64.5431 106.732 62.8427 101.416C61.1424 96.1 60.9436 91.7907 60.6531 90.2033C60.3625 88.6158 69.1029 87.2473 71.6626 92.2621C74.2224 97.277 69.8766 116.971 69.8766 116.971Z" fill="#258052"/>
<path d="M83.1495 145.026C86.6572 144.53 92.6299 142.338 92.6299 142.338C92.6299 142.338 89.9234 126.639 87.6695 116.774C85.9905 109.435 82.8834 94.8775 80.9047 85.8301C78.926 76.7827 68.6168 91.2008 67.8247 94.3453C67.0327 97.4898 71.883 142.699 71.883 145.47C71.8677 145.476 79.9873 145.476 83.1495 145.026Z" fill="url(#paint5_linear_3347_158754)"/>
<path d="M83.1495 144.992C86.3881 144.451 89.5167 143.368 92.5841 142.228L92.5046 142.368C91.9969 139.722 91.475 137.079 90.9388 134.44C88.2261 121.338 85.4737 107.954 82.7336 94.8805C82.1739 92.2469 81.5684 89.6194 80.9873 86.9888C80.4399 83.8594 79.2961 81.7732 76.0024 84.0754C73.8617 85.6476 72.1644 87.8038 70.6444 89.9721C69.8806 91.061 69.1988 92.2045 68.6046 93.3934C68.3832 93.803 68.2342 94.2474 68.1642 94.7072C68.1199 95.5267 68.1199 96.348 68.1642 97.1675C68.9685 111.172 70.883 127.415 71.7882 141.437C71.8769 142.785 71.9962 144.117 72.0298 145.485L71.8708 145.327C75.6263 145.36 79.4032 145.409 83.1403 144.992H83.1495ZM83.1495 145.081C79.4062 145.516 75.6324 145.522 71.8677 145.64H71.7209C71.6445 144.263 71.4732 142.864 71.3295 141.474C69.9502 129.44 68.6902 117.358 67.8125 105.284C67.6199 102.593 67.4364 99.9045 67.3446 97.1979C67.3232 95.8233 67.1795 94.3118 67.9165 93.0741C69.6505 89.7288 73.9412 83.8594 77.6111 82.7859C80.2839 82.123 80.9292 84.9512 81.2809 86.9249C83.4706 97.4351 86.0426 107.979 88.428 118.455C89.5503 123.47 90.6054 129.264 91.4403 134.345C91.8807 137.007 92.3099 139.668 92.7278 142.328L92.7462 142.432L92.6483 142.465C89.5289 143.493 86.3943 144.555 83.1403 145.084L83.1495 145.081Z" fill="black"/>
<path d="M64.1363 65.345C54.6252 64.8736 43.741 65.345 43.741 65.345C43.741 65.345 43.5422 69.8732 53.4417 71.8439C63.3411 73.8146 83.2562 68.0334 83.2562 68.0334C83.2562 68.0334 68.0967 65.5427 64.1363 65.345Z" fill="#247D50"/>
<path d="M50.369 64.9707C54.2809 64.9117 59.3846 64.9117 64.1462 65.1477L64.5518 65.1729C66.7358 65.3313 71.1982 65.9615 75.2113 66.5679C77.3545 66.8916 79.3737 67.2094 80.8571 67.446C81.5988 67.5644 82.2066 67.6623 82.629 67.7309C82.8402 67.7651 83.0052 67.7918 83.1173 67.8101C83.1733 67.8193 83.216 67.8265 83.2448 67.8312C83.2593 67.8336 83.2704 67.8354 83.2777 67.8366C83.2812 67.8372 83.2839 67.8375 83.2858 67.8378C83.2866 67.8379 83.2874 67.838 83.2878 67.8381L83.2884 67.8384C83.2884 67.8392 83.2864 67.8516 83.2562 68.0335L83.3117 68.2233C83.3116 68.2233 83.3112 68.2232 83.3108 68.2233C83.3102 68.2234 83.3093 68.2238 83.3082 68.2241C83.3057 68.2249 83.302 68.226 83.2971 68.2274C83.2874 68.2302 83.2729 68.2344 83.2538 68.2399C83.2156 68.2508 83.1588 68.267 83.0845 68.288C82.9357 68.33 82.7164 68.3913 82.434 68.4686C81.869 68.6231 81.051 68.8416 80.0388 69.0976C78.0145 69.6094 75.2119 70.2714 72.0991 70.8718C65.8847 72.0704 58.3954 73.0316 53.4027 72.0377C48.4259 71.047 45.954 69.4069 44.728 67.9842C44.1152 67.2729 43.8177 66.6202 43.6741 66.1396C43.6024 65.8996 43.5691 65.7032 43.554 65.5646C43.5465 65.4954 43.5435 65.4405 43.5424 65.4019C43.5418 65.3826 43.542 65.3674 43.5421 65.3564C43.5421 65.3509 43.542 65.3464 43.5421 65.3431C43.5421 65.3414 43.5423 65.34 43.5424 65.3389V65.3368C43.5424 65.3366 43.5424 65.3362 43.741 65.3449L43.5424 65.3362L43.5504 65.1554L43.7323 65.1474L43.741 65.3449C43.7323 65.1475 43.7325 65.1474 43.7326 65.1474H43.7344C43.7358 65.1473 43.7378 65.1472 43.7404 65.1471C43.7457 65.1468 43.7536 65.1466 43.764 65.1462C43.785 65.1453 43.8164 65.144 43.8575 65.1423C43.9397 65.139 44.0615 65.1341 44.2197 65.1281C44.5363 65.1161 44.9991 65.0996 45.584 65.0811C46.7539 65.0443 48.4128 65.0001 50.369 64.9707ZM64.1262 65.5424C59.3769 65.307 54.2829 65.3071 50.375 65.3659C48.4213 65.3954 46.7646 65.4393 45.5965 65.4761C45.0125 65.4945 44.5505 65.5111 44.2347 65.5231C44.1207 65.5274 44.0257 65.5311 43.9509 65.534C43.9643 65.6505 43.993 65.8189 44.0552 66.027C44.1836 66.457 44.4552 67.0596 45.03 67.7267C46.1795 69.0607 48.5581 70.6703 53.4807 71.6502C58.3874 72.6269 65.8053 71.6829 72.0232 70.4836C75.1266 69.885 77.9217 69.2247 79.9408 68.7142C80.9502 68.4589 81.7655 68.2412 82.3283 68.0872C82.3315 68.0864 82.3347 68.0851 82.3378 68.0843C81.9359 68.0192 81.4114 67.9348 80.7941 67.8363C79.3114 67.5998 77.2933 67.2823 75.1516 66.9587C71.1305 66.3512 66.6883 65.7242 64.5273 65.5673L64.1262 65.5424ZM84.1501 67.9797L83.312 68.2233L83.2562 68.0335L83.2887 67.8384L84.1501 67.9797Z" fill="black"/>
<path d="M57.9986 60.3423C57.8732 62.1913 57.7509 69.0065 55.8946 70.7217C54.0382 72.4369 58.3931 77.7164 63.3444 76.652C68.2956 75.5876 70.6841 74.6813 71.4639 72.5738C72.2438 70.4663 72.0328 64.0282 73.2224 62.0606C74.412 60.0929 58.3962 54.5489 57.9986 60.3423Z" fill="#BC795D"/>
<path d="M58.0382 60.3454C57.8119 63.4534 58.0382 66.7317 56.9342 69.7212C56.7761 70.1191 56.554 70.4888 56.2767 70.816C56.1285 70.9502 56.0044 71.1086 55.9097 71.2843C55.8326 71.5353 55.8066 71.7992 55.8334 72.0603C55.8602 72.3214 55.9392 72.5746 56.0657 72.8049C56.896 74.4239 58.3188 75.6646 60.0414 76.2718C61.207 76.6978 62.4758 76.7593 63.6776 76.4482C64.908 76.1985 66.1223 75.8756 67.3138 75.4811C68.4545 75.0736 69.6472 74.5688 70.4729 73.6777C71.2986 72.7867 71.4271 71.5246 71.5586 70.3325C71.6779 69.0978 71.7543 67.8478 71.8644 66.5949C72.0448 64.9892 72.0846 63.2953 72.8522 61.8264C72.5953 61.2394 71.8186 60.8806 71.2283 60.5217C70.1328 59.9547 68.9911 59.4806 67.8153 59.1046C65.3321 58.2987 58.5 56.3675 58.029 60.3362L58.0382 60.3454ZM57.9587 60.3454C58.3165 56.3675 65.4422 57.66 68.0508 58.4081C69.4515 58.8339 73.6412 60.1781 73.7085 61.872C73.7027 62.0206 73.6585 62.1651 73.5801 62.2917C72.9165 63.6237 72.8339 65.1808 72.6351 66.6831C72.5005 67.9239 72.4027 69.1738 72.2283 70.4267C72.054 71.6797 71.8277 73.109 70.8338 74.0214C69.8399 74.9337 68.6411 75.3868 67.4147 75.767C66.1884 76.1471 64.9681 76.4147 63.7449 76.6976C63.1235 76.8576 62.4845 76.9403 61.8427 76.9439C59.8696 76.8995 57.9898 76.0999 56.5947 74.7117C55.6773 73.7781 54.714 72.3639 55.2736 70.9985C55.3966 70.7572 55.5648 70.5415 55.769 70.3629C56.0038 70.0939 56.1984 69.7928 56.347 69.4688C57.5703 66.6131 57.7722 63.4321 57.9618 60.3454H57.9587Z" fill="black"/>
<path opacity="0.9" d="M73.2224 62.0606C73.305 61.9237 71.4242 62.018 71.3661 61.8507C70.5557 61.0874 69.1734 60.3849 66.9623 59.9713C63.8982 59.3535 60.7128 59.8636 57.9986 61.4067C57.9252 62.7874 57.9681 64.8645 57.6011 66.9203C58.6072 68.5382 59.8519 69.5843 61.3627 69.8732C63.219 70.2291 69.314 66.9112 71.8676 65.199C71.7545 63.794 72.7973 62.7631 73.2224 62.0606Z" fill="url(#paint6_linear_3347_158754)"/>
<path d="M43.7414 65.345C48.6896 67.5103 61.1885 75.25 83.2566 68.0334C79.1738 80.1158 76.5132 87.7521 70.9167 95.9267C69.3876 98.1619 67.1306 100.853 64.4241 100.853C56.5492 100.853 43.5854 78.5892 43.3652 76.7918C43.145 74.9945 43.7414 65.345 43.7414 65.345Z" fill="#3AA675"/>
<path d="M43.7226 65.3146C44.3923 65.5609 45.4199 66.0444 46.0866 66.3394C58.0993 72.0507 70.6899 71.7861 83.2011 67.86L83.5406 67.7536L83.4243 68.082C80.2224 77.0655 77.3568 86.3076 72.216 94.4305C70.7756 96.6322 69.378 98.9587 67.0415 100.394C59.7966 105.211 47.9521 85.967 44.9612 80.648C44.3098 79.4316 43.6033 78.2485 43.1752 76.9287C43.1283 76.5352 43.1089 76.1389 43.1171 75.7426C43.1446 72.7745 43.3984 69.5995 43.6064 66.6344C43.6461 66.2695 43.6553 65.6856 43.7226 65.3115V65.3146ZM43.7562 65.3724C43.6889 68.8301 43.3923 73.2793 43.5758 76.6945C43.5838 76.7874 43.6054 76.8786 43.64 76.9652C44.1555 78.1459 44.7502 79.291 45.4199 80.3925C47.1695 83.3832 49.0774 86.2794 51.1357 89.0689C53.1816 91.8455 55.3713 94.543 57.9005 96.909C60.2308 98.9891 63.5368 101.775 66.7173 99.8528C68.1761 98.9891 69.3137 97.651 70.3168 96.2977C71.3138 94.8897 72.271 93.439 73.161 91.958C77.6871 84.5224 80.4151 76.211 83.091 67.9756L83.3112 68.1976C78.47 69.8932 73.4195 70.9265 68.2984 71.2691C61.4371 71.6715 54.5803 70.4086 48.3191 67.5894C46.79 66.9081 45.2395 66.1266 43.7562 65.3724Z" fill="black"/>
<path d="M61.2066 87.7856C62.3398 88.1226 63.5357 88.1965 64.7022 88.0015C68.7879 87.3081 73.8095 84.863 66.7114 83.8564C60.2433 82.9441 52.4479 78.4645 48.2581 76.4604C48.1218 76.3942 47.9691 76.3685 47.8184 76.3864C47.6677 76.4043 47.5254 76.4651 47.4086 76.5614C47.2918 76.6576 47.2053 76.7854 47.1596 76.9293C47.114 77.0732 47.111 77.2272 47.1511 77.3727C48.2795 81.9679 59.1852 95.6864 63.1455 95.6864C60.3748 92.9281 58.3931 90.9605 57.2065 87.8099C56.9007 87.0162 57.0689 86.3532 57.8579 86.6755C58.5154 86.928 59.9711 87.4206 61.2066 87.7856Z" fill="#258052"/>
<path d="M49.0867 80.9035C48.5392 80.2557 46.0285 76.5151 47.7105 76.3418C48.3221 76.3783 48.839 76.7189 49.3864 76.95L51.4996 77.9292C55.7169 79.8817 59.9372 81.8675 64.3839 83.2299C65.1208 83.4543 65.869 83.6401 66.6255 83.7865C67.387 83.9142 68.2219 84.0085 68.9039 84.4434C69.8581 84.9938 69.803 85.8757 68.9712 86.5326C68.3238 86.9935 67.5894 87.3193 66.8121 87.4906C65.2966 87.8527 63.7487 88.0646 62.1911 88.1231C63.7353 87.9802 65.2635 87.6993 66.757 87.2838C67.4968 87.1028 68.1926 86.7761 68.803 86.3228C69.4483 85.7723 69.5614 85.1398 68.7418 84.6927C68.0782 84.3035 67.3259 84.2366 66.5644 84.1088C65.7938 83.9663 65.0312 83.7836 64.2799 83.5614C62.7814 83.1265 61.3134 82.6004 59.8669 82.0409C56.2796 80.5994 52.7443 78.8811 49.2855 77.1598C48.8359 76.9987 47.6034 76.1471 47.3496 76.7766C47.2914 77.1419 47.3337 77.516 47.4719 77.8593C47.8634 78.9493 48.407 79.9791 49.0867 80.9187V80.9035Z" fill="black"/>
<path d="M108.771 107.343C108.122 106.242 107.979 104.682 108.547 104.342C109.658 103.679 111.927 102.079 113.517 100.908C117.233 105.415 124.453 115.442 124.453 115.442C124.453 115.442 120.698 120.308 118.811 120.134C118.251 120.082 117.392 119.891 116.184 118.434L108.771 107.343Z" fill="#605E6A"/>
<path d="M108.756 107.352C108.306 106.531 107.948 105.482 108.3 104.564C108.401 104.389 108.554 104.25 108.737 104.165C109.058 103.955 109.376 103.736 109.691 103.514C110.783 102.736 112.34 101.601 113.425 100.777L113.545 100.689L113.639 100.805C116.517 104.275 119.108 108.128 121.832 111.722L124.551 115.372L124.606 115.445L124.551 115.518C123.368 116.968 120.306 120.992 118.23 120.219C117.312 119.949 116.615 119.249 116.025 118.541L114.19 115.761C112.435 113.079 110.542 110.022 108.768 107.352H108.756ZM108.786 107.334C110.572 109.995 112.673 112.915 114.48 115.563C114.48 115.539 116.386 118.401 116.315 118.3C117.104 119.213 118.242 120.292 119.511 119.797C120.707 119.255 121.652 118.276 122.569 117.364C123.181 116.725 123.777 116.056 124.334 115.366V115.512C123.462 114.271 122.591 113.033 121.704 111.801C119.098 108.17 116.169 104.503 113.38 101.005L113.594 101.03C112.025 102.161 110.425 103.247 108.774 104.25C107.725 104.7 108.349 106.583 108.774 107.331L108.786 107.334Z" fill="black"/>
<path d="M123.615 114.45C123.615 114.45 120.478 118.516 118.903 118.373C118.432 118.331 117.716 118.17 116.704 116.953L110.508 107.681C109.967 106.768 109.847 105.458 110.321 105.172C111.239 104.615 113.147 103.283 114.478 102.304" fill="#47444F"/>
<path d="M123.631 114.462C122.521 115.959 121.322 117.528 119.621 118.398C118.429 118.906 117.294 117.887 116.624 117.005C114.759 114 112.594 111.175 110.636 108.228C110.124 107.574 109.843 106.77 109.838 105.941C109.824 105.764 109.855 105.586 109.928 105.424C110 105.261 110.113 105.119 110.254 105.011C111.682 104.153 113.062 103.204 114.465 102.289L114.487 102.316C113.19 103.383 111.837 104.381 110.435 105.306C110.236 105.449 110.227 105.701 110.214 105.947C110.24 106.701 110.504 107.426 110.97 108.021C112.942 110.953 114.719 114.028 116.78 116.901C117.432 117.622 118.444 118.525 119.49 118.094C120.536 117.662 121.285 116.825 122.071 116.071C122.595 115.542 123.105 114.999 123.6 114.441L123.628 114.462H123.631Z" fill="black"/>
<path d="M115.902 104.147C115.902 104.147 112.214 106.692 112.031 106.951C111.777 107.307 113.141 109.098 113.523 109.134C113.905 109.171 117.517 106.169 117.517 106.169" fill="#9226A7"/>
<path d="M118.835 107.748C117.548 108.811 116.205 109.806 114.811 110.728C114.447 110.956 115.921 112.875 116.303 112.911C116.685 112.948 120.297 109.946 120.297 109.946" fill="#9226A7"/>
<path d="M121.218 111.184C119.972 112.324 118.633 113.359 117.214 114.277C116.85 114.502 118.379 116.616 118.698 116.494C120.031 115.992 122.823 113.334 122.823 113.334" fill="#9226A7"/>
<path d="M65.1055 66.0961C69.0567 66.4003 79.9042 59.0498 81.7942 56.2307C88.1308 46.7788 93.446 19.8586 75.6227 15.1327C58.252 10.5254 48.2975 21.8232 47.5055 35.2042C46.7134 48.5853 49.8817 52.4019 50.6738 53.9772C51.4658 55.5525 59.9554 65.7038 65.1055 66.0961Z" fill="#BC795D"/>
<path d="M65.1055 66.0566C68.754 66.0566 74.3107 62.2309 77.2466 60.0777C78.736 58.9251 80.2529 57.7573 81.418 56.2854C82.8799 54.0928 83.9074 51.6386 84.7821 49.1661C87.8709 40.0701 89.7975 26.5157 82.3844 19.0254C79.1121 15.7531 74.3505 14.6918 69.8702 14.3724C55.9859 13.4601 47.8327 24.1892 47.8297 37.2236C47.7043 41.7092 47.8297 46.347 49.3588 50.6046C49.8365 51.826 50.4113 53.0076 51.0775 54.1384C52.0332 55.5458 53.0879 56.8842 54.2336 58.1436C56.8636 61.0083 61.1207 65.5427 65.1024 66.0505L65.1055 66.0566ZM65.1055 66.1357C61.2552 65.7069 56.6159 61.1026 53.9675 58.3899C52.7592 57.1519 51.6402 55.8308 50.6187 54.4364C49.8883 53.2946 49.2609 52.0907 48.7441 50.8387C46.8327 45.7661 46.8235 40.2373 47.1049 34.9062C48.2119 19.9499 59.5885 10.9359 74.4698 14.6735C91.7303 18.2985 89.7792 41.393 83.6444 53.6305C83.1298 54.6719 82.5304 55.6696 81.8523 56.6139C80.6015 58.098 79.0082 59.2384 77.4607 60.3636C74.5676 62.3525 68.5613 66.2117 65.1055 66.1418V66.1357Z" fill="black"/>
<path d="M51.7644 39.7297C49.3178 40.3379 47.6358 43.5372 49.5716 45.3162C51.5075 47.0953 57.8288 47.3447 60.676 45.7542C63.5232 44.1636 65.5477 42.8255 67.7099 43.0019C69.8721 43.1783 71.025 44.3157 73.1443 45.8636C75.2637 47.4116 81.2425 50.6443 82.7563 48.33C84.2701 46.0157 85.2671 45.0243 82.9673 43.0779C80.6676 41.1316 75.6766 41.752 73.4288 41.0982C71.181 40.4443 70.1137 38.0145 67.5234 38.0145C64.933 38.0145 62.1898 40.5994 60.15 40.5751C58.1102 40.5508 53.7277 39.2309 51.7644 39.7297Z" fill="#C16D53"/>
<path d="M59.5825 51.9548C59.977 53.1379 61.3073 55.8353 66.4574 56.2307C71.9989 56.6534 72.4301 54.3269 73.2222 53.5393C69.9804 52.7334 68.1945 52.9311 66.3137 52.7425C64.4329 52.554 59.5825 51.9548 59.5825 51.9548Z" fill="#9F484C"/>
<path d="M67.5033 50.3795C65.1271 49.9872 62.7508 50.7749 59.5825 51.9548C61.5612 53.1379 66.1149 52.6421 66.9069 52.6421C67.3045 53.0375 70.8459 53.5393 73.2222 53.5393C71.0049 51.3953 69.8459 50.7688 67.5033 50.3795Z" fill="#792F32"/>
<path opacity="0.5" d="M84.6198 42.2019C82.4454 50.854 75.3687 59.6854 69.1636 65.2051C74.0567 63.0763 80.1212 58.3656 81.4515 56.3858C84.2039 52.2772 86.3691 44.571 86.7972 36.8921C86.0633 37.2357 85.4975 38.7076 84.6198 42.2019Z" fill="#A05A4A"/>
<path d="M51.9553 35.5114C51.0378 36.4237 52.0409 38.3001 54.7474 38.7502C56.3132 39.0087 56.6496 39.1516 57.4295 39.1577C58.2093 39.1638 60.9831 39.7295 61.3776 39.6443C61.7721 39.5592 62.766 38.5738 62.766 36.9985C62.766 35.4232 61.4265 34.3618 60.0137 33.6137C58.6008 32.8656 53.6067 33.8144 51.9553 35.5114Z" fill="#F2F2F2"/>
<path d="M82.9931 37.1992C83.8678 38.1572 83.143 40.0853 81.3387 40.5445C80.1831 40.8375 78.9923 40.9695 77.8003 40.9368C77.0205 40.9125 74.9195 40.8243 74.1304 40.7939C72.5493 40.73 72.1671 40.3194 72.2313 38.7472C72.2955 37.1749 73.7084 36.0101 75.1458 35.3168C76.5831 34.6234 81.3968 35.4475 82.9931 37.1992Z" fill="#F2F2F2"/>
<path d="M63.7505 47.2624C64.2 45.4681 68.8883 43.8806 70.0749 45.0636C71.2615 46.2466 70.0749 47.4266 69.2828 47.8189C68.4907 48.2112 66.457 49.0536 63.7505 47.2624Z" fill="#B04839"/>
<path d="M72.0569 30.0982C70.8551 30.4479 73.6809 27.1969 74.4332 26.9475C76.8094 26.1599 81.9564 25.7645 85.5223 31.2781C81.5619 29.7028 78.7881 28.1275 72.0569 30.0982Z" fill="#1B0000"/>
<path d="M72.0628 30.1164C71.1454 30.3293 72.5124 28.6901 72.6745 28.462C73.1112 27.8741 73.6255 27.3473 74.2036 26.8958C74.891 26.6018 75.6226 26.423 76.3688 26.3667C80.0876 25.9805 83.6229 28.1914 85.6352 31.196L85.9043 31.5914L85.4487 31.4211C83.3079 30.606 81.1672 29.6602 78.8766 29.4413C76.5778 29.2359 74.2607 29.465 72.0476 30.1164H72.0628ZM72.0628 30.0799C77.7236 28.3404 80.2741 28.7205 85.5924 31.1382L85.4058 31.3602C82.9807 27.279 78.9071 25.7798 74.3718 27.1361C73.3261 27.8291 72.457 28.7547 71.8335 29.8397C71.7417 30.0647 71.8335 30.1438 72.0628 30.0799Z" fill="black"/>
<path d="M64.5307 28.5168C65.2525 28.8452 64.9283 25.7585 64.1362 25.3662C63.3442 24.9738 57.0075 21.4279 51.0654 26.9415C55.8179 26.1599 59.3838 26.1599 64.5307 28.5168Z" fill="#1B0000"/>
<path d="M64.5395 28.5168C64.7322 28.611 64.8453 28.3769 64.8637 28.2127C64.9871 27.3102 64.7797 26.3937 64.2795 25.6307C64.1594 25.5107 64.0128 25.4201 63.8514 25.3661C62.1921 24.5953 60.4033 24.1375 58.576 24.0159C55.738 23.8577 53.1752 25.132 51.172 27.057L51.0405 26.7894C56.2548 25.7706 59.7656 26.1812 64.5395 28.5016V28.5168ZM64.5395 28.5533C60.3497 26.61 55.6156 26.3424 51.1078 27.1118L50.5757 27.1878L50.9733 26.8441C53.2241 24.8796 56.1416 23.6814 59.157 23.803C60.8505 23.8669 62.5037 24.3352 63.9768 25.1685C64.1614 25.2487 64.3247 25.3705 64.4539 25.5243C64.8208 26.1851 65.0015 26.9321 64.9768 27.6865C64.9768 27.9572 64.9768 28.7144 64.5395 28.5624V28.5533Z" fill="black"/>
<path d="M74.4331 33.2488C75.6389 32.5116 77.0409 32.1545 78.4546 32.2245C79.8684 32.2946 81.2277 32.7884 82.3539 33.6411C81.132 33.0366 79.7977 32.6898 78.4347 32.6223C77.0717 32.5548 75.7093 32.7681 74.4331 33.2488Z" fill="black"/>
<path d="M61.3624 32.0658C58.9494 30.4692 57.3316 30.5969 54.6343 31.2781C56.9585 30.013 59.506 30.0221 61.3624 32.0658Z" fill="black"/>
<path d="M60.5702 36.3994C60.1757 38.7624 59.3836 39.1547 57.6007 39.1547C54.9951 39.1547 55.2244 38.96 54.6311 36.3994C54.2856 34.9153 55.9615 33.6411 57.6007 33.6411C59.2399 33.6411 60.824 34.9032 60.5702 36.3994Z" fill="url(#paint7_linear_3347_158754)"/>
<path d="M80.3721 38.0538C79.7788 40.9277 78.9867 41.323 77.0081 40.9277C74.4514 40.4198 74.433 39.8633 74.2343 38.1724C74.0569 36.6518 75.7878 35.3046 77.4026 35.0218C79.0173 34.7389 80.681 36.5636 80.3721 38.0538Z" fill="url(#paint8_linear_3347_158754)"/>
<path d="M60.7691 36.2017C60.7691 38.5982 59.7446 36.1561 57.9984 35.8094C56.0167 35.4141 54.4325 36.9894 54.8301 35.8094C55.3989 34.1064 55.8852 33.8327 57.5152 33.6411C59.1452 33.4495 60.7691 34.6264 60.7691 36.2017Z" fill="black"/>
<path d="M80.2866 38.0538C80.1765 40.9277 79.779 37.7771 77.8003 37.3847C75.2467 36.8769 73.9959 38.5708 74.632 36.9894C75.4241 35.0218 75.6993 35.3046 77.3171 35.0218C78.9349 34.7389 80.3447 36.5332 80.2866 38.0538Z" fill="black"/>
<path d="M58.6976 36.6328C58.7469 35.7776 58.2059 35.0512 57.4893 35.0104C56.7726 34.9695 56.1517 35.6297 56.1024 36.4849C56.0531 37.3401 56.5941 38.0664 57.3108 38.1073C58.0274 38.1481 58.6484 37.488 58.6976 36.6328Z" fill="black"/>
<path d="M77.3199 39.6473C78.0209 39.6473 78.5891 38.9638 78.5891 38.1207C78.5891 37.2775 78.0209 36.594 77.3199 36.594C76.619 36.594 76.0508 37.2775 76.0508 38.1207C76.0508 38.9638 76.619 39.6473 77.3199 39.6473Z" fill="black"/>
<path d="M57.6894 34.6264C57.1114 34.225 56.0441 35.0187 56.3071 35.3715C56.5701 35.7243 56.9187 35.4627 57.2857 35.1982C57.6527 34.9336 58.0533 34.8788 57.6894 34.6264Z" fill="white"/>
<path d="M76.9959 36.2443C76.3842 35.8246 75.2619 36.6579 75.5401 37.032C75.8184 37.406 76.1977 37.1262 76.5738 36.8495C76.95 36.5728 77.3812 36.5119 76.9959 36.2443Z" fill="white"/>
<path d="M72.8491 37.1871C76.8095 33.6411 82.3541 35.6118 83.5529 38.367L84.7395 37.9747C84.7395 37.9747 82.4672 33.9209 78.6505 33.9787C76.4211 33.6411 73.6412 36.0041 72.8491 37.1871Z" fill="black"/>
<path d="M75.102 34.8471C76.1817 34.1461 77.4786 33.6093 78.6622 33.7812C80.6382 33.7566 82.2033 34.7918 83.2642 35.8132C83.7974 36.3265 84.2085 36.8409 84.4863 37.2271C84.6252 37.4204 84.7313 37.5819 84.8028 37.6957C84.8386 37.7526 84.8657 37.7977 84.8841 37.8288C84.8933 37.8443 84.9005 37.8564 84.9053 37.8647C84.9077 37.8689 84.9094 37.8723 84.9107 37.8745C84.9113 37.8756 84.9118 37.8766 84.9121 37.8772C84.9123 37.8775 84.9126 37.8779 84.9127 37.8781C84.9118 37.8787 84.8994 37.8859 84.7392 37.9746L84.913 37.8784L85.0298 38.0869L83.4425 38.6117L83.3702 38.4456C82.8048 37.1461 81.1875 35.9939 79.1983 35.6082C77.2206 35.2248 74.9099 35.6077 72.9818 37.334L71.8081 38.3851L72.6835 37.0774C73.0977 36.4587 74.0124 35.5545 75.102 34.8471ZM78.6204 34.1741C77.5794 34.0165 76.3795 34.4899 75.3194 35.1782C74.9579 35.4129 74.6181 35.6691 74.3123 35.9272C75.952 35.0681 77.7135 34.9174 79.2745 35.2201C81.2686 35.6067 82.9674 36.7423 83.6575 38.124L84.4397 37.8653C84.373 37.7608 84.2806 37.6211 84.1628 37.4573C83.8953 37.0852 83.4998 36.5899 82.9879 36.0971C81.9932 35.1394 80.5787 34.2084 78.8241 34.1765H78.6368L78.6204 34.1741Z" fill="black"/>
<path d="M74.7329 40.8821C76.3935 40.7452 78.3508 40.6023 80.0083 40.5962C80.6248 40.5845 81.2355 40.7168 81.7913 40.9824C81.2056 41.02 80.6232 41.0972 80.0481 41.2135C78.2988 41.5177 76.4058 41.618 74.7329 40.8821Z" fill="black"/>
<path d="M62.1542 35.2073C58.5638 31.7799 52.5361 33.5073 51.3495 36.2656C50.1599 35.8703 50.2486 35.7973 50.2486 35.7973C50.2486 35.7973 52.6951 32.6771 56.3099 32.227C59.0807 31.8438 61.3621 33.6411 62.1542 35.2073Z" fill="black"/>
<path d="M56.2826 32.0313C59.1534 31.6342 61.5092 33.4918 62.3318 35.1184L62.8524 36.1478L62.0164 35.3498C60.2766 33.689 57.9403 33.2713 55.883 33.6118C53.8129 33.9544 52.0879 35.0517 51.5322 36.3435L51.4602 36.5107L51.2864 36.4531C50.6904 36.255 50.4013 36.1334 50.2587 36.0572C50.1929 36.022 50.1345 35.9846 50.0969 35.9369C50.0766 35.9112 50.046 35.8617 50.0485 35.7941C50.0497 35.7595 50.0595 35.7277 50.0748 35.7008C50.0801 35.6914 50.0865 35.6833 50.0924 35.6759C50.092 35.6756 50.0918 35.6756 50.0918 35.6756L50.0927 35.6747C50.0931 35.6742 50.0935 35.6734 50.0942 35.6726C50.0956 35.6708 50.0976 35.6684 50.1001 35.6652C50.1053 35.6587 50.113 35.6493 50.1228 35.6373C50.1426 35.6132 50.1715 35.5782 50.2095 35.5339C50.2855 35.4453 50.3975 35.3191 50.543 35.1665C50.834 34.8616 51.2598 34.4509 51.8004 34.0258C52.8789 33.1777 54.4269 32.2633 56.2826 32.0315V32.0313ZM61.1993 34.2132C60.137 33.0831 58.3719 32.1413 56.3372 32.4227L56.3345 32.4233V32.423C54.5767 32.6419 53.095 33.5118 52.0471 34.3359C51.5242 34.7471 51.1123 35.1447 50.8315 35.4389C50.71 35.5662 50.6132 35.6741 50.5428 35.7552C50.6689 35.8124 50.8841 35.897 51.2455 36.0204C51.9432 34.6347 53.7621 33.5621 55.8179 33.2219C57.5681 32.9322 59.5315 33.1646 61.1993 34.2132ZM50.3767 35.9485C50.3769 35.9483 50.3777 35.9477 50.3782 35.9473C50.3785 35.9471 50.3785 35.9466 50.3788 35.9464L50.3767 35.9485Z" fill="black"/>
<path d="M61.0289 39.6352C59.6559 39.6305 58.2848 39.534 56.9248 39.3463C55.5511 39.1732 54.2069 38.8183 52.9277 38.291C53.621 38.2267 54.3181 38.2124 55.0134 38.2484C57.0655 38.4035 59.194 38.6286 61.032 39.6291L61.0289 39.6352Z" fill="black"/>
<path d="M83.938 43.8806C84.3356 43.4883 83.938 43.093 83.5435 43.093C83.149 43.093 82.3539 43.8806 82.7514 44.276C83.149 44.6713 83.5435 44.276 83.938 43.8806Z" fill="#42210B"/>
<path d="M68.9376 39.8602C68.9943 41.0059 69.2617 42.1314 69.7266 43.1812C70.0569 43.8989 70.6135 44.4311 70.9255 45.1822C71.3995 46.5142 69.8735 47.4023 68.9376 47.9345C72.9928 44.5558 68.3994 45.5015 68.9376 39.8602Z" fill="black"/>
<path d="M66.3288 46.4595C65.4756 46.1949 64.8915 46.7636 64.1514 47.1468C64.4174 46.3318 65.7172 45.6049 66.3288 46.4595Z" fill="black"/>
<path d="M71.1791 46.9704C70.8732 47.0951 70.5919 47.1468 70.3258 47.2897C70.0598 47.4327 69.7753 47.6577 69.4512 47.6547L69.7968 47.3293C69.9667 47.1417 70.1882 47.0078 70.4339 46.944C70.6795 46.8803 70.9386 46.8894 71.1791 46.9704Z" fill="black"/>
<path d="M56.105 33.8718C56.7502 33.4436 57.6355 33.3203 58.436 33.4637C59.2355 33.607 59.9964 34.0258 60.3534 34.7357C61.1813 36.3823 60.7817 38.4829 59.0748 39.3316L59.0324 39.3527L58.9847 39.3524C57.9319 39.3449 56.8802 39.2804 55.8344 39.1593L55.7861 39.1537L55.7457 39.1267C55.1159 38.701 54.5045 37.8598 54.4018 36.8829C54.3003 35.9179 54.6982 34.8553 55.9784 33.9582L56.105 33.8718ZM58.3655 33.8528C57.6424 33.7233 56.8671 33.8415 56.3257 34.2009H56.3254C55.0485 35.0469 54.7101 36.0134 54.7972 36.842C54.8843 37.6696 55.3999 38.3956 55.9309 38.7721C56.9291 38.8858 57.9325 38.9473 58.9372 38.9562C60.3653 38.216 60.7472 36.4024 59.998 34.9124C59.7158 34.3512 59.0898 33.9825 58.3655 33.8528Z" fill="black"/>
<path d="M76.9035 34.9828C77.7934 34.8007 78.7742 34.8865 79.3384 35.4752H79.3387C80.3469 36.5256 80.5775 37.6782 80.3906 38.6758C80.2056 39.6627 79.6129 40.4938 78.9791 40.9211L78.9272 40.9561L78.8642 40.9549H78.8594C78.8562 40.9549 78.8515 40.9547 78.8454 40.9546C78.8328 40.9544 78.814 40.9541 78.7898 40.9537C78.7413 40.953 78.6703 40.952 78.5801 40.9508C78.3997 40.9482 78.1426 40.9447 77.8365 40.9413C77.2241 40.9344 76.4152 40.9276 75.6288 40.9276H75.582L75.5401 40.9068C74.6696 40.474 74.2483 39.6151 74.1442 38.7361C74.0405 37.8598 74.2457 36.9256 74.6714 36.2899C75.1071 35.6391 76.0074 35.1662 76.9035 34.9828ZM79.0508 35.7482C78.6303 35.3092 77.8282 35.1972 76.9835 35.3701C76.1449 35.5418 75.3586 35.9768 75.0023 36.509C74.6359 37.0563 74.4451 37.8935 74.5394 38.6898C74.6315 39.4685 74.9904 40.1709 75.6778 40.5323C76.4508 40.5326 77.2405 40.5393 77.841 40.546C78.1476 40.5494 78.4051 40.5529 78.5858 40.5555C78.6762 40.5568 78.7474 40.5577 78.7961 40.5584C78.7991 40.5585 78.8021 40.5584 78.805 40.5584C79.3313 40.1814 79.839 39.4621 79.9999 38.6034C80.1639 37.7284 79.9695 36.7049 79.0511 35.7482H79.0508Z" fill="black"/>
<g opacity="0.8">
<path d="M69.4817 54.7527C69.0078 54.9878 68.4629 55.0398 67.9526 54.8987C67.711 54.8166 67.4786 54.6554 67.237 54.5946C66.9892 54.5372 66.7323 54.53 66.4816 54.5733C65.9737 54.6446 65.4576 54.6354 64.9525 54.5459C64.4449 54.4386 63.9617 54.2385 63.5274 53.9559C63.5202 53.9529 63.514 53.9478 63.5096 53.9414C63.5053 53.9349 63.5029 53.9272 63.5029 53.9194C63.5029 53.9116 63.5053 53.904 63.5096 53.8975C63.514 53.891 63.5202 53.8859 63.5274 53.8829C64.2669 53.632 65.0693 53.632 65.8088 53.8829C66.2951 53.9863 66.7446 54.3421 67.2523 54.3482C67.5088 54.3306 67.7641 54.2981 68.0169 54.2509C68.531 54.2525 69.0339 54.4003 69.4665 54.6767C69.4734 54.6807 69.4792 54.6864 69.4833 54.6934C69.4873 54.7003 69.4894 54.7082 69.4894 54.7162C69.4894 54.7242 69.4873 54.7321 69.4833 54.739C69.4792 54.746 69.4734 54.7517 69.4665 54.7557L69.4817 54.7527Z" fill="#DE6A6F"/>
</g>
<path d="M58.3776 50.7171C58.3776 50.1089 59.6162 47.6395 57.766 49.4854C57.0565 50.191 55.2888 50.0937 57.1543 50.7171C58.3409 51.1064 58.3776 50.7171 58.3776 50.7171Z" fill="url(#paint9_linear_3347_158754)"/>
<path opacity="0.9" d="M75.1275 51.5443C74.8553 52.0704 73.9501 53.3234 74.8431 53.3963C75.8034 53.4754 76.5404 52.6969 76.1856 52.0856C75.5832 51.0425 75.1275 51.5443 75.1275 51.5443Z" fill="#A05A4A"/>
<path d="M57.9252 49.9386C58.4787 51.003 59.6042 51.4135 60.6776 51.8028C61.0446 51.9305 61.4146 52.0522 61.7816 52.1951C63.167 52.6786 64.9316 52.3015 66.424 52.3958C68.0302 52.3886 69.6304 52.5931 71.1826 53.004C71.5986 53.1345 72.0399 53.1647 72.4701 53.0922C73.5221 52.931 74.5802 52.8185 75.4579 52.1586L75.513 52.2133C74.9197 53.22 73.7086 53.6062 72.6352 53.8738C72.0915 54.0095 71.5203 53.9906 70.9868 53.8191C69.4424 53.3994 67.9806 52.9067 66.3995 52.6999C65.6173 52.5991 64.8249 52.6063 64.0447 52.7212C63.3444 52.8155 62.6134 53.0253 61.8856 52.9037C60.3075 52.484 58.1668 51.7906 57.8579 49.9538L57.9313 49.9294L57.9252 49.9386Z" fill="black"/>
<path d="M63.8823 56.4192C65.4156 56.015 67.0456 56.1962 68.4513 56.9271C66.9436 56.7142 65.3931 56.5713 63.8823 56.4192Z" fill="black"/>
<path d="M88.0972 61.0144C90.0728 59.1289 92.027 68.4226 95.2779 73.7385C98.3055 78.6834 97.7245 87.001 95.8895 90.6838C94.0546 94.3666 89.6997 97.6632 85.3662 96.4923C87.5375 95.8841 93.761 90.7294 93.4246 83.3881C93.0882 76.0468 87.7363 73.5257 88.1584 67.8235L88.8465 66.5736" fill="url(#paint10_linear_3347_158754)"/>
<path d="M92.4643 50.559C93.0484 55.3031 90.6721 76.4087 84.73 86.0217C78.7879 95.6347 75.9835 103.073 76.3964 106.166C76.8092 109.259 77.6013 115.049 82.3538 118.258C71.6501 114.377 68.5215 96.1548 70.8671 87.9924C73.2434 79.7205 77.2038 78.1451 82.3538 66.7226C85.0695 60.7012 89.0177 39.4588 88.0635 36.3538C87.1093 33.2488 91.0911 31.6187 92.4643 34.2067C93.8374 36.7948 92.4643 50.559 92.4643 50.559Z" fill="url(#paint11_linear_3347_158754)"/>
<path d="M89.3091 32.9653C90.4385 32.4564 91.8974 32.715 92.64 34.1144C92.8279 34.4685 92.9605 34.9941 93.0551 35.6231C93.1504 36.257 93.2097 37.015 93.242 37.846C93.3067 39.5084 93.2638 41.4777 93.1778 43.3622C93.0919 45.2475 92.963 47.0514 92.8556 48.3837C92.8019 49.0498 92.7534 49.5983 92.7185 49.9803C92.701 50.1713 92.687 50.3208 92.6773 50.4225C92.6724 50.4734 92.6685 50.5124 92.6659 50.5386C92.6652 50.5462 92.6644 50.5528 92.6638 50.5582C92.8092 51.7712 92.7681 53.9868 92.536 56.7661C92.302 59.5683 91.8731 62.9577 91.2402 66.499C89.9757 73.5739 87.8913 81.2852 84.8994 86.1253C81.9326 90.925 79.7516 95.1777 78.3646 98.6127C77.671 100.33 77.1771 101.841 76.8824 103.11C76.5869 104.383 76.4949 105.401 76.5936 106.14C77.008 109.244 77.7962 114.942 82.4654 118.094L83.7914 118.989L82.2856 118.444C76.8451 116.471 73.3599 110.87 71.5266 104.788C69.692 98.7011 69.4901 92.0651 70.676 87.9381L70.7892 87.5523C71.9729 83.6162 73.5315 81.1998 75.4052 78.4286C77.3355 75.5739 79.6049 72.3365 82.1724 66.6418L82.2997 66.3508C83.6228 63.2312 85.2196 56.6599 86.3894 50.4082C86.9924 47.1857 87.4805 44.0563 87.7582 41.5405C87.897 40.2824 87.9831 39.1804 88.0048 38.2983C88.0268 37.4083 87.9823 36.7659 87.8734 36.4116C87.3655 34.7585 88.1756 33.4761 89.3091 32.9653ZM92.2884 34.2991C91.6579 33.1106 90.4392 32.8902 89.473 33.3256C88.5109 33.7592 87.8075 34.8441 88.2536 36.296C88.3833 36.718 88.424 37.4187 88.4021 38.3081C88.3799 39.2056 88.2928 40.3196 88.1533 41.5836C87.8742 44.1121 87.3846 47.2519 86.7804 50.4807C85.6112 56.7286 84.0079 63.3412 82.6643 66.5079L82.5353 66.8034C79.9528 72.5312 77.6667 75.7927 75.7352 78.6493C73.8679 81.4109 72.3362 83.7882 71.17 87.6667L71.0583 88.0468C69.8987 92.0823 70.0882 98.6388 71.9074 104.674C73.5579 110.15 76.5321 115.141 80.9954 117.448C77.2618 114.087 76.5725 108.987 76.1994 106.192C76.0916 105.385 76.1951 104.313 76.495 103.021C76.7957 101.726 77.2971 100.196 77.9958 98.4654C79.3932 95.0046 81.5855 90.7316 84.5608 85.9183C87.511 81.1454 89.5855 73.4971 90.8486 66.4301C91.4795 62.9004 91.9068 59.5229 92.1397 56.7332C92.3731 53.9384 92.4103 51.7472 92.2669 50.5829L92.2642 50.5612L92.2663 50.5395L92.4643 50.5591C92.2665 50.5396 92.2663 50.5393 92.2663 50.5392L92.2666 50.5389C92.2667 50.5385 92.2666 50.5379 92.2666 50.5371C92.2668 50.5355 92.2672 50.533 92.2675 50.5297C92.2682 50.5232 92.269 50.5133 92.2702 50.5003C92.2728 50.4743 92.2767 50.4356 92.2816 50.3851C92.2913 50.2839 92.3051 50.135 92.3225 49.9446C92.3573 49.5638 92.4057 49.0168 92.4593 48.3522C92.5664 47.0228 92.6949 45.2237 92.7806 43.3444C92.8663 41.4644 92.9089 39.5074 92.8448 37.8612C92.8128 37.0379 92.7541 36.2957 92.6618 35.6816C92.5686 35.0626 92.4438 34.5919 92.2884 34.2991Z" fill="black"/>
<path d="M68.2954 79.2825C79.9778 71.8439 83.1125 64.1012 87.4857 40.4046C91.859 16.708 88.7457 53.8282 87.8986 57.2708C86.7273 62.0332 86.712 76.9652 68.2954 79.2825Z" fill="url(#paint12_linear_3347_158754)"/>
<path d="M89.3998 32.3579C89.4791 32.3364 89.5582 32.3514 89.6229 32.3935C89.6801 32.4307 89.7175 32.4831 89.7424 32.5277C89.7684 32.5743 89.789 32.6275 89.806 32.6828C89.84 32.7933 89.8661 32.9343 89.887 33.098C89.9287 33.4267 89.952 33.8753 89.9601 34.4169C89.9764 35.5018 89.9326 36.9819 89.8481 38.6703C89.6792 42.0483 89.347 46.2736 89.0041 49.8694C88.6835 53.2323 88.3518 56.0645 88.1336 57.1289L88.0914 57.3178C87.5174 59.6518 87.2068 64.6398 84.7397 69.2857C82.2572 73.9604 77.5931 78.3118 68.3203 79.4786L67.4458 79.5888L68.188 79.116C74.0044 75.4125 77.6802 71.6432 80.4519 65.8553C83.2297 60.0543 85.1029 52.2186 87.2899 40.3688C87.8367 37.4058 88.2677 35.388 88.6015 34.1341C88.7679 33.5093 88.9124 33.0644 89.0388 32.7855C89.1004 32.6495 89.166 32.5339 89.2398 32.4579C89.2771 32.4195 89.33 32.3768 89.3998 32.3579ZM89.4429 32.8616C89.43 32.8863 89.4162 32.9151 89.4013 32.948C89.2891 33.1956 89.151 33.614 88.9856 34.2351C88.6559 35.4735 88.2276 37.4793 87.6811 40.4403C85.4948 52.287 83.6142 60.1712 80.8109 66.0254C78.1225 71.6394 74.5882 75.3794 69.1493 78.9639C77.7081 77.6569 82.0445 73.514 84.3878 69.1013C86.8252 64.5114 87.1081 59.6524 87.7053 57.2239V57.2236C87.9128 56.3803 88.2651 53.4327 88.6084 49.8322C88.9509 46.2403 89.2823 42.021 89.4509 38.6507C89.5352 36.965 89.5787 35.4948 89.5626 34.4228C89.5545 33.886 89.5315 33.4545 89.4924 33.1475C89.4775 33.0303 89.4608 32.9353 89.4429 32.8616Z" fill="black"/>
<path d="M80.9688 11.9243C85.1158 12.7089 90.8714 13.7764 93.8409 19.4633C96.8104 25.1502 96.8624 51.3588 100.569 57.6661C102.759 61.3885 105.462 60.0412 106.817 57.362C106.817 57.362 106.511 63.1888 99.3824 60.8258C92.2537 58.4629 87.2535 46.4017 86.7091 37.5885C86.1189 28.0819 83.9353 21.8354 82.7487 20.254C81.5621 18.6726 79.1828 17.1034 77.7975 17.3011C76.4121 17.4987 74.4334 10.6835 80.9688 11.9243Z" fill="url(#paint13_linear_3347_158754)"/>
<path d="M77.4127 12.1032C78.1841 11.6032 79.3451 11.4148 81.0061 11.7302L81.8005 11.8813C85.8624 12.6656 91.1866 13.9512 94.0172 19.3722C94.4003 20.1058 94.7304 21.157 95.0243 22.4347C95.3189 23.7155 95.58 25.2366 95.8205 26.9169C96.3016 30.2768 96.7027 34.2879 97.1262 38.3113C97.55 42.3377 97.9961 46.3773 98.5675 49.8035C99.1405 53.2391 99.8346 56.0249 100.74 57.5662H100.741C101.814 59.3918 102.968 59.9049 103.97 59.7202C104.999 59.5302 105.974 58.5891 106.639 57.2733L107.065 56.4317L107.015 57.3722L106.817 57.3621L107.015 57.3725V57.3743C107.015 57.3753 107.015 57.3767 107.015 57.3785C107.015 57.3819 107.015 57.3869 107.014 57.393C107.013 57.4053 107.012 57.4229 107.01 57.4453C107.005 57.4903 106.998 57.5549 106.987 57.6356C106.963 57.797 106.922 58.0237 106.85 58.2875C106.705 58.8139 106.434 59.4971 105.926 60.1063C105.416 60.7185 104.671 61.2512 103.592 61.4751C102.517 61.6982 101.124 61.6115 99.3195 61.0133C95.6787 59.8064 92.6152 56.1409 90.3988 51.714C88.2475 47.4174 86.8723 42.3614 86.5395 38.0185L86.5106 37.6007C86.2162 32.8594 85.5248 28.9336 84.7602 25.9989C83.993 23.0545 83.1578 21.1299 82.5892 20.3722C82.0128 19.6039 81.1408 18.8324 80.2427 18.2784C79.7944 18.0018 79.3442 17.7824 78.926 17.6444C78.5057 17.5057 78.1303 17.4533 77.8257 17.4968C77.5654 17.5339 77.3245 17.4026 77.1308 17.2188C76.9335 17.0316 76.7551 16.7635 76.6093 16.4534C76.3177 15.833 76.1367 15.003 76.2151 14.2023C76.2938 13.3983 76.637 12.6059 77.4127 12.1032ZM80.9314 12.1186C79.3247 11.8136 78.2821 12.0116 77.6298 12.4343C76.9818 12.8542 76.6812 13.5207 76.6108 14.2406C76.54 14.9638 76.7048 15.7232 76.9695 16.2862C77.1019 16.5679 77.2547 16.7899 77.4052 16.9328C77.5593 17.0789 77.6833 17.1176 77.7693 17.1053C78.1574 17.05 78.5989 17.1196 79.0514 17.269C79.506 17.419 79.9845 17.6539 80.4524 17.9425C81.3869 18.519 82.2978 19.3227 82.9079 20.1358C83.5259 20.9594 84.376 22.9488 85.1448 25.8997C85.9162 28.8602 86.6116 32.811 86.9075 37.5763L86.9362 37.9894C87.265 42.2795 88.6255 47.2857 90.7544 51.5379C92.9563 55.9357 95.9574 59.482 99.4453 60.6382C101.205 61.2215 102.524 61.2929 103.511 61.0881C104.494 60.884 105.162 60.403 105.62 59.8538C106.001 59.3963 106.237 58.8876 106.385 58.4467C105.745 59.3147 104.935 59.9441 104.042 60.1089C102.806 60.337 101.513 59.6625 100.397 57.766V57.7657C99.4498 56.1533 98.7474 53.2979 98.1754 49.868C97.6018 46.4284 97.1545 42.3777 96.7308 38.3526C96.3068 34.3247 95.9066 30.3234 95.4269 26.9727C95.1871 25.2976 94.9278 23.7886 94.6367 22.523C94.3449 21.2543 94.0239 20.2424 93.6645 19.5543C90.7449 13.9629 85.0902 12.9054 80.9317 12.1186H80.9314Z" fill="black"/>
<path d="M41.5572 33.6411C45.5176 49.3942 40.6825 64.7368 39.1809 71.4486C36.0126 85.6294 34.034 97.8365 43.5389 112.808C39.5785 95.875 44.3126 91.2768 46.3096 76.9713C47.7128 67.0581 48.2429 57.0421 47.8938 47.0373C47.7134 41.9495 47.4993 30.4966 46.906 29.9522C45.227 28.4164 41.5572 33.6411 41.5572 33.6411Z" fill="url(#paint14_linear_3347_158754)"/>
<path d="M45.2769 29.702C45.8877 29.4137 46.533 29.3424 47.0407 29.8068H47.041L47.073 29.8407C47.1024 29.8761 47.1239 29.9157 47.1405 29.9509C47.164 30.0008 47.1848 30.0589 47.2035 30.1219C47.241 30.248 47.2754 30.4103 47.3074 30.6013C47.3717 30.9842 47.43 31.5023 47.4833 32.1189C47.5901 33.3531 47.6782 34.9985 47.7533 36.7827C47.9036 40.3498 48.0025 44.4908 48.0926 47.0302V47.0305C48.442 57.0468 47.9115 67.0744 46.5067 76.9988C46.0062 80.5845 45.3341 83.5612 44.6706 86.2714C44.0065 88.9842 43.3536 91.4202 42.8859 93.9401C41.9529 98.9668 41.7583 104.322 43.7326 112.763L43.9992 113.903L43.3709 112.914C33.8214 97.8721 35.8164 85.5964 38.9869 71.4057L39.1375 70.7497C40.7857 63.7172 45.1875 48.8954 41.3645 33.689L41.3424 33.6017L41.3944 33.5278L41.3953 33.5269C41.3958 33.5262 41.3964 33.5249 41.3974 33.5236C41.3992 33.521 41.4019 33.517 41.4054 33.512C41.4127 33.5019 41.4235 33.4871 41.4374 33.4678C41.4652 33.4292 41.506 33.373 41.5584 33.3023C41.6631 33.161 41.8143 32.9611 42.001 32.7262C42.374 32.2569 42.8907 31.6453 43.462 31.0806C44.0304 30.5188 44.6658 29.9904 45.2769 29.702ZM46.7678 30.094C46.4365 29.7942 45.9947 29.8009 45.4474 30.0593C44.8982 30.3185 44.301 30.8085 43.7421 31.3609C43.1861 31.9105 42.6803 32.5088 42.3128 32.9712C42.1292 33.2021 41.9807 33.3986 41.8782 33.537C41.8339 33.5968 41.7981 33.6457 41.7719 33.6819C45.583 48.9663 41.1634 63.8514 39.5248 70.8391L39.3752 71.4915C36.2803 85.3437 34.3356 97.254 43.086 111.701C41.3793 103.864 41.595 98.7171 42.4949 93.8686C42.9653 91.3341 43.6227 88.8796 44.2842 86.1778C44.9462 83.4733 45.6149 80.511 46.1128 76.9442V76.9436C47.4705 67.3514 48.0098 57.6627 47.7253 47.9812L47.6954 47.0442C47.605 44.4958 47.5064 40.3667 47.3561 36.7994C47.281 35.0163 47.1933 33.378 47.0873 32.1527C47.0343 31.5396 46.977 31.034 46.9153 30.6666C46.8844 30.4824 46.8533 30.3378 46.8224 30.2339C46.807 30.1819 46.7927 30.1443 46.7806 30.1187C46.7695 30.095 46.7641 30.0902 46.7678 30.094Z" fill="black"/>
<path d="M81.363 10.9968C81.9563 6.46851 71.6593 0.167262 61.3622 0.960999C48.1202 1.9737 39.5816 11.9882 33.8383 20.0594C28.095 28.1306 20.3821 42.1168 25.9175 49.2057C26.312 47.6303 26.312 44.872 28.6883 42.9044C26.7096 47.235 25.9175 52.7486 31.4621 54.3239C29.0858 50.781 32.2541 46.055 33.8383 44.4797C35.4225 42.9044 48.1813 34.6781 51.2701 32.2695C56.8147 27.9359 61.1726 20.4547 63.5489 18.0917C65.9251 15.7288 72.4575 11.9882 77.2099 17.1064C80.3721 15.9204 81.0082 13.8129 81.363 10.9968Z" fill="url(#paint15_linear_3347_158754)"/>
<path d="M81.3447 10.9937C81.6016 7.44167 76.7268 4.55259 73.901 3.27531C70.4356 1.74149 66.6766 0.974313 62.8838 1.02682C59.091 1.07933 55.3549 1.95026 51.9338 3.57942C48.5239 5.20762 45.3953 7.36318 42.6644 9.96582C35.2512 16.8175 18.6635 39.3554 26.0124 49.1175L25.8014 49.1631C26.3029 46.5173 26.6332 44.2729 28.9605 42.5395L28.7801 42.9318C26.8564 47.01 25.9665 52.7334 31.4805 54.2539L31.4101 54.3452C31.0234 53.761 30.7592 53.1052 30.6333 52.4171C30.1838 49.6284 31.6487 46.8974 33.3857 44.8142C34.8047 43.315 36.6764 42.2506 38.3339 41.028C40.6398 39.4649 46.4046 35.5114 48.5912 33.9908C53.2764 30.9892 56.7933 26.6465 60.0595 22.2247C61.717 20.0289 63.2981 17.6173 65.7661 16.2397C68.124 14.8164 71.063 13.9619 73.7725 14.8195C75.1008 15.2641 76.2905 16.0437 77.2253 17.0821C80.0786 15.9477 80.9716 14.0926 81.3355 10.9998L81.3447 10.9937ZM81.3844 10.9937C81.1642 12.9157 80.6596 15.0354 78.9715 16.2093C78.4315 16.5906 77.842 16.8975 77.2191 17.1216H77.1947L77.1763 17.1034C76.2527 16.0809 75.0657 15.3289 73.7436 14.9285C72.4214 14.5282 71.0144 14.4947 69.6745 14.8316C66.9795 15.4644 64.5682 16.9603 62.8119 19.0892C59.4203 23.4259 56.3896 28.164 52.1356 31.7586C51.0744 32.671 49.9215 33.4434 48.79 34.2372C44.2424 37.3847 39.5572 40.3407 35.0769 43.5826C32.0921 45.6414 29.2235 50.9026 31.5141 54.2722L31.6058 54.4121L31.4438 54.3665C27.4069 53.2808 26.52 49.7743 27.4681 46.0854C27.747 44.9725 28.1278 43.8874 28.6057 42.8436L28.7586 42.9591C27.8645 43.7111 27.1914 44.6893 26.8106 45.7905C26.3732 46.9735 26.2876 48.2234 25.9818 49.4581C19.4433 41.247 29.7312 25.278 34.9057 18.2225C41.5573 9.05347 50.8787 0.842396 62.87 0.772449C68.5491 0.802861 74.3658 2.55456 78.7727 6.18872C80.1397 7.40518 81.5893 9.04739 81.3967 10.9998L81.3844 10.9937Z" fill="black"/>
<path d="M66.3291 16.0481C68.0019 14.8925 69.898 13.8737 72.0296 14.0257C72.9445 14.0993 73.8345 14.3582 74.6449 14.7865C75.4554 15.2149 76.1692 15.8036 76.7423 16.5164C77.8249 17.7329 76.4946 16.6381 75.886 16.4282C73.879 15.2545 71.4925 14.9003 69.2283 15.4399C68.3108 15.6284 67.3444 15.9325 66.3322 16.0481H66.3291Z" fill="black"/>
<path d="M36.5115 78.3428C34.0649 84.1484 30.3798 95.2546 34.2943 100.866L33.9701 101.097C30.0525 95.3185 33.9212 84.2274 36.5115 78.3428Z" fill="black"/>
<path d="M87.8984 41.5177C88.3754 43.689 88.4733 45.9273 88.5865 48.1413C88.7399 52.5839 88.6501 57.0316 88.3173 61.4645C88.1522 63.6815 87.932 65.8954 87.6201 68.1003C87.1307 71.3938 86.5527 74.7421 85.1735 77.8076C83.6588 80.8136 81.5529 83.4868 78.9806 85.6689C77.253 87.0896 75.3265 88.2523 73.2617 89.1206C75.2829 88.1818 77.1616 86.9656 78.843 85.5077C81.3287 83.2941 83.3681 80.6304 84.8524 77.6586C86.2041 74.6174 86.7332 71.3056 87.2439 68.0455C88.132 61.4501 88.5215 54.7977 88.4091 48.1443C88.3571 45.9304 88.3173 43.7012 87.9014 41.5177H87.8984Z" fill="black"/>
<path d="M96.6055 68.6933C98.4476 70.0213 100.498 71.0375 102.673 71.701C105.34 72.5555 108.41 72.3244 111.163 73.3097C114.181 74.3528 116.362 77.0625 115.909 80.3226C115.764 81.4891 115.332 82.6019 114.649 83.5614C115.101 82.5261 115.334 81.4089 115.331 80.28C115.377 77.394 113.413 75.2621 110.765 74.3832C109.169 73.8298 107.505 73.7416 105.802 73.4709C102.274 72.9796 99.0257 71.2919 96.6055 68.6933Z" fill="black"/>
<path d="M47.897 34.8241C47.845 35.4019 47.8236 35.9736 47.8236 36.5484C47.8236 37.1232 47.8236 37.698 47.8481 38.2727C47.897 39.4193 47.9337 40.5658 48.0132 41.7092C48.157 43.9992 48.3374 46.2862 48.5362 48.567C48.946 53.1287 49.42 57.6904 50.0959 62.17C50.4415 64.4144 50.8329 66.6466 51.3681 68.8088C51.6213 69.8698 51.941 70.9139 52.3253 71.9351C52.4201 72.1815 52.521 72.4187 52.6311 72.6528L52.7963 72.9904L52.9951 73.3554L53.3865 74.0883C53.5119 74.3346 53.6618 74.5657 53.7994 74.806C54.9143 76.7251 56.2562 78.5047 57.7965 80.1067C59.3982 81.7342 61.1838 83.1721 63.1178 84.3917C61.9834 84.0712 60.8792 83.653 59.818 83.1417C58.7439 82.6148 57.7203 81.9918 56.7597 81.2806C54.8312 79.8329 53.1483 78.0875 51.7748 76.1106C51.4201 75.621 51.0959 75.1162 50.784 74.59L50.5454 74.2069L50.313 73.7781C50.1662 73.4922 50.0317 73.2063 49.9032 72.9205C49.43 71.8025 49.0386 70.6519 48.7319 69.4779C48.136 67.2076 47.6805 64.9032 47.3679 62.5775C46.7473 57.9668 46.4458 53.3192 46.4658 48.6674C46.4658 46.347 46.5545 44.0266 46.7471 41.7123C46.8511 40.5536 46.952 39.398 47.1355 38.2454C47.2854 37.0845 47.5403 35.9394 47.897 34.8241Z" fill="url(#paint16_linear_3347_158754)"/>
<path d="M58.9892 4.10554C57.8619 4.38208 56.8261 4.94478 55.983 5.73863C55.1264 6.50615 54.3281 7.3356 53.5945 8.2202C52.0838 9.98102 50.625 11.8361 49.0347 13.6182C47.4499 15.4384 45.7283 17.1362 43.8847 18.6969C42.944 19.4856 41.963 20.2256 40.9458 20.9139C39.9256 21.5988 38.8644 22.2213 37.7683 22.7781L36.9701 23.1735L36.1933 23.578C35.6764 23.8425 35.1627 24.1193 34.6642 24.396C33.6448 24.9556 32.6376 25.5365 31.6427 26.1386C29.658 27.3257 27.7574 28.6466 25.9544 30.0921C25.0636 30.8179 24.216 31.5947 23.4161 32.4186C22.617 33.2296 21.9066 34.1226 21.2967 35.0826C21.0023 35.5606 20.7506 36.0633 20.5444 36.5849C20.3371 37.0961 20.2222 37.6397 20.2049 38.1906C20.1796 38.7331 20.3584 39.2654 20.7065 39.6838C20.8954 39.8882 21.1316 40.0437 21.3946 40.137C21.6717 40.2326 21.9638 40.2779 22.257 40.2708C21.9601 40.3331 21.654 40.3393 21.3548 40.289C21.0431 40.2312 20.7502 40.0986 20.5016 39.9028C20.006 39.4783 19.6966 38.8781 19.6392 38.2302C19.5695 37.6021 19.613 36.9667 19.7676 36.3538C19.9085 35.751 20.1136 35.1648 20.3793 34.6051C21.4343 32.3699 23.0399 30.4844 24.7708 28.7966C28.2603 25.4331 32.3736 22.7964 36.5266 20.5003C38.4869 19.3394 40.352 18.0266 42.1048 16.5742C43.8664 15.1145 45.5606 13.5331 47.2365 11.9152C48.9124 10.2973 50.5853 8.60947 52.4355 7.04936C53.3659 6.25404 54.3717 5.55027 55.4386 4.94793C55.982 4.64777 56.5588 4.412 57.1574 4.24543C57.7529 4.08014 58.3753 4.03261 58.9892 4.10554Z" fill="url(#paint17_linear_3347_158754)"/>
<path d="M45.533 54.9078C45.837 55.9147 45.9663 56.9657 45.9153 58.0158C45.8816 58.5389 45.8633 59.0711 45.7807 59.5881L45.6737 60.3697L45.536 61.1421C45.1188 63.176 44.564 65.1796 43.8754 67.1393C42.5359 71.0593 40.9457 74.8333 39.4165 78.5983C37.8874 82.3632 36.3828 86.1069 35.2849 89.9478C34.7181 91.8553 34.318 93.8078 34.0891 95.7838C33.8421 97.7851 33.9581 99.8142 34.4317 101.775C33.3521 99.9957 32.8781 97.8639 32.7252 95.7625C32.6174 93.6522 32.7642 91.5367 33.1625 89.4612C33.9118 85.3222 35.3032 81.384 36.8476 77.5643C38.392 73.7446 40.1658 70.0496 41.8539 66.3546C42.698 64.5087 43.5237 62.6627 44.2332 60.7802C44.5936 59.8424 44.8999 58.8849 45.1507 57.9124C45.2119 57.6691 45.2547 57.4259 45.3097 57.1795L45.3862 56.8085L45.4259 56.4344L45.4749 56.0573C45.4973 55.9319 45.5076 55.8046 45.5055 55.6772C45.5116 55.4278 45.5146 55.1693 45.533 54.9078Z" fill="url(#paint18_linear_3347_158754)"/>
<path d="M37.9978 43.093C37.3963 43.7552 36.936 44.5319 36.6448 45.3761C36.3536 46.2203 36.2375 47.1144 36.3036 48.0044C36.3601 48.8898 36.6128 49.7517 37.0436 50.5285C37.2933 50.9027 37.5122 51.2963 37.6981 51.7055C38.8419 54.6432 38.1813 58.3291 35.8265 60.5248C35.1506 61.1475 34.3688 61.6459 33.5175 61.9967L33.3677 61.6318C34.1853 61.3127 34.9392 60.8513 35.5941 60.2693C37.8999 58.2044 38.5911 54.6493 37.5391 51.7815C37.3611 51.3755 37.1515 50.9841 36.9121 50.6107C36.4891 49.8096 36.247 48.9264 36.2026 48.0227C36.1528 47.1249 36.2861 46.2265 36.5946 45.3814C36.9031 44.5362 37.3804 43.762 37.9978 43.1051V43.093Z" fill="black"/>
<path opacity="0.2" d="M63.0109 16.5681C65.3871 16.6685 57.136 16.1849 56.8944 14.5458C56.6528 12.9066 57.9893 10.9968 57.9893 10.9968C57.9893 10.9968 54.7629 11.824 51.934 15.5585C49.1052 19.293 48.729 20.3057 48.729 20.3057C48.729 20.3057 50.4905 17.596 53.7659 17.9458C57.0412 18.2955 54.7231 22.6261 54.7231 22.6261C54.7231 22.6261 59.7661 16.4313 63.0109 16.5681Z" fill="#C79984"/>
<path opacity="0.2" d="M53.6648 12.8062C55.2153 12.8701 49.8298 12.5538 49.6891 11.4864C49.5484 10.4189 50.4047 9.16904 50.4047 9.16904C50.4047 9.16904 48.2976 9.70732 46.4505 12.1494C44.6033 14.5914 44.3525 15.2422 44.3525 15.2422C44.3525 15.2422 45.5024 13.4753 47.6401 13.7034C49.7778 13.9315 48.2518 16.7445 48.2518 16.7445C48.2518 16.7445 51.5455 12.7028 53.6648 12.8062Z" fill="#C79984"/>
<path opacity="0.2" d="M84.0667 19.6427C82.4642 19.0984 88.0699 20.8957 88.6541 19.8678C89.2382 18.8399 88.8467 17.2281 88.8467 17.2281C88.8467 17.2281 90.7765 18.6057 91.6847 21.8171C92.593 25.0286 92.6022 25.7919 92.6022 25.7919C92.6022 25.7919 92.1343 23.5384 89.8682 22.9302C87.602 22.322 88.0332 25.795 88.0332 25.795C88.0332 25.795 86.2472 20.3848 84.0667 19.6427Z" fill="#C79984"/>
<path d="M45.9186 26.1599C42.9766 28.9486 39.3893 30.9558 36.3433 33.6198C33.2238 36.1898 30.6781 39.3791 28.869 42.9835L28.5112 42.8101C30.4002 39.1987 33.0236 36.0172 36.2149 33.4677C39.3129 30.8463 42.943 28.906 45.9186 26.169V26.1599Z" fill="black"/>
<path d="M60.1759 0.954918C65.5156 -0.4805 71.6014 -0.492666 76.5374 2.28694C78.4916 3.43649 80.2623 5.09695 81.1002 7.23487C81.4764 8.26582 81.7119 9.5583 81.0513 10.5163C81.4336 9.48532 81.0513 8.38746 80.5711 7.47512C79.5436 5.63219 77.8188 4.25152 75.9838 3.26314C71.1396 0.729875 65.5339 0.696421 60.1729 0.954918H60.1759Z" fill="black"/>
<path opacity="0.2" d="M79.8041 48.0025C85.0446 48.0025 89.2928 43.1589 89.2928 37.1842C89.2928 31.2094 85.0446 26.3659 79.8041 26.3659C74.5637 26.3659 70.3154 31.2094 70.3154 37.1842C70.3154 43.1589 74.5637 48.0025 79.8041 48.0025Z" fill="url(#paint19_linear_3347_158754)"/>
<path opacity="0.2" d="M56.4427 46.3543C61.6786 46.3543 65.923 41.5174 65.923 35.5508C65.923 29.5842 61.6786 24.7473 56.4427 24.7473C51.2069 24.7473 46.9624 29.5842 46.9624 35.5508C46.9624 41.5174 51.2069 46.3543 56.4427 46.3543Z" fill="url(#paint20_linear_3347_158754)"/>
<path d="M89.0851 37.1841C89.0851 31.2862 84.8941 26.5523 79.7791 26.5523C74.664 26.5523 70.473 31.2862 70.473 37.1841C70.4731 43.082 74.664 47.8159 79.7791 47.8159C84.8941 47.8159 89.0851 43.082 89.0851 37.1841ZM89.4826 37.1841C89.4826 43.2481 85.1628 48.2112 79.7791 48.2112C74.3953 48.2112 70.0752 43.2481 70.0752 37.1841C70.0752 31.1201 74.3953 26.1567 79.7791 26.1567C85.1628 26.1567 89.4826 31.1201 89.4826 37.1841Z" fill="#E6E6E6"/>
<path d="M65.7174 35.551C65.7174 29.6531 61.5265 24.9192 56.4114 24.9192C51.2963 24.9192 47.1053 29.6531 47.1053 35.551C47.1054 41.4489 51.2963 46.1829 56.4114 46.1829C61.5264 46.1828 65.7174 41.4489 65.7174 35.551ZM66.1149 35.551C66.1149 41.615 61.7951 46.5781 56.4114 46.5781C51.0277 46.5781 46.7076 41.615 46.7075 35.551C46.7075 29.487 51.0276 24.5236 56.4114 24.5236C61.7951 24.5237 66.1149 29.487 66.1149 35.551Z" fill="#E6E6E6"/>
<path d="M65.7207 35.2131C67.4699 34.2057 69.2198 34.6106 70.4965 35.4712L70.0521 36.1234C68.9556 35.3843 67.537 35.0775 66.1179 35.8947L65.7207 35.2131Z" fill="#E6E6E6"/>
</g>
</g>
<defs>
<linearGradient id="paint0_linear_3347_158754" x1="13.8624" y1="77.4122" x2="60.5706" y2="77.4122" gradientUnits="userSpaceOnUse">
<stop offset="0.24" stop-color="#934661"/>
<stop offset="0.57" stop-color="#592B34"/>
<stop offset="0.77" stop-color="#3C1D1D"/>
</linearGradient>
<linearGradient id="paint1_linear_3347_158754" x1="10.2539" y1="58.7244" x2="55.4237" y2="58.7244" gradientUnits="userSpaceOnUse">
<stop offset="0.24" stop-color="#934661"/>
<stop offset="0.57" stop-color="#592B34"/>
<stop offset="0.77" stop-color="#3C1D1D"/>
</linearGradient>
<linearGradient id="paint2_linear_3347_158754" x1="75.6872" y1="86.5387" x2="111.432" y2="24.2744" gradientUnits="userSpaceOnUse">
<stop offset="0.24" stop-color="#934661"/>
<stop offset="0.57" stop-color="#592B34"/>
<stop offset="0.77" stop-color="#3C1D1D"/>
</linearGradient>
<linearGradient id="paint3_linear_3347_158754" x1="29.8752" y1="85.7419" x2="47.8093" y2="64.2516" gradientUnits="userSpaceOnUse">
<stop stop-color="#9A657E"/>
<stop offset="0.11" stop-color="#945A74"/>
<stop offset="0.31" stop-color="#843D59"/>
<stop offset="0.33" stop-color="#823A56"/>
<stop offset="0.42" stop-color="#74354B"/>
<stop offset="0.65" stop-color="#582933"/>
<stop offset="0.85" stop-color="#462225"/>
<stop offset="1" stop-color="#402020"/>
</linearGradient>
<linearGradient id="paint4_linear_3347_158754" x1="66.0048" y1="151.884" x2="66.0048" y2="88.7557" gradientUnits="userSpaceOnUse">
<stop offset="0.24" stop-color="#327B88"/>
<stop offset="0.77" stop-color="#3AA675"/>
</linearGradient>
<linearGradient id="paint5_linear_3347_158754" x1="80.1677" y1="145.476" x2="80.1677" y2="82.8832" gradientUnits="userSpaceOnUse">
<stop offset="0.24" stop-color="#327B88"/>
<stop offset="0.77" stop-color="#3AA675"/>
</linearGradient>
<linearGradient id="paint6_linear_3347_158754" x1="65.4118" y1="69.9006" x2="65.4118" y2="59.728" gradientUnits="userSpaceOnUse">
<stop stop-color="#A05A4A" stop-opacity="0.9"/>
<stop offset="0.2" stop-color="#9C5848" stop-opacity="0.9"/>
<stop offset="0.36" stop-color="#915143" stop-opacity="0.91"/>
<stop offset="0.52" stop-color="#7D463A" stop-opacity="0.92"/>
<stop offset="0.66" stop-color="#62372D" stop-opacity="0.94"/>
<stop offset="0.81" stop-color="#3E231D" stop-opacity="0.96"/>
<stop offset="0.94" stop-color="#140B09" stop-opacity="0.99"/>
<stop offset="1"/>
</linearGradient>
<linearGradient id="paint7_linear_3347_158754" x1="56.4783" y1="39.255" x2="58.4738" y2="33.7464" gradientUnits="userSpaceOnUse">
<stop stop-color="#A86104"/>
<stop offset="0.21" stop-color="#A66005"/>
<stop offset="0.28" stop-color="#9F5D07"/>
<stop offset="0.34" stop-color="#94570A"/>
<stop offset="0.38" stop-color="#834F0F"/>
<stop offset="0.42" stop-color="#6D4416"/>
<stop offset="0.45" stop-color="#52371E"/>
<stop offset="0.48" stop-color="#302728"/>
</linearGradient>
<linearGradient id="paint8_linear_3347_158754" x1="76.2833" y1="40.7999" x2="78.3515" y2="35.0812" gradientUnits="userSpaceOnUse">
<stop stop-color="#A86104"/>
<stop offset="0.15" stop-color="#A66005"/>
<stop offset="0.23" stop-color="#9E5C07"/>
<stop offset="0.28" stop-color="#92560B"/>
<stop offset="0.32" stop-color="#7F4D10"/>
<stop offset="0.36" stop-color="#684217"/>
<stop offset="0.4" stop-color="#4B3420"/>
<stop offset="0.43" stop-color="#302728"/>
</linearGradient>
<linearGradient id="paint9_linear_3347_158754" x1="58.0382" y1="50.9239" x2="57.4295" y2="49.24" gradientUnits="userSpaceOnUse">
<stop stop-color="#A05A4A" stop-opacity="0.9"/>
<stop offset="0.33" stop-color="#A25C4B" stop-opacity="0.91"/>
<stop offset="0.6" stop-color="#A96450" stop-opacity="0.93"/>
<stop offset="0.86" stop-color="#B47057" stop-opacity="0.97"/>
<stop offset="1" stop-color="#BC795D"/>
</linearGradient>
<linearGradient id="paint10_linear_3347_158754" x1="80.1273" y1="74.6035" x2="98.9062" y2="85.6121" gradientUnits="userSpaceOnUse">
<stop stop-color="#51272E"/>
<stop offset="0.06" stop-color="#562932"/>
<stop offset="0.41" stop-color="#6E3246"/>
<stop offset="0.73" stop-color="#7D3852"/>
<stop offset="1" stop-color="#823A56"/>
</linearGradient>
<linearGradient id="paint11_linear_3347_158754" x1="70.1362" y1="75.5906" x2="93.0759" y2="75.5906" gradientUnits="userSpaceOnUse">
<stop offset="0.24" stop-color="#934661"/>
<stop offset="0.57" stop-color="#592B34"/>
<stop offset="0.77" stop-color="#3C1D1D"/>
</linearGradient>
<linearGradient id="paint12_linear_3347_158754" x1="68.2954" y1="55.9144" x2="89.7641" y2="55.9144" gradientUnits="userSpaceOnUse">
<stop offset="0.24" stop-color="#934661"/>
<stop offset="0.57" stop-color="#592B34"/>
<stop offset="0.77" stop-color="#3C1D1D"/>
</linearGradient>
<linearGradient id="paint13_linear_3347_158754" x1="82.6509" y1="51.4196" x2="100.188" y2="20.8745" gradientUnits="userSpaceOnUse">
<stop offset="0.24" stop-color="#934661"/>
<stop offset="0.57" stop-color="#592B34"/>
<stop offset="0.77" stop-color="#3C1D1D"/>
</linearGradient>
<linearGradient id="paint14_linear_3347_158754" x1="36.5662" y1="71.2357" x2="48.007" y2="71.2357" gradientUnits="userSpaceOnUse">
<stop offset="0.24" stop-color="#934661"/>
<stop offset="0.57" stop-color="#592B34"/>
<stop offset="0.77" stop-color="#3C1D1D"/>
</linearGradient>
<linearGradient id="paint15_linear_3347_158754" x1="27.7035" y1="51.9883" x2="71.1732" y2="-0.105886" gradientUnits="userSpaceOnUse">
<stop offset="0.24" stop-color="#934661"/>
<stop offset="0.57" stop-color="#592B34"/>
<stop offset="0.77" stop-color="#3C1D1D"/>
</linearGradient>
<linearGradient id="paint16_linear_3347_158754" x1="70.855" y1="77.8441" x2="37.8794" y2="42.635" gradientUnits="userSpaceOnUse">
<stop stop-color="#9A657E"/>
<stop offset="0.11" stop-color="#945A74"/>
<stop offset="0.31" stop-color="#843D59"/>
<stop offset="0.33" stop-color="#823A56"/>
<stop offset="0.42" stop-color="#74354B"/>
<stop offset="0.65" stop-color="#582933"/>
<stop offset="0.85" stop-color="#462225"/>
<stop offset="1" stop-color="#402020"/>
</linearGradient>
<linearGradient id="paint17_linear_3347_158754" x1="24.5078" y1="43.8502" x2="52.1513" y2="-1.41533" gradientUnits="userSpaceOnUse">
<stop stop-color="#9A657E"/>
<stop offset="0.11" stop-color="#945A74"/>
<stop offset="0.31" stop-color="#843D59"/>
<stop offset="0.33" stop-color="#823A56"/>
<stop offset="0.42" stop-color="#74354B"/>
<stop offset="0.65" stop-color="#582933"/>
<stop offset="0.85" stop-color="#462225"/>
<stop offset="1" stop-color="#402020"/>
</linearGradient>
<linearGradient id="paint18_linear_3347_158754" x1="49.4628" y1="88.3573" x2="30.4319" y2="68.0395" gradientUnits="userSpaceOnUse">
<stop stop-color="#9A657E"/>
<stop offset="0.11" stop-color="#945A74"/>
<stop offset="0.31" stop-color="#843D59"/>
<stop offset="0.33" stop-color="#823A56"/>
<stop offset="0.42" stop-color="#74354B"/>
<stop offset="0.65" stop-color="#582933"/>
<stop offset="0.85" stop-color="#462225"/>
<stop offset="1" stop-color="#402020"/>
</linearGradient>
<linearGradient id="paint19_linear_3347_158754" x1="79.8041" y1="26.3659" x2="79.8041" y2="48.0025" gradientUnits="userSpaceOnUse">
<stop stop-color="#60FFFF"/>
<stop offset="1" stop-opacity="0"/>
</linearGradient>
<linearGradient id="paint20_linear_3347_158754" x1="56.4427" y1="24.7473" x2="56.4427" y2="46.3543" gradientUnits="userSpaceOnUse">
<stop stop-color="#60FFFF"/>
<stop offset="1" stop-opacity="0"/>
</linearGradient>
<clipPath id="clip0_3347_158754">
<rect width="167" height="250" fill="white" transform="translate(-22.5273)"/>
</clipPath>
</defs>
</svg>
