<svg width="123" height="149" viewBox="0 0 123 149" fill="none" xmlns="http://www.w3.org/2000/svg">
<rect x="0.5" y="27.5" width="121" height="121" rx="60.5" stroke="black" stroke-opacity="0.05"/>
<mask id="mask0_6007_215924" style="mask-type:luminance" maskUnits="userSpaceOnUse" x="-1" y="-4" width="124" height="153">
<path d="M120 100.001C118.5 102.001 116 129.001 84 143.499C81 144.499 76 147.999 60.9997 148C45.9657 148.001 32.5703 142.919 20.9994 133.001C13.9994 127.001 5.99941 117.001 2.99948 102.5C-8.50038 68.4989 10.9998 63.9994 13.4999 62.4994C13.4999 32.676 32 -4.50058 49 -2.99999C107.5 -5.00058 110 12.5 121.5 48.0002C126 60.5002 110.5 89.5007 120 100.001Z" fill="white"/>
</mask>
<g mask="url(#mask0_6007_215924)">
<g clip-path="url(#clip0_6007_215924)">
<path d="M50.6223 165.998C72.4077 162.727 108.396 154.653 105.316 149.545C102.236 144.436 89.2896 83.0383 82.1897 80.2029C75.0898 77.3675 47.1902 73.8931 43.1688 80.2029C39.1475 86.5127 39.7599 162.486 43.6617 164.131C47.5634 165.776 50.6223 165.998 50.6223 165.998Z" fill="#F1E8F2"/>
<path d="M101.491 146.369C99.8092 147.802 97.8718 148.902 95.9557 149.99C92.1201 152.175 88.0041 153.804 83.8613 155.296C79.781 156.814 75.5721 158.489 71.3704 159.608C65.0062 161.397 58.3795 162.424 51.7671 162.383V162.308C52.8599 162.17 53.9546 162.082 55.042 161.928C58.292 161.524 61.5705 160.997 64.774 160.338C68.524 159.608 72.2739 158.679 75.9614 157.654C77.4846 157.221 79.1952 156.727 80.6845 156.21C83.813 155.171 86.8112 153.779 89.7665 152.339C91.4915 151.51 93.995 150.33 95.6807 149.468C97.0325 148.783 98.7271 147.911 100.04 147.154C100.516 146.884 100.995 146.62 101.443 146.303L101.493 146.36L101.491 146.369Z" fill="black"/>
<path d="M90.7772 64.011C93.2382 64.7588 95.6095 65.7735 97.8485 67.0369C98.6166 67.4298 99.3445 67.8966 100.022 68.4305C101.934 70.0823 102.364 73.3876 101.764 75.7282C101.536 76.5576 101.147 77.3977 100.452 77.9335L100.427 77.9032C101.022 77.2909 101.32 76.4793 101.481 75.6623C101.772 74.0111 101.65 72.3137 101.123 70.7213C100.354 68.1831 97.761 66.9835 95.4539 66.1149C94.6575 65.8087 93.8771 65.467 93.0914 65.1288C92.3057 64.7906 91.5307 64.4328 90.77 64.0413L90.7843 64.0057L90.7772 64.011Z" fill="black"/>
<path d="M93.895 67.1223C98.2985 68.9787 105.197 71.9921 107.768 76.0984C108.55 77.4794 109.041 79.0054 109.209 80.5825C109.377 82.1596 109.22 83.7543 108.747 85.2685C108.345 86.429 107.643 87.6073 106.513 88.1662C107.477 87.4204 107.972 86.2759 108.225 85.1208C108.882 81.8475 108.132 77.7804 105.75 75.3312C104.547 74.0568 103.063 72.9871 101.597 71.9939C99.0664 70.3119 96.445 68.799 93.895 67.108V67.1223Z" fill="black"/>
<path d="M98.6344 48.9102C97.004 52.5306 94.5523 51.7688 92.3362 54.25C90.1202 56.7312 88.4345 62.6155 92.3362 65.7713C96.238 68.9271 102.784 72.9266 105.629 80.0694C108.473 87.2122 107.325 91.4038 103.281 94.5543C104.266 91.4038 105.143 88.8052 102.411 85.3415C103.125 90.2611 103.125 91.6068 101.018 94.5543C98.9111 97.5018 92.8041 97.5018 92.8041 97.5018C92.8041 97.5018 72.9204 79.3948 72.9204 73.2042C72.9204 67.0137 72.3294 48.7393 77.2061 42.0558C82.0828 35.3722 77.4793 28.8987 88.1952 32.7095C98.9111 36.5202 98.6344 48.9102 98.6344 48.9102Z" fill="url(#paint0_linear_6007_215924)"/>
<path d="M92.8037 97.6922H92.7296L92.6749 97.6425L92.8037 97.5019V97.6922ZM82.614 31.4339C83.8168 31.2507 85.5782 31.5767 88.2591 32.53C93.6881 34.4607 96.3305 38.5669 97.6131 42.1753C98.2542 43.979 98.557 45.6615 98.6997 46.8929C98.771 47.5089 98.8024 48.0126 98.816 48.3631C98.8227 48.5384 98.8251 48.6754 98.8257 48.769C98.826 48.8157 98.8258 48.8517 98.8256 48.8762C98.8255 48.8884 98.8255 48.8978 98.8254 48.9042C98.8253 48.9073 98.8252 48.9098 98.8252 48.9115C98.8252 48.9124 98.8252 48.9131 98.8252 48.9136C98.8252 48.9138 98.825 48.914 98.825 48.9141L98.6341 48.9103L98.825 48.9144L98.8243 48.953L98.8085 48.9881C97.971 50.8479 96.9132 51.59 95.7935 52.1758C94.68 52.7584 93.5571 53.1691 92.4787 54.3766C91.3988 55.5856 90.4389 57.6386 90.2319 59.7759C90.0254 61.9081 90.5691 64.0969 92.4564 65.6234C96.3306 68.7569 102.938 72.7967 105.806 79.9991C107.235 83.5877 107.672 86.4601 107.226 88.8439C106.778 91.2344 105.448 93.1078 103.398 94.7044L102.916 95.0801L103.098 94.4976C103.593 92.9145 104.048 91.5069 104.049 90.0652C104.049 88.808 103.704 87.5154 102.706 86.0635C102.991 88.1023 103.121 89.5044 102.962 90.7123C102.782 92.076 102.236 93.1791 101.174 94.6648C100.075 96.2019 97.9558 96.9502 96.1594 97.3199C95.2543 97.5062 94.4167 97.5992 93.8056 97.6456C93.4999 97.6689 93.2503 97.6807 93.0768 97.6865C92.9901 97.6894 92.9223 97.6908 92.8759 97.6915C92.8528 97.6919 92.835 97.6921 92.8229 97.6922H92.8039L92.8037 97.5019L92.6747 97.6422C92.6746 97.642 92.6743 97.6419 92.674 97.6416C92.6734 97.6411 92.6724 97.6402 92.6712 97.639C92.6688 97.6368 92.6652 97.6335 92.6604 97.6291C92.6508 97.6204 92.6364 97.6073 92.6175 97.59C92.5797 97.5555 92.5237 97.5041 92.4508 97.4369C92.3049 97.3025 92.091 97.1047 91.8188 96.8508C91.2745 96.343 90.4971 95.6109 89.5642 94.713C87.6987 92.9173 85.2108 90.4579 82.7225 87.8045C80.2348 85.1519 77.7431 82.3015 75.8721 79.724C74.9368 78.4354 74.1537 77.211 73.6036 76.1106C73.0556 75.0145 72.7291 74.0224 72.7291 73.2042C72.7291 70.1146 72.5811 63.9878 73.0436 57.8008C73.2749 54.7068 73.6593 51.592 74.2926 48.8295C74.9251 46.0702 75.8097 43.6454 77.0513 41.9438C78.2527 40.2973 78.8715 38.6626 79.2895 37.1881C79.4991 36.4488 79.6571 35.7539 79.8148 35.1114C79.9715 34.4727 80.1282 33.8845 80.3334 33.3762C80.5389 32.867 80.7977 32.4264 81.1654 32.0896C81.5357 31.7504 82.0052 31.5267 82.614 31.4339ZM73.1113 73.2042C73.1113 73.9336 73.4062 74.8618 73.9456 75.9408C74.4828 77.0155 75.2531 78.2213 76.1818 79.5008C78.0391 82.0594 80.5184 84.8965 83.0016 87.5445C85.4841 90.1916 87.9672 92.646 89.8298 94.4388C90.761 95.3352 91.537 96.066 92.0801 96.5727C92.3515 96.8259 92.5648 97.0232 92.7101 97.157C92.7828 97.224 92.8386 97.2751 92.8761 97.3095C92.8764 97.3098 92.8768 97.31 92.8772 97.3103C92.9211 97.3096 92.9841 97.3083 93.0639 97.3057C93.2327 97.3 93.4768 97.2886 93.7765 97.2659C94.3763 97.2202 95.1971 97.129 96.0822 96.9469C97.866 96.5797 99.8541 95.8541 100.862 94.4437C101.907 92.982 102.415 91.9385 102.583 90.6626C102.753 89.3735 102.58 87.834 102.222 85.3688L102.119 84.6639L102.561 85.2238C103.95 86.9853 104.432 88.5416 104.431 90.0655C104.43 91.3804 104.069 92.6618 103.652 94.005C105.365 92.5431 106.46 90.8604 106.85 88.7741C107.278 86.4888 106.867 83.6938 105.451 80.1396C102.63 73.0565 96.1448 69.0973 92.2155 65.9192C90.2011 64.2899 89.6367 61.9586 89.8516 59.7394C90.066 57.5253 91.0571 55.3954 92.1932 54.1233C93.3308 52.8496 94.5419 52.4005 95.6159 51.8386C96.6765 51.2837 97.6534 50.6018 98.4435 48.8673C98.4436 48.8448 98.4437 48.8127 98.4435 48.7714C98.4429 48.6816 98.4407 48.5487 98.4341 48.3777C98.4209 48.0357 98.3901 47.5417 98.32 46.9366C98.1797 45.7258 97.8821 44.0726 97.253 42.3025C95.995 38.7632 93.4177 34.769 88.1308 32.8888C85.4538 31.9368 83.772 31.643 82.6717 31.8106C82.1291 31.8933 81.7321 32.0877 81.424 32.37C81.1133 32.6546 80.8815 33.0389 80.6879 33.5184C80.494 33.9988 80.3428 34.5633 80.186 35.2018C80.0302 35.8367 79.8692 36.5437 79.6571 37.2917C79.2319 38.7916 78.5973 40.4725 77.3603 42.1678C76.1636 43.8079 75.2933 46.1739 74.6651 48.9143C74.0376 51.6513 73.6554 54.7454 73.4248 57.8291C72.9637 63.9977 73.1113 70.1032 73.1113 73.2042Z" fill="black"/>
<path d="M86.4916 61.9979C89.3594 71.2036 89.3594 71.9654 94.329 76.538C99.2985 81.1106 101.018 85.9538 100.35 89.4388C99.6824 92.9239 95.7843 100.232 90.1237 100.545C84.463 100.859 75.956 87.456 79.031 83.5206C82.1059 79.5852 86.4916 61.9979 86.4916 61.9979Z" fill="#5C2F32"/>
<path d="M59.4151 7.24958C51.7705 4.57971 43.3582 6.86868 38.0065 15.633C32.6547 24.3973 31.5065 37.3479 31.5065 47.6429C31.5065 52.7797 29.2137 60.218 26.537 64.0288C24.987 66.2359 19.6978 68.7705 14.4318 71.9654C5.63907 77.3052 6.02121 80.3488 10.2569 83.4209C5.25694 79.587 11.3729 75.7673 17.1371 76.5612C12.9318 78.8484 6.98013 86.1549 8.99974 89.7325C11.0194 93.3101 14.7372 94.7163 14.7372 94.7163C14.7372 94.7163 7.54976 88.7269 13.13 85.1635C17.5264 82.6538 17.3032 83.2252 17.3032 83.2252C17.3032 83.2252 13.6747 87.2033 14.4693 90.6563C15.3496 94.4795 17.5264 95.996 17.5264 95.996L50.6616 65.5115C50.6616 65.5115 66.065 9.56881 59.4151 7.24958Z" fill="url(#paint1_linear_6007_215924)"/>
<path d="M47.7864 6.97426C51.5593 5.62402 55.6189 5.72196 59.4783 7.06986L59.5231 7.0862C59.9829 7.26332 60.3295 7.65995 60.5858 8.20525C60.8504 8.76813 61.0291 9.51032 61.1379 10.3957C61.3556 12.1676 61.2981 14.5591 61.0432 17.3487C60.5333 22.9308 59.2293 30.1499 57.7191 37.2894C56.2086 44.4306 54.4903 51.4986 53.1498 56.7809C52.4795 59.4221 51.9037 61.6171 51.4954 63.1519C51.2912 63.9193 51.1288 64.5218 51.0176 64.9323C50.962 65.1376 50.9191 65.2949 50.8901 65.4009C50.8756 65.454 50.8645 65.4943 50.8571 65.5212C50.8535 65.5347 50.8506 65.5449 50.8488 65.5516L50.8462 65.5612L50.6618 65.5115L50.846 65.5619L50.8315 65.6144L50.7914 65.6514L17.5431 96.24L17.417 96.1521L17.4161 96.1514C17.4157 96.151 17.4149 96.1507 17.4142 96.1502C17.4128 96.1491 17.4107 96.1478 17.4083 96.146C17.4033 96.1424 17.3964 96.1373 17.3875 96.1307C17.3697 96.1174 17.3442 96.0978 17.3119 96.0719C17.2472 96.0202 17.1551 95.9431 17.0426 95.8388C16.8176 95.6303 16.5104 95.3132 16.1761 94.8752C15.5279 94.0261 14.7785 92.7239 14.3261 90.8791L14.2832 90.6988C13.8693 88.9001 14.6085 86.9884 15.4221 85.5522C15.8314 84.8295 16.2655 84.2169 16.5971 83.785C16.692 83.6613 16.7787 83.5524 16.8541 83.4598C16.3495 83.6461 15.317 84.1346 13.2295 85.3261C11.8773 86.1907 11.3209 87.1846 11.2171 88.1791C11.1121 89.1859 11.4672 90.2275 12.0076 91.1826C12.5467 92.1353 13.2594 92.9827 13.8402 93.5938C14.1301 93.8988 14.3859 94.1437 14.569 94.312C14.6604 94.3961 14.7337 94.4611 14.7838 94.5048C14.8089 94.5266 14.8281 94.5432 14.841 94.5541C14.8475 94.5596 14.8523 94.5638 14.8555 94.5665C14.8571 94.5678 14.8582 94.5688 14.859 94.5694C14.8593 94.5697 14.8595 94.57 14.8597 94.5701L15.7304 95.2955L14.6694 94.8943L14.6691 94.8941C14.6689 94.8941 14.6686 94.8941 14.6684 94.894C14.6678 94.8937 14.667 94.8933 14.6659 94.8929C14.6638 94.8921 14.6607 94.8909 14.6569 94.8894C14.6491 94.8864 14.6379 94.8821 14.6234 94.8762C14.5943 94.8645 14.552 94.8471 14.4978 94.8237C14.3894 94.7771 14.2333 94.7068 14.0401 94.6113C13.6536 94.4205 13.118 94.1286 12.5187 93.7236C11.3213 92.9144 9.86214 91.6484 8.83332 89.8259C8.29387 88.8703 8.29714 87.685 8.64377 86.4361C8.91023 85.476 9.38361 84.4638 9.99053 83.4617C7.96231 81.9572 6.77887 80.3882 7.27399 78.4955C7.5236 77.5413 8.1953 76.5348 9.34235 75.4385C10.4908 74.341 12.1284 73.1413 14.3325 71.8027L14.8271 71.5046C15.9804 70.8135 17.1289 70.1539 18.2319 69.5227C19.4933 68.8009 20.6943 68.1168 21.7792 67.4637C22.8643 66.8104 23.8289 66.1907 24.6173 65.5986C25.4076 65.005 26.0101 64.4471 26.3805 63.9197C27.7031 62.0366 28.9384 59.245 29.8429 56.2778C30.7471 53.3115 31.3155 50.187 31.3155 47.643C31.3155 37.346 32.4618 24.3474 37.8434 15.534C40.5392 11.1193 44.0129 8.32476 47.7864 6.97426ZM16.5423 76.6867C13.8866 76.461 11.2514 77.1953 9.78214 78.4026C8.99785 79.0471 8.56688 79.8068 8.60296 80.6115C8.63735 81.3783 9.09794 82.2393 10.1965 83.1302C10.3188 82.9378 10.4455 82.7458 10.5766 82.5552C12.213 80.1768 14.5188 77.932 16.5423 76.6867ZM31.6978 47.643C31.6978 50.2358 31.1199 53.399 30.2086 56.3886C29.3259 59.284 28.1255 62.0332 26.8203 63.9548L26.6937 64.138C26.2891 64.7141 25.6492 65.3005 24.8473 65.9028C24.0435 66.5065 23.066 67.1341 21.9768 67.7897C20.8874 68.4455 19.6819 69.1321 18.4222 69.853C17.3191 70.4842 16.1736 71.1423 15.0241 71.831L14.5313 72.1281C12.3391 73.4594 10.7272 74.6426 9.60671 75.7135C8.48484 76.7857 7.86818 77.7334 7.64368 78.5916C7.37431 79.6213 7.6631 80.5662 8.41097 81.4954C8.29654 81.204 8.23407 80.9146 8.22124 80.6286C8.17797 79.6637 8.69882 78.7992 9.53905 78.1087C11.2139 76.7324 14.2414 75.97 17.1635 76.3724L17.7377 76.4515L17.2288 76.7284C15.1585 77.8545 12.6401 80.2296 10.8917 82.7707C10.0184 84.0401 9.34422 85.3409 9.01207 86.5376C8.67936 87.7363 8.69607 88.8061 9.1664 89.6392C10.1572 91.3943 11.5669 92.6201 12.7332 93.4083C13.0878 93.6479 13.4192 93.8465 13.7086 94.007C13.6611 93.9583 13.6124 93.9079 13.5628 93.8557C12.9704 93.2325 12.2349 92.3598 11.6747 91.3698C11.1158 90.382 10.7203 89.2581 10.837 88.1397C10.9549 87.0099 11.5918 85.9196 13.0271 85.0031L13.0311 85.0005L13.0353 84.9982C15.2332 83.7435 16.2903 83.2507 16.8027 83.0734C16.9317 83.0287 17.032 83.0019 17.1108 82.9889C17.1855 82.9765 17.2591 82.973 17.3246 82.9927C17.4038 83.0165 17.4703 83.0756 17.4904 83.1627C17.4986 83.1979 17.4968 83.2285 17.4936 83.2489C17.4919 83.2595 17.4896 83.2686 17.4875 83.276C17.4864 83.2797 17.4853 83.2831 17.4843 83.2861C17.4838 83.2876 17.4832 83.2891 17.4827 83.2905C17.4825 83.2911 17.4823 83.2917 17.4821 83.2924C17.4819 83.2927 17.4818 83.2933 17.4817 83.2934L17.3033 83.2251L17.4814 83.2943L17.4684 83.3271L17.4447 83.3532C17.4447 83.3533 17.4445 83.3535 17.4444 83.3537C17.444 83.3541 17.4434 83.3548 17.4426 83.3556C17.4411 83.3574 17.4387 83.36 17.4355 83.3636C17.429 83.3708 17.4192 83.3818 17.4064 83.3963C17.3808 83.4254 17.3431 83.4689 17.2951 83.5256C17.1991 83.6391 17.0623 83.8057 16.9005 84.0165C16.5766 84.4384 16.1532 85.036 15.7548 85.7394C14.9527 87.1554 14.275 88.9594 14.6556 90.6136L14.6971 90.7885C15.136 92.5779 15.8608 93.8331 16.4802 94.6445C16.8001 95.0636 17.0922 95.3646 17.3028 95.5599C17.3886 95.6394 17.4611 95.701 17.5162 95.7462L50.4918 65.4086C50.499 65.3823 50.509 65.3463 50.5215 65.3008C50.5504 65.195 50.593 65.0379 50.6486 64.8329C50.7597 64.4229 50.9219 63.8211 51.1259 63.0544C51.5339 61.5208 52.1095 59.3271 52.7794 56.6875C54.1192 51.4081 55.8362 44.3453 57.3453 37.2109C58.8547 30.0749 60.1547 22.8734 60.6626 17.3141C60.9166 14.5329 60.9714 12.1733 60.7586 10.442C60.6522 9.57578 60.48 8.87828 60.2397 8.3669C60.0143 7.88749 59.7382 7.58999 59.4169 7.45435L59.3521 7.42932C55.567 6.10737 51.598 6.01484 47.9156 7.33268C44.234 8.65028 40.8258 11.3824 38.1699 15.732C32.8481 24.4472 31.6978 37.3499 31.6978 47.643Z" fill="black"/>
<path d="M16.9678 83.6167C21.7713 78.1613 27.3462 76.2408 32.3997 71.2036C41.7835 61.8502 45.0049 46.2635 45.0049 46.2635C45.0049 46.2635 42.0371 64.3349 39.0907 76.166L17.5196 95.996C17.5196 95.996 15.3428 94.4849 14.4625 90.6563C13.8143 87.8529 16.0946 84.6989 16.9678 83.6167Z" fill="#5C2F32"/>
<path d="M79.6166 54.2464C78.2773 59.3903 75.2613 68.0016 76.9595 70.5557C78.6577 73.1099 76.747 80.2367 72.9239 81.8172C69.1007 83.3978 58.7794 77.6825 59.1705 73.8771C59.5615 70.0716 62.9936 61.916 67.5811 59.3209C72.1685 56.7258 79.6166 54.2464 79.6166 54.2464Z" fill="black"/>
<path d="M79.8018 54.2942C79.1276 56.8839 78.0446 60.2995 77.3355 63.4143C76.9818 64.9679 76.725 66.4322 76.661 67.663C76.5965 68.9035 76.7306 69.8665 77.1189 70.4506C77.5727 71.1331 77.7743 72.1003 77.7743 73.1707C77.7742 74.2452 77.5711 75.4446 77.1943 76.61C76.4441 78.9297 74.9852 81.1714 72.9972 81.9932C71.9837 82.4122 70.5719 82.3393 69.0608 81.9633C67.5419 81.5854 65.8894 80.8927 64.3725 80.0324C62.8562 79.1723 61.4661 78.1393 60.4768 77.0748C59.4953 76.0187 58.8741 74.8941 58.9806 73.8576C59.1794 71.9236 60.1454 68.9098 61.6328 66.0573C63.1186 63.2078 65.1448 60.4802 67.487 59.1552C69.7932 57.8506 72.8126 56.578 75.2501 55.633C76.4699 55.16 77.546 54.7684 78.3173 54.495C78.7029 54.3582 79.0125 54.251 79.2257 54.1779C79.3322 54.1414 79.4147 54.1134 79.4707 54.0945C79.4986 54.0851 79.52 54.0779 79.5343 54.0731C79.5415 54.0707 79.547 54.0688 79.5507 54.0675C79.5525 54.0669 79.554 54.0666 79.5549 54.0663C79.5553 54.0662 79.5557 54.0659 79.5559 54.0658H79.5561C79.5562 54.0658 79.5563 54.0658 79.6168 54.2464L79.5563 54.0658L79.8902 53.9546L79.8018 54.2942ZM79.3411 54.541C79.1294 54.6136 78.8244 54.7194 78.4455 54.8537C77.6769 55.1262 76.6041 55.5168 75.3885 55.9881C72.9551 56.9315 69.9567 58.1961 67.6755 59.4865C65.4303 60.7567 63.4467 63.4045 61.9718 66.233C60.4986 69.0584 59.5531 72.0251 59.3607 73.8965C59.2718 74.7627 59.7941 75.7797 60.7572 76.816C61.7127 77.8441 63.0686 78.8546 64.5616 79.7014C66.054 80.5479 67.6742 81.2257 69.1534 81.5938C70.6406 81.9638 71.9528 82.0127 72.8509 81.6414C74.686 80.8827 76.094 78.7706 76.8305 76.4932C77.1969 75.3601 77.3921 74.2002 77.3922 73.1707C77.3922 72.137 77.1958 71.2554 76.8005 70.6609C76.3398 69.9679 76.2141 68.8966 76.2793 67.6434C76.345 66.3805 76.6074 64.8915 76.9629 63.33C77.6408 60.3519 78.6707 57.0569 79.3411 54.541Z" fill="black"/>
<path d="M29.3495 70.0609C25.1317 71.9352 21.1817 74.3327 17.2425 76.7249L17.0479 76.3974C21.0549 74.1173 25.0834 71.8195 29.3495 70.0609Z" fill="black"/>
<path d="M21.4409 68.1066C18.491 69.8117 15.2821 71.0541 12.0553 72.1345C9.97323 72.8465 7.76969 73.5015 6.11257 74.9824C4.39295 76.449 3.90725 78.7487 4.74295 80.8383C5.13485 81.8883 5.76921 82.8315 6.59471 83.5918C5.64695 82.9284 4.89125 82.0278 4.40367 80.9807C2.61798 77.1343 5.03937 74.0497 8.59289 72.5955C10.7357 71.7056 12.9214 71.1449 15.0642 70.4311C17.207 69.7174 19.3302 68.9503 21.4409 68.1173V68.1066Z" fill="black"/>
<path d="M120.704 140.586C125.307 133.958 121.564 125.635 121.564 125.635L121.546 122.36C121.545 122.074 121.453 121.796 121.284 121.566C121.114 121.336 120.875 121.165 120.602 121.079C119.189 120.632 116.589 119.85 115.679 119.833C113.893 117.188 111.189 114.893 109.689 110.709C107.779 105.369 100.133 92.4166 97.0736 87.844C94.0147 83.2714 92.4862 79.0014 89.2362 78.0883C85.9863 77.1752 81.781 96.6083 84.8399 103.087C87.8988 109.566 98.9914 140.433 102.425 144.627C105.859 148.82 106.543 146.864 109.4 148.388" fill="#464450"/>
<path d="M94.5274 98.835C93.8131 97.3844 94.0024 95.3499 94.9684 94.9192C96.8505 94.0897 97.1898 94.0755 99.9451 92.6053C104.492 98.5876 111.027 113.569 111.027 113.569C111.027 113.569 109.527 116.075 106.67 115.79C105.818 115.705 104.545 115.434 103.061 113.496L94.5274 98.835Z" fill="#605E6A"/>
<path d="M94.5005 98.8475C93.9987 97.7617 93.8255 96.3556 94.4594 95.2876C94.638 94.9405 95.1612 94.7697 95.4862 94.6024C96.2254 94.2464 96.9719 93.9296 97.6861 93.5522C98.4629 93.1464 99.2343 92.7263 100.008 92.3063L100.129 92.4665C102.513 95.6703 104.236 99.2533 106.022 102.79C107.791 106.368 109.547 109.947 111.218 113.571C110.147 115.447 107.886 116.531 105.77 115.899C104.543 115.543 103.563 114.619 102.822 113.642C102.107 112.41 101.393 111.182 100.704 109.945C98.6933 106.398 96.5486 102.363 94.4933 98.8403L94.5005 98.8475ZM94.5469 98.8243C96.5933 102.349 99.0468 106.211 101.14 109.71C101.868 110.921 102.579 112.142 103.297 113.359C104.166 114.482 105.4 115.545 107.047 115.541C108.575 115.614 110.018 114.696 110.884 113.478L110.873 113.639C109.334 109.999 107.697 106.391 105.874 102.881C104.025 99.3992 102.093 95.9391 99.7629 92.7513L100.061 92.8153C99.3361 93.1927 98.6075 93.5611 97.8504 93.8833C97.0933 94.2054 96.3236 94.476 95.5647 94.7732C95.2379 94.9067 94.7576 95.0278 94.5576 95.3588C93.9112 96.3823 94.0701 97.7706 94.5576 98.8314L94.5469 98.8243Z" fill="black"/>
<path d="M110.263 112.425C110.263 112.425 109.654 113.742 107.265 113.493C106.55 113.421 105.479 113.192 104.249 111.576L97.1059 99.3209C96.5113 98.1088 96.6684 96.409 97.4755 96.053C99.0487 95.3606 98.7773 95.3553 101.081 94.1254" fill="#47444F"/>
<path d="M110.288 112.437C109.518 114.205 106.677 114.039 105.391 112.96C104.918 112.581 104.501 112.137 104.154 111.64C103.586 110.602 102.995 109.58 102.39 108.564C101.517 107.103 100.486 105.492 99.6058 104.032C99.0147 103.066 97.463 100.473 96.8737 99.4704C96.4273 98.5235 96.2987 97.3986 96.7612 96.4286C96.8953 96.1583 97.1185 95.9421 97.3933 95.8163L97.613 95.7255C97.9058 95.6062 98.1933 95.4781 98.4755 95.3446C99.329 94.921 100.186 94.4653 101.075 94.1111L101.1 94.1574C100.325 94.67 99.479 95.2485 98.6844 95.7362C98.3273 95.9409 97.9701 96.1206 97.613 96.2933C97.188 96.5104 97.0916 97.0391 97.0487 97.4929C97.014 98.076 97.1219 98.6587 97.363 99.191C97.9505 100.223 99.4272 102.818 99.9808 103.819C100.815 105.303 101.708 106.994 102.549 108.477C103.133 109.504 103.729 110.524 104.35 111.529C104.709 111.973 105.125 112.365 105.59 112.697C106.048 113.017 106.582 113.214 107.14 113.268C107.845 113.316 108.545 113.323 109.209 113.09C109.612 112.961 109.971 112.724 110.249 112.405L110.297 112.428L110.288 112.437Z" fill="black"/>
<path d="M102.807 96.9928C102.807 96.9928 100.002 98.0999 99.6503 98.431C99.1663 98.8848 100.804 101.257 101.384 101.316C101.965 101.375 104.338 99.6591 104.338 99.6591" fill="#9226A7"/>
<path d="M105.484 102.327C105.484 102.327 105.957 102.05 102.95 103.431C102.332 103.716 104.104 106.257 104.686 106.316C105.268 106.375 107.007 104.995 107.007 104.995" fill="#9226A7"/>
<path d="M108.161 106.9C108.161 106.9 109.232 106.519 105.738 108.103C105.118 108.384 106.922 111.18 107.445 111.035C109.631 110.424 109.307 109.949 109.307 109.949" fill="#9226A7"/>
<path d="M121.525 125.635L121.457 123.124C121.439 122.896 121.457 122.412 121.423 122.196C121.386 121.959 121.28 121.738 121.119 121.56C120.957 121.382 120.747 121.255 120.514 121.194C119.711 120.956 118.907 120.728 118.093 120.521C117.278 120.315 116.4 120.066 115.566 120.039C113.991 117.788 111.93 115.824 110.598 113.391C109.896 112.216 109.445 110.878 108.925 109.634C107.298 105.896 105.291 102.336 103.314 98.7763C101.313 95.236 99.2823 91.6762 97.0877 88.2374C96.3395 87.0983 95.6395 85.9235 94.9628 84.7363C94.286 83.5491 93.611 82.3726 92.8432 81.2566C92.0753 80.1406 91.1825 79.0904 89.9682 78.4942C89.6788 78.3448 89.3689 78.2387 89.0486 78.1791C88.8939 78.1865 88.7421 78.2243 88.6021 78.2903C88.462 78.3562 88.3365 78.4491 88.2325 78.5636C87.7733 79.0492 87.3979 79.6074 87.1218 80.2153C84.6219 85.4892 83.0629 96.4125 84.7754 102.032C87.6147 108.555 90.561 116.173 93.1878 122.841C95.1895 127.899 97.1645 132.976 99.3252 137.97C99.8609 139.216 100.427 140.462 101.027 141.669C101.563 142.713 102.068 143.772 102.813 144.678C103.745 145.828 104.87 146.921 106.343 147.293C106.984 147.471 107.668 147.517 108.346 147.649C109.029 147.772 109.685 148.013 110.284 148.361L110.246 148.429C108.996 147.765 107.629 147.866 106.266 147.619C105.573 147.47 104.916 147.186 104.332 146.784C103.477 146.175 102.714 145.446 102.066 144.621C101.467 143.776 100.937 142.883 100.482 141.952C99.8555 140.732 99.277 139.495 98.7109 138.253C93.3824 126.44 89.1504 114.183 84.1558 102.242C82.4505 96.4766 84.3165 85.5106 86.8861 80.1157C87.329 79.2987 87.9932 77.9798 89.0575 77.9584C89.2414 77.9812 89.4215 78.0279 89.5932 78.0972C92.2949 79.126 93.7699 82.2889 95.236 84.5957C96.6288 86.9416 98.2342 89.1452 99.6663 91.4644C103.27 97.258 106.782 103.139 109.518 109.401C110.032 110.673 110.43 111.937 111.113 113.121C111.776 114.293 112.532 115.411 113.375 116.463C114.207 117.531 115.093 118.583 115.857 119.733L115.687 119.64C117.395 119.833 118.978 120.441 120.602 120.949C120.93 121.051 121.213 121.261 121.405 121.545C121.597 121.829 121.686 122.17 121.657 122.511V123.14L121.616 125.651L121.525 125.635Z" fill="black"/>
<path d="M105.609 133.326C106.63 135.478 109.105 136.51 109.779 133.326C110.452 130.142 109.689 126.384 112.939 124.45C116.189 122.515 118.525 122.522 118.525 122.522C118.525 122.522 108.286 123.348 106.63 126.333C104.975 129.318 105.609 133.326 105.609 133.326Z" fill="#383640"/>
<path d="M103.313 146.222C102.165 143.934 100.515 133.575 100.515 132.431V125.393C100.515 124.811 97.0736 122.901 96.6915 121.381C96.3094 119.861 95.1612 112.234 94.013 107.281C92.8648 102.327 90.572 93.5629 90.572 93.5629L91.3362 79.8433C91.3362 79.8433 84.8381 73.9037 79.1025 72.4905C73.3669 71.0772 71.0669 80.6051 71.0669 80.6051C76.94 94.8248 90.388 126.171 97.6504 150.556" fill="#464450"/>
<path d="M103.277 146.238C102.752 145.2 102.472 144.068 102.163 142.955C101.854 141.843 101.627 140.713 101.381 139.584C100.911 137.315 100.477 135.053 100.217 132.748C100.179 132.267 100.199 131.489 100.19 130.996C100.19 129.679 100.176 126.746 100.168 125.402C99.2416 124.446 97.7184 123.542 96.8095 122.337C96.4167 121.878 96.2881 121.184 96.1863 120.591C95.3703 116.054 94.7399 111.499 93.7399 107.005C92.7399 102.511 91.5971 98.0251 90.4578 93.5558L91.1935 79.4553L91.2435 79.5728C87.7972 76.821 84.0115 74.2437 79.7758 72.9141C76.1205 71.5881 73.817 74.5694 72.4635 77.5775C72.0134 78.5786 71.649 79.6158 71.3742 80.6781C73.592 85.45 76.2634 92.2653 78.608 97.7475C81.5597 104.867 84.5418 112.307 87.2489 119.496C89.4328 125.306 91.5917 131.244 93.5471 137.13C94.931 141.245 96.5077 146.348 97.6952 150.543L97.622 150.566C96.2917 146.398 94.5756 141.37 93.1167 137.278C91.0239 131.443 88.815 125.53 86.5561 119.761C81.9972 108.026 75.6206 92.486 70.7903 80.7226L70.751 80.6265L70.776 80.5339C71.0691 79.4352 71.4556 78.3634 71.9313 77.3301C73.1813 74.5516 75.6348 71.3691 79.0848 72.2431C81.5562 72.8732 83.8329 74.0711 85.9883 75.3953C87.8932 76.5842 89.712 77.9052 91.431 79.3485L91.4864 79.393V79.466C91.4864 79.466 90.6953 93.6768 90.69 93.5273C91.7096 97.5001 93.1899 102.988 94.1417 106.909C95.1131 110.798 96.0792 116.472 96.8381 120.461C96.9559 120.995 96.9899 121.481 97.3595 121.928C98.2256 123.047 99.5023 123.795 100.536 124.775C100.71 124.924 100.825 125.13 100.861 125.356V125.802C100.851 127.563 100.843 130.532 100.834 132.276C100.879 133.547 101.118 134.807 101.295 136.081C101.463 137.217 101.636 138.353 101.831 139.486C102.131 141.181 102.429 142.881 102.84 144.554C102.969 145.111 103.14 145.658 103.352 146.19L103.284 146.223L103.277 146.238Z" fill="black"/>
<path d="M60.2669 164.423C66.3543 155.755 60.1811 106.042 57.3133 90.5139C54.4455 74.9859 42.785 66.8873 42.785 66.8873C42.785 66.8873 28.6352 75.657 24.4352 81.7496C20.2353 87.8422 10.289 110.711 9.52831 114.521C8.76761 118.332 3.79447 130.907 3.41055 134.337C3.02662 137.767 31.7887 157.202 31.7887 157.202" fill="#464450"/>
<path d="M53.8261 98.9614C49.719 99.175 47.8762 99.6004 45.487 99.878C44.4388 99.9991 42.7906 99.9991 42.7852 100.433C42.7674 101.628 42.3049 103.534 42.4281 104.607C42.4763 105.047 42.0227 105.789 43.7566 105.752C46.7601 105.686 52.5333 104.862 54.2761 104.662C56.0189 104.463 55.16 101.015 55.169 99.773C55.16 99.5256 55.3297 98.8831 53.8261 98.9614Z" fill="#605E6A"/>
<path d="M53.8277 98.9738C50.8509 99.0753 47.9795 99.7748 45.0242 100.095C44.3921 100.157 43.751 100.15 43.1421 100.319C43.0672 100.337 42.9985 100.374 42.9439 100.428C42.9225 100.752 42.8814 101.076 42.8314 101.395C42.6635 102.484 42.3814 103.57 42.4975 104.677C42.4778 105.033 42.4028 105.412 42.8046 105.54C43.1483 105.636 43.5072 105.664 43.8617 105.624C44.5957 105.592 45.3314 105.52 46.0653 105.446C48.2688 105.225 50.4652 104.931 52.6634 104.638L54.3044 104.431C55.6133 104.214 55.0705 101.136 55.0919 100.127C55.0598 99.862 55.1634 99.5737 55.0616 99.3245C54.8134 98.9293 54.2437 98.9685 53.8277 98.9685V98.9738ZM53.8277 98.9347C54.5419 98.9098 55.3151 98.908 55.2312 99.8478C55.3026 100.674 55.4973 101.48 55.5419 102.324C55.5973 103.24 55.5205 104.657 54.3794 104.856C52.367 105.097 50.3241 105.355 48.3081 105.568C46.8349 105.711 45.3581 105.846 43.8707 105.864C43.4189 105.855 42.8493 105.885 42.4814 105.536C42.2046 105.207 42.4135 104.783 42.3439 104.411C42.3439 103.071 42.6421 101.751 42.6314 100.41C42.6921 99.7766 44.4939 99.8264 44.9974 99.7445C45.7242 99.6805 46.4581 99.5772 47.1903 99.4882C49.392 99.1981 51.6116 99.0557 53.8277 98.9418V98.9347Z" fill="black"/>
<path d="M54.5903 107.339C50.4832 107.553 48.6404 107.978 46.2511 108.256C45.2029 108.377 43.5565 108.377 43.5494 108.811C43.5315 110.006 43.069 111.912 43.1922 112.985C43.2404 113.425 42.7869 114.169 44.5208 114.13C47.5243 114.064 53.2974 113.24 55.0403 113.04C56.7831 112.841 55.9242 109.393 55.9331 108.151C55.9242 107.909 56.0956 107.266 54.5903 107.339Z" fill="#605E6A"/>
<path d="M54.5919 107.366C51.617 107.466 48.7456 108.165 45.7885 108.486C45.1563 108.548 44.5153 108.541 43.9064 108.71C43.8314 108.727 43.7628 108.765 43.7082 108.819C43.6885 109.142 43.6457 109.466 43.5957 109.785C43.4278 110.874 43.1475 111.96 43.2617 113.069C43.2439 113.416 43.1689 113.802 43.5689 113.93C43.9124 114.027 44.2715 114.055 44.626 114.014C45.3599 113.982 46.0956 113.911 46.8295 113.836C49.0349 113.615 51.2295 113.323 53.4277 113.03C53.7723 112.984 54.733 112.862 55.0687 112.822C56.3776 112.604 55.8348 109.527 55.858 108.518C55.824 108.253 55.9276 107.964 55.8276 107.715C55.5776 107.32 55.008 107.359 54.5919 107.359V107.366ZM54.5919 107.325C55.3062 107.3 56.0776 107.3 55.9955 108.238C56.0669 109.064 56.2598 109.87 56.3044 110.714C56.3598 111.631 56.283 113.048 55.1419 113.247C53.1294 113.487 51.0866 113.745 49.0706 113.959C47.5974 114.101 46.1206 114.237 44.6331 114.254C44.1831 114.254 43.6117 114.276 43.2439 113.927C42.9671 113.598 43.1778 113.174 43.1082 112.804C43.1082 111.463 43.4046 110.134 43.3939 108.801C43.4546 108.167 45.2563 108.217 45.7599 108.137C46.4867 108.071 47.2206 107.959 47.9527 107.879C50.1545 107.589 52.3741 107.446 54.5919 107.332V107.325Z" fill="black"/>
<path d="M31.7692 157.27C32.1442 153.888 33.7817 138.783 34.1209 135.772C35.7477 121.468 37.3137 107.085 37.4637 92.6818C37.4798 91.3469 37.3548 89.478 37.2655 88.4634C36.0605 86.4003 34.6678 84.452 33.1049 82.6431C31.521 80.8864 29.7531 79.1385 27.4746 78.3322L27.4853 78.2948C29.8281 78.9783 31.712 80.6852 33.3442 82.4295C34.9679 84.2202 36.3994 86.1751 37.6155 88.2623L37.6352 88.2979V88.3371C37.7334 89.0615 37.7798 89.7859 37.8137 90.5103C37.9584 95.5635 37.5905 100.615 37.2209 105.652C35.7227 122.858 34.312 140.25 31.771 157.27H31.7692Z" fill="black"/>
<path d="M57.2761 90.521C55.8027 83.5898 52.5132 77.1714 47.7423 71.9192C46.1799 70.1962 44.471 68.5373 42.5978 67.1668L42.9728 67.1775C38.8657 69.7939 34.814 72.5439 30.9908 75.5644C28.7551 77.3764 26.5087 79.2506 24.7623 81.552C23.9786 82.6736 23.259 83.8383 22.607 85.0407C18.2696 93.093 14.691 101.546 11.3804 110.061C10.9018 111.335 10.4233 112.615 10.0483 113.922C9.52863 116.152 8.83221 118.357 8.10008 120.523C7.31973 122.887 5.34655 128.611 4.66084 130.939C4.31809 132.009 4.04549 133.099 3.84478 134.204L3.82693 134.31C3.81939 134.339 3.81578 134.369 3.81621 134.399C3.81799 134.415 3.81799 134.432 3.81621 134.447C3.81621 134.488 3.83764 134.544 3.84657 134.59L3.88049 134.674L3.91264 134.757C4.36085 135.626 5.07334 136.334 5.75725 137.043C6.61081 137.895 7.51616 138.707 8.43579 139.502C15.8696 145.818 23.8873 151.471 31.8104 157.17L31.7676 157.232C23.5873 151.855 15.491 146.32 7.93579 140.09C6.3126 138.655 4.57691 137.267 3.35907 135.442C3.13943 135.086 2.94301 134.645 3.01444 134.221C3.15853 133.335 3.36014 132.458 3.618 131.598C4.4037 128.787 6.42153 123.138 7.39294 120.295C8.07865 118.277 8.76435 116.278 9.25363 114.205C9.32327 113.939 9.42327 113.553 9.51256 113.299C11.5375 107.492 14.1125 101.975 16.6732 96.4161C18.7428 92.0713 20.8874 87.4987 23.2945 83.3373C23.5856 82.8033 23.9516 82.28 24.2605 81.7727C25.2945 80.2456 26.5927 78.9071 27.9212 77.638C32.4694 73.4089 37.555 69.8064 42.7996 66.4851C43.8295 67.236 44.8079 68.0548 45.7281 68.936C50.0678 73.045 53.4213 78.0772 55.5387 83.6577C56.3592 85.8813 56.9661 88.1776 57.3511 90.5157L57.2761 90.5299V90.521Z" fill="black"/>
<path d="M78.5951 69.8456C73.9523 65.9297 46.7992 60.218 45.0796 61.5529C43.3599 62.8879 49.9206 70.7124 60.0204 72.5154C70.1203 74.3185 78.5951 69.8456 78.5951 69.8456Z" fill="black"/>
<path d="M64.8206 65.1395C64.0563 68.2205 63.3135 72.7219 64.067 75.0447C64.8206 77.3675 51.0172 73.4214 50.0815 68.726C51.0583 64.0288 51.9744 56.9341 51.0583 51.4608C50.294 46.8882 66.7331 49.1754 65.9688 57.1779C65.2045 65.1804 64.8206 65.1395 64.8206 65.1395Z" fill="#BC795D"/>
<path d="M64.8435 65.1697C64.4453 67.3448 64.0846 69.5608 64.0257 71.7696C64.0096 72.8607 64.0453 73.9625 64.3828 75.0073C64.3982 75.0595 64.4078 75.1132 64.4114 75.1675C64.4114 76.5167 61.8703 75.972 61.0578 75.8385C57.7472 75.1266 54.4758 73.7436 51.8651 71.5667C51.0116 70.8031 50.183 69.8847 49.958 68.7189C50.7715 64.9893 51.1804 61.1833 51.1776 57.3666C51.1823 55.7115 51.0768 54.0578 50.8616 52.4166C50.8098 51.9717 50.6491 51.4039 50.7026 50.9126C51.1633 48.1502 56.2276 48.6094 58.2311 49.1025C61.0703 49.7824 64.0132 51.1547 65.5524 53.7551C66.0571 54.6379 66.312 55.6406 66.2899 56.6564C66.2488 57.5161 66.056 58.673 65.9596 59.5274C65.7721 60.9513 65.5667 62.3753 65.2792 63.7743C65.1721 64.2281 65.1006 64.7034 64.8917 65.1234C64.8917 65.1341 64.856 65.1662 64.8506 65.1644L64.8435 65.1697ZM64.7989 65.1074C64.9899 64.6963 65.0024 64.1943 65.0846 63.7476C65.2631 62.3325 65.3863 60.9086 65.5096 59.4847C65.5613 58.6873 65.6881 57.436 65.6988 56.6582C65.6853 55.7561 65.4281 54.8744 64.9542 54.1058C63.0328 51.0799 58.7132 49.7041 55.2811 49.5243C54.0812 49.5083 52.408 49.5385 51.5973 50.5086C51.3508 50.8646 51.3598 51.1689 51.433 51.6175C51.6914 53.5271 51.7739 55.4562 51.6794 57.3808C51.5308 60.2453 51.2099 63.0982 50.7187 65.9244C50.5562 66.866 50.3937 67.8076 50.2062 68.7438V68.694C50.3387 69.2161 50.5857 69.7024 50.9294 70.1179C53.0205 72.7486 59.4632 75.1515 62.7953 75.3864C63.1239 75.3864 63.5221 75.4024 63.7667 75.2422C63.7667 75.228 63.7828 75.228 63.781 75.2156C63.7846 75.1621 63.7761 75.1086 63.756 75.0589C63.456 73.9945 63.456 72.8518 63.5167 71.7412C63.6971 69.4878 64.1271 67.2612 64.7989 65.1021V65.1074Z" fill="black"/>
<path opacity="0.52" d="M51.1958 53.9314C51.9619 55.8359 55.785 63.0765 58.0778 64.9828C60.3707 66.8891 61.901 68.03 62.6653 68.03C63.4295 68.03 65.9938 65.9903 65.8599 65.1056C65.7259 64.221 51.1958 53.9314 51.1958 53.9314Z" fill="#952413"/>
<path d="M62.1011 84.4533C68.1724 91.1529 72.4259 145.447 72.6063 147.293C77.5758 146.15 85.6043 141.197 88.6632 137.767C86.3686 127.858 81.399 107.281 72.9884 90.8948C63.5386 72.4852 62.1011 84.4533 62.1011 84.4533Z" fill="#4BA184"/>
<path d="M85.42 124.758C81.6825 126.032 76.5772 127.479 71.2666 128.999C71.3237 130.245 71.3737 131.461 71.4184 132.632C76.3272 131.865 82.2986 129.165 86.1985 127.686C85.9521 126.737 85.6926 125.762 85.42 124.758Z" fill="#2A768C"/>
<path d="M86.8896 130.387C82.8289 131.833 77.679 133.527 71.5166 135.298C72.1523 141.786 72.5291 146.451 72.5987 147.224C72.7916 147.202 72.988 147.177 73.1862 147.149C78.1861 145.777 85.72 141.069 88.6628 137.771C88.1878 135.72 87.5985 133.212 86.8896 130.387Z" fill="#2A768C"/>
<path d="M62.1367 84.4408C63.0402 85.4376 63.5545 86.7156 64.0456 87.9473C64.5366 89.179 64.9224 90.4801 65.2956 91.767C68.6348 104.709 70.0634 118.054 71.3401 131.331C71.824 136.647 72.2615 141.968 72.7258 147.282L72.5794 147.177C74.0953 146.789 75.569 146.252 76.9793 145.576C79.8169 144.24 82.5095 142.618 85.0149 140.734C86.273 139.813 87.4397 138.775 88.4988 137.632L88.4506 137.822C85.1006 124.067 81.2328 110.387 75.6311 97.363C73.9383 93.4775 72.1187 89.6293 69.9169 86.0036C67.7527 82.4206 63.6349 77.1361 62.1367 84.4408ZM62.0635 84.464C62.2295 83.04 62.8099 80.7529 64.4617 80.5019C67.4973 80.194 71.2187 87.0324 72.5508 89.4015C80.6311 104.47 85.1899 121.127 88.872 137.726L88.8952 137.836L88.822 137.915C86.6381 140.229 83.9828 141.985 81.2739 143.61C78.5489 145.191 75.7133 146.658 72.633 147.418L72.4972 147.448L72.4865 147.313C72.0562 141.993 71.5133 136.685 70.8991 131.382C69.633 120.836 68.3991 110.152 66.567 99.6876C65.8527 95.7611 65.092 91.8239 63.8295 88.0345C63.3813 86.7885 62.9081 85.5106 62.0635 84.4747V84.464Z" fill="black"/>
<path d="M51.9619 76.7943C59.4475 85.0513 59.385 133.967 59.6082 136.243C64.9653 135.863 72.1741 132.47 76.4294 130.904C76.0901 125.576 73.7509 108.802 65.9474 86.4468C57.5422 62.3841 51.9619 76.7943 51.9619 76.7943Z" fill="#43A47C"/>
<path d="M73.663 113.542C69.8899 114.858 64.5721 116.362 59.0347 117.948C59.0918 119.194 59.1418 120.409 59.1865 121.582C64.2292 120.792 70.397 117.962 74.2862 116.513C74.0898 115.559 73.8821 114.569 73.663 113.542Z" fill="#2A768C"/>
<path d="M59.608 136.242C64.9651 135.861 72.1739 132.468 76.4292 130.902C76.2917 128.755 75.831 124.751 74.8221 119.274C70.7365 120.73 65.5365 122.447 59.2866 124.241C59.5009 130.818 59.542 135.569 59.608 136.242Z" fill="#2A768C"/>
<path d="M51.9993 76.789C54.8314 79.9288 56.0743 86.8277 56.8492 90.9891C59.1706 104.678 59.3796 118.613 59.6188 132.461C59.6456 133.47 59.6546 135.215 59.7224 136.229L59.5956 136.122C61.0589 135.989 62.5067 135.721 63.9206 135.321C68.2062 134.172 72.2222 132.296 76.3507 130.706L76.2115 130.92C75.9686 128.031 75.5132 125.156 75.0258 122.292C73.749 115.139 72.1107 108.054 70.1169 101.065C68.9705 96.9572 67.6419 92.6017 66.2991 88.5506C64.9598 84.5547 61.2617 72.8518 56.4778 72.6614C54.2868 72.6845 52.8368 75.0233 51.9993 76.789ZM51.9243 76.8014C52.66 74.913 54.2136 72.4353 56.4778 72.3712C61.5635 72.4068 65.5027 84.2201 66.9473 88.3317C69.108 94.4849 71.0294 100.861 72.5776 107.199C74.4543 114.989 76.0954 122.89 76.6418 130.902L76.6525 131.06L76.5025 131.115C73.7347 132.123 71.0115 133.283 68.2241 134.253C65.4366 135.224 62.5831 136.138 59.6153 136.368L59.4921 136.377V136.261C59.1938 123.683 58.5439 111.083 57.2814 98.5627C56.6046 92.8296 55.435 81.1498 51.9243 76.8086V76.8014Z" fill="black"/>
<path d="M45.0798 61.5529C48.903 63.8384 61.5189 71.079 65.342 71.4599C69.1652 71.8408 73.7526 70.3172 73.3776 69.9363C73.0026 69.5554 65.342 67.2665 63.4367 65.7446C62.2064 64.7621 65.7313 63.8384 67.2598 64.2193C68.7884 64.6002 81.7882 68.4109 82.5525 69.1745C83.3168 69.9381 78.1454 75.7602 77.6722 76.6502C77.199 77.5401 80.6418 80.9807 80.6418 82.8799C80.6418 84.779 73.7598 97.2028 71.083 97.8543C68.4063 98.5057 52.1833 88.807 49.6547 86.2848C45.087 81.7354 37.8228 71.8266 38.2049 68.0158C38.5871 64.205 45.0798 61.5529 45.0798 61.5529Z" fill="#3EA277"/>
<path d="M63.2384 93.3724C62.6241 92.7103 59.7992 86.8936 57.8813 83.0828C57.8813 83.0828 60.1759 84.6064 61.7045 84.989C57.8867 81.1747 55.5992 78.5048 53.6814 75.835C51.7636 73.1651 44.5065 62.4981 43.3583 62.4981C42.2101 62.4981 37.2424 66.3089 38.3888 69.3579C41.8709 78.6205 48.9029 89.7521 63.2384 93.3724Z" fill="#006837"/>
<path d="M64.3867 82.7019C67.0653 81.9401 77.4222 76.8477 78.7454 75.2013C80.0686 73.5549 70.8884 85.37 68.2099 85.37C65.5313 85.37 64.3867 82.7019 64.3867 82.7019Z" fill="#006837"/>
<path d="M45.0816 61.5138C50.6458 64.5895 56.2832 67.7773 62.1581 70.1926C63.167 70.5789 64.1724 70.9705 65.2331 71.1253C67.6782 71.331 70.1389 71.0055 72.4455 70.1713C72.6741 70.0915 72.8914 69.9827 73.0919 69.8473C73.0717 69.8725 73.0588 69.9026 73.0544 69.9346C73.0469 69.9795 73.05 70.0255 73.0633 70.069C73.0766 70.1125 73.0999 70.1524 73.1312 70.1855C72.7658 70.0132 72.3915 69.8605 72.0098 69.7281C69.3812 68.7545 66.6831 67.8912 64.192 66.5723C63.6563 66.2377 62.5581 65.766 63.0028 64.9704C63.7045 64.0057 66.1492 63.7369 67.2438 63.9807C69.183 64.5147 71.083 65.1234 73.0008 65.7162C75.2919 66.4281 77.5811 67.1543 79.8525 67.9339C80.6079 68.1991 81.3632 68.4679 82.1061 68.7865C82.4025 68.9307 82.8203 69.0731 82.7364 69.4985C82.6453 70.0146 82.3525 70.4632 82.0989 70.8975C81.6739 71.5828 81.2061 72.2306 80.7257 72.8732C80.0418 73.7987 79.2293 74.7955 78.5293 75.721C78.2918 76.0361 78.04 76.3565 77.8418 76.6769C77.804 76.7349 77.7859 76.8036 77.79 76.8727C77.8954 77.5241 78.3525 78.0776 78.6954 78.6365C79.3561 79.6369 80.0936 80.6176 80.5811 81.7336C80.7691 82.1278 80.8655 82.5591 80.8632 82.9955C80.7525 83.8285 80.3971 84.5708 80.0847 85.3344C79.44 86.8099 78.7007 88.2321 77.9186 89.6311C76.7365 91.7278 75.4811 93.7943 73.9901 95.7006C73.4928 96.3546 72.937 96.9623 72.3294 97.5161C71.998 97.8305 71.6011 98.0681 71.1669 98.212C70.6687 98.3259 70.2598 98.212 69.8044 98.123C69.0118 97.9152 68.2359 97.6487 67.4831 97.3256C64.5099 96.0797 61.6903 94.5418 58.9028 92.9381C57.5153 92.1354 56.1404 91.3113 54.785 90.4463C52.9333 89.2341 51.0119 88.0665 49.3637 86.5625C46.4209 83.5366 43.8477 80.1744 41.5495 76.6466C40.2638 74.6139 39.0263 72.503 38.2942 70.1944C38.1722 69.8024 38.082 69.4012 38.0246 68.9948C37.4585 65.4065 42.2441 62.6636 45.0727 61.5049L45.0816 61.5138ZM45.0816 61.5903C42.5334 62.8131 38.4246 65.2249 38.3906 68.3771C38.5496 70.8975 40.6906 74.1957 42.0656 76.3316C44.3692 79.8051 47.0001 83.0515 49.9226 86.0267C51.5297 87.4685 53.4118 88.5934 55.235 89.7646C59.285 92.2725 63.4224 94.7127 67.7866 96.6297C68.6902 96.9963 69.5884 97.3737 70.5348 97.5107C71.0937 97.614 71.4276 97.3327 71.8723 96.9768C72.4508 96.4572 72.9809 95.8864 73.4562 95.2716C75.8794 92.1443 77.9043 88.6859 79.615 85.1261C79.9222 84.4302 80.2757 83.7022 80.4025 82.96C80.4168 82.2124 80.0132 81.5093 79.6597 80.8596C79.2686 80.1779 78.8222 79.5176 78.39 78.843C78.174 78.5048 77.9597 78.1649 77.7704 77.8018C77.6097 77.4654 77.3972 77.0898 77.4865 76.6875C77.6758 76.2497 78.0222 75.9079 78.2936 75.5377C79.0079 74.6317 79.8293 73.6368 80.5168 72.7183C80.9846 72.0598 82.6864 69.9506 82.481 69.2724C82.3397 69.163 82.1841 69.0731 82.0186 69.0054C81.3043 68.6833 80.54 68.4216 79.7864 68.1618C79.0329 67.9019 78.2704 67.6563 77.5097 67.4124C74.0847 66.3445 70.6294 65.3246 67.1527 64.4275C66.7802 64.3619 66.4004 64.3481 66.0241 64.3866C65.261 64.4338 64.5147 64.6304 63.8278 64.965C63.6913 65.0345 63.5728 65.1344 63.4813 65.2569C63.3938 65.3993 63.6385 65.5364 63.7403 65.6129C64.6331 66.2128 65.6402 66.6026 66.6384 67.0191C68.6527 67.8325 70.7776 68.532 72.8205 69.2991C73.1419 69.454 73.8222 69.575 73.7347 70.0645C73.6097 70.6501 72.0508 71.0114 71.5241 71.1787C69.358 71.7251 67.0688 72.0491 64.8438 71.6949C63.8507 71.4615 62.8803 71.1411 61.9439 70.7373C58.9743 69.5038 56.1529 67.982 53.3368 66.4477C50.5994 64.9348 47.728 63.2581 45.0762 61.5957L45.0816 61.5903Z" fill="black"/>
<path d="M48.521 51.6442C49.2853 53.5504 62.9851 67.2682 65.7243 67.2682C68.4635 67.2682 69.5046 66.2003 72.9671 63.6817C76.4295 61.1631 81.0169 58.504 82.1633 55.8359C83.3098 53.1678 85.2222 47.4525 85.6044 44.7844C85.9865 42.1163 88.6632 39.3823 88.6632 37.3212C88.6632 35.2601 93.6328 17.3488 81.7812 12.4024C69.9296 7.45605 57.3173 9.73256 52.3441 15.4514C47.371 21.1703 45.8442 36.029 45.8442 40.9825C45.8442 45.936 48.521 51.6442 48.521 51.6442Z" fill="#BC795D"/>
<path d="M51.6098 39.8611C51.1776 42.3655 54.4865 47.9295 58.7168 48.184C62.9471 48.4385 66.0274 47.8565 67.3417 47.8725C68.6559 47.8886 70.4184 50.594 72.7202 50.6207C75.0219 50.6474 76.579 48.4741 77.363 48.3389C78.1469 48.2036 80.9147 53.0592 82.1683 51.8506C83.4218 50.6421 85.5611 44.909 83.7468 43.6808C81.9325 42.4527 78.3022 44.0671 77.0844 43.1771C75.8666 42.2872 75.1059 40.3132 73.2184 39.8807C71.3309 39.4482 67.5899 43.1504 66.3578 42.8051C65.1256 42.4598 60.1561 42.6271 58.5972 40.5375C57.0383 38.4479 56.5151 36.1589 54.7437 36.7659C52.9723 37.3728 51.8651 38.3393 51.6098 39.8611Z" fill="#C16D53"/>
<path d="M88.8132 36.0735C89.5579 31.4155 92.3025 16.7935 81.7758 12.4007C69.9242 7.44715 57.3119 9.73078 52.3388 15.4496C47.3656 21.1685 45.8389 36.0272 45.8389 40.9807C45.8389 45.9342 48.5174 51.6513 48.5174 51.6513C48.9495 52.7299 53.528 57.5944 57.9155 61.6188C55.0155 56.6101 53.1048 50.8948 52.7227 45.1795C52.4673 41.358 53.8691 34.5089 55.4012 31.46C56.9333 28.411 61.1369 22.6957 64.4689 20.857C64.4689 20.857 69.9296 21.1703 72.967 22.5604C75.4563 23.6835 85.1722 33.2808 88.8132 36.0735Z" fill="#9D5749"/>
<path d="M83.6828 47.586C83.6828 47.4827 83.6828 47.214 82.9364 46.842C82.6239 46.6871 82.206 46.9505 82.1899 47.214C82.1739 47.5094 82.231 47.8031 82.5631 47.958C83.156 48.2339 83.6828 47.958 83.6828 47.586Z" fill="#42210B"/>
<path d="M72.2237 28.5551C72.2237 29.4219 70.9059 31.5898 70.0506 31.5898C68.7452 31.5898 67.0149 31.1555 63.9632 31.1555C62.0525 31.1555 56.3579 32.4531 56.3579 32.4531C56.3579 32.4531 58.59 30.4952 59.615 29.8562C63.0989 27.6883 67.4417 29.8562 72.2237 28.5551Z" fill="black"/>
<path d="M72.3679 28.5553C72.3679 28.8009 72.2765 29.1202 72.1374 29.4506C71.9966 29.7849 71.8006 30.1452 71.5778 30.4774C71.3553 30.8089 71.1027 31.1174 70.8471 31.3447C70.597 31.567 70.3199 31.7334 70.0509 31.7334C69.3876 31.7334 68.6155 31.6229 67.6461 31.5152C66.6718 31.407 65.482 31.299 63.9635 31.299C63.0249 31.299 61.1385 31.6199 59.472 31.9451C58.642 32.107 57.8714 32.2691 57.3083 32.3906C57.0268 32.4513 56.7971 32.5019 56.638 32.5373C56.5584 32.555 56.4964 32.569 56.4543 32.5785C56.4334 32.5832 56.4173 32.5868 56.4066 32.5893C56.4012 32.5905 56.3971 32.5914 56.3943 32.592C56.393 32.5924 56.3919 32.5926 56.3912 32.5927C56.3909 32.5928 56.3907 32.5929 56.3905 32.5929H56.3903L55.8379 32.7188L56.2632 32.3457L56.3583 32.4533C56.2716 32.3552 56.264 32.3465 56.2634 32.3457V32.3456L56.2637 32.3454C56.264 32.3451 56.2644 32.3447 56.265 32.3442C56.266 32.3432 56.2677 32.3419 56.2698 32.34C56.2741 32.3362 56.2805 32.3306 56.2888 32.3233C56.3055 32.3088 56.3301 32.2873 56.3617 32.2599C56.425 32.2049 56.5164 32.1258 56.6292 32.0289C56.8549 31.835 57.1666 31.5697 57.5104 31.2844C58.1954 30.716 59.0171 30.0605 59.5392 29.735V29.7348L59.6231 29.6835C61.386 28.6247 63.356 28.631 65.4403 28.7376C67.568 28.8464 69.8224 29.0602 72.1862 28.4171L72.3679 28.3677V28.5553ZM72.0603 28.7459C69.7153 29.3389 67.477 29.1288 65.4255 29.0239C63.3051 28.9154 61.3911 28.9203 59.6914 29.978L59.6912 29.9778C59.1883 30.2914 58.3816 30.9344 57.6944 31.5046C57.3839 31.7623 57.0997 32.0037 56.8818 32.1905C56.9906 32.1667 57.1131 32.1396 57.2474 32.1106C57.8118 31.9888 58.5843 31.8263 59.4168 31.6638C61.0752 31.3402 62.9913 31.0124 63.9635 31.0124C65.4966 31.0124 66.6979 31.1216 67.678 31.2305C68.663 31.34 69.4087 31.4467 70.0509 31.4467C70.2095 31.4467 70.418 31.342 70.6556 31.1307C70.8876 30.9245 71.125 30.6367 71.3388 30.318C71.5523 29.9998 71.7392 29.6557 71.8723 29.3397C71.9668 29.1154 72.0303 28.912 72.0603 28.7459Z" fill="black"/>
<path d="M79.7827 33.8717C80.5488 32.729 81.6952 31.2019 81.6952 31.2019C81.6952 31.2019 87.429 30.4383 88.9594 31.9637C90.4897 33.4891 89.779 35.4559 89.779 35.4559C89.779 35.4559 88.6076 33.1171 86.2826 33.1171C83.9916 33.1171 79.7827 33.8717 79.7827 33.8717Z" fill="black"/>
<path d="M84.7537 30.8675C85.5704 30.8674 86.4408 30.915 87.206 31.0603C87.9656 31.2045 88.647 31.4494 89.0613 31.8623C89.8592 32.6576 90.0728 33.5698 90.087 34.2789C90.0941 34.6329 90.0517 34.9372 90.0073 35.1534C89.9851 35.2616 89.9623 35.3482 89.9449 35.4082C89.9362 35.4381 89.9289 35.4615 89.9236 35.4777C89.921 35.4858 89.9189 35.4922 89.9173 35.4967C89.9166 35.4989 89.9159 35.5008 89.9154 35.5021L89.9147 35.5042L89.9145 35.5043L89.8007 35.8195L89.6507 35.5198C89.6506 35.5196 89.6504 35.5193 89.6502 35.5189C89.6497 35.5181 89.6491 35.5167 89.6481 35.5148C89.6461 35.5109 89.6429 35.5048 89.6387 35.4969C89.6301 35.4809 89.6171 35.457 89.5996 35.4263C89.5645 35.3648 89.5113 35.2763 89.4402 35.1697C89.2979 34.9563 89.0846 34.6717 88.8011 34.3875C88.2331 33.8183 87.3935 33.2603 86.283 33.2603C85.1486 33.2603 83.5325 33.4477 82.1941 33.6363C81.5261 33.7304 80.9295 33.8245 80.4999 33.8951C80.2851 33.9304 80.112 33.9599 79.9928 33.9805C79.9332 33.9907 79.8871 33.9989 79.8559 34.0044L79.8114 34.0123C79.8105 34.0124 79.8097 34.0125 79.8092 34.0126C79.8089 34.0127 79.8088 34.0128 79.8087 34.0128H79.8085L79.4756 34.0724L79.6636 33.7922C80.0482 33.2185 80.5276 32.5492 80.9102 32.0241C81.1017 31.7614 81.2691 31.5344 81.3887 31.3732C81.4486 31.2925 81.4966 31.2283 81.5295 31.1842C81.5459 31.1622 81.5587 31.1452 81.5673 31.1336L81.5795 31.1171C81.5798 31.1168 81.5801 31.1164 81.5802 31.1163L81.5804 31.1161L81.6167 31.0678L81.6765 31.0598L81.6955 31.202C81.6765 31.0599 81.6766 31.0598 81.6767 31.0598H81.6777C81.6785 31.0597 81.6796 31.0594 81.681 31.0592C81.6839 31.0589 81.6881 31.0584 81.6936 31.0577C81.7047 31.0563 81.7212 31.0541 81.7426 31.0514C81.7854 31.0461 81.8484 31.0387 81.9288 31.0297C82.0897 31.0117 82.321 30.9876 82.6032 30.9636C83.1672 30.9157 83.936 30.8676 84.7537 30.8675ZM84.7537 31.154C83.9466 31.1541 83.1864 31.2017 82.6276 31.2492C82.3483 31.273 82.1196 31.2966 81.9609 31.3144C81.8816 31.3233 81.8198 31.3306 81.778 31.3358C81.7767 31.3359 81.7754 31.336 81.7741 31.3361C81.7698 31.342 81.7651 31.3484 81.76 31.3553C81.7272 31.3991 81.6796 31.4631 81.62 31.5435C81.5007 31.7043 81.3338 31.9306 81.1429 32.1925C80.8216 32.6333 80.4335 33.1741 80.0913 33.6733C80.1924 33.6562 80.3139 33.6353 80.453 33.6125C80.8842 33.5416 81.4831 33.447 82.1538 33.3524C83.4925 33.1638 85.1264 32.9737 86.283 32.9737C87.4974 32.9737 88.406 33.5852 89.005 34.1854C89.3048 34.4859 89.5296 34.7862 89.6796 35.0112C89.6966 35.0367 89.7127 35.0612 89.7278 35.0847C89.768 34.8852 89.806 34.6069 89.7996 34.2846C89.7865 33.629 89.5904 32.795 88.8579 32.065C88.5071 31.7152 87.8979 31.4835 87.1521 31.3419C86.4119 31.2013 85.5616 31.1539 84.7537 31.154Z" fill="black"/>
<path d="M48.5545 51.6281C49.983 54.3514 63.165 67.4267 65.8435 67.359C68.0185 67.3982 69.6042 66.1362 71.2684 64.8956C74.563 62.3842 78.1451 60.1308 80.8486 56.9697C81.3701 56.3325 81.7683 55.6045 82.1897 54.9032C82.6103 54.1932 82.9825 53.4558 83.304 52.6961C84.2629 50.3947 84.8236 47.9526 85.3682 45.5195C85.4478 45.1033 85.5558 44.6929 85.6914 44.2913C86.3682 42.3103 87.7485 40.6318 88.3896 38.6508C88.4935 38.3091 88.5477 37.9542 88.5503 37.5971L88.5628 37.4351C88.986 34.5445 89.486 31.6664 89.5396 28.7402C89.7074 21.9356 87.8539 15.0848 80.7343 12.6979C75.3201 10.6635 69.3488 9.89631 63.6346 10.8201C62.0064 11.0811 60.4073 11.4984 58.8597 12.066C56.5704 12.9293 54.3847 14.1681 52.7401 15.9818C49.2687 20.0614 47.8866 26.898 46.9259 32.1061C46.4009 35.3847 45.9527 38.7113 45.9741 42.038C46.1152 45.3646 47.1616 48.6236 48.5563 51.6264L48.5545 51.6281ZM48.4848 51.6602C47.0563 48.6343 45.9974 45.3984 45.7509 42.0487C45.667 40.3702 45.7759 38.6989 45.8884 37.0257C46.1263 33.6816 46.5917 30.3574 47.2813 27.076C48.2134 23.0125 49.3866 18.7104 52.1401 15.4514C55.0419 12.2476 59.3364 10.7097 63.5078 10.0369C68.5452 9.268 73.7255 9.75748 78.5737 11.2633C80.1897 11.7973 81.7879 12.3401 83.2825 13.1767C86.3182 14.8534 88.2914 17.9486 89.1217 21.2415C90.3717 26.1558 89.8056 31.2962 88.9735 36.2266C88.9003 36.6893 88.8146 37.1486 88.7824 37.6096C88.7822 37.769 88.772 37.9283 88.7521 38.0866C88.5985 39.1421 88.0664 40.0997 87.5825 41.0216C86.8003 42.4936 85.9307 43.9425 85.6789 45.5836C85.3575 47.2246 85.0057 48.8622 84.5521 50.4801C83.8831 52.9329 82.7866 55.2494 81.3129 57.3239C79.1879 59.9688 76.3915 61.941 73.6987 63.9505L71.6702 65.4314C70.6452 66.17 69.6131 66.9746 68.422 67.4676C67.6048 67.7909 66.7315 67.95 65.8524 67.9357C65.3846 67.9571 64.9292 67.7399 64.5346 67.5263C62.3418 66.2234 60.5168 64.4524 58.6579 62.7455C56.2258 60.4423 53.8955 58.0376 51.6383 55.5653C51.0776 54.9441 50.5169 54.3194 49.9759 53.6839C49.4348 53.0485 48.867 52.4113 48.4866 51.6602H48.4848Z" fill="black"/>
<path d="M67.617 40.2367C67.8884 39.2916 68.0956 37.6505 66.4063 36.5612C64.7171 35.4719 61.451 35.196 59.6511 36.5042C57.8511 37.8125 56.844 38.7825 57.0404 39.0602C57.9754 40.4001 59.2562 41.4634 60.7475 42.1377C61.9707 42.4598 64.4635 42.9208 65.9867 42.3317C67.1759 41.8689 67.617 40.2367 67.617 40.2367Z" fill="#FAEDEA"/>
<path d="M67.5972 37.9335C67.6133 40.1886 66.5258 41.3153 65.4276 41.6838C64.9093 41.8588 64.3437 41.8308 63.8455 41.6055C62.558 41.027 62.4169 40.3933 62.208 39.0032C61.9526 37.2625 62.7437 35.4345 64.5151 35.1835C66.0669 34.9646 67.5865 36.5879 67.5972 37.9335Z" fill="url(#paint2_linear_6007_215924)"/>
<path d="M66.033 38.6484C66.119 37.8954 65.6747 37.2266 65.0407 37.1548C64.4067 37.0829 63.8231 37.6351 63.7372 38.3881C63.6512 39.1412 64.0955 39.8099 64.7295 39.8818C65.3635 39.9537 65.9471 39.4015 66.033 38.6484Z" fill="black"/>
<path d="M63.0457 38.2414C62.3314 38.1649 63.8224 36.8478 64.1849 37.1183C64.4296 37.3016 64.1332 38.3625 63.0457 38.2414Z" fill="white"/>
<path d="M63.5989 35.4826C62.1561 36.3245 61.9525 38.1524 62.365 39.6351C62.4531 40.0096 62.6079 40.3653 62.8221 40.6852C63.4739 41.6909 64.9507 41.876 65.956 41.3171C67.0274 40.7173 67.3471 39.5016 67.2935 38.3518C67.2756 37.5971 67.1364 36.8122 66.6953 36.1892C66.3538 35.7162 65.8513 35.3831 65.2816 35.2521C64.7119 35.1211 64.1138 35.2011 63.5989 35.4772V35.4826ZM63.581 35.4541C63.9371 35.253 64.3325 35.131 64.7402 35.0963C65.148 35.0616 65.5584 35.115 65.9435 35.2529C67.6274 35.8937 67.8381 38.0332 67.5221 39.5657C67.4401 39.9771 67.2636 40.3639 67.0065 40.6959C66.7493 41.0279 66.4185 41.296 66.0399 41.4791C64.9274 41.9775 63.4614 41.7692 62.6739 40.7974C62.2994 40.3029 62.0487 39.7264 61.9428 39.1159C61.8369 38.5054 61.8788 37.8785 62.065 37.2874C62.3406 36.5184 62.8767 35.8694 63.581 35.4523V35.4541Z" fill="black"/>
<path d="M67.7275 37.8837C66.3543 36.5736 62.5847 33.6208 57.2795 39.272C56.4744 39.183 55.6819 39.0039 54.917 38.738L56.7884 37.4405C58.2062 35.6392 59.4866 34.6353 62.0062 34.4146C66.79 33.9803 68.0936 37.8801 68.0936 37.8801L67.7275 37.8837Z" fill="black"/>
<path d="M61.9977 34.3233C64.4194 34.1035 65.9674 34.9817 66.9087 35.9197C67.3781 36.3875 67.6956 36.869 67.8957 37.2336C67.9958 37.416 68.0668 37.5694 68.1128 37.6777C68.1358 37.7318 68.1526 37.7747 68.1637 37.8042C68.1693 37.819 68.1735 37.8304 68.1763 37.8383C68.1777 37.8422 68.1787 37.8454 68.1794 37.8475C68.1798 37.8485 68.1801 37.8494 68.1803 37.8499C68.1804 37.8502 68.1806 37.8506 68.1806 37.8508C68.1806 37.8509 68.1793 37.8515 68.0934 37.88L68.1806 37.8512L68.2206 37.9706L67.6908 37.9756L67.6638 37.9499C66.9811 37.2987 65.7139 36.2505 63.9677 36.0584C62.2276 35.8669 59.9857 36.5233 57.3465 39.3345L57.315 39.3681L57.2691 39.363C56.4572 39.2733 55.6579 39.0927 54.8865 38.8246L54.7163 38.7655L56.7249 37.3725C57.4333 36.4738 58.1133 35.7668 58.9353 35.2571C59.762 34.7444 60.7265 34.4347 61.9977 34.3233ZM66.7786 36.0493C65.8721 35.146 64.3765 34.2914 62.0144 34.5058L62.0141 34.506C60.7658 34.6154 59.8303 34.9179 59.0325 35.4126C58.2335 35.9082 57.5667 36.6 56.8605 37.4971L56.8522 37.5079L56.8408 37.5157L55.119 38.7093C55.8095 38.9363 56.5216 39.0925 57.2442 39.1755C59.8966 36.3641 62.1809 35.6774 63.9879 35.8762C65.7725 36.0726 67.066 37.1306 67.7633 37.7915L67.9597 37.7896C67.9545 37.7771 67.9495 37.7634 67.9435 37.7491C67.8995 37.6458 67.8312 37.498 67.7344 37.3215C67.5406 36.9685 67.233 36.5022 66.7786 36.0493Z" fill="black"/>
<path d="M59.0706 41.6731C60.192 41.8511 61.7867 42.1145 62.8974 42.2071C64.1777 42.3138 65.4628 42.3536 66.7473 42.3263C64.4027 43.4566 61.2117 43.1166 59.0688 41.6713L59.0706 41.6731Z" fill="black"/>
<path d="M77.0808 44.2433C77.8647 44.7346 79.7237 45.9876 81.2683 45.6031C82.8129 45.2187 83.5897 44.448 83.9718 43.2893C84.3539 42.1305 85.1307 40.9754 83.9718 40.2082C82.8129 39.4411 82.0415 38.2841 80.1094 38.6686C78.1772 39.0531 77.0737 39.9145 76.2916 40.9255C74.6148 43.0739 76.7558 44.0404 77.0808 44.2433Z" fill="#FAEDEA"/>
<path d="M79.3612 40.5375C78.8469 42.5114 78.9737 43.6559 79.913 44.1828C80.4468 44.4483 81.051 44.5392 81.6397 44.4426C82.8415 44.1365 83.4254 43.4815 83.7522 42.2533C84.1629 40.7173 83.9754 38.5583 82.3844 38.5672C80.9415 38.5761 79.6755 39.3343 79.3612 40.5375Z" fill="url(#paint3_linear_6007_215924)"/>
<path d="M82.5438 41.4198C82.6505 40.6675 82.2907 39.9948 81.74 39.9172C81.1893 39.8395 80.6564 40.3865 80.5497 41.1387C80.443 41.891 80.8028 42.5638 81.3535 42.6414C81.9042 42.719 82.4371 42.1721 82.5438 41.4198Z" fill="black"/>
<path d="M82.1417 38.6722C83.2881 38.6312 84.1399 39.7686 84.1292 40.8472C84.1451 41.9453 83.7253 43.0052 82.9614 43.7965C81.9614 44.9374 79.9257 44.9802 79.2311 43.4779C79.1506 43.3022 79.0993 43.1147 79.0793 42.9226C78.7561 40.7262 79.7775 38.8288 82.1417 38.6793V38.6722ZM82.1417 38.706C79.9989 38.8662 79.1935 41.0021 79.4239 42.8781C79.4864 43.6968 80.2132 44.3608 81.0417 44.4355C82.1239 44.5797 83.0364 43.8001 83.4221 42.8336C84.0274 41.4684 84.1649 38.7914 82.1417 38.6989V38.706Z" fill="black"/>
<path d="M80.3969 41.2477C79.6487 41.1658 81.2166 39.7775 81.5987 40.0623C81.8594 40.2563 81.5451 41.3741 80.3969 41.2477Z" fill="white"/>
<path d="M76.7344 40.3399C78.2326 38.3945 80.4111 37.2625 82.4861 37.3995C84.4503 37.5295 86.236 39.1794 86.3896 40.3844L88.0985 41.1587L84.8307 42.3726L84.17 43.227C84.17 43.227 85.1521 41.3242 84.6682 40.6105C84.1843 39.8967 83.3146 38.7398 80.9361 38.9142C79.443 39.0556 78.0039 39.5439 76.7344 40.3399Z" fill="black"/>
<path d="M76.6561 40.2798C78.1696 38.3145 80.3778 37.1612 82.493 37.3009L82.5872 37.3084C83.5594 37.3962 84.479 37.8413 85.1799 38.4123C85.8796 38.9824 86.3776 39.6916 86.4801 40.3167L88.3583 41.1677L84.8922 42.4552L84.2487 43.2873L84.0822 43.1818L84.0824 43.1816C84.0825 43.1814 84.0825 43.181 84.0827 43.1805C84.0831 43.1797 84.0839 43.1784 84.0848 43.1767C84.0866 43.1733 84.0892 43.1681 84.0927 43.1613C84.0996 43.1475 84.1096 43.127 84.1223 43.1008C84.1478 43.0482 84.184 42.9721 84.2257 42.8784C84.3093 42.6909 84.4155 42.434 84.5066 42.1557C84.598 41.8768 84.6729 41.5801 84.696 41.312C84.7194 41.0409 84.6882 40.816 84.5863 40.6657C84.346 40.3113 84.0173 39.8583 83.4607 39.5131C82.9057 39.169 82.1153 38.9268 80.9447 39.0125C79.4674 39.1526 78.0436 39.636 76.7876 40.4236L76.3193 40.7172L76.6561 40.2798ZM82.4798 37.498C80.6009 37.374 78.6246 38.3118 77.1653 39.9724C78.3249 39.3354 79.605 38.9411 80.9271 38.8159L80.9292 38.8158L81.0413 38.8085C82.1884 38.7429 82.9886 38.9878 83.5653 39.3454C84.159 39.7135 84.507 40.1959 84.7506 40.5552C84.8907 40.7618 84.9183 41.0425 84.8936 41.3288C84.8687 41.6182 84.7888 41.9311 84.6952 42.2171C84.6596 42.3257 84.6216 42.431 84.5837 42.5303L84.7525 42.3123L84.7698 42.2899L87.8393 41.1496L86.349 40.4743L86.2986 40.4516L86.2916 40.3968C86.2194 39.8301 85.7562 39.1371 85.0544 38.5653C84.3775 38.0138 83.4944 37.5887 82.5694 37.5052L82.4798 37.498Z" fill="black"/>
<path d="M83.3115 44.375C81.9455 46.413 78.8473 45.7598 77.2241 44.375C77.7723 44.4907 78.2955 44.6366 78.8062 44.7506C80.3277 45.1065 81.9241 45.24 83.3115 44.375Z" fill="black"/>
<path d="M77.4419 37.2233C79.2008 35.6374 82.49 34.3755 84.4061 36.3565C82.2097 34.9094 79.5294 36.1269 77.4419 37.2233Z" fill="black"/>
<path d="M59.7456 33.7151C62.2866 32.4692 65.9509 32.1844 67.8758 34.6229C67.3107 34.1964 66.684 33.858 66.0169 33.619C63.9831 32.907 61.8081 33.3289 59.7456 33.7151Z" fill="black"/>
<path opacity="0.2" d="M78.5059 53.2268C82.4701 54.6534 87.0945 51.8169 89.4704 47.0791C91.4006 42.0844 90.1176 36.8319 86.1267 35.2996C82.1359 33.7673 77.1662 36.7123 75.236 41.707C73.3058 46.7018 74.5151 51.6945 78.5059 53.2268Z" fill="url(#paint4_linear_6007_215924)"/>
<path d="M78.3133 36.6881C82.2158 33.7446 87.075 33.94 89.2339 37.3128L89.2948 37.4094C90.556 39.4437 90.8584 41.9698 90.4373 44.379C90.0096 46.8265 88.8307 49.1817 87.1087 50.8166H87.1085C85.4122 52.4263 83.4831 53.5894 81.5375 53.8732C79.5727 54.1599 77.6249 53.5439 75.9375 51.6656H75.9374C74.2951 49.8353 73.8288 46.9224 74.2614 44.1041C74.6947 41.2809 76.041 38.4724 78.1281 36.8306L78.3133 36.6881ZM88.7598 37.6143C86.8476 34.627 82.4067 34.3023 78.6546 37.1336L78.4766 37.2707C76.5316 38.8007 75.2359 41.4627 74.8175 44.1889C74.3983 46.9198 74.8703 49.6351 76.3566 51.2917L76.4302 51.3725C77.9796 53.0538 79.7149 53.5724 81.4559 53.3184C83.2437 53.0576 85.0707 51.9763 86.7207 50.4106L86.8715 50.2641C88.4149 48.7283 89.4862 46.5536 89.8832 44.2828C90.2864 41.9754 89.9892 39.596 88.8163 37.704L88.7598 37.6143Z" fill="#FEF2EF"/>
<path d="M75.0724 36.7819C72.3938 40.5197 72.6902 43.7111 72.7777 44.7915C72.8813 46.0374 74.4777 48.0363 74.7956 49.1701C74.9956 49.8821 74.4224 50.4498 73.9652 50.804C72.5813 51.872 71.6635 52.0251 71.6635 52.0251C69.8778 52.098 66.3064 50.4231 66.7403 49.6115C67.1743 48.7999 69.5974 46.8491 70.1867 45.8541C70.776 44.8591 71.6313 44.0297 72.0135 42.887" fill="#C16D53"/>
<path d="M71.6702 52.018C70.0542 52.4985 68.5363 51.6442 67.6203 51.0408C66.7042 50.4374 66.9292 48.7162 66.9292 48.7162C66.9292 48.7162 67.5095 50.9144 67.822 50.4961C68.6238 49.4175 70.1434 48.7483 72.0148 48.8408C73.1934 48.8995 73.6845 48.8266 74.6041 49.3427C75.3255 49.7468 73.3702 51.5125 71.6702 52.018Z" fill="url(#paint5_linear_6007_215924)"/>
<path d="M76.4094 35.4487C73.9648 38.5066 72.9756 40.2705 73.2148 44.2611C73.3113 45.4483 73.8166 46.575 74.3434 47.6429C75.088 49.1113 75.488 49.9159 73.9023 50.9856C73.2238 51.4466 72.4738 51.8756 71.6631 52.0108C72.4434 51.7688 73.1256 51.2989 73.7595 50.7951C74.0772 50.5685 74.3431 50.2773 74.5398 49.9408C74.6204 49.7798 74.6598 49.6015 74.6545 49.4217C74.6492 49.2419 74.5994 49.0662 74.5095 48.9102C74.1934 48.1876 73.7595 47.4756 73.4381 46.7138C73.0825 45.9487 72.8568 45.1301 72.7702 44.2913C72.7381 43.8606 72.7559 43.4566 72.7595 43.0454C72.7595 41.7995 72.9381 40.525 73.4738 39.3895C74.1666 37.8765 75.2595 36.6057 76.4166 35.4416L76.4094 35.4487Z" fill="black"/>
<path d="M70.4203 50.4481C70.0381 50.546 69.6774 50.5709 69.306 50.6439C68.9346 50.7168 68.5917 50.8379 68.1899 50.8521C68.465 50.549 68.8328 50.3451 69.2362 50.272C69.6395 50.1989 70.0558 50.2608 70.4203 50.4481Z" fill="black"/>
<path opacity="0.2" d="M59.2061 48.6524C63.2786 50.2163 68.1668 46.7323 70.014 42.2669C71.9627 37.2251 70.3356 31.9582 66.2631 30.3943C62.1906 28.8303 57.3094 31.6497 55.3606 36.6916C53.4119 41.7334 55.1335 47.0884 59.2061 48.6524Z" fill="url(#paint6_linear_6007_215924)"/>
<path d="M56.8947 33.2668C60.3927 28.7285 66.1133 28.8829 68.8297 31.6758L68.9068 31.7561C72.1398 35.1701 71.5806 40.5106 68.9507 44.6923L68.9505 44.6921C67.498 47.0037 65.5918 48.5063 63.5281 49.065C61.4912 49.6166 59.3327 49.2397 57.3613 47.8647L57.2675 47.7984C55.3112 46.3968 54.3727 43.8834 54.3274 41.2051C54.282 38.5218 55.1295 35.619 56.8124 33.375V33.3749L56.8947 33.2668ZM68.4181 32.0735C65.9452 29.5309 60.567 29.3273 57.2714 33.717L57.2715 33.7171C55.6706 35.8518 54.8572 38.6286 54.9006 41.1955C54.9441 43.7674 55.8442 46.0749 57.602 47.3343L57.7774 47.4569C59.5956 48.6926 61.5473 49.0094 63.3779 48.5137C65.273 48.0005 67.071 46.6071 68.4649 44.389L68.465 44.3888C71.0465 40.2841 71.4741 35.2137 68.4181 32.0737V32.0735Z" fill="#FEF2EF"/>
<path d="M69.8742 42.4883C70.6972 42.3002 71.7338 42.2554 72.6367 42.3889C73.0893 42.4558 73.5251 42.5699 73.8895 42.7445C74.2528 42.9185 74.5703 43.1651 74.7383 43.5072C74.826 43.6861 74.7332 43.9006 74.531 43.9863C74.3288 44.0719 74.0938 43.9964 74.0061 43.8176C73.929 43.6606 73.7643 43.5105 73.4942 43.3811C73.2252 43.2523 72.8763 43.1563 72.4787 43.0975C71.6813 42.9797 70.7561 43.0211 70.0434 43.184C69.828 43.2332 69.6154 43.1173 69.5687 42.9253C69.522 42.7332 69.6588 42.5375 69.8742 42.4883Z" fill="#FEF2EF"/>
<path d="M57.8865 22.8737C59.3632 22.0531 62.9168 20.8196 64.1828 20.9798C65.4489 21.14 60.5936 16.2399 59.1186 17.8863C57.6436 19.5328 57.8865 22.8737 57.8865 22.8737Z" fill="black"/>
<path d="M58.9803 17.763C59.4276 17.2638 60.1096 17.2908 60.7719 17.523C61.4431 17.7583 62.1678 18.2259 62.7955 18.7317C63.4238 19.2381 63.9708 19.7957 64.2833 20.2236C64.3618 20.3312 64.4279 20.4334 64.4769 20.5271C64.5245 20.6182 64.5624 20.7129 64.5737 20.8025C64.585 20.893 64.5714 21.0151 64.4666 21.0983C64.3734 21.1722 64.2548 21.1755 64.1597 21.1635C63.8745 21.1274 63.4396 21.1692 62.909 21.2744C62.3835 21.3786 61.7815 21.5413 61.1702 21.7353C59.9455 22.1242 58.7007 22.6333 57.9771 23.0353L57.7225 23.1768L57.7014 22.8871L57.8866 22.8737L57.7014 22.8869V22.886C57.7013 22.8855 57.7013 22.8848 57.7012 22.8839C57.7011 22.8821 57.7009 22.8794 57.7007 22.8759C57.7002 22.8691 57.6997 22.8591 57.6989 22.8462C57.6975 22.8204 57.6955 22.7826 57.6935 22.7343C57.6897 22.6375 57.6859 22.498 57.686 22.3258C57.6863 21.9816 57.7023 21.505 57.7652 20.9756C57.8899 19.9257 58.2032 18.6305 58.9803 17.763ZM60.6488 17.8722C60.0255 17.6537 59.5475 17.6857 59.2572 18.0097C58.5594 18.7887 58.2566 19.987 58.134 21.0192C58.0733 21.5308 58.0578 21.9925 58.0575 22.3262C58.0574 22.4187 58.0585 22.5013 58.0601 22.5723C58.8258 22.1825 59.9544 21.7329 61.0574 21.3827C61.6773 21.1858 62.2934 21.0189 62.8365 20.9113C63.3663 20.8062 63.844 20.754 64.1905 20.7945C64.1815 20.7692 64.1678 20.7372 64.1475 20.6983C64.1096 20.6258 64.0546 20.5394 63.983 20.4414C63.6951 20.0471 63.1735 19.5126 62.562 19.0198C61.9498 18.5264 61.2632 18.0876 60.6488 17.8722Z" fill="black"/>
<path d="M63.2384 12.4701C61.3277 11.0568 58.6509 8.28371 56.3581 9.67027C54.0653 11.0568 51.9278 15.6472 53.3778 17.5446C54.8278 19.442 66.4544 20.1842 67.1401 17.3346C67.8258 14.4849 63.2384 12.4701 63.2384 12.4701Z" fill="url(#paint7_linear_6007_215924)"/>
<path d="M93.4416 12.584C86.4238 4.43911 75.3329 -0.261644 64.6027 1.43283C62.417 1.81373 60.2385 2.4812 58.41 3.7574C57.3189 4.537 56.3921 5.56223 55.9761 6.86869C56.2868 5.02114 57.7153 3.55271 59.2528 2.5702C62.4296 0.599834 66.2724 -0.0266948 69.9669 3.90509e-06C79.2025 0.108579 88.3595 4.89654 93.4469 12.584H93.4416Z" fill="black"/>
<path d="M75.4741 21.7256C72.9741 19.3512 71.0277 17.8721 67.5706 19.4473C66.6367 19.8567 65.7296 20.3942 64.7778 20.9211C65.4275 20.036 66.2328 19.2755 67.1546 18.6766C70.6081 16.4464 73.992 18.2103 75.4741 21.7256Z" fill="black"/>
<path d="M44.8852 45.7384C45.5177 48.0309 45.9179 50.3809 46.0798 52.7531L46.1137 53.2016L46.128 53.6501L46.1566 54.549V55.4496V55.9017L46.1334 56.352C45.9737 60.0047 45.1263 63.5949 43.6352 66.9354C43.5084 67.2131 43.3888 67.4943 43.2566 67.7684L42.8548 68.5889C42.5709 69.1229 42.2888 69.6569 41.9798 70.1909C41.3781 71.2446 40.7299 72.2645 40.0299 73.2487C38.6486 75.1953 37.1663 77.0685 35.5889 78.8608C35.2014 79.3093 34.8175 79.7508 34.4228 80.1957L33.2782 81.4986C32.9358 81.9 32.6203 82.3234 32.3336 82.7659C32.0522 83.21 31.8051 83.6747 31.5943 84.1561C31.3834 84.6384 31.2149 85.138 31.0907 85.6494C30.9608 86.1631 30.8771 86.6872 30.8407 87.2157C30.7638 88.2915 30.8774 89.3724 31.1764 90.4089C31.4786 91.4718 31.989 92.4645 32.6782 93.3297C33.3945 94.2331 34.3316 94.9379 35.3996 95.3766C34.1784 95.2175 33.0316 94.7023 32.1032 93.8957C31.1439 93.0753 30.3775 92.0544 29.8586 90.9055C29.3237 89.7393 29.0205 88.4808 28.9658 87.1997C28.9405 86.5537 28.9734 85.9068 29.064 85.2667C29.16 84.6238 29.313 83.9907 29.5211 83.3747C29.943 82.1439 30.565 80.9905 31.3621 79.9608L31.5139 79.7721L31.6586 79.5941L31.9371 79.2542L32.4943 78.5725L33.605 77.2144C34.3395 76.3078 35.0639 75.3995 35.7782 74.4893C36.4924 73.5792 37.1805 72.6566 37.8424 71.7216C39.1703 69.8729 40.3507 67.9233 41.3727 65.8906C41.5031 65.6396 41.6191 65.3815 41.7298 65.1252C41.8406 64.8689 41.9691 64.6126 42.0763 64.351L42.4084 63.5714L42.7138 62.7793C43.1089 61.7169 43.4492 60.6351 43.7334 59.5381C43.8137 59.264 43.8673 58.9845 43.937 58.7086C44.0066 58.4328 44.0709 58.1533 44.1155 57.8739L44.2816 57.032L44.4227 56.1847L44.4905 55.7593L44.5441 55.3321L44.6566 54.4778L44.7387 53.6163L44.7798 53.1838L44.8084 52.7513C44.9601 50.4167 44.9857 48.0757 44.8852 45.7384Z" fill="url(#paint8_linear_6007_215924)"/>
<path d="M55.9761 6.86868C59.0332 3.81969 62.4528 0.519731 73.9437 1.91518C86.0346 3.38183 97.6469 15.633 102.616 24.3955C107.081 32.2752 116.648 50.8414 107.204 53.7391C110.645 50.6901 111.027 46.4984 105.675 41.5449C107.588 50.311 107.588 58.6944 96.1183 62.1296C101.849 56.0263 101.736 51.8862 99.5594 48.7803C96.8808 44.9695 92.0595 43.6862 83.8846 34.6816C76.6204 26.672 74.7079 20.5811 72.7973 18.6766C70.6794 16.5656 67.0616 18.2957 64.5456 20.9745C62.8563 16.0139 60.1814 11.0604 55.9761 6.86868Z" fill="url(#paint9_linear_6007_215924)"/>
<path d="M55.9565 6.86869C57.2637 5.50349 58.6565 4.22374 60.3297 3.32488C64.5493 1.07863 69.5528 1.29044 74.1706 1.80839C82.6704 3.01162 89.8507 8.55071 95.5827 14.6238C100.802 20.0863 104.442 26.777 107.547 33.6048C109.406 37.8872 111.208 42.3673 111.379 47.0876C111.443 50.4285 110.245 53.15 106.754 53.9937C110.163 51.217 110.55 47.7996 108.004 44.2522C107.303 43.2961 106.51 42.4113 105.634 41.6108L105.788 41.5236C106.271 43.6245 106.577 45.7619 106.704 47.9135C107.125 55.6294 103.254 60.1664 95.9488 62.2382C98.6273 59.3476 101.652 55.5404 100.704 51.3576C100.047 48.6717 97.8238 46.8028 95.6881 45.2151C92.3846 42.8158 89.1418 40.3079 86.2722 37.3942C82.3802 33.5679 79.0136 29.2449 76.2598 24.5379C75.5688 23.3667 74.9188 22.1706 74.2456 20.9959C73.5652 19.887 72.9349 18.577 71.6545 18.0821C69.1278 17.2082 66.3135 19.3067 64.6296 21.0332L64.5314 21.1347L64.4868 21.003C62.7332 15.7398 59.9083 10.8219 55.978 6.86513L55.9565 6.86869ZM55.994 6.86869C59.9636 10.7631 62.8279 15.7149 64.6261 20.9531L64.485 20.9211C66.1939 19.102 69.0956 16.9234 71.7331 17.824C73.0831 18.3278 73.7777 19.7019 74.4795 20.8499C76.4652 24.4097 78.5348 27.9108 81.0758 31.0969C85.2472 36.4562 90.29 41.0768 95.7881 45.0549C99.2595 47.6091 102.104 50.8005 100.609 55.3784C99.7559 57.9878 98.0023 60.1753 96.1649 62.1652L96.106 62.0709C103.233 59.9742 106.958 55.4656 106.52 47.9259C106.413 45.6868 106.013 43.4762 105.527 41.2797L105.743 41.4809C109.636 45.0158 111.89 49.745 107.286 53.8263L107.177 53.6341C110.197 52.7442 111.183 50.0084 111.086 47.0983C110.879 42.4296 109.065 37.9958 107.215 33.7489C102.572 23.3062 96.4095 14.1289 86.9025 7.49343C82.2901 4.22907 77.0491 2.01309 71.3438 1.79772C67.1974 1.50581 62.735 1.77636 59.1904 4.15432C58.0244 4.92146 56.9958 5.91109 55.9994 6.87225L55.994 6.86869Z" fill="black"/>
<path d="M59.6116 82.1786C50.9385 71.4991 52.1028 60.9709 50.9242 40.3933C49.6582 18.2797 44.8154 46.1798 45.6528 56.4126C46.0189 60.8837 46.7903 73.9216 59.6116 82.1786Z" fill="url(#paint10_linear_6007_215924)"/>
<path d="M49.1646 31.9126C49.293 31.879 49.4216 31.8958 49.5402 31.9599C49.7592 32.0781 49.9298 32.3491 50.0743 32.7127C50.2234 33.0875 50.3615 33.6054 50.4885 34.2776C50.7427 35.6231 50.9575 37.6154 51.1159 40.3825L51.1696 41.3411C51.7073 51.1708 51.738 58.646 52.6475 64.9706C53.5842 71.4841 55.4509 76.7512 59.7608 82.0581L60.5173 82.9896L59.5074 82.3392C47.4081 74.5471 45.9718 62.5216 45.5379 57.3646L45.4615 56.4281C45.0408 51.2867 46.0454 41.733 47.3126 36.2303C47.6294 34.8548 47.9652 33.7202 48.304 32.9677C48.4721 32.5944 48.649 32.2963 48.8376 32.1121C48.933 32.019 49.0419 31.9447 49.1646 31.9126ZM49.2619 32.2828C49.2255 32.2923 49.1733 32.3202 49.1063 32.3855C48.9703 32.5183 48.8171 32.7627 48.6543 33.1243C48.3314 33.8415 48.0022 34.9466 47.6869 36.316C46.4256 41.7931 45.4276 51.3057 45.8443 56.397L45.9205 57.3314C46.3409 62.3205 47.6949 73.6525 58.7138 81.3453C54.8794 76.2905 53.1558 71.2013 52.2676 65.0249C51.3551 58.6799 51.3222 51.163 50.7862 41.36L50.7326 40.4042C50.5745 37.6429 50.361 35.6697 50.1113 34.3483C49.9864 33.687 49.8537 33.196 49.7176 32.8536C49.5769 32.5 49.4477 32.3452 49.3573 32.2964C49.3212 32.2769 49.2925 32.2748 49.2619 32.2828Z" fill="black"/>
<path d="M55.5994 14.4903C55.0658 14.6348 54.5755 14.9067 54.1709 15.2823C53.9885 15.4558 53.8256 15.6486 53.6851 15.8572C53.5441 16.0642 53.4199 16.282 53.3137 16.5087C52.8762 17.4164 52.6262 18.447 52.3977 19.4989C51.962 21.6135 51.6495 23.8437 51.1923 26.0846C50.7519 28.3949 50.1358 30.6685 49.3495 32.8857C48.5239 35.2108 47.3914 37.4159 45.9817 39.4429C45.2467 40.4827 44.4176 41.4533 43.5049 42.3423C43.046 42.7909 42.5567 43.2127 42.0603 43.615C41.5639 44.0172 41.055 44.3928 40.5318 44.7452C39.4926 45.4447 38.3966 46.0561 37.255 46.5732C36.1129 47.097 34.9245 47.5141 33.7051 47.8191C32.4477 48.1379 31.1521 48.2817 29.8551 48.2463C29.1633 48.2194 28.477 48.1113 27.8105 47.9242C27.0843 47.7205 26.4111 47.3622 25.8373 46.874C25.2563 46.3717 24.8355 45.7109 24.6266 44.9731C24.4506 44.3212 24.4111 43.6402 24.5106 42.9724C24.5534 42.6653 24.6172 42.3614 24.7016 42.0629C24.7814 41.7734 24.878 41.4887 24.9909 41.2103C25.2072 40.665 25.4688 40.1387 25.7731 39.6369C25.6606 40.7867 25.5945 41.9347 25.8052 42.9546C25.8513 43.1974 25.9188 43.4357 26.007 43.6666C26.087 43.8805 26.19 44.0852 26.3141 44.2771C26.5288 44.5998 26.8319 44.8543 27.1873 45.0104C27.3597 45.0844 27.5392 45.1405 27.723 45.1778C27.9255 45.2131 28.1301 45.2345 28.3355 45.2418C28.7886 45.2536 29.2416 45.2136 29.6855 45.1226C30.6553 44.9245 31.599 44.6158 32.498 44.2024C34.3654 43.3555 36.1078 42.2578 37.6765 40.9398C38.0639 40.6141 38.4389 40.2777 38.7961 39.9323C38.9746 39.7544 39.1532 39.5764 39.3121 39.3984C39.4711 39.2204 39.6461 39.0424 39.8068 38.8466C40.4534 38.0898 41.0499 37.2919 41.5925 36.458C42.7115 34.7135 43.6782 32.8764 44.4817 30.9669C45.3371 29.009 46.1013 26.9621 46.9138 24.8618C47.3192 23.8099 47.737 22.7473 48.1959 21.6776C48.6548 20.5816 49.1747 19.512 49.7531 18.4737C50.3548 17.4218 51.0548 16.361 52.037 15.4906C52.2862 15.2749 52.5526 15.0797 52.8334 14.9068C53.118 14.7385 53.4212 14.6035 53.7369 14.5045C54.3426 14.3157 54.9909 14.3107 55.5994 14.4903Z" fill="url(#paint11_linear_6007_215924)"/>
<path d="M58.651 12.9649C55.3867 10.8895 52.4778 15.8234 51.3868 19.4438C49.6886 25.0861 48.7314 37.0827 37.6245 45.7384C35.2602 47.5806 31.1246 51.4537 21.9497 49.1683C23.0961 51.4537 24.6282 54.5739 30.3603 54.8836C44.5065 55.6454 52.1903 42.5648 55.976 30.4988C57.8867 24.4008 59.0331 20.2091 59.7991 19.8282C61.3277 19.0664 62.733 20.7912 64.0044 20.9709C65.2758 21.1507 62.2348 15.2449 58.651 12.9649Z" fill="url(#paint12_linear_6007_215924)"/>
<path d="M56.2382 12.4155C57.0407 12.1719 57.8906 12.262 58.7507 12.8088H58.7509L58.9216 12.9204C60.6807 14.0997 62.2838 16.0984 63.3076 17.795C63.836 18.6708 64.2181 19.4792 64.3868 20.0654C64.4694 20.3523 64.5096 20.6145 64.4681 20.8103C64.4464 20.9124 64.3983 21.0157 64.3026 21.0852C64.2056 21.1557 64.0898 21.17 63.9784 21.1542C63.6277 21.1047 63.2782 20.9505 62.9396 20.7732C62.7693 20.6841 62.5971 20.5865 62.4267 20.4906C62.2554 20.3941 62.0851 20.2989 61.9135 20.2113C61.2222 19.858 60.5618 19.6551 59.8821 19.9938H59.882C59.8315 20.0189 59.7522 20.0918 59.6481 20.2483C59.5476 20.3995 59.4372 20.6081 59.3166 20.8747C59.0756 21.4075 58.8032 22.1504 58.493 23.0781C57.95 24.7019 57.2983 26.8701 56.5029 29.4322L56.1533 30.5541C54.2566 36.5995 51.3792 42.9138 47.1924 47.6244C43.0668 52.2661 37.664 55.3554 30.6839 55.084L30.3503 55.0685C27.4485 54.9118 25.5904 54.0413 24.3117 52.905C23.0387 51.7737 22.3552 50.3908 21.7835 49.2511L21.603 48.8912L21.9947 48.9887C26.5493 50.1232 29.8386 49.7263 32.2767 48.8275C34.72 47.9268 36.3205 46.5195 37.5101 45.5926L37.7672 45.3903C48.5717 36.7981 49.5114 25.0303 51.2088 19.3905L51.2618 19.2184C51.8224 17.4305 52.8098 15.3537 54.0651 13.9454C54.7131 13.2184 55.4444 12.6564 56.2382 12.4155ZM58.5511 13.121C57.7791 12.6302 57.0414 12.5588 56.3463 12.7697C55.6426 12.9833 54.9662 13.4918 54.3427 14.1914C53.0952 15.5909 52.1055 17.702 51.5646 19.497C49.8922 25.0538 48.9212 36.9933 37.9987 45.6797L37.7389 45.8843C36.5643 46.7995 34.9148 48.2498 32.4056 49.1748C29.9625 50.0755 26.7155 50.4755 22.2955 49.442C22.8308 50.4986 23.4704 51.6613 24.559 52.6286C25.766 53.7012 27.5401 54.5459 30.3703 54.6988L30.6975 54.7139C37.5433 54.9804 42.8451 51.9571 46.9143 47.3789C51.0523 42.7232 53.9099 36.4641 55.7988 30.4435C56.7527 27.3989 57.5187 24.8209 58.1406 22.9611C58.4515 22.0311 58.7288 21.2735 58.978 20.7227C59.1024 20.4475 59.2223 20.2185 59.3386 20.0437C59.4442 19.8849 59.5597 19.7506 59.69 19.6766L59.7163 19.6625C60.5651 19.2396 61.3718 19.5182 62.083 19.8817C62.2621 19.9732 62.4383 20.072 62.6095 20.1683C62.7817 20.2653 62.9481 20.3597 63.1122 20.4456C63.4425 20.6185 63.7456 20.7474 64.0305 20.7877C64.0544 20.791 64.069 20.7898 64.0764 20.7884C64.08 20.7877 64.082 20.787 64.0829 20.7866C64.0832 20.7865 64.0834 20.7863 64.0836 20.7863L64.0837 20.7861C64.0837 20.7861 64.0843 20.7859 64.0851 20.7849C64.086 20.7839 64.0876 20.7817 64.0897 20.7781C64.094 20.7705 64.0998 20.7566 64.1047 20.7338C64.1262 20.6321 64.1096 20.4446 64.0299 20.1675C63.8739 19.6257 63.5101 18.8488 62.9893 17.9857C61.98 16.313 60.4109 14.3654 58.7155 13.2284L58.5511 13.121Z" fill="black"/>
<path d="M100.625 29.6943C102.263 32.4389 103.84 35.2619 104.827 38.3144C105.158 39.3307 105.431 40.3649 105.695 41.399L105.516 41.4435C105.268 40.4058 105.009 39.3734 104.695 38.3571C103.752 35.2957 102.224 32.4603 100.627 29.6943H100.625Z" fill="black"/>
<path d="M61.71 6.10688C63.072 5.31177 64.5908 4.8205 66.1617 4.66693C67.7917 4.53583 69.429 4.80854 70.9277 5.46077C72.4161 6.11851 73.7851 7.01702 74.9794 8.11996C75.5756 8.65462 76.1414 9.22211 76.674 9.81977C77.2097 10.4125 77.7133 11.0212 78.1883 11.6531C78.6633 12.285 79.124 12.9222 79.5633 13.5736C80.0026 14.2251 80.415 14.889 80.8133 15.5564C81.6222 16.8896 82.3632 18.2548 83.0829 19.6218C83.8025 20.9887 84.4846 22.3664 85.1525 23.7387C85.49 24.4222 85.8257 25.1039 86.1685 25.7749C86.5114 26.4459 86.8507 27.117 87.2078 27.7649C87.5649 28.4127 87.9381 29.041 88.3292 29.616C88.5159 29.8915 88.7187 30.156 88.9363 30.408L89.7095 31.2642C90.7417 32.4211 91.7411 33.6077 92.7077 34.824C94.6273 37.2678 96.4112 39.8505 97.8237 42.6645C98.5435 44.0755 99.1196 45.5549 99.5433 47.0805C99.986 48.6259 100.145 50.2382 100.013 51.84C99.9324 52.6435 99.7456 53.4329 99.4576 54.1877C99.1672 54.9356 98.7696 55.6376 98.2773 56.2719C97.2945 57.493 96.0266 58.4555 94.5845 59.0753C95.8785 58.2859 96.9771 57.2157 97.7987 55.9444C98.5629 54.6914 98.9663 53.2529 98.9648 51.7866C98.9522 50.3243 98.6852 48.8753 98.1755 47.5041C97.6706 46.1115 97.0363 44.769 96.2809 43.4939C95.5258 42.2026 94.6983 40.9546 93.8023 39.7561C92.9095 38.544 91.9649 37.3782 90.9863 36.2301C90.0078 35.0821 88.9917 33.9643 87.9506 32.8661L87.1614 32.0366C86.8646 31.7216 86.5867 31.3894 86.3292 31.0417C85.8504 30.3885 85.4092 29.7086 85.0078 29.0055C84.2078 27.6403 83.5114 26.2608 82.8222 24.8867C82.1329 23.5126 81.474 22.1403 80.7829 20.7929C79.4276 18.0839 78.0115 15.4247 76.3597 12.9613C75.9419 12.3472 75.5169 11.7439 75.0633 11.1618C74.6098 10.5798 74.1366 10.0227 73.6348 9.48871C72.6577 8.41909 71.5255 7.50118 70.2759 6.76544C69.6507 6.4086 68.9885 6.12035 68.3009 5.90575C67.6047 5.69048 66.8855 5.55785 66.1581 5.51061C65.413 5.45746 64.6643 5.48791 63.926 5.60138C63.5546 5.6619 63.1778 5.72419 62.8064 5.81319C62.435 5.90219 62.0796 5.99474 61.71 6.10688Z" fill="url(#paint13_linear_6007_215924)"/>
<path opacity="0.2" d="M48.4116 17.3399C50.3045 16.7739 43.6938 18.6339 43.0635 17.4075C42.4331 16.1812 42.9492 14.3176 42.9492 14.3176C42.9492 14.3176 40.6439 15.8448 39.4457 19.5559C38.2475 23.267 38.2207 24.157 38.2207 24.157C38.2207 24.157 38.8618 21.5458 41.5296 20.9318C44.1974 20.3177 43.5617 24.3563 43.5617 24.3563C43.5617 24.3563 45.8259 18.1124 48.4116 17.3399Z" fill="#C79984"/>
<path opacity="0.2" d="M81.0986 21.5476C78.9415 21.229 86.4557 22.2169 86.9521 20.7769C87.4485 19.337 86.5843 17.3844 86.5843 17.3844C86.5843 17.3844 89.3449 18.6873 91.2431 22.5462C93.1413 26.405 93.3127 27.3786 93.3127 27.3786C93.3127 27.3786 92.2056 24.6269 89.186 24.3777C86.1664 24.1285 87.511 28.4377 87.511 28.4377C87.511 28.4377 84.045 21.9766 81.0986 21.5476Z" fill="#C79984"/>
<path opacity="0.2" d="M89.7487 17.9878C88.3665 17.6478 93.1897 18.7549 93.6004 17.849C94.0111 16.943 93.5736 15.6223 93.5736 15.6223C93.5736 15.6223 95.2861 16.6404 96.2771 19.2693C97.2682 21.8983 97.3218 22.5373 97.3218 22.5373C97.3218 22.5373 96.7682 20.6808 94.8218 20.3319C92.8754 19.9831 93.4807 22.8665 93.4807 22.8665C93.4807 22.8665 91.6361 18.4541 89.7487 17.9878Z" fill="#C79984"/>
<path d="M61.8619 56.74C66.3547 59.5434 72.6599 60.768 72.726 59.1536C72.8081 57.1743 73.0278 56.514 73.0278 56.514C73.0278 56.514 63.0958 55.7717 62.3351 55.8358C61.5744 55.8999 61.8619 56.74 61.8619 56.74Z" fill="#9F4852"/>
<path d="M62.6314 55.4513C63.4135 55.1416 67.4974 53.86 71.3813 54.2997C75.2651 54.7393 73.5955 56.4623 72.8098 57.0799C72.0241 57.6975 63.0314 55.825 62.4421 55.9051C61.0403 56.0974 61.8046 55.8998 62.6314 55.4513Z" fill="#792F32"/>
<path d="M63.3634 55.5724C64.8044 55.236 71.8561 55.9711 72.4418 56.0761C73.0275 56.1811 71.7543 57.8311 71.7543 57.8311C71.7543 57.8311 63.8062 56.3627 62.6473 56.1456C62.342 56.0245 63.3634 55.5724 63.3634 55.5724Z" fill="#E6E6E6"/>
<path d="M71.7544 57.8313C71.7544 57.8313 73.3115 56.0763 72.4419 56.0763C71.3383 57.0285 71.6704 57.3365 71.3115 57.7494L71.7544 57.8313Z" fill="black"/>
<path d="M63.2671 55.6171C63.0206 55.7345 62.401 56.0478 62.6421 56.151L63.1189 56.2383C63.2161 56.0455 63.2669 55.8328 63.2671 55.6171Z" fill="black"/>
<path d="M60.4849 56.2934C61.1009 55.8502 61.9259 55.925 62.6277 55.7256C63.2919 55.3683 64.0336 55.1782 64.7884 55.1721C65.5527 55.1721 66.2741 55.3305 67.008 55.4266C66.2759 55.5156 65.5277 55.4266 64.7991 55.4711C64.0807 55.5106 63.3762 55.6845 62.7223 55.9837C61.9831 56.1617 61.2009 55.9837 60.4867 56.2934H60.4849Z" fill="black"/>
<path d="M66.3545 59.5096C67.4545 59.2569 69.8509 59.1893 70.7026 59.9956C70.3518 59.912 69.9918 59.8731 69.6312 59.8799C68.533 59.8265 67.4295 59.8015 66.3581 59.5096H66.3545Z" fill="black"/>
<path d="M75.7148 94.1342C74.1809 93.3475 71.7702 90.3395 71.3113 86.8722C71.1327 85.5462 71.0756 84.9855 71.0756 84.9855C70.5243 84.826 69.9561 84.7316 69.3827 84.7043C68.5292 84.6793 68.2917 82.3904 68.0935 81.6464C67.8953 80.9024 67.6595 78.6205 67.6595 78.6205C67.1291 78.1402 66.6873 77.5709 66.3542 76.9385C66.0849 76.3424 65.9195 75.705 65.8649 75.0536C65.3755 74.227 65.1173 73.2848 65.1173 72.325C65.1173 71.3652 65.3755 70.4229 65.8649 69.5964C67.1613 67.3163 67.006 67.5263 67.006 67.5263C67.006 67.5263 65.8953 68.5658 64.3864 68.176C62.8775 67.7862 65.5917 64.148 65.9203 63.4521C66.2774 62.6885 71.0041 60.469 73.3113 59.8834C74.6148 59.5523 75.0755 61.7452 75.7148 62.8149C76.3541 63.8846 80.6522 67.6296 81.1343 69.0713C81.5683 70.3706 80.0469 74.9272 79.829 77.3052C79.5665 80.1886 81.5683 89.0063 81.1343 90.3074C80.7004 91.6085 75.7148 94.1342 75.7148 94.1342Z" fill="#BC795D"/>
<path d="M75.7152 94.177C75.3015 93.9807 74.9183 93.726 74.5777 93.4205C73.5669 92.5119 72.7322 91.4259 72.1152 90.2167C71.5833 89.2092 71.2168 88.1234 71.0295 87.0003C70.9653 86.5767 70.8081 85.4589 70.7456 85.014L70.9796 85.2952C70.5059 85.1652 70.0199 85.0847 69.5296 85.0549C68.7671 85.1083 68.4153 84.3839 68.2153 83.793C67.7439 82.1094 67.4283 80.3864 67.2725 78.6454L67.4028 78.8946C66.8465 78.4139 66.3931 77.8263 66.0697 77.1669C65.7463 76.5076 65.5596 75.79 65.5207 75.0571L65.5796 75.2351C64.4511 73.3288 64.6582 70.8815 65.9153 69.0962C66.3975 68.3842 66.9421 67.6224 67.76 67.2558C67.8681 67.2101 67.9837 67.1842 68.101 67.1792H68.7778C68.0483 67.591 67.2751 67.9206 66.4725 68.1618C65.685 68.3931 63.5136 68.742 63.6832 67.3839C63.8457 66.6257 64.3225 65.9849 64.6904 65.3353C65.0582 64.6856 65.4493 64.0502 65.7743 63.3862C66.0189 62.9502 66.4475 62.7081 66.8314 62.434C67.8577 61.7894 68.9393 61.2367 70.0635 60.7822C70.7938 60.5081 71.492 60.1753 72.2902 60.0703C73.7313 60.0507 75.0384 61.2682 75.8616 62.3414C76.692 63.5678 77.8259 64.4934 78.8616 65.5898C79.2848 66.0187 79.7026 66.4548 80.1116 66.9051C80.6669 67.5601 81.3615 68.2347 81.6169 69.1158C81.7847 70.1588 81.5205 71.1894 81.3365 72.1879C81.0901 73.3698 80.8008 74.5338 80.5633 75.689C80.2853 76.8123 80.1984 77.9741 80.3062 79.126C80.4651 81.1818 80.8919 84.1454 81.1669 86.2225C81.2455 86.817 81.3151 87.4133 81.3723 88.0131C81.4223 88.7803 81.5508 89.5616 81.3901 90.3484C80.9776 91.6495 77.0187 93.5753 75.7188 94.177H75.7152ZM75.7152 94.0897C75.6973 94.0897 75.7348 94.0773 75.7456 94.0684L75.7938 94.0399L75.892 93.9847C76.2348 93.7872 76.8955 93.3956 77.2437 93.1838C78.4652 92.397 79.7991 91.6352 80.7437 90.5264C80.8975 90.3287 80.968 90.079 80.9401 89.8304C80.908 88.6699 80.6705 87.4774 80.4955 86.3186C80.3205 85.1599 80.0919 83.9638 79.908 82.7784C79.6473 80.9736 79.3044 79.1865 79.3723 77.3336C79.6026 74.929 80.4151 72.6471 80.7133 70.2781C80.7455 69.8794 80.8044 69.5198 80.6812 69.1603C80.4008 68.5427 79.9169 68.0176 79.458 67.4729C78.7937 66.6826 77.7223 65.6378 77.008 64.8707C76.4624 64.3292 75.9519 63.7537 75.4795 63.1477C74.8206 62.0798 73.8867 61.0813 72.6777 60.7146C72.432 60.6493 72.1729 60.6537 71.9295 60.7271C71.3586 60.8688 70.7953 61.0399 70.2421 61.2397C69.1279 61.6397 68.0521 62.1389 67.0278 62.7312C66.6707 62.9502 66.2743 63.1798 66.0618 63.5215C65.7171 64.1926 65.3225 64.8369 64.9332 65.4794C64.6095 65.9751 64.3208 66.4925 64.0689 67.0279C63.7868 67.6919 63.9654 67.9998 64.6796 68.0852C65.8332 68.2045 67.01 67.7292 68.0207 67.1953L68.0957 67.505C67.7751 67.5932 67.4857 67.7689 67.26 68.0122C65.4475 69.8918 64.7118 72.6222 66.2046 74.9183C66.2637 75.5858 66.4453 76.2368 66.7403 76.8388C67.0494 77.3959 67.4482 77.8986 67.9207 78.3268L68.035 78.4301L68.051 78.5778C68.2046 80.2647 68.496 81.9362 68.9224 83.5758C68.9908 83.845 69.1196 84.0951 69.2992 84.3073C69.3867 84.3661 69.326 84.3518 69.5778 84.3679C69.7564 84.3821 69.9349 84.4052 70.1135 84.4319C70.5431 84.502 70.9669 84.6037 71.3813 84.7363L71.4045 84.9552C71.4974 85.701 71.5831 86.833 71.7224 87.5646C72.2135 89.9675 73.642 92.6961 75.7134 94.0951L75.7152 94.0897Z" fill="black"/>
<path d="M114.4 119.135C113.095 114.367 107.016 114.982 105.507 112.905C99.0182 103.943 85.9881 88.499 85.2684 87.5041C84.3756 86.2777 74.9114 89.4798 72.2329 99.2052C74.0079 104.963 87.4791 133.054 90.9291 137.343C95.0486 142.462 96.1308 143.641 107.016 147.311" fill="#464450"/>
<path d="M84.5673 87.077C84.9039 87.0874 85.209 87.1633 85.381 87.3584L85.4136 87.3989L85.414 87.3994L85.4562 87.4561C85.9848 88.1487 89.3289 92.1508 93.3636 97.1043C97.5221 102.21 102.405 108.315 105.653 112.8L105.686 112.844C106.036 113.295 106.64 113.619 107.415 113.918C107.811 114.07 108.243 114.213 108.696 114.362C109.148 114.511 109.621 114.667 110.093 114.843C111.979 115.551 113.897 116.618 114.573 119.088L114.227 119.182C113.598 116.884 111.823 115.874 109.967 115.178C109.503 115.004 109.037 114.851 108.584 114.702C108.132 114.553 107.691 114.408 107.285 114.251C106.48 113.941 105.772 113.575 105.362 113.01L105.362 113.01C102.121 108.533 97.2436 102.436 93.0849 97.3298C88.9325 92.2317 85.4866 88.1117 85.1227 87.6087V87.6085C85.0632 87.5275 84.8954 87.4452 84.5562 87.4347C84.2302 87.4246 83.7952 87.483 83.2778 87.6202C82.2446 87.8942 80.9119 88.4744 79.5196 89.3966C76.7459 91.2339 73.7527 94.4167 72.42 99.2023C73.3306 102.112 77.1145 110.512 81.1144 118.747C83.1242 122.885 85.1858 126.976 86.9602 130.3C88.7381 133.631 90.2191 136.175 91.0691 137.231L91.4468 137.7C93.2941 139.986 94.5469 141.431 96.5334 142.721C98.6581 144.1 101.63 145.306 107.074 147.141L106.959 147.48C101.517 145.646 98.5049 144.427 96.3374 143.02C94.2998 141.698 93.0151 140.212 91.1665 137.924L90.789 137.455C89.914 136.367 88.4171 133.791 86.6434 130.468C84.8662 127.139 82.8023 123.043 80.7912 118.903C76.7723 110.628 72.9536 102.153 72.0612 99.2578L72.0459 99.2081L72.0598 99.1578C73.4126 94.2461 76.4793 90.9808 79.3208 89.0987C80.7409 88.1581 82.1092 87.5599 83.1853 87.2745C83.7225 87.132 84.1944 87.0655 84.5673 87.077Z" fill="black"/>
<path d="M87.4182 99.6217C89.2842 101.654 94.0002 109.119 94.0002 109.119C86.3753 113.151 83.3236 116.031 80.7022 121.08C78.4879 116.962 74.9434 112.067 74.9434 112.067C76.0683 108.025 80.0379 102.534 87.4182 99.6217Z" fill="#615E6A"/>
<path d="M87.4272 99.5861C88.8004 100.962 89.9271 102.566 91.0557 104.136C92.1842 105.705 93.2449 107.314 94.2788 108.941L94.4574 109.24L94.1449 109.408C91.4807 110.832 88.7736 112.222 86.3933 114.098C83.8933 116.031 82.0326 118.656 80.7076 121.5L80.5183 121.173C78.7326 118.104 76.7112 115.16 74.6363 112.273L74.5327 112.131L74.5791 111.953C76.3041 105.962 81.6219 101.492 87.4182 99.5665L87.4272 99.5861ZM87.4093 99.6573C82.6754 101.838 78.3898 105.371 76.1023 110.113C75.7779 110.774 75.5091 111.462 75.2988 112.168L75.2416 111.855C77.297 114.79 79.2451 117.798 80.8773 120.991H80.5201C82.6737 116.876 85.9968 113.64 89.8932 111.154C91.1717 110.315 92.4866 109.54 93.8378 108.829L93.7128 109.296C91.8575 106.462 89.3932 102.34 87.4022 99.6555L87.4093 99.6573Z" fill="black"/>
<path d="M84.829 106.312C84.7451 107.242 85.2844 108.073 85.9147 108.699C86.6183 109.392 87.7004 110.02 88.7004 109.623C89.3897 109.208 89.1807 108.253 89.0575 107.587C88.9254 106.731 88.5111 105.883 87.7254 105.485C86.8004 104.967 85.0201 105.022 84.8219 106.312H84.829ZM84.7862 106.312C84.9647 104.912 86.8236 104.463 87.945 105.088C88.8593 105.543 89.3325 106.57 89.404 107.541C89.5093 108.422 89.4343 109.78 88.295 109.878C87.6498 109.973 86.9908 109.862 86.4129 109.561C85.2504 108.943 84.679 107.583 84.7862 106.312Z" fill="black"/>
<path d="M102.472 144.967C100.734 144.862 98.4344 142.475 97.238 141.245C93.0131 136.617 88.9435 130.743 87.0078 124.768C87.8038 126.778 88.7661 128.718 89.8846 130.569C92.0736 134.292 94.6117 137.8 97.4648 141.046C98.6255 142.281 100.79 144.744 102.479 144.961L102.472 144.967Z" fill="black"/>
<path d="M74.3989 67.1276C73.7472 66.9105 69.6151 66.6933 66.5723 67.9945C67.858 66.7534 69.2549 65.6322 70.7454 64.6447C70.8526 64.5734 70.9767 64.5317 71.1052 64.5235C71.2338 64.5154 71.3622 64.5412 71.4775 64.5984C72.066 64.9383 72.6089 65.351 73.0936 65.8265L74.3989 67.1276Z" fill="black"/>
<path d="M73.5293 78.3963C73.1293 79.5585 72.5578 80.6461 72.1454 81.7959C71.7073 82.928 71.4407 84.1187 71.3543 85.329C70.84 82.8371 72.1364 80.3898 73.5293 78.3874V78.3963Z" fill="black"/>
<path d="M69.5776 80.63C70.4383 80.8614 71.3437 80.8276 72.224 80.7796V81.2121C71.3312 81.1177 70.4044 81.0038 69.5776 80.63Z" fill="black"/>
<path d="M75.7043 74.945C75.0186 75.2167 74.3159 75.4438 73.6007 75.6249C73.2436 75.7015 72.865 75.7388 72.5079 75.835C71.7936 76.013 71.1329 76.3921 70.4419 76.643C69.5669 77.0738 68.1473 77.177 68.0633 78.3856L68.0223 78.3963C67.7544 77.7056 68.358 76.9723 68.9865 76.7267C69.7593 76.3948 70.5657 76.1472 71.3919 75.988C72.5079 75.81 73.4615 75.1622 74.5775 74.9948C74.9459 74.913 75.3238 74.8819 75.7007 74.9023V74.945H75.7043Z" fill="black"/>
<path d="M76.9952 71.4795C76.622 71.3211 76.2809 71.0666 75.9148 70.9313C75.2809 70.7729 74.622 71.0648 73.9809 71.136L73.1667 71.2606C71.806 71.4831 70.606 72.2164 69.4167 72.8518C68.5935 73.3609 65.715 74.8382 65.731 75.7905H65.6882C65.5578 75.2084 66.0864 74.7101 66.4489 74.322C68.0685 72.7664 70.2274 71.9725 72.3417 71.314C73.1327 71.0595 73.9077 70.748 74.7273 70.602C75.1398 70.5344 75.6309 70.4543 76.0398 70.6501C76.4487 70.8459 76.713 71.1591 77.0327 71.4404L77.0095 71.476L76.9952 71.4795Z" fill="black"/>
<path d="M70.1598 71.0862C71.4758 71.0737 73.2597 71.1289 73.2597 71.1289L68.0259 73.1241L68.5884 72.0455C68.738 71.7583 68.9634 71.5172 69.2403 71.3482C69.5172 71.1791 69.8351 71.0886 70.1598 71.0862Z" fill="black"/>
<path d="M77.6596 68.1671C77.0471 67.7613 76.3096 67.6047 75.615 67.4C74.9204 67.1953 74.1864 67.044 73.4722 66.9051L73.5775 66.4833C74.2918 66.7022 74.9846 66.9354 75.6775 67.1953C76.3703 67.4551 77.0828 67.7008 77.656 68.1689L77.6596 68.1671Z" fill="black"/>
</g>
</g>
<defs>
<linearGradient id="paint0_linear_6007_215924" x1="90.0559" y1="97.4983" x2="90.0559" y2="31.5828" gradientUnits="userSpaceOnUse">
<stop offset="0.16" stop-color="#934661"/>
<stop offset="0.33" stop-color="#7C3B4F"/>
<stop offset="0.61" stop-color="#592B34"/>
<stop offset="0.85" stop-color="#442123"/>
<stop offset="1" stop-color="#3C1D1D"/>
</linearGradient>
<linearGradient id="paint1_linear_6007_215924" x1="50.8259" y1="76.8299" x2="19.8328" y2="22.9754" gradientUnits="userSpaceOnUse">
<stop offset="0.24" stop-color="#934661"/>
<stop offset="0.57" stop-color="#592B34"/>
<stop offset="0.77" stop-color="#3C1D1D"/>
</linearGradient>
<linearGradient id="paint2_linear_6007_215924" x1="64.0339" y1="41.6857" x2="65.6111" y2="35.2956" gradientUnits="userSpaceOnUse">
<stop stop-color="#A86104"/>
<stop offset="0.15" stop-color="#A66005"/>
<stop offset="0.23" stop-color="#9E5C07"/>
<stop offset="0.28" stop-color="#92560B"/>
<stop offset="0.32" stop-color="#7F4D10"/>
<stop offset="0.36" stop-color="#684217"/>
<stop offset="0.4" stop-color="#4B3420"/>
<stop offset="0.43" stop-color="#302728"/>
</linearGradient>
<linearGradient id="paint3_linear_6007_215924" x1="82.1108" y1="44.4969" x2="81.7435" y2="38.6815" gradientUnits="userSpaceOnUse">
<stop stop-color="#A86104"/>
<stop offset="0.15" stop-color="#A66005"/>
<stop offset="0.23" stop-color="#9E5C07"/>
<stop offset="0.28" stop-color="#92560B"/>
<stop offset="0.32" stop-color="#7F4D10"/>
<stop offset="0.36" stop-color="#684217"/>
<stop offset="0.4" stop-color="#4B3420"/>
<stop offset="0.43" stop-color="#302728"/>
</linearGradient>
<linearGradient id="paint4_linear_6007_215924" x1="85.7393" y1="35.2611" x2="78.7888" y2="53.3637" gradientUnits="userSpaceOnUse">
<stop stop-color="#60FFFF"/>
<stop offset="1" stop-opacity="0"/>
</linearGradient>
<linearGradient id="paint5_linear_6007_215924" x1="74.8343" y1="50.7812" x2="66.9596" y2="50.3862" gradientUnits="userSpaceOnUse">
<stop stop-color="#955241"/>
<stop offset="0.41" stop-color="#975140"/>
<stop offset="0.59" stop-color="#9F4E3F"/>
<stop offset="0.74" stop-color="#AB4A3B"/>
<stop offset="0.77" stop-color="#B0483A"/>
</linearGradient>
<linearGradient id="paint6_linear_6007_215924" x1="66.2631" y1="30.3943" x2="59.2458" y2="48.6676" gradientUnits="userSpaceOnUse">
<stop stop-color="#60FFFF"/>
<stop offset="1" stop-opacity="0"/>
</linearGradient>
<linearGradient id="paint7_linear_6007_215924" x1="52.9671" y1="14.0453" x2="67.29" y2="14.5469" gradientUnits="userSpaceOnUse">
<stop stop-color="#3C1D1D"/>
<stop offset="0.44" stop-color="#3E1E1E"/>
<stop offset="0.6" stop-color="#452124"/>
<stop offset="0.71" stop-color="#50272D"/>
<stop offset="0.8" stop-color="#612F3A"/>
<stop offset="0.88" stop-color="#77394B"/>
<stop offset="0.94" stop-color="#924560"/>
<stop offset="0.95" stop-color="#934661"/>
<stop offset="1" stop-color="#934661"/>
</linearGradient>
<linearGradient id="paint8_linear_6007_215924" x1="41.0049" y1="95.8803" x2="34.5214" y2="47.0856" gradientUnits="userSpaceOnUse">
<stop stop-color="#9A657E"/>
<stop offset="0.11" stop-color="#945A74"/>
<stop offset="0.31" stop-color="#843D59"/>
<stop offset="0.33" stop-color="#823A56"/>
<stop offset="0.42" stop-color="#74354B"/>
<stop offset="0.65" stop-color="#582933"/>
<stop offset="0.85" stop-color="#462225"/>
<stop offset="1" stop-color="#402020"/>
</linearGradient>
<linearGradient id="paint9_linear_6007_215924" x1="108.681" y1="53.7142" x2="63.8345" y2="0.0972263" gradientUnits="userSpaceOnUse">
<stop offset="0.24" stop-color="#934661"/>
<stop offset="0.57" stop-color="#592B34"/>
<stop offset="0.77" stop-color="#3C1D1D"/>
</linearGradient>
<linearGradient id="paint10_linear_6007_215924" x1="55.4613" y1="83.2365" x2="45.9133" y2="32.9574" gradientUnits="userSpaceOnUse">
<stop offset="0.24" stop-color="#934661"/>
<stop offset="0.57" stop-color="#592B34"/>
<stop offset="0.77" stop-color="#3C1D1D"/>
</linearGradient>
<linearGradient id="paint11_linear_6007_215924" x1="21.4803" y1="42.725" x2="61.0481" y2="22.4887" gradientUnits="userSpaceOnUse">
<stop stop-color="#9A657E"/>
<stop offset="0.11" stop-color="#945A74"/>
<stop offset="0.31" stop-color="#843D59"/>
<stop offset="0.33" stop-color="#823A56"/>
<stop offset="0.42" stop-color="#74354B"/>
<stop offset="0.65" stop-color="#582933"/>
<stop offset="0.85" stop-color="#462225"/>
<stop offset="1" stop-color="#402020"/>
</linearGradient>
<linearGradient id="paint12_linear_6007_215924" x1="50.3654" y1="47.084" x2="36.8884" y2="23.6635" gradientUnits="userSpaceOnUse">
<stop offset="0.24" stop-color="#934661"/>
<stop offset="0.57" stop-color="#592B34"/>
<stop offset="0.77" stop-color="#3C1D1D"/>
</linearGradient>
<linearGradient id="paint13_linear_6007_215924" x1="87.7846" y1="61.7167" x2="75.6604" y2="1.66317" gradientUnits="userSpaceOnUse">
<stop stop-color="#9A657E"/>
<stop offset="0.11" stop-color="#945A74"/>
<stop offset="0.31" stop-color="#843D59"/>
<stop offset="0.33" stop-color="#823A56"/>
<stop offset="0.42" stop-color="#74354B"/>
<stop offset="0.65" stop-color="#582933"/>
<stop offset="0.85" stop-color="#462225"/>
<stop offset="1" stop-color="#402020"/>
</linearGradient>
<clipPath id="clip0_6007_215924">
<rect width="120" height="166" fill="white" transform="translate(3)"/>
</clipPath>
</defs>
</svg>
