<svg width="128" height="94" viewBox="0 0 128 94" fill="none" xmlns="http://www.w3.org/2000/svg">
<path d="M8 0.5H120C124.142 0.5 127.5 3.85786 127.5 8V86C127.5 90.1421 124.142 93.5 120 93.5H8C3.85786 93.5 0.5 90.1421 0.5 86V8C0.5 3.85786 3.85786 0.5 8 0.5Z" fill="#fefdf7"/>
<path d="M8 0.5H120C124.142 0.5 127.5 3.85786 127.5 8V86C127.5 90.1421 124.142 93.5 120 93.5H8C3.85786 93.5 0.5 90.1421 0.5 86V8C0.5 3.85786 3.85786 0.5 8 0.5Z" stroke="#fff7e4"/>
<rect x="99.5" y="40.5" width="13" height="13" rx="6.5" fill="#FFC60E"/>
<rect x="99.5" y="40.5" width="13" height="13" rx="6.5" stroke="#C7430A"/>
<path d="M106.5 85C106.5 84.7239 106.276 84.5 106 84.5C105.724 84.5 105.5 84.7239 105.5 85H106.5ZM106 85H105.5V93H106H106.5V85H106Z" fill="#37414B" style="mix-blend-mode:color-burn"/>
<path d="M22.5 85C22.5 84.7239 22.2761 84.5 22 84.5C21.7239 84.5 21.5 84.7239 21.5 85H22.5ZM22 85H21.5V93H22H22.5V85H22Z" fill="#37414B" style="mix-blend-mode:color-burn"/>
<path d="M22 72.4086C60.5 76.6145 69.25 44.3691 106 47.1731" stroke="#D9D9D9" stroke-linecap="round" stroke-linejoin="round" stroke-dasharray="2 2"/>
<path d="M22 72.4086C60.5 76.6145 69.25 44.3691 106 47.1731" stroke="#D0D6DD" stroke-linecap="round" stroke-linejoin="round" stroke-dasharray="2 2"/>
<rect x="99.5" y="40.5" width="13" height="13" rx="6.5" fill="#FFC60E"/>
<rect x="99.5" y="40.5" width="13" height="13" rx="6.5" stroke="#C7430A"/>
<rect x="16" y="66" width="12" height="12" rx="6" fill="#D9D9D9"/>
<rect x="16" y="66" width="12" height="12" rx="6" fill="#D0D6DD"/>
</svg>
