<svg viewBox="0 0 21 19" fill="none" xmlns="http://www.w3.org/2000/svg">
<path d="M11.7992 1.14795L20.4332 16.1019C20.5648 16.33 20.6341 16.5886 20.6341 16.8519C20.6341 17.1152 20.5648 17.3739 20.4332 17.6019C20.3015 17.83 20.1122 18.0193 19.8842 18.151C19.6561 18.2826 19.3975 18.3519 19.1342 18.3519H1.86617C1.60287 18.3519 1.34421 18.2826 1.11619 18.151C0.888163 18.0193 0.698811 17.83 0.567163 17.6019C0.435515 17.3739 0.366209 17.1152 0.366211 16.8519C0.366213 16.5886 0.435522 16.33 0.567173 16.1019L9.20117 1.14795C9.77817 0.147949 11.2212 0.147949 11.7992 1.14795ZM10.5002 2.89795L2.73217 16.3519H18.2682L10.5002 2.89795ZM10.5002 12.9999C10.7654 12.9999 11.0197 13.1053 11.2073 13.2928C11.3948 13.4804 11.5002 13.7347 11.5002 13.9999C11.5002 14.2652 11.3948 14.5195 11.2073 14.7071C11.0197 14.8946 10.7654 14.9999 10.5002 14.9999C10.235 14.9999 9.9806 14.8946 9.79307 14.7071C9.60553 14.5195 9.50017 14.2652 9.50017 13.9999C9.50017 13.7347 9.60553 13.4804 9.79307 13.2928C9.9806 13.1053 10.235 12.9999 10.5002 12.9999ZM10.5002 5.99995C10.7654 5.99995 11.0197 6.10531 11.2073 6.29284C11.3948 6.48038 11.5002 6.73473 11.5002 6.99995V10.9999C11.5002 11.2652 11.3948 11.5195 11.2073 11.7071C11.0197 11.8946 10.7654 11.9999 10.5002 11.9999C10.235 11.9999 9.9806 11.8946 9.79307 11.7071C9.60553 11.5195 9.50017 11.2652 9.50017 10.9999V6.99995C9.50017 6.73473 9.60553 6.48038 9.79307 6.29284C9.9806 6.10531 10.235 5.99995 10.5002 5.99995Z" fill="#37414B"/>
</svg>
