<svg viewBox="0 0 16 16" fill="none" xmlns="http://www.w3.org/2000/svg">
<g clip-path="url(#clip0_992_8775)">
<path d="M16 9.08621C16.0065 16.2921 5.02826 18.6376 0.980177 12.3868C-1.50893 8.65668 0.980178 3.50232 5.76844 2.33806C6.53483 2.1346 7.34051 2.04417 8.13965 2.02722C8.30995 2.02722 8.45406 2.14025 8.46061 2.29285V2.3098L8.1462 2.03287C8.1593 2.03287 8.17895 2.02157 8.17895 2.01026V1.59769V0.710369C8.1069 0.314749 8.52611 -0.0865222 9.00429 0.0152087C9.29905 0.0434672 9.89513 0.648201 10.1309 0.795145L13.1703 3.19712C13.3013 3.29885 13.3078 3.47971 13.1703 3.58709L10.1899 6.03993L9.44316 6.65032C9.29905 6.79161 9.03704 6.96682 8.78158 6.9216C8.47371 6.899 8.1986 6.65032 8.20515 6.37339V5.48607C8.20515 5.37303 8.2248 4.97741 8.19205 4.87568C8.19205 4.83047 8.15275 4.80786 8.19205 4.84177C8.30995 4.87003 8.15275 4.84177 8.08069 4.85308C3.80335 4.85308 1.5435 9.4027 4.51734 12.0703C7.60252 14.9357 13.2685 12.9859 13.3144 9.08621C13.4388 11.5391 10.9039 13.7319 8.04794 13.6811C0.855722 13.4098 1.03913 4.50832 8.21825 4.36703C8.87983 4.38398 8.75537 5.1074 8.76848 5.48607V6.36773C8.76848 6.4073 8.82743 6.43555 8.86673 6.41295L9.03049 6.28296C9.51521 5.88169 12.1812 3.65491 12.7249 3.20843V3.59839C12.1615 3.15756 9.40385 1.00991 8.90603 0.619942C8.81433 0.54647 8.85363 0.58038 8.84053 0.569077C8.84053 0.569077 8.82743 0.569077 8.82088 0.569077C8.81433 0.569077 8.80778 0.58038 8.80778 0.58038C8.80778 0.586032 8.80778 0.58038 8.80778 0.602987C8.80778 0.636897 8.80778 1.54682 8.80778 1.60334C8.80778 1.76724 8.80778 1.86332 8.80123 2.08374C8.76847 2.37197 8.45406 2.60369 8.12 2.59239C7.94314 2.59239 7.79903 2.4624 7.80558 2.3098L8.12655 2.58674C1.41905 2.58674 -1.94125 9.62312 2.74221 13.7376C7.54357 17.9368 15.8624 14.9527 15.9869 9.09186L16 9.08621Z" fill="#80089D"/>
</g>
<defs>
<clipPath id="clip0_992_8775">
<rect width="16" height="16" fill="#80089D"/>
</clipPath>
</defs>
</svg>
