<svg width="24" height="24" viewBox="0 0 24 24" fill="none" xmlns="http://www.w3.org/2000/svg">
<path d="M19.422 4.40881H4.57798C3.33502 4.40881 2.32739 5.31247 2.32739 6.42719V19.7396C2.32739 20.8543 3.33502 21.7579 4.57798 21.7579H19.422C20.6649 21.7579 21.6725 20.8543 21.6725 19.7396V6.42719C21.6725 5.31247 20.6649 4.40881 19.422 4.40881Z" stroke="#262626" stroke-linecap="round" stroke-linejoin="round"/>
<path d="M7.25891 2.24207V6.59048" stroke="#262626" stroke-linecap="round" stroke-linejoin="round"/>
<path d="M16.7411 2.24207V6.59048" stroke="#262626" stroke-linecap="round" stroke-linejoin="round"/>
<path d="M2.32739 10.3304H21.6725" stroke="#262626" stroke-linecap="round" stroke-linejoin="round"/>
<path d="M9.89062 13.5H6.60938C6.27283 13.5 6 13.7728 6 14.1094V17.3906C6 17.7272 6.27283 18 6.60938 18H9.89062C10.2272 18 10.5 17.7272 10.5 17.3906V14.1094C10.5 13.7728 10.2272 13.5 9.89062 13.5Z" stroke="#262626" stroke-linecap="round" stroke-linejoin="round"/>
</svg>
