<svg viewBox="0 0 16 16" fill="none" xmlns="http://www.w3.org/2000/svg">
<path d="M12.9574 5.48286L8.42518 10.7471C8.36381 10.8208 8.28903 10.8809 8.20514 10.9241C8.12124 10.9673 8.02999 10.9926 7.93662 10.9986C7.84324 11.0046 7.74965 10.9912 7.66131 10.959C7.57298 10.9269 7.49162 10.8768 7.42205 10.8115L7.34494 10.731L3.03389 5.26285C2.92071 5.12332 3.11628 4.91405 3.25003 5.03747L8.44578 9.59876H7.36553L12.6641 5.18236C12.7065 5.15293 12.7575 5.14003 12.8081 5.14595C12.8586 5.15187 12.9055 5.17622 12.9406 5.2147C12.9756 5.25318 12.9965 5.30334 12.9996 5.35632C13.0027 5.40931 12.9877 5.46172 12.9574 5.50433V5.48286Z" fill="gray"/>
</svg>
