<svg viewBox="0 0 19 19" fill="none" xmlns="http://www.w3.org/2000/svg">
<path d="M9.4996 15.2145H17.4996M9.4996 15.2145C9.4996 15.4396 9.45526 15.6625 9.3691 15.8706C9.28294 16.0786 9.15665 16.2676 8.99745 16.4268C8.83825 16.586 8.64925 16.7123 8.44124 16.7984C8.23323 16.8846 8.01029 16.9289 7.78514 16.9289C7.56 16.9289 7.33706 16.8846 7.12905 16.7984C6.92104 16.7123 6.73204 16.586 6.57284 16.4268C6.41363 16.2676 6.28735 16.0786 6.20119 15.8706C6.11503 15.6625 6.07068 15.4396 6.07068 15.2145C6.07068 14.9893 6.11503 14.7664 6.20119 14.5584C6.28735 14.3504 6.41363 14.1614 6.57284 14.0022C6.73204 13.843 6.92104 13.7167 7.12905 13.6305C7.33706 13.5443 7.56 13.5 7.78514 13.5C8.01029 13.5 8.23323 13.5443 8.44124 13.6305C8.64925 13.7167 8.83825 13.843 8.99745 14.0022C9.15665 14.1614 9.28294 14.3504 9.3691 14.5584C9.45526 14.7664 9.4996 14.9893 9.4996 15.2145ZM17.4996 15.2145L15.2141 12.9289M17.4996 15.2145L15.2141 17.5M4.92853 3.21446C4.92853 3.66917 5.10916 4.10525 5.43068 4.42677C5.75221 4.74829 6.18829 4.92892 6.64299 4.92892C7.09769 4.92892 7.53377 4.74829 7.8553 4.42677C8.17682 4.10525 8.35745 3.66917 8.35745 3.21446C8.35745 2.75976 8.17682 2.32368 7.8553 2.00215C7.53377 1.68063 7.09769 1.5 6.64299 1.5C6.18829 1.5 5.75221 1.68063 5.43068 2.00215C5.10916 2.32368 4.92853 2.75976 4.92853 3.21446ZM9.4996 8.92892C9.4996 9.38363 9.68024 9.81971 10.0018 10.1412C10.3233 10.4628 10.7594 10.6434 11.2141 10.6434C11.6688 10.6434 12.1048 10.4628 12.4264 10.1412C12.7479 9.81971 12.9285 9.38363 12.9285 8.92892C12.9285 8.47422 12.7479 8.03814 12.4264 7.71662C12.1048 7.39509 11.6688 7.21446 11.2141 7.21446C10.7594 7.21446 10.3233 7.39509 10.0018 7.71662C9.68024 8.03814 9.4996 8.47422 9.4996 8.92892Z" stroke="black" stroke-width="2" stroke-linecap="round" stroke-linejoin="round"/>
<path d="M9.49969 8.92892H4.64308C3.82033 8.94521 3.03678 9.28347 2.46069 9.87108C1.88459 10.4587 1.56189 11.2488 1.56189 12.0717C1.56189 12.8946 1.88459 13.6847 2.46069 14.2723C3.03678 14.8599 3.82033 15.1982 4.64308 15.2145H6.07077M12.9286 8.92892H14.6431C15.4009 8.92892 16.1276 8.62789 16.6634 8.09206C17.1993 7.55623 17.5003 6.82948 17.5003 6.07169C17.5003 5.31391 17.1993 4.58716 16.6634 4.05133C16.1276 3.51549 15.4009 3.21446 14.6431 3.21446H8.35508M4.92862 3.21446H1.49969" stroke="black" stroke-width="2" stroke-linecap="round" stroke-linejoin="round"/>
</svg>
