<svg width="14" height="12" viewBox="0 0 14 12" fill="none" xmlns="http://www.w3.org/2000/svg">
<path d="M6.4547 10.2899L7.3362 2.48706L8.2177 10.2899C8.27152 10.7646 7.92036 11.1914 7.43334 11.2438C6.8774 11.3104 6.38775 10.8305 6.4547 10.2899Z" fill="#495665"/>
<path d="M13.7975 7.06468C11.2272 5.79086 8.9437 4.07304 6.75932 2.25988L7.91321 2.25988C6.28936 3.62519 4.592 4.90412 2.77387 6.02055C2.16082 6.39099 1.53859 6.75119 0.875 7.06468C1.70005 5.89323 2.65572 4.84782 3.65208 3.82672C4.64057 2.82161 5.68288 1.87345 6.75932 0.96111C7.09341 0.675765 7.58765 0.683443 7.91321 0.96111C10.0661 2.80946 12.1369 4.76657 13.7975 7.06468Z" fill="#495665"/>
</svg>
