<svg width="13" height="12" viewBox="0 0 13 12" fill="none" xmlns="http://www.w3.org/2000/svg">
<path d="M7.42036 1.71011L6.53886 9.51296L5.65737 1.71011C5.60354 1.23539 5.9547 0.808654 6.44172 0.756192C6.99766 0.689654 7.48731 1.16949 7.42036 1.71011Z" fill="#495665"/>
<path d="M0.0775366 4.93534C2.64786 6.20915 4.93136 7.92698 7.11574 9.74014H5.96185C7.5857 8.37483 9.28306 7.0959 11.1012 5.97947C11.7142 5.60903 12.3365 5.24883 13.0001 4.93534C12.175 6.10679 11.2193 7.1522 10.223 8.1733C9.23449 9.17841 8.19218 10.1266 7.11574 11.0389C6.78165 11.3243 6.28741 11.3166 5.96185 11.0389C3.80897 9.19056 1.73814 7.23345 0.0775366 4.93534Z" fill="#495665"/>
</svg>
