<svg viewBox="0 0 18 13" fill="none" xmlns="http://www.w3.org/2000/svg">
<path d="M5.99999 10.17L2.52999 6.69999C2.34302 6.51301 2.08942 6.40796 1.82499 6.40796C1.56057 6.40796 1.30697 6.51301 1.11999 6.69999C0.933015 6.88696 0.827972 7.14056 0.827972 7.40499C0.827972 7.53592 0.853761 7.66556 0.903866 7.78653C0.953971 7.90749 1.02741 8.0174 1.11999 8.10999L5.29999 12.29C5.68999 12.68 6.31999 12.68 6.70999 12.29L17.29 1.70999C17.477 1.52301 17.582 1.26941 17.582 1.00499C17.582 0.74056 17.477 0.486964 17.29 0.299986C17.103 0.113008 16.8494 0.00796509 16.585 0.00796509C16.3206 0.00796509 16.067 0.113008 15.88 0.299986L5.99999 10.17Z" fill="#006539"/>
</svg>
