<svg viewBox="0 0 6 18" xmlns="http://www.w3.org/2000/svg"><path d="M 5.733 3.227 L 4.48 10.747 C 4.359 11.47 3.733 12 3 12 C 2.267 12 1.641 11.47 1.52 10.747 L 0.267 3.225 C 0.228 2.881 0.238 2.368 0.33 2.034 C 0.422 1.701 0.677 1.256 0.888 0.981 C 1.125 0.729 1.53 0.42 1.836 0.259 C 2.157 0.13 2.654 0.003 3 0.003 C 3.346 0.003 3.85 0.114 4.164 0.259 C 4.478 0.405 4.875 0.729 5.112 0.981 C 5.323 1.256 5.578 1.701 5.67 2.034 C 5.762 2.368 5.772 2.883 5.733 3.227 Z" fill="#E97400"/><ellipse cx="3" cy="15.99" rx="1.99" ry="1.99" fill="#E97400"/></svg>