<svg xmlns="http://www.w3.org/2000/svg" viewBox="0 0 24 13" fill="none">
<path d="M4.05748 1.54612C2.55969 2.51002 2.52001 4.34422 3.43257 5.67309C5.52551 8.76129 10.495 6.49661 9.20551 2.99664C8.64012 1.44318 6.94395 0.366992 5.16842 0.909767C5.09899 0.928484 5.05931 0.825544 5.12874 0.797469C9.67171 -0.971229 12.2606 5.66373 7.97554 7.61023C6.1405 8.54605 3.61112 7.8629 2.62912 6.11292C1.54793 4.54075 1.92486 2.00468 3.89877 1.27474C4.07732 1.19987 4.21618 1.44318 4.0674 1.54612H4.05748Z" fill="#80089D"/>
<path d="M23.8662 2.91237C20.3052 3.49258 16.7244 3.19311 13.1634 2.81879C13.094 2.81879 13.094 2.70649 13.1634 2.70649C16.7244 2.33216 20.3052 2.0327 23.8662 2.61291C24.0447 2.64098 24.0447 2.89365 23.8662 2.92173V2.91237Z" fill="#80089D"/>
<path d="M23.8662 7.03935C20.3052 7.61956 16.7244 7.3201 13.1634 6.94577C13.094 6.94577 13.094 6.83347 13.1634 6.83347C16.7244 6.45914 20.3052 6.15968 23.8662 6.73989C24.0447 6.76796 24.0447 7.02064 23.8662 7.04871V7.03935Z" fill="#80089D"/>
<path d="M23.8662 11.157C20.3052 11.7372 16.7244 11.4377 13.1634 11.0634C13.094 11.0634 13.094 10.9511 13.1634 10.9511C16.7244 10.5768 20.3052 10.2773 23.8662 10.8575C24.0447 10.8856 24.0447 11.1383 23.8662 11.1664V11.157Z" fill="#80089D"/>
<path d="M11.5465 12.411C9.50317 7.64763 2.12333 7.3856 0.119666 12.3829C0.0998273 12.4484 -0.00928324 12.4203 0.000635904 12.3548C0.655299 8.27463 6.49767 6.42171 9.81067 9.03264C10.9216 9.83745 11.7151 11.0447 11.8639 12.3267C11.8838 12.5045 11.616 12.57 11.5465 12.4016V12.411Z" fill="#80089D"/>
</svg>