<svg xmlns="http://www.w3.org/2000/svg" viewBox="0 0 48 47" fill="none"><path d="M3.829 39.006l-.34 2.27c-.037.266-.109.872-.223 1.143-.447 1.369-2.919 2.196-3.265.33.008-.992 1.438-9.635 1.574-10.839L6.181 2.425c.074-.503.157-1.053.481-1.47.449-.635 1.234-.997 2.013-.952l.861.011L12.98.05l22.953.308 2.584.037c1.228.005 2.321.992 2.478 2.204 2.526 12.456 4.677 25.587 6.974 38.104.346 1.885-1.991 3.066-3.241 1.55-.375-.415-.473-1.388-.601-1.909l-1.191-5.612-.059-.266c-.088-.391-.471-.678-.869-.657l-1.135.072-20.602 1.505-3.432.287-.287.024c-.351.027-.633.372-.579.715.021.229.074.619.096.837.226 1.779.481 3.929.625 5.706l.045.572.021.287c.133 1.194-.907 2.316-2.1 2.252-.96.035-1.843-.545-2.085-1.484-.058-.213-.064-.497-.069-.718l-.372-9.186c-.122-.896.393-1.805 1.258-2.098.915-.226 1.978-.112 2.927-.207l4.584-.252 18.316-1.348.572-.045c1.085-.056 1.957-1.146 1.744-2.215l-.808-4.52-2.316-13.575-.787-4.506a2.11 2.11 0 0 0-1.273-1.492c-.558-.234-1.577-.144-2.188-.189L13.506 3.73c-.34.008-1.38-.045-1.72-.043-1.534-.072-2.595 1.425-2.191 2.879.016.16.72 4.807.76 5.107l2.677 18.167-3.73-22.649-.093-.566c-.029-.189-.066-.372-.085-.582-.162-1.492 1.172-2.89 2.672-2.792l.574.013 21.801.468c.686.048 1.704-.069 2.361.207a2.69 2.69 0 0 1 1.619 1.842l.883 4.522 2.661 13.514.848 4.512c.255 1.399-.654 2.861-2.023 3.233-.346.122-.883.114-1.25.133-7.607.226-15.349.577-22.929 1.082l-2.289.167c-.808.008-1.454.742-1.353 1.531.266 2.47.838 6.187 1.207 8.678l.085.569.043.285a.62.62 0 0 0 .011.064c.037.141.165.274.303.29.027.005.056.005.082.003l.231-.011c.032 0 .029-.003.037-.005a.3.3 0 0 0 .255-.282l-.104-.944c-.21-1.763-.332-3.929-.46-5.721l-.043-.572c-.128-.843.178-1.749.875-2.252.428-.338.981-.465 1.515-.465l1.146-.058 6.878-.351 16.035-1.016 1.156-.08a2.06 2.06 0 0 1 1.96 1.183c.12.202.138.455.199.675l.25 1.119 1.01 4.477.253 1.119c.024.117.061.17.117.245.154.194.484.242.67.098.128-.09.221-.266.221-.441L39.548 7.551l-.877-4.506-.027-.141c-.008-.027-.005-.019-.008-.029s-.008-.024-.016-.035a.2.2 0 0 0-.157-.104l-.284-.008-16.061-.457-9.178-.287-4.475-.138c-.186.011-.364.157-.404.343L5.86 14.001.449 42.196c-.221.694.138 1.38.949 1.321.713-.037 1.393-.518 1.688-1.17.077-.167.122-.338.157-.529l.117-.561.465-2.249.003-.003z" fill="#7600d8"/></svg>