<svg viewBox="0 0 23 24" fill="none" xmlns="http://www.w3.org/2000/svg">
<path id="Vector" d="M11.4285 0C9.0037 0 6.67818 0.963263 4.96356 2.67788C3.24894 4.3925 2.28568 6.71802 2.28568 9.14286V12.3017L0.121105 16.6309C0.0337941 16.8051 -0.00750871 16.9988 0.00112118 17.1935C0.00975106 17.3882 0.0680269 17.5774 0.170411 17.7432C0.272794 17.9091 0.415884 18.046 0.586082 18.1409C0.756279 18.2359 0.94793 18.2857 1.14282 18.2857H21.7142C21.9091 18.2857 22.1008 18.2359 22.271 18.1409C22.4412 18.046 22.5843 17.9091 22.6867 17.7432C22.789 17.5774 22.8473 17.3882 22.8559 17.1935C22.8646 16.9988 22.8233 16.8051 22.736 16.6309L20.5714 12.3017V9.14286C20.5714 6.71802 19.6081 4.3925 17.8935 2.67788C16.1789 0.963263 13.8534 0 11.4285 0ZM11.4285 24C10.4149 24.0003 9.42987 23.6636 8.62841 23.043C7.82696 22.4223 7.25452 21.5529 7.00111 20.5714H15.856C15.6025 21.5529 15.0301 22.4223 14.2287 23.043C13.4272 23.6636 12.4422 24.0003 11.4285 24Z" fill="#4D055E"/>
</svg>
