<svg viewBox="0 0 24 25" fill="none" xmlns="http://www.w3.org/2000/svg">
<circle cx="12" cy="12.5" r="12" fill="#00CA72"/>
<path d="M17.7801 8.72C17.9205 8.86062 17.9994 9.05125 17.9994 9.25C17.9994 9.44875 17.9205 9.63937 17.7801 9.78L10.5301 17.03C10.3894 17.1704 10.1988 17.2493 10.0001 17.2493C9.80132 17.2493 9.61069 17.1704 9.47007 17.03L6.22007 13.78C6.08766 13.6377 6.01555 13.4497 6.01891 13.2554C6.02227 13.061 6.10082 12.8756 6.23807 12.738C6.37567 12.6008 6.56112 12.5222 6.75544 12.5188C6.94975 12.5155 7.1378 12.5876 7.28007 12.72L10.0001 15.44L16.7201 8.72C16.8607 8.57955 17.0513 8.50066 17.2501 8.50066C17.4488 8.50066 17.6394 8.57955 17.7801 8.72Z" fill="#E6FAF1"/>
</svg>
