<svg width="64" height="14" viewBox="0 0 64 14" fill="none" xmlns="http://www.w3.org/2000/svg">
<path d="M29.9533 13.9799L29.9163 1H27.9323L22.8656 9.60202L17.7163 1H15.7295V13.9799H18.0294V5.49457L22.2963 12.514H23.3893L27.6363 5.36079V13.9799H29.9533Z" fill="#262626"/>
<path d="M48.478 13.9799L45.4948 9.71025L45.6884 9.63054C46.4604 9.29938 47.1198 8.75164 47.587 8.05358C48.0495 7.32839 48.2871 6.48262 48.2702 5.62269C48.295 4.74677 48.0624 3.88281 47.6012 3.13773C47.1402 2.43209 46.4792 1.88003 45.7026 1.55222C44.7647 1.16583 43.7564 0.979697 42.7423 1.00572H37.4023V13.9856H39.8133V10.2027H42.7423C42.9159 10.2027 43.0867 10.2027 43.2518 10.1884L45.8962 13.9856L48.478 13.9799ZM45.0195 3.71557C45.2899 3.95003 45.5032 4.24326 45.6428 4.57284C45.7824 4.90242 45.8448 5.25959 45.825 5.61699C45.8442 5.97557 45.7816 6.33381 45.642 6.66468C45.5025 6.99554 45.2896 7.29037 45.0195 7.52696C44.4825 7.98619 43.6817 8.2149 42.6171 8.213H39.7991V3.03807H42.6171C43.6817 3.03807 44.4815 3.26583 45.0195 3.71557Z" fill="#262626"/>
<path d="M34.8636 1H32.4526V13.9884H34.8636V1Z" fill="#262626"/>
<path d="M7.94164 10.4901C9.06444 10.4886 10.1626 10.819 11.0981 11.4399C12.0336 12.0609 12.7645 12.9446 13.1991 13.9799H15.8833L9.48727 1H6.39885L0 13.9799H2.68706C3.12139 12.9451 3.85192 12.0616 4.78683 11.4407C5.72174 10.8198 6.81933 10.4891 7.94164 10.4901ZM7.94164 3.3113L10.5035 8.49762C9.67715 8.22367 8.81218 8.08426 7.94164 8.08483C7.0711 8.08426 6.20613 8.22367 5.37982 8.49762L7.94164 3.3113Z" fill="#262626"/>
<path d="M56.0583 10.4901C57.1807 10.4891 58.2782 10.8198 59.2132 11.4407C60.1481 12.0616 60.8786 12.9451 61.3129 13.9799H64L57.6011 1H54.5127L48.1167 13.9799H50.8009C51.2354 12.9446 51.9664 12.0609 52.9019 11.4399C53.8374 10.819 54.9355 10.4886 56.0583 10.4901ZM56.0583 3.3113L58.6202 8.49762C57.7939 8.22367 56.9289 8.08426 56.0583 8.08483C55.1878 8.08426 54.3228 8.22367 53.4965 8.49762L56.0583 3.3113Z" fill="#262626"/>
</svg>
